999
CD - A 2D Graphics Library, version 5.10
0
SECTION
2
HEADER
9
$ACADVER
1
AC1006
9
$LIMCHECK
70
1
9
$LIMMIN
10
0.000000
20
0.000000
9
$LIMMAX
10
14617.000000
20
7759.000000
9
$EXTMIN
10
0.000000
20
0.000000
9
$EXTMAX
10
14617.000000
20
7759.000000
9
$CLAYER
8
0
9
$LUNITS
70
2
9
$LUPREC
70
2
9
$AUNITS
70
0
9
$AUPREC
70
2
9
$TEXTSTYLE
7
STANDARD
0
ENDSEC
0
SECTION
2
TABLES
0
TABLE
2
LTYPE
70
11
0
LTYPE
2
BYBLOCK
70
0
3

72
65
73
0
40
0
0
LTYPE
2
BYLAYER
70
0
3

72
65
73
0
40
0
0
LTYPE
2
CONTINUOUS
70
0
3
Solid line
72
65
73
0
40
0
0
LTYPE
2
DASHED
70
0
3
Dashed line
72
65
73
2
40
15
49
10
49
-5
0
LTYPE
2
HIDDEN
70
0
3
Hidden line
72
65
73
2
40
10
49
5
49
-5
0
LTYPE
2
CENTER
70
0
3
Center line
72
65
73
4
40
35
49
20
49
-5
49
5
49
-5
0
LTYPE
2
PHANTOM
70
0
3
Phantom line
72
65
73
6
40
50
49
25
49
-5
49
5
49
-5
49
5
49
-5
0
LTYPE
2
DOT
70
0
3
Dot line
72
65
73
2
40
5
49
0
49
-5
0
LTYPE
2
DASHDOT
70
0
3
Dashdot line
72
65
73
4
40
20
49
10
49
-5
49
0
49
-5
0
LTYPE
2
BORDER
70
0
3
Border line
72
65
73
6
40
35
49
10
49
-5
49
10
49
-5
49
0
49
-5
0
LTYPE
2
DIVIDE
70
0
3
Divide Line
72
65
73
6
40
25
49
10
49
-5
49
0
49
-5
49
0
49
-5
0
ENDTAB
0
TABLE
2
STYLE
70
6
0
STYLE
2
ROMAN
70
0
3
romanc.shx
71
0
40
0
41
1
42
0
4

50
0
0
STYLE
2
ROMAN_BOLD
70
0
3
romant.shx
71
0
40
0
41
1
42
0
4

50
0
0
STYLE
2
ROMANTIC
70
0
3
rom_____.pfb
71
0
40
0
41
1
42
0
4

50
0
0
STYLE
2
ROMANTIC_BOLD
70
0
3
romb____.pfb
71
0
40
0
41
1
42
0
4

50
0
0
STYLE
2
SANSSERIF
70
0
3
sas_____.pfb
71
0
40
0
41
1
42
0
4

50
0
0
STYLE
2
SANSSERIF_BOLD
70
0
3
sasb____.pfb
71
0
40
0
41
1
42
0
4

50
0
0
ENDTAB
0
ENDSEC
0
SECTION
2
BLOCKS
0
ENDSEC
0
SECTION
2
ENTITIES
0
POLYLINE
8
0
62
56
6
CONTINUOUS
70
0
66
1
40
4.000000
41
4.000000
10
0
20
0
30
0
0
VERTEX
8
0
10
2546.727462
20
3879.444635
0
VERTEX
8
0
10
1218.000242
20
3879.444635
0
SEQEND
0
POLYLINE
8
0
62
170
6
CONTINUOUS
70
0
66
1
40
4.000000
41
4.000000
10
0
20
0
30
0
0
VERTEX
8
0
10
2546.727462
20
4075.145855
0
VERTEX
8
0
10
2521.657137
20
4067.830573
0
VERTEX
8
0
10
2496.586812
20
4060.654629
0
VERTEX
8
0
10
2471.516487
20
4053.618024
0
VERTEX
8
0
10
2446.446162
20
4046.720758
0
VERTEX
8
0
10
2421.375837
20
4039.962830
0
VERTEX
8
0
10
2396.305512
20
4033.344242
0
VERTEX
8
0
10
2371.235188
20
4026.864992
0
VERTEX
8
0
10
2346.164863
20
4020.525080
0
VERTEX
8
0
10
2321.094538
20
4014.324508
0
VERTEX
8
0
10
2296.024213
20
4008.263274
0
VERTEX
8
0
10
2270.953888
20
4002.341378
0
VERTEX
8
0
10
2245.883563
20
3996.558822
0
VERTEX
8
0
10
2220.813238
20
3990.915604
0
VERTEX
8
0
10
2195.742913
20
3985.411725
0
VERTEX
8
0
10
2170.672588
20
3980.047185
0
VERTEX
8
0
10
2145.602263
20
3974.821983
0
VERTEX
8
0
10
2120.531939
20
3969.736120
0
VERTEX
8
0
10
2095.461614
20
3964.789596
0
VERTEX
8
0
10
2070.391289
20
3959.982410
0
VERTEX
8
0
10
2045.320964
20
3955.314563
0
VERTEX
8
0
10
2020.250639
20
3950.786055
0
VERTEX
8
0
10
1995.180314
20
3946.396886
0
VERTEX
8
0
10
1970.109989
20
3942.147055
0
VERTEX
8
0
10
1945.039664
20
3938.036563
0
VERTEX
8
0
10
1919.969339
20
3934.065410
0
VERTEX
8
0
10
1894.899014
20
3930.233595
0
VERTEX
8
0
10
1869.828690
20
3926.541119
0
VERTEX
8
0
10
1844.758365
20
3922.987982
0
VERTEX
8
0
10
1819.688040
20
3919.574184
0
VERTEX
8
0
10
1794.617715
20
3916.299724
0
VERTEX
8
0
10
1769.547390
20
3913.164603
0
VERTEX
8
0
10
1744.477065
20
3910.168821
0
VERTEX
8
0
10
1719.406740
20
3907.312377
0
VERTEX
8
0
10
1694.336415
20
3904.595272
0
VERTEX
8
0
10
1669.266090
20
3902.017506
0
VERTEX
8
0
10
1644.195765
20
3899.579079
0
VERTEX
8
0
10
1619.125440
20
3897.279990
0
VERTEX
8
0
10
1594.055116
20
3895.120240
0
VERTEX
8
0
10
1568.984791
20
3893.099829
0
VERTEX
8
0
10
1543.914466
20
3891.218756
0
VERTEX
8
0
10
1518.844141
20
3889.477022
0
VERTEX
8
0
10
1493.773816
20
3887.874627
0
VERTEX
8
0
10
1468.703491
20
3886.411570
0
VERTEX
8
0
10
1443.633166
20
3885.087853
0
VERTEX
8
0
10
1418.562841
20
3883.903474
0
VERTEX
8
0
10
1393.492516
20
3882.858433
0
VERTEX
8
0
10
1368.422191
20
3881.952732
0
VERTEX
8
0
10
1343.351867
20
3881.186369
0
VERTEX
8
0
10
1318.281542
20
3880.559345
0
VERTEX
8
0
10
1293.211217
20
3880.071659
0
VERTEX
8
0
10
1268.140892
20
3879.723312
0
VERTEX
8
0
10
1243.070567
20
3879.514304
0
VERTEX
8
0
10
1218.000242
20
3879.444635
0
SEQEND
0
POLYLINE
8
0
62
170
6
CONTINUOUS
70
0
66
1
40
4.000000
41
4.000000
10
0
20
0
30
0
0
VERTEX
8
0
10
1218.000242
20
3879.444635
0
VERTEX
8
0
10
1218.000242
20
3879.444635
0
SEQEND
0
POLYLINE
8
0
62
56
6
CONTINUOUS
70
0
66
1
40
4.000000
41
4.000000
10
0
20
0
30
0
0
VERTEX
8
0
10
7972.363610
20
3879.444635
0
VERTEX
8
0
10
13397.999758
20
3879.444635
0
SEQEND
0
POLYLINE
8
0
62
170
6
CONTINUOUS
70
0
66
1
40
4.000000
41
4.000000
10
0
20
0
30
0
0
VERTEX
8
0
10
7972.363610
20
5097.476365
0
VERTEX
8
0
10
7997.717050
20
5075.264937
0
VERTEX
8
0
10
8023.070490
20
5053.208623
0
VERTEX
8
0
10
8048.423930
20
5031.307424
0
VERTEX
8
0
10
8073.777370
20
5009.561339
0
VERTEX
8
0
10
8099.130810
20
4987.970368
0
VERTEX
8
0
10
8124.484250
20
4966.534512
0
VERTEX
8
0
10
8149.837690
20
4945.253771
0
VERTEX
8
0
10
8175.191130
20
4924.128144
0
VERTEX
8
0
10
8200.544569
20
4903.157631
0
VERTEX
8
0
10
8225.898009
20
4882.342233
0
VERTEX
8
0
10
8251.251449
20
4861.681950
0
VERTEX
8
0
10
8276.604889
20
4841.176781
0
VERTEX
8
0
10
8301.958329
20
4820.826726
0
VERTEX
8
0
10
8327.311769
20
4800.631786
0
VERTEX
8
0
10
8352.665209
20
4780.591960
0
VERTEX
8
0
10
8378.018649
20
4760.707249
0
VERTEX
8
0
10
8403.372089
20
4740.977652
0
VERTEX
8
0
10
8428.725529
20
4721.403170
0
VERTEX
8
0
10
8454.078969
20
4701.983802
0
VERTEX
8
0
10
8479.432409
20
4682.719549
0
VERTEX
8
0
10
8504.785849
20
4663.610410
0
VERTEX
8
0
10
8530.139289
20
4644.656385
0
VERTEX
8
0
10
8555.492729
20
4625.857475
0
VERTEX
8
0
10
8580.846169
20
4607.213680
0
VERTEX
8
0
10
8606.199609
20
4588.724999
0
VERTEX
8
0
10
8631.553049
20
4570.391432
0
VERTEX
8
0
10
8656.906488
20
4552.212980
0
VERTEX
8
0
10
8682.259928
20
4534.189643
0
VERTEX
8
0
10
8707.613368
20
4516.321420
0
VERTEX
8
0
10
8732.966808
20
4498.608311
0
VERTEX
8
0
10
8758.320248
20
4481.050317
0
VERTEX
8
0
10
8783.673688
20
4463.647437
0
VERTEX
8
0
10
8809.027128
20
4446.399672
0
VERTEX
8
0
10
8834.380568
20
4429.307021
0
VERTEX
8
0
10
8859.734008
20
4412.369485
0
VERTEX
8
0
10
8885.087448
20
4395.587063
0
VERTEX
8
0
10
8910.440888
20
4378.959756
0
VERTEX
8
0
10
8935.794328
20
4362.487563
0
VERTEX
8
0
10
8961.147768
20
4346.170485
0
VERTEX
8
0
10
8986.501208
20
4330.008521
0
VERTEX
8
0
10
9011.854648
20
4314.001671
0
VERTEX
8
0
10
9037.208088
20
4298.149936
0
VERTEX
8
0
10
9062.561528
20
4282.453316
0
VERTEX
8
0
10
9087.914968
20
4266.911810
0
VERTEX
8
0
10
9113.268407
20
4251.525418
0
VERTEX
8
0
10
9138.621847
20
4236.294141
0
VERTEX
8
0
10
9163.975287
20
4221.217979
0
VERTEX
8
0
10
9189.328727
20
4206.296931
0
VERTEX
8
0
10
9214.682167
20
4191.530997
0
VERTEX
8
0
10
9240.035607
20
4176.920178
0
VERTEX
8
0
10
9265.389047
20
4162.464473
0
VERTEX
8
0
10
9290.742487
20
4148.163883
0
VERTEX
8
0
10
9316.095927
20
4134.018407
0
VERTEX
8
0
10
9341.449367
20
4120.028046
0
VERTEX
8
0
10
9366.802807
20
4106.192799
0
VERTEX
8
0
10
9392.156247
20
4092.512667
0
VERTEX
8
0
10
9417.509687
20
4078.987649
0
VERTEX
8
0
10
9442.863127
20
4065.617745
0
VERTEX
8
0
10
9468.216567
20
4052.402956
0
VERTEX
8
0
10
9493.570007
20
4039.343282
0
VERTEX
8
0
10
9518.923447
20
4026.438722
0
VERTEX
8
0
10
9544.276886
20
4013.689276
0
VERTEX
8
0
10
9569.630326
20
4001.094945
0
VERTEX
8
0
10
9594.983766
20
3988.655729
0
VERTEX
8
0
10
9620.337206
20
3976.371627
0
VERTEX
8
0
10
9645.690646
20
3964.242639
0
VERTEX
8
0
10
9671.044086
20
3952.268766
0
VERTEX
8
0
10
9696.397526
20
3940.450007
0
VERTEX
8
0
10
9721.750966
20
3928.786363
0
VERTEX
8
0
10
9747.104406
20
3917.277833
0
VERTEX
8
0
10
9772.457846
20
3905.924418
0
VERTEX
8
0
10
9797.811286
20
3894.726117
0
VERTEX
8
0
10
9823.164726
20
3883.682931
0
VERTEX
8
0
10
9848.518166
20
3872.794859
0
VERTEX
8
0
10
9873.871606
20
3862.061901
0
VERTEX
8
0
10
9899.225046
20
3851.484059
0
VERTEX
8
0
10
9924.578486
20
3841.061330
0
VERTEX
8
0
10
9949.931926
20
3830.793716
0
VERTEX
8
0
10
9975.285366
20
3820.681217
0
VERTEX
8
0
10
10000.638805
20
3810.723832
0
VERTEX
8
0
10
10025.992245
20
3800.921561
0
VERTEX
8
0
10
10051.345685
20
3791.274405
0
VERTEX
8
0
10
10076.699125
20
3781.782363
0
VERTEX
8
0
10
10102.052565
20
3772.445436
0
VERTEX
8
0
10
10127.406005
20
3763.263624
0
VERTEX
8
0
10
10152.759445
20
3754.236925
0
VERTEX
8
0
10
10178.112885
20
3745.365342
0
VERTEX
8
0
10
10203.466325
20
3736.648872
0
VERTEX
8
0
10
10228.819765
20
3728.087518
0
VERTEX
8
0
10
10254.173205
20
3719.681277
0
VERTEX
8
0
10
10279.526645
20
3711.430151
0
VERTEX
8
0
10
10304.880085
20
3703.334140
0
VERTEX
8
0
10
10330.233525
20
3695.393243
0
VERTEX
8
0
10
10355.586965
20
3687.607461
0
VERTEX
8
0
10
10380.940405
20
3679.976793
0
VERTEX
8
0
10
10406.293845
20
3672.501239
0
VERTEX
8
0
10
10431.647285
20
3665.180800
0
VERTEX
8
0
10
10457.000724
20
3658.015476
0
VERTEX
8
0
10
10482.354164
20
3651.005266
0
VERTEX
8
0
10
10507.707604
20
3644.150170
0
VERTEX
8
0
10
10533.061044
20
3637.450189
0
VERTEX
8
0
10
10558.414484
20
3630.905322
0
VERTEX
8
0
10
10583.767924
20
3624.515570
0
VERTEX
8
0
10
10609.121364
20
3618.280932
0
VERTEX
8
0
10
10634.474804
20
3612.201409
0
VERTEX
8
0
10
10659.828244
20
3606.277000
0
VERTEX
8
0
10
10685.181684
20
3600.507706
0
VERTEX
8
0
10
10710.535124
20
3594.893526
0
VERTEX
8
0
10
10735.888564
20
3589.434461
0
VERTEX
8
0
10
10761.242004
20
3584.130510
0
VERTEX
8
0
10
10786.595444
20
3578.981674
0
VERTEX
8
0
10
10811.948884
20
3573.987952
0
VERTEX
8
0
10
10837.302324
20
3569.149344
0
VERTEX
8
0
10
10862.655764
20
3564.465851
0
VERTEX
8
0
10
10888.009204
20
3559.937473
0
VERTEX
8
0
10
10913.362643
20
3555.564209
0
VERTEX
8
0
10
10938.716083
20
3551.346059
0
VERTEX
8
0
10
10964.069523
20
3547.283024
0
VERTEX
8
0
10
10989.422963
20
3543.375103
0
VERTEX
8
0
10
11014.776403
20
3539.622297
0
VERTEX
8
0
10
11040.129843
20
3536.024606
0
VERTEX
8
0
10
11065.483283
20
3532.582028
0
VERTEX
8
0
10
11090.836723
20
3529.294566
0
VERTEX
8
0
10
11116.190163
20
3526.162217
0
VERTEX
8
0
10
11141.543603
20
3523.184984
0
VERTEX
8
0
10
11166.897043
20
3520.362864
0
VERTEX
8
0
10
11192.250483
20
3517.695859
0
VERTEX
8
0
10
11217.603923
20
3515.183969
0
VERTEX
8
0
10
11242.957363
20
3512.827193
0
VERTEX
8
0
10
11268.310803
20
3510.625532
0
VERTEX
8
0
10
11293.664243
20
3508.578985
0
VERTEX
8
0
10
11319.017683
20
3506.687552
0
VERTEX
8
0
10
11344.371123
20
3504.951234
0
VERTEX
8
0
10
11369.724562
20
3503.370031
0
VERTEX
8
0
10
11395.078002
20
3501.943941
0
VERTEX
8
0
10
11420.431442
20
3500.672967
0
VERTEX
8
0
10
11445.784882
20
3499.557107
0
VERTEX
8
0
10
11471.138322
20
3498.596361
0
VERTEX
8
0
10
11496.491762
20
3497.790730
0
VERTEX
8
0
10
11521.845202
20
3497.140213
0
VERTEX
8
0
10
11547.198642
20
3496.644811
0
VERTEX
8
0
10
11572.552082
20
3496.304523
0
VERTEX
8
0
10
11597.905522
20
3496.119350
0
VERTEX
8
0
10
11623.258962
20
3496.089291
0
VERTEX
8
0
10
11648.612402
20
3496.214347
0
VERTEX
8
0
10
11673.965842
20
3496.494517
0
VERTEX
8
0
10
11699.319282
20
3496.929801
0
VERTEX
8
0
10
11724.672722
20
3497.520200
0
VERTEX
8
0
10
11750.026162
20
3498.265714
0
VERTEX
8
0
10
11775.379602
20
3499.166342
0
VERTEX
8
0
10
11800.733042
20
3500.222084
0
VERTEX
8
0
10
11826.086481
20
3501.432941
0
VERTEX
8
0
10
11851.439921
20
3502.798913
0
VERTEX
8
0
10
11876.793361
20
3504.319999
0
VERTEX
8
0
10
11902.146801
20
3505.996199
0
VERTEX
8
0
10
11927.500241
20
3507.827514
0
VERTEX
8
0
10
11952.853681
20
3509.813943
0
VERTEX
8
0
10
11978.207121
20
3511.955487
0
VERTEX
8
0
10
12003.560561
20
3514.252145
0
VERTEX
8
0
10
12028.914001
20
3516.703918
0
VERTEX
8
0
10
12054.267441
20
3519.310805
0
VERTEX
8
0
10
12079.620881
20
3522.072807
0
VERTEX
8
0
10
12104.974321
20
3524.989923
0
VERTEX
8
0
10
12130.327761
20
3528.062153
0
VERTEX
8
0
10
12155.681201
20
3531.289498
0
VERTEX
8
0
10
12181.034641
20
3534.671958
0
VERTEX
8
0
10
12206.388081
20
3538.209532
0
VERTEX
8
0
10
12231.741521
20
3541.902220
0
VERTEX
8
0
10
12257.094961
20
3545.750023
0
VERTEX
8
0
10
12282.448400
20
3549.752941
0
VERTEX
8
0
10
12307.801840
20
3553.910973
0
VERTEX
8
0
10
12333.155280
20
3558.224119
0
VERTEX
8
0
10
12358.508720
20
3562.692380
0
VERTEX
8
0
10
12383.862160
20
3567.315755
0
VERTEX
8
0
10
12409.215600
20
3572.094245
0
VERTEX
8
0
10
12434.569040
20
3577.027849
0
VERTEX
8
0
10
12459.922480
20
3582.116568
0
VERTEX
8
0
10
12485.275920
20
3587.360401
0
VERTEX
8
0
10
12510.629360
20
3592.759349
0
VERTEX
8
0
10
12535.982800
20
3598.313411
0
VERTEX
8
0
10
12561.336240
20
3604.022588
0
VERTEX
8
0
10
12586.689680
20
3609.886879
0
VERTEX
8
0
10
12612.043120
20
3615.906284
0
VERTEX
8
0
10
12637.396560
20
3622.080804
0
VERTEX
8
0
10
12662.750000
20
3628.410439
0
VERTEX
8
0
10
12688.103440
20
3634.895188
0
VERTEX
8
0
10
12713.456880
20
3641.535051
0
VERTEX
8
0
10
12738.810319
20
3648.330029
0
VERTEX
8
0
10
12764.163759
20
3655.280122
0
VERTEX
8
0
10
12789.517199
20
3662.385329
0
VERTEX
8
0
10
12814.870639
20
3669.645650
0
VERTEX
8
0
10
12840.224079
20
3677.061086
0
VERTEX
8
0
10
12865.577519
20
3684.631636
0
VERTEX
8
0
10
12890.930959
20
3692.357301
0
VERTEX
8
0
10
12916.284399
20
3700.238080
0
VERTEX
8
0
10
12941.637839
20
3708.273974
0
VERTEX
8
0
10
12966.991279
20
3716.464982
0
VERTEX
8
0
10
12992.344719
20
3724.811104
0
VERTEX
8
0
10
13017.698159
20
3733.312342
0
VERTEX
8
0
10
13043.051599
20
3741.968693
0
VERTEX
8
0
10
13068.405039
20
3750.780159
0
VERTEX
8
0
10
13093.758479
20
3759.746740
0
VERTEX
8
0
10
13119.111919
20
3768.868435
0
VERTEX
8
0
10
13144.465359
20
3778.145244
0
VERTEX
8
0
10
13169.818799
20
3787.577168
0
VERTEX
8
0
10
13195.172238
20
3797.164207
0
VERTEX
8
0
10
13220.525678
20
3806.906359
0
VERTEX
8
0
10
13245.879118
20
3816.803627
0
VERTEX
8
0
10
13271.232558
20
3826.856009
0
VERTEX
8
0
10
13296.585998
20
3837.063505
0
VERTEX
8
0
10
13321.939438
20
3847.426116
0
VERTEX
8
0
10
13347.292878
20
3857.943841
0
VERTEX
8
0
10
13372.646318
20
3868.616681
0
VERTEX
8
0
10
13397.999758
20
3879.444635
0
SEQEND
0
POLYLINE
8
0
62
170
6
CONTINUOUS
70
0
66
1
40
4.000000
41
4.000000
10
0
20
0
30
0
0
VERTEX
8
0
10
13397.999758
20
3879.444635
0
VERTEX
8
0
10
13397.999758
20
3879.444635
0
SEQEND
0
POLYLINE
8
0
62
170
6
CONTINUOUS
70
0
66
1
40
4.000000
41
4.000000
10
0
20
0
30
0
0
VERTEX
8
0
10
11615.495355
20
3879.444635
0
VERTEX
8
0
10
11615.495355
20
3496.082019
0
SEQEND
0
POLYLINE
8
0
62
10
6
CONTINUOUS
70
0
66
1
40
4.000000
41
4.000000
10
0
20
0
30
0
0
VERTEX
8
0
10
11544.576638
20
3449.747248
0
VERTEX
8
0
10
11530.392894
20
3445.019210
0
VERTEX
8
0
10
11525.664980
20
3435.563135
0
VERTEX
8
0
10
11525.664980
20
3426.107059
0
VERTEX
8
0
10
11530.392894
20
3416.650983
0
VERTEX
8
0
10
11539.848723
20
3411.922945
0
VERTEX
8
0
10
11558.760381
20
3407.194908
0
VERTEX
8
0
10
11572.944124
20
3402.466870
0
VERTEX
8
0
10
11582.399953
20
3393.010794
0
VERTEX
8
0
10
11587.127868
20
3383.554719
0
VERTEX
8
0
10
11587.127868
20
3369.370605
0
VERTEX
8
0
10
11582.399953
20
3359.914529
0
VERTEX
8
0
10
11577.672039
20
3355.186492
0
VERTEX
8
0
10
11563.488296
20
3350.458454
0
VERTEX
8
0
10
11544.576638
20
3350.458454
0
VERTEX
8
0
10
11530.392894
20
3355.186492
0
VERTEX
8
0
10
11525.664980
20
3359.914529
0
VERTEX
8
0
10
11520.937065
20
3369.370605
0
VERTEX
8
0
10
11520.937065
20
3383.554719
0
VERTEX
8
0
10
11525.664980
20
3393.010794
0
VERTEX
8
0
10
11535.120809
20
3402.466870
0
VERTEX
8
0
10
11549.304552
20
3407.194908
0
VERTEX
8
0
10
11568.216210
20
3411.922945
0
VERTEX
8
0
10
11577.672039
20
3416.650983
0
VERTEX
8
0
10
11582.399953
20
3426.107059
0
VERTEX
8
0
10
11582.399953
20
3435.563135
0
VERTEX
8
0
10
11577.672039
20
3445.019210
0
VERTEX
8
0
10
11563.488296
20
3449.747248
0
VERTEX
8
0
10
11544.576638
20
3449.747248
0
SEQEND
0
POLYLINE
8
0
62
10
6
CONTINUOUS
70
0
66
1
40
4.000000
41
4.000000
10
0
20
0
30
0
0
VERTEX
8
0
10
11606.039526
20
3359.914529
0
VERTEX
8
0
10
11601.311611
20
3355.186492
0
VERTEX
8
0
10
11606.039526
20
3350.458454
0
VERTEX
8
0
10
11610.767440
20
3355.186492
0
VERTEX
8
0
10
11606.039526
20
3359.914529
0
SEQEND
0
POLYLINE
8
0
62
10
6
CONTINUOUS
70
0
66
1
40
4.000000
41
4.000000
10
0
20
0
30
0
0
VERTEX
8
0
10
11658.046585
20
3449.747248
0
VERTEX
8
0
10
11643.862841
20
3445.019210
0
VERTEX
8
0
10
11634.407012
20
3430.835097
0
VERTEX
8
0
10
11629.679098
20
3407.194908
0
VERTEX
8
0
10
11629.679098
20
3393.010794
0
VERTEX
8
0
10
11634.407012
20
3369.370605
0
VERTEX
8
0
10
11643.862841
20
3355.186492
0
VERTEX
8
0
10
11658.046585
20
3350.458454
0
VERTEX
8
0
10
11667.502414
20
3350.458454
0
VERTEX
8
0
10
11681.686157
20
3355.186492
0
VERTEX
8
0
10
11691.141986
20
3369.370605
0
VERTEX
8
0
10
11695.869901
20
3393.010794
0
VERTEX
8
0
10
11695.869901
20
3407.194908
0
VERTEX
8
0
10
11691.141986
20
3430.835097
0
VERTEX
8
0
10
11681.686157
20
3445.019210
0
VERTEX
8
0
10
11667.502414
20
3449.747248
0
VERTEX
8
0
10
11658.046585
20
3449.747248
0
SEQEND
0
POLYLINE
8
0
62
56
6
CONTINUOUS
70
0
66
1
40
4.000000
41
4.000000
10
0
20
0
30
0
0
VERTEX
8
0
10
2546.727462
20
3879.444635
0
VERTEX
8
0
10
7972.363610
20
3879.444635
0
SEQEND
0
POLYLINE
8
0
62
170
6
CONTINUOUS
70
0
66
1
40
4.000000
41
4.000000
10
0
20
0
30
0
0
VERTEX
8
0
10
2546.727462
20
4075.145855
0
VERTEX
8
0
10
2572.080902
20
4049.301234
0
VERTEX
8
0
10
2597.434342
20
4023.744142
0
VERTEX
8
0
10
2622.787782
20
3998.474579
0
VERTEX
8
0
10
2648.141222
20
3973.492545
0
VERTEX
8
0
10
2673.494662
20
3948.798041
0
VERTEX
8
0
10
2698.848102
20
3924.391066
0
VERTEX
8
0
10
2724.201542
20
3900.271620
0
VERTEX
8
0
10
2749.554981
20
3876.439704
0
VERTEX
8
0
10
2774.908421
20
3852.895317
0
VERTEX
8
0
10
2800.261861
20
3829.638459
0
VERTEX
8
0
10
2825.615301
20
3806.669130
0
VERTEX
8
0
10
2850.968741
20
3783.987331
0
VERTEX
8
0
10
2876.322181
20
3761.593060
0
VERTEX
8
0
10
2901.675621
20
3739.486320
0
VERTEX
8
0
10
2927.029061
20
3717.667108
0
VERTEX
8
0
10
2952.382501
20
3696.135426
0
VERTEX
8
0
10
2977.735941
20
3674.891273
0
VERTEX
8
0
10
3003.089381
20
3653.934649
0
VERTEX
8
0
10
3028.442821
20
3633.265554
0
VERTEX
8
0
10
3053.796261
20
3612.883989
0
VERTEX
8
0
10
3079.149701
20
3592.789953
0
VERTEX
8
0
10
3104.503141
20
3572.983446
0
VERTEX
8
0
10
3129.856581
20
3553.464469
0
VERTEX
8
0
10
3155.210021
20
3534.233020
0
VERTEX
8
0
10
3180.563461
20
3515.289101
0
VERTEX
8
0
10
3205.916900
20
3496.632712
0
VERTEX
8
0
10
3231.270340
20
3478.263851
0
VERTEX
8
0
10
3256.623780
20
3460.182520
0
VERTEX
8
0
10
3281.977220
20
3442.388718
0
VERTEX
8
0
10
3307.330660
20
3424.882445
0
VERTEX
8
0
10
3332.684100
20
3407.663702
0
VERTEX
8
0
10
3358.037540
20
3390.732488
0
VERTEX
8
0
10
3383.390980
20
3374.088803
0
VERTEX
8
0
10
3408.744420
20
3357.732647
0
VERTEX
8
0
10
3434.097860
20
3341.664021
0
VERTEX
8
0
10
3459.451300
20
3325.882924
0
VERTEX
8
0
10
3484.804740
20
3310.389356
0
VERTEX
8
0
10
3510.158180
20
3295.183318
0
VERTEX
8
0
10
3535.511620
20
3280.264808
0
VERTEX
8
0
10
3560.865060
20
3265.633828
0
VERTEX
8
0
10
3586.218500
20
3251.290378
0
VERTEX
8
0
10
3611.571940
20
3237.234456
0
VERTEX
8
0
10
3636.925380
20
3223.466064
0
VERTEX
8
0
10
3662.278819
20
3209.985201
0
VERTEX
8
0
10
3687.632259
20
3196.791867
0
VERTEX
8
0
10
3712.985699
20
3183.886063
0
VERTEX
8
0
10
3738.339139
20
3171.267788
0
VERTEX
8
0
10
3763.692579
20
3158.937042
0
VERTEX
8
0
10
3789.046019
20
3146.893825
0
VERTEX
8
0
10
3814.399459
20
3135.138138
0
VERTEX
8
0
10
3839.752899
20
3123.669980
0
VERTEX
8
0
10
3865.106339
20
3112.489351
0
VERTEX
8
0
10
3890.459779
20
3101.596252
0
VERTEX
8
0
10
3915.813219
20
3090.990681
0
VERTEX
8
0
10
3941.166659
20
3080.672640
0
VERTEX
8
0
10
3966.520099
20
3070.642128
0
VERTEX
8
0
10
3991.873539
20
3060.899146
0
VERTEX
8
0
10
4017.226979
20
3051.443693
0
VERTEX
8
0
10
4042.580419
20
3042.275769
0
VERTEX
8
0
10
4067.933859
20
3033.395374
0
VERTEX
8
0
10
4093.287299
20
3024.802509
0
VERTEX
8
0
10
4118.640738
20
3016.497172
0
VERTEX
8
0
10
4143.994178
20
3008.479366
0
VERTEX
8
0
10
4169.347618
20
3000.749088
0
VERTEX
8
0
10
4194.701058
20
2993.306340
0
VERTEX
8
0
10
4220.054498
20
2986.151120
0
VERTEX
8
0
10
4245.407938
20
2979.283431
0
VERTEX
8
0
10
4270.761378
20
2972.703270
0
VERTEX
8
0
10
4296.114818
20
2966.410639
0
VERTEX
8
0
10
4321.468258
20
2960.405537
0
VERTEX
8
0
10
4346.821698
20
2954.687964
0
VERTEX
8
0
10
4372.175138
20
2949.257920
0
VERTEX
8
0
10
4397.528578
20
2944.115406
0
VERTEX
8
0
10
4422.882018
20
2939.260421
0
VERTEX
8
0
10
4448.235458
20
2934.692965
0
VERTEX
8
0
10
4473.588898
20
2930.413039
0
VERTEX
8
0
10
4498.942338
20
2926.420642
0
VERTEX
8
0
10
4524.295778
20
2922.715774
0
VERTEX
8
0
10
4549.649218
20
2919.298435
0
VERTEX
8
0
10
4575.002657
20
2916.168626
0
VERTEX
8
0
10
4600.356097
20
2913.326345
0
VERTEX
8
0
10
4625.709537
20
2910.771595
0
VERTEX
8
0
10
4651.062977
20
2908.504373
0
VERTEX
8
0
10
4676.416417
20
2906.524681
0
VERTEX
8
0
10
4701.769857
20
2904.832517
0
VERTEX
8
0
10
4727.123297
20
2903.427884
0
VERTEX
8
0
10
4752.476737
20
2902.310779
0
VERTEX
8
0
10
4777.830177
20
2901.481204
0
VERTEX
8
0
10
4803.183617
20
2900.939158
0
VERTEX
8
0
10
4828.537057
20
2900.684641
0
VERTEX
8
0
10
4853.890497
20
2900.717654
0
VERTEX
8
0
10
4879.243937
20
2901.038195
0
VERTEX
8
0
10
4904.597377
20
2901.646266
0
VERTEX
8
0
10
4929.950817
20
2902.541867
0
VERTEX
8
0
10
4955.304257
20
2903.724996
0
VERTEX
8
0
10
4980.657697
20
2905.195655
0
VERTEX
8
0
10
5006.011137
20
2906.953843
0
VERTEX
8
0
10
5031.364576
20
2908.999560
0
VERTEX
8
0
10
5056.718016
20
2911.332807
0
VERTEX
8
0
10
5082.071456
20
2913.953583
0
VERTEX
8
0
10
5107.424896
20
2916.861888
0
VERTEX
8
0
10
5132.778336
20
2920.057723
0
VERTEX
8
0
10
5158.131776
20
2923.541086
0
VERTEX
8
0
10
5183.485216
20
2927.311979
0
VERTEX
8
0
10
5208.838656
20
2931.370401
0
VERTEX
8
0
10
5234.192096
20
2935.716353
0
VERTEX
8
0
10
5259.545536
20
2940.349834
0
VERTEX
8
0
10
5284.898976
20
2945.270844
0
VERTEX
8
0
10
5310.252416
20
2950.479383
0
VERTEX
8
0
10
5335.605856
20
2955.975451
0
VERTEX
8
0
10
5360.959296
20
2961.759049
0
VERTEX
8
0
10
5386.312736
20
2967.830176
0
VERTEX
8
0
10
5411.666176
20
2974.188833
0
VERTEX
8
0
10
5437.019616
20
2980.835018
0
VERTEX
8
0
10
5462.373055
20
2987.768733
0
VERTEX
8
0
10
5487.726495
20
2994.989977
0
VERTEX
8
0
10
5513.079935
20
3002.498751
0
VERTEX
8
0
10
5538.433375
20
3010.295053
0
VERTEX
8
0
10
5563.786815
20
3018.378885
0
VERTEX
8
0
10
5589.140255
20
3026.750246
0
VERTEX
8
0
10
5614.493695
20
3035.409137
0
VERTEX
8
0
10
5639.847135
20
3044.355557
0
VERTEX
8
0
10
5665.200575
20
3053.589506
0
VERTEX
8
0
10
5690.554015
20
3063.110984
0
VERTEX
8
0
10
5715.907455
20
3072.919991
0
VERTEX
8
0
10
5741.260895
20
3083.016528
0
VERTEX
8
0
10
5766.614335
20
3093.400594
0
VERTEX
8
0
10
5791.967775
20
3104.072189
0
VERTEX
8
0
10
5817.321215
20
3115.031314
0
VERTEX
8
0
10
5842.674655
20
3126.277968
0
VERTEX
8
0
10
5868.028095
20
3137.812151
0
VERTEX
8
0
10
5893.381535
20
3149.633863
0
VERTEX
8
0
10
5918.734974
20
3161.743105
0
VERTEX
8
0
10
5944.088414
20
3174.139876
0
VERTEX
8
0
10
5969.441854
20
3186.824176
0
VERTEX
8
0
10
5994.795294
20
3199.796005
0
VERTEX
8
0
10
6020.148734
20
3213.055364
0
VERTEX
8
0
10
6045.502174
20
3226.602252
0
VERTEX
8
0
10
6070.855614
20
3240.436669
0
VERTEX
8
0
10
6096.209054
20
3254.558616
0
VERTEX
8
0
10
6121.562494
20
3268.968091
0
VERTEX
8
0
10
6146.915934
20
3283.665096
0
VERTEX
8
0
10
6172.269374
20
3298.649631
0
VERTEX
8
0
10
6197.622814
20
3313.921694
0
VERTEX
8
0
10
6222.976254
20
3329.481287
0
VERTEX
8
0
10
6248.329694
20
3345.328409
0
VERTEX
8
0
10
6273.683134
20
3361.463060
0
VERTEX
8
0
10
6299.036574
20
3377.885241
0
VERTEX
8
0
10
6324.390014
20
3394.594951
0
VERTEX
8
0
10
6349.743454
20
3411.592190
0
VERTEX
8
0
10
6375.096893
20
3428.876958
0
VERTEX
8
0
10
6400.450333
20
3446.449256
0
VERTEX
8
0
10
6425.803773
20
3464.309083
0
VERTEX
8
0
10
6451.157213
20
3482.456439
0
VERTEX
8
0
10
6476.510653
20
3500.891325
0
VERTEX
8
0
10
6501.864093
20
3519.613739
0
VERTEX
8
0
10
6527.217533
20
3538.623683
0
VERTEX
8
0
10
6552.570973
20
3557.921157
0
VERTEX
8
0
10
6577.924413
20
3577.506159
0
VERTEX
8
0
10
6603.277853
20
3597.378691
0
VERTEX
8
0
10
6628.631293
20
3617.538752
0
VERTEX
8
0
10
6653.984733
20
3637.986342
0
VERTEX
8
0
10
6679.338173
20
3658.721462
0
VERTEX
8
0
10
6704.691613
20
3679.744111
0
VERTEX
8
0
10
6730.045053
20
3701.054289
0
VERTEX
8
0
10
6755.398493
20
3722.651996
0
VERTEX
8
0
10
6780.751933
20
3744.537233
0
VERTEX
8
0
10
6806.105373
20
3766.709999
0
VERTEX
8
0
10
6831.458812
20
3789.170294
0
VERTEX
8
0
10
6856.812252
20
3811.918118
0
VERTEX
8
0
10
6882.165692
20
3834.953472
0
VERTEX
8
0
10
6907.519132
20
3858.276355
0
VERTEX
8
0
10
6932.872572
20
3881.886767
0
VERTEX
8
0
10
6958.226012
20
3905.784709
0
VERTEX
8
0
10
6983.579452
20
3929.970179
0
VERTEX
8
0
10
7008.932892
20
3954.443179
0
VERTEX
8
0
10
7034.286332
20
3979.203709
0
VERTEX
8
0
10
7059.639772
20
4004.251767
0
VERTEX
8
0
10
7084.993212
20
4029.587355
0
VERTEX
8
0
10
7110.346652
20
4055.210472
0
VERTEX
8
0
10
7135.700092
20
4081.121118
0
VERTEX
8
0
10
7161.053532
20
4107.319294
0
VERTEX
8
0
10
7186.406972
20
4133.804999
0
VERTEX
8
0
10
7211.760412
20
4160.578233
0
VERTEX
8
0
10
7237.113852
20
4187.638996
0
VERTEX
8
0
10
7262.467292
20
4214.987289
0
VERTEX
8
0
10
7287.820731
20
4242.623111
0
VERTEX
8
0
10
7313.174171
20
4270.546462
0
VERTEX
8
0
10
7338.527611
20
4298.757343
0
VERTEX
8
0
10
7363.881051
20
4327.255752
0
VERTEX
8
0
10
7389.234491
20
4356.041691
0
VERTEX
8
0
10
7414.587931
20
4385.115160
0
VERTEX
8
0
10
7439.941371
20
4414.476157
0
VERTEX
8
0
10
7465.294811
20
4444.124684
0
VERTEX
8
0
10
7490.648251
20
4474.060740
0
VERTEX
8
0
10
7516.001691
20
4504.284325
0
VERTEX
8
0
10
7541.355131
20
4534.795440
0
VERTEX
8
0
10
7566.708571
20
4565.594084
0
VERTEX
8
0
10
7592.062011
20
4596.680257
0
VERTEX
8
0
10
7617.415451
20
4628.053959
0
VERTEX
8
0
10
7642.768891
20
4659.715191
0
VERTEX
8
0
10
7668.122331
20
4691.663952
0
VERTEX
8
0
10
7693.475771
20
4723.900242
0
VERTEX
8
0
10
7718.829211
20
4756.424061
0
VERTEX
8
0
10
7744.182650
20
4789.235410
0
VERTEX
8
0
10
7769.536090
20
4822.334288
0
VERTEX
8
0
10
7794.889530
20
4855.720695
0
VERTEX
8
0
10
7820.242970
20
4889.394632
0
VERTEX
8
0
10
7845.596410
20
4923.356097
0
VERTEX
8
0
10
7870.949850
20
4957.605092
0
VERTEX
8
0
10
7896.303290
20
4992.141617
0
VERTEX
8
0
10
7921.656730
20
5026.965670
0
VERTEX
8
0
10
7947.010170
20
5062.077253
0
VERTEX
8
0
10
7972.363610
20
5097.476365
0
SEQEND
0
POLYLINE
8
0
62
170
6
CONTINUOUS
70
0
66
1
40
4.000000
41
4.000000
10
0
20
0
30
0
0
VERTEX
8
0
10
2546.727462
20
3879.444635
0
VERTEX
8
0
10
2546.727462
20
4075.145855
0
SEQEND
0
POLYLINE
8
0
62
10
6
CONTINUOUS
70
0
66
1
40
4.000000
41
4.000000
10
0
20
0
30
0
0
VERTEX
8
0
10
2506.540189
20
4220.769420
0
VERTEX
8
0
10
2459.261044
20
4154.576890
0
VERTEX
8
0
10
2530.179761
20
4154.576890
0
SEQEND
0
POLYLINE
8
0
62
10
6
CONTINUOUS
70
0
66
1
40
4.000000
41
4.000000
10
0
20
0
30
0
0
VERTEX
8
0
10
2506.540189
20
4220.769420
0
VERTEX
8
0
10
2506.540189
20
4121.480626
0
SEQEND
0
POLYLINE
8
0
62
10
6
CONTINUOUS
70
0
66
1
40
4.000000
41
4.000000
10
0
20
0
30
0
0
VERTEX
8
0
10
2544.363505
20
4130.936701
0
VERTEX
8
0
10
2539.635590
20
4126.208664
0
VERTEX
8
0
10
2544.363505
20
4121.480626
0
VERTEX
8
0
10
2549.091419
20
4126.208664
0
VERTEX
8
0
10
2544.363505
20
4130.936701
0
SEQEND
0
POLYLINE
8
0
62
10
6
CONTINUOUS
70
0
66
1
40
4.000000
41
4.000000
10
0
20
0
30
0
0
VERTEX
8
0
10
2568.003077
20
4201.857269
0
VERTEX
8
0
10
2577.458906
20
4206.585306
0
VERTEX
8
0
10
2591.642649
20
4220.769420
0
VERTEX
8
0
10
2591.642649
20
4121.480626
0
SEQEND
0
POLYLINE
8
0
62
170
6
CONTINUOUS
70
0
66
1
40
4.000000
41
4.000000
10
0
20
0
30
0
0
VERTEX
8
0
10
7972.363610
20
3879.444635
0
VERTEX
8
0
10
7972.363610
20
5097.476365
0
SEQEND
0
POLYLINE
8
0
62
10
6
CONTINUOUS
70
0
66
1
40
4.000000
41
4.000000
10
0
20
0
30
0
0
VERTEX
8
0
10
7842.345962
20
5219.459741
0
VERTEX
8
0
10
7842.345962
20
5224.187779
0
VERTEX
8
0
10
7847.073877
20
5233.643854
0
VERTEX
8
0
10
7851.801791
20
5238.371892
0
VERTEX
8
0
10
7861.257620
20
5243.099930
0
VERTEX
8
0
10
7880.169278
20
5243.099930
0
VERTEX
8
0
10
7889.625107
20
5238.371892
0
VERTEX
8
0
10
7894.353021
20
5233.643854
0
VERTEX
8
0
10
7899.080936
20
5224.187779
0
VERTEX
8
0
10
7899.080936
20
5214.731703
0
VERTEX
8
0
10
7894.353021
20
5205.275627
0
VERTEX
8
0
10
7884.897192
20
5191.091514
0
VERTEX
8
0
10
7837.618048
20
5143.811136
0
VERTEX
8
0
10
7903.808850
20
5143.811136
0
SEQEND
0
POLYLINE
8
0
62
10
6
CONTINUOUS
70
0
66
1
40
4.000000
41
4.000000
10
0
20
0
30
0
0
VERTEX
8
0
10
7974.727567
20
5243.099930
0
VERTEX
8
0
10
7927.448423
20
5243.099930
0
VERTEX
8
0
10
7922.720508
20
5200.547589
0
VERTEX
8
0
10
7927.448423
20
5205.275627
0
VERTEX
8
0
10
7941.632166
20
5210.003665
0
VERTEX
8
0
10
7955.815909
20
5210.003665
0
VERTEX
8
0
10
7969.999653
20
5205.275627
0
VERTEX
8
0
10
7979.455482
20
5195.819552
0
VERTEX
8
0
10
7984.183396
20
5181.635438
0
VERTEX
8
0
10
7984.183396
20
5172.179363
0
VERTEX
8
0
10
7979.455482
20
5157.995249
0
VERTEX
8
0
10
7969.999653
20
5148.539173
0
VERTEX
8
0
10
7955.815909
20
5143.811136
0
VERTEX
8
0
10
7941.632166
20
5143.811136
0
VERTEX
8
0
10
7927.448423
20
5148.539173
0
VERTEX
8
0
10
7922.720508
20
5153.267211
0
VERTEX
8
0
10
7917.992594
20
5162.723287
0
SEQEND
0
POLYLINE
8
0
62
10
6
CONTINUOUS
70
0
66
1
40
4.000000
41
4.000000
10
0
20
0
30
0
0
VERTEX
8
0
10
8003.095054
20
5153.267211
0
VERTEX
8
0
10
7998.367140
20
5148.539173
0
VERTEX
8
0
10
8003.095054
20
5143.811136
0
VERTEX
8
0
10
8007.822968
20
5148.539173
0
VERTEX
8
0
10
8003.095054
20
5153.267211
0
SEQEND
0
POLYLINE
8
0
62
10
6
CONTINUOUS
70
0
66
1
40
4.000000
41
4.000000
10
0
20
0
30
0
0
VERTEX
8
0
10
8036.190455
20
5243.099930
0
VERTEX
8
0
10
8088.197514
20
5243.099930
0
VERTEX
8
0
10
8059.830028
20
5205.275627
0
VERTEX
8
0
10
8074.013771
20
5205.275627
0
VERTEX
8
0
10
8083.469600
20
5200.547589
0
VERTEX
8
0
10
8088.197514
20
5195.819552
0
VERTEX
8
0
10
8092.925429
20
5181.635438
0
VERTEX
8
0
10
8092.925429
20
5172.179363
0
VERTEX
8
0
10
8088.197514
20
5157.995249
0
VERTEX
8
0
10
8078.741685
20
5148.539173
0
VERTEX
8
0
10
8064.557942
20
5143.811136
0
VERTEX
8
0
10
8050.374199
20
5143.811136
0
VERTEX
8
0
10
8036.190455
20
5148.539173
0
VERTEX
8
0
10
8031.462541
20
5153.267211
0
VERTEX
8
0
10
8026.734626
20
5162.723287
0
SEQEND
0
POLYLINE
8
0
62
170
6
CONTINUOUS
70
0
66
1
40
4.000000
41
4.000000
10
0
20
0
30
0
0
VERTEX
8
0
10
4838.302837
20
3879.444635
0
VERTEX
8
0
10
4838.302837
20
2900.663311
0
SEQEND
0
POLYLINE
8
0
62
10
6
CONTINUOUS
70
0
66
1
40
4.000000
41
4.000000
10
0
20
0
30
0
0
VERTEX
8
0
10
4708.285189
20
2830.688351
0
VERTEX
8
0
10
4708.285189
20
2835.416389
0
VERTEX
8
0
10
4713.013103
20
2844.872465
0
VERTEX
8
0
10
4717.741018
20
2849.600503
0
VERTEX
8
0
10
4727.196847
20
2854.328540
0
VERTEX
8
0
10
4746.108505
20
2854.328540
0
VERTEX
8
0
10
4755.564333
20
2849.600503
0
VERTEX
8
0
10
4760.292248
20
2844.872465
0
VERTEX
8
0
10
4765.020162
20
2835.416389
0
VERTEX
8
0
10
4765.020162
20
2825.960313
0
VERTEX
8
0
10
4760.292248
20
2816.504238
0
VERTEX
8
0
10
4750.836419
20
2802.320124
0
VERTEX
8
0
10
4703.557274
20
2755.039746
0
VERTEX
8
0
10
4769.748077
20
2755.039746
0
SEQEND
0
POLYLINE
8
0
62
10
6
CONTINUOUS
70
0
66
1
40
4.000000
41
4.000000
10
0
20
0
30
0
0
VERTEX
8
0
10
4812.299307
20
2854.328540
0
VERTEX
8
0
10
4798.115564
20
2849.600503
0
VERTEX
8
0
10
4788.659735
20
2835.416389
0
VERTEX
8
0
10
4783.931820
20
2811.776200
0
VERTEX
8
0
10
4783.931820
20
2797.592087
0
VERTEX
8
0
10
4788.659735
20
2773.951898
0
VERTEX
8
0
10
4798.115564
20
2759.767784
0
VERTEX
8
0
10
4812.299307
20
2755.039746
0
VERTEX
8
0
10
4821.755136
20
2755.039746
0
VERTEX
8
0
10
4835.938879
20
2759.767784
0
VERTEX
8
0
10
4845.394708
20
2773.951898
0
VERTEX
8
0
10
4850.122623
20
2797.592087
0
VERTEX
8
0
10
4850.122623
20
2811.776200
0
VERTEX
8
0
10
4845.394708
20
2835.416389
0
VERTEX
8
0
10
4835.938879
20
2849.600503
0
VERTEX
8
0
10
4821.755136
20
2854.328540
0
VERTEX
8
0
10
4812.299307
20
2854.328540
0
SEQEND
0
POLYLINE
8
0
62
10
6
CONTINUOUS
70
0
66
1
40
4.000000
41
4.000000
10
0
20
0
30
0
0
VERTEX
8
0
10
4869.034281
20
2764.495822
0
VERTEX
8
0
10
4864.306366
20
2759.767784
0
VERTEX
8
0
10
4869.034281
20
2755.039746
0
VERTEX
8
0
10
4873.762195
20
2759.767784
0
VERTEX
8
0
10
4869.034281
20
2764.495822
0
SEQEND
0
POLYLINE
8
0
62
10
6
CONTINUOUS
70
0
66
1
40
4.000000
41
4.000000
10
0
20
0
30
0
0
VERTEX
8
0
10
4902.129682
20
2854.328540
0
VERTEX
8
0
10
4954.136741
20
2854.328540
0
VERTEX
8
0
10
4925.769254
20
2816.504238
0
VERTEX
8
0
10
4939.952997
20
2816.504238
0
VERTEX
8
0
10
4949.408826
20
2811.776200
0
VERTEX
8
0
10
4954.136741
20
2807.048162
0
VERTEX
8
0
10
4958.864655
20
2792.864049
0
VERTEX
8
0
10
4958.864655
20
2783.407973
0
VERTEX
8
0
10
4954.136741
20
2769.223860
0
VERTEX
8
0
10
4944.680912
20
2759.767784
0
VERTEX
8
0
10
4930.497169
20
2755.039746
0
VERTEX
8
0
10
4916.313425
20
2755.039746
0
VERTEX
8
0
10
4902.129682
20
2759.767784
0
VERTEX
8
0
10
4897.401767
20
2764.495822
0
VERTEX
8
0
10
4892.673853
20
2773.951898
0
SEQEND
0
POLYLINE
8
0
62
96
6
CONTINUOUS
70
0
66
1
40
4.000000
41
4.000000
10
0
20
0
30
0
0
VERTEX
8
0
10
13260.103632
20
3640.593029
0
VERTEX
8
0
10
13397.999758
20
3879.444635
0
VERTEX
8
0
10
13535.895884
20
3640.593029
0
SEQEND
0
POLYLINE
8
0
62
96
6
CONTINUOUS
70
0
66
1
40
4.000000
41
4.000000
10
0
20
0
30
0
0
VERTEX
8
0
10
13191.157637
20
3640.593029
0
VERTEX
8
0
10
13604.841879
20
3640.593029
0
SEQEND
0
POLYLINE
8
0
62
96
6
CONTINUOUS
70
0
66
1
40
4.000000
41
4.000000
10
0
20
0
30
0
0
VERTEX
8
0
10
13273.896140
20
3640.593029
0
VERTEX
8
0
10
13191.157637
20
3557.852368
0
SEQEND
0
POLYLINE
8
0
62
96
6
CONTINUOUS
70
0
66
1
40
4.000000
41
4.000000
10
0
20
0
30
0
0
VERTEX
8
0
10
13356.634643
20
3640.593029
0
VERTEX
8
0
10
13273.896140
20
3557.852368
0
SEQEND
0
POLYLINE
8
0
62
96
6
CONTINUOUS
70
0
66
1
40
4.000000
41
4.000000
10
0
20
0
30
0
0
VERTEX
8
0
10
13439.373146
20
3640.593029
0
VERTEX
8
0
10
13356.634643
20
3557.852368
0
SEQEND
0
POLYLINE
8
0
62
96
6
CONTINUOUS
70
0
66
1
40
4.000000
41
4.000000
10
0
20
0
30
0
0
VERTEX
8
0
10
13522.111650
20
3640.593029
0
VERTEX
8
0
10
13439.373146
20
3557.852368
0
SEQEND
0
POLYLINE
8
0
62
96
6
CONTINUOUS
70
0
66
1
40
4.000000
41
4.000000
10
0
20
0
30
0
0
VERTEX
8
0
10
13604.850153
20
3640.593029
0
VERTEX
8
0
10
13522.111650
20
3557.852368
0
SEQEND
0
POLYLINE
8
0
62
96
6
CONTINUOUS
70
0
66
1
40
4.000000
41
4.000000
10
0
20
0
30
0
0
VERTEX
8
0
10
7834.467484
20
3640.593029
0
VERTEX
8
0
10
7972.363610
20
3879.444635
0
VERTEX
8
0
10
8110.259736
20
3640.593029
0
SEQEND
0
POLYLINE
8
0
62
96
6
CONTINUOUS
70
0
66
1
40
4.000000
41
4.000000
10
0
20
0
30
0
0
VERTEX
8
0
10
7765.521489
20
3640.593029
0
VERTEX
8
0
10
8179.205731
20
3640.593029
0
SEQEND
0
POLYLINE
8
0
62
96
6
CONTINUOUS
70
0
66
1
40
4.000000
41
4.000000
10
0
20
0
30
0
0
VERTEX
8
0
10
7848.259992
20
3640.593029
0
VERTEX
8
0
10
7765.521489
20
3557.852368
0
SEQEND
0
POLYLINE
8
0
62
96
6
CONTINUOUS
70
0
66
1
40
4.000000
41
4.000000
10
0
20
0
30
0
0
VERTEX
8
0
10
7930.998495
20
3640.593029
0
VERTEX
8
0
10
7848.259992
20
3557.852368
0
SEQEND
0
POLYLINE
8
0
62
96
6
CONTINUOUS
70
0
66
1
40
4.000000
41
4.000000
10
0
20
0
30
0
0
VERTEX
8
0
10
8013.736998
20
3640.593029
0
VERTEX
8
0
10
7930.998495
20
3557.852368
0
SEQEND
0
POLYLINE
8
0
62
96
6
CONTINUOUS
70
0
66
1
40
4.000000
41
4.000000
10
0
20
0
30
0
0
VERTEX
8
0
10
8096.475502
20
3640.593029
0
VERTEX
8
0
10
8013.736998
20
3557.852368
0
SEQEND
0
POLYLINE
8
0
62
96
6
CONTINUOUS
70
0
66
1
40
4.000000
41
4.000000
10
0
20
0
30
0
0
VERTEX
8
0
10
8179.214005
20
3640.593029
0
VERTEX
8
0
10
8096.475502
20
3557.852368
0
SEQEND
0
POLYLINE
8
0
62
96
6
CONTINUOUS
70
0
66
1
40
4.000000
41
4.000000
10
0
20
0
30
0
0
VERTEX
8
0
10
2408.831336
20
3640.593029
0
VERTEX
8
0
10
2546.727462
20
3879.444635
0
VERTEX
8
0
10
2684.623588
20
3640.593029
0
SEQEND
0
POLYLINE
8
0
62
96
6
CONTINUOUS
70
0
66
1
40
4.000000
41
4.000000
10
0
20
0
30
0
0
VERTEX
8
0
10
2339.885341
20
3640.593029
0
VERTEX
8
0
10
2753.569583
20
3640.593029
0
SEQEND
0
POLYLINE
8
0
62
96
6
CONTINUOUS
70
0
66
1
40
4.000000
41
4.000000
10
0
20
0
30
0
0
VERTEX
8
0
10
2422.623844
20
3640.593029
0
VERTEX
8
0
10
2339.885341
20
3557.852368
0
SEQEND
0
POLYLINE
8
0
62
96
6
CONTINUOUS
70
0
66
1
40
4.000000
41
4.000000
10
0
20
0
30
0
0
VERTEX
8
0
10
2505.362347
20
3640.593029
0
VERTEX
8
0
10
2422.623844
20
3557.852368
0
SEQEND
0
POLYLINE
8
0
62
96
6
CONTINUOUS
70
0
66
1
40
4.000000
41
4.000000
10
0
20
0
30
0
0
VERTEX
8
0
10
2588.100850
20
3640.593029
0
VERTEX
8
0
10
2505.362347
20
3557.852368
0
SEQEND
0
POLYLINE
8
0
62
96
6
CONTINUOUS
70
0
66
1
40
4.000000
41
4.000000
10
0
20
0
30
0
0
VERTEX
8
0
10
2670.839353
20
3640.593029
0
VERTEX
8
0
10
2588.100850
20
3557.852368
0
SEQEND
0
POLYLINE
8
0
62
96
6
CONTINUOUS
70
0
66
1
40
4.000000
41
4.000000
10
0
20
0
30
0
0
VERTEX
8
0
10
2753.577857
20
3640.593029
0
VERTEX
8
0
10
2670.839353
20
3557.852368
0
SEQEND
0
ENDSEC
0
EOF
