999
CD - A 2D Graphics Library, version 5.10
0
SECTION
2
HEADER
9
$ACADVER
1
AC1006
9
$LIMCHECK
70
1
9
$LIMMIN
10
0.000000
20
0.000000
9
$LIMMAX
10
14617.000000
20
7759.000000
9
$EXTMIN
10
0.000000
20
0.000000
9
$EXTMAX
10
14617.000000
20
7759.000000
9
$CLAYER
8
0
9
$LUNITS
70
2
9
$LUPREC
70
2
9
$AUNITS
70
0
9
$AUPREC
70
2
9
$TEXTSTYLE
7
STANDARD
0
ENDSEC
0
SECTION
2
TABLES
0
TABLE
2
LTYPE
70
11
0
LTYPE
2
BYBLOCK
70
0
3

72
65
73
0
40
0
0
LTYPE
2
BYLAYER
70
0
3

72
65
73
0
40
0
0
LTYPE
2
CONTINUOUS
70
0
3
Solid line
72
65
73
0
40
0
0
LTYPE
2
DASHED
70
0
3
Dashed line
72
65
73
2
40
15
49
10
49
-5
0
LTYPE
2
HIDDEN
70
0
3
Hidden line
72
65
73
2
40
10
49
5
49
-5
0
LTYPE
2
CENTER
70
0
3
Center line
72
65
73
4
40
35
49
20
49
-5
49
5
49
-5
0
LTYPE
2
PHANTOM
70
0
3
Phantom line
72
65
73
6
40
50
49
25
49
-5
49
5
49
-5
49
5
49
-5
0
LTYPE
2
DOT
70
0
3
Dot line
72
65
73
2
40
5
49
0
49
-5
0
LTYPE
2
DASHDOT
70
0
3
Dashdot line
72
65
73
4
40
20
49
10
49
-5
49
0
49
-5
0
LTYPE
2
BORDER
70
0
3
Border line
72
65
73
6
40
35
49
10
49
-5
49
10
49
-5
49
0
49
-5
0
LTYPE
2
DIVIDE
70
0
3
Divide Line
72
65
73
6
40
25
49
10
49
-5
49
0
49
-5
49
0
49
-5
0
ENDTAB
0
TABLE
2
STYLE
70
6
0
STYLE
2
ROMAN
70
0
3
romanc.shx
71
0
40
0
41
1
42
0
4

50
0
0
STYLE
2
ROMAN_BOLD
70
0
3
romant.shx
71
0
40
0
41
1
42
0
4

50
0
0
STYLE
2
ROMANTIC
70
0
3
rom_____.pfb
71
0
40
0
41
1
42
0
4

50
0
0
STYLE
2
ROMANTIC_BOLD
70
0
3
romb____.pfb
71
0
40
0
41
1
42
0
4

50
0
0
STYLE
2
SANSSERIF
70
0
3
sas_____.pfb
71
0
40
0
41
1
42
0
4

50
0
0
STYLE
2
SANSSERIF_BOLD
70
0
3
sasb____.pfb
71
0
40
0
41
1
42
0
4

50
0
0
ENDTAB
0
ENDSEC
0
SECTION
2
BLOCKS
0
ENDSEC
0
SECTION
2
ENTITIES
0
POLYLINE
8
0
62
56
6
CONTINUOUS
70
0
66
1
40
4.000000
41
4.000000
10
0
20
0
30
0
0
VERTEX
8
0
10
2546.727462
20
3879.444635
0
VERTEX
8
0
10
1218.000242
20
3879.444635
0
SEQEND
0
POLYLINE
8
0
62
170
6
CONTINUOUS
70
0
66
1
40
4.000000
41
4.000000
10
0
20
0
30
0
0
VERTEX
8
0
10
2546.727462
20
4028.702573
0
VERTEX
8
0
10
2521.657137
20
4023.123333
0
VERTEX
8
0
10
2496.586812
20
4017.650365
0
VERTEX
8
0
10
2471.516487
20
4012.283668
0
VERTEX
8
0
10
2446.446162
20
4007.023243
0
VERTEX
8
0
10
2421.375837
20
4001.869088
0
VERTEX
8
0
10
2396.305512
20
3996.821205
0
VERTEX
8
0
10
2371.235188
20
3991.879593
0
VERTEX
8
0
10
2346.164863
20
3987.044252
0
VERTEX
8
0
10
2321.094538
20
3982.315182
0
VERTEX
8
0
10
2296.024213
20
3977.692384
0
VERTEX
8
0
10
2270.953888
20
3973.175857
0
VERTEX
8
0
10
2245.883563
20
3968.765601
0
VERTEX
8
0
10
2220.813238
20
3964.461616
0
VERTEX
8
0
10
2195.742913
20
3960.263903
0
VERTEX
8
0
10
2170.672588
20
3956.172461
0
VERTEX
8
0
10
2145.602263
20
3952.187290
0
VERTEX
8
0
10
2120.531939
20
3948.308390
0
VERTEX
8
0
10
2095.461614
20
3944.535761
0
VERTEX
8
0
10
2070.391289
20
3940.869404
0
VERTEX
8
0
10
2045.320964
20
3937.309318
0
VERTEX
8
0
10
2020.250639
20
3933.855503
0
VERTEX
8
0
10
1995.180314
20
3930.507959
0
VERTEX
8
0
10
1970.109989
20
3927.266687
0
VERTEX
8
0
10
1945.039664
20
3924.131686
0
VERTEX
8
0
10
1919.969339
20
3921.102956
0
VERTEX
8
0
10
1894.899014
20
3918.180497
0
VERTEX
8
0
10
1869.828690
20
3915.364310
0
VERTEX
8
0
10
1844.758365
20
3912.654393
0
VERTEX
8
0
10
1819.688040
20
3910.050748
0
VERTEX
8
0
10
1794.617715
20
3907.553374
0
VERTEX
8
0
10
1769.547390
20
3905.162272
0
VERTEX
8
0
10
1744.477065
20
3902.877440
0
VERTEX
8
0
10
1719.406740
20
3900.698880
0
VERTEX
8
0
10
1694.336415
20
3898.626591
0
VERTEX
8
0
10
1669.266090
20
3896.660574
0
VERTEX
8
0
10
1644.195765
20
3894.800827
0
VERTEX
8
0
10
1619.125440
20
3893.047352
0
VERTEX
8
0
10
1594.055116
20
3891.400148
0
VERTEX
8
0
10
1568.984791
20
3889.859215
0
VERTEX
8
0
10
1543.914466
20
3888.424554
0
VERTEX
8
0
10
1518.844141
20
3887.096163
0
VERTEX
8
0
10
1493.773816
20
3885.874044
0
VERTEX
8
0
10
1468.703491
20
3884.758196
0
VERTEX
8
0
10
1443.633166
20
3883.748620
0
VERTEX
8
0
10
1418.562841
20
3882.845314
0
VERTEX
8
0
10
1393.492516
20
3882.048280
0
VERTEX
8
0
10
1368.422191
20
3881.357517
0
VERTEX
8
0
10
1343.351867
20
3880.773025
0
VERTEX
8
0
10
1318.281542
20
3880.294805
0
VERTEX
8
0
10
1293.211217
20
3879.922855
0
VERTEX
8
0
10
1268.140892
20
3879.657177
0
VERTEX
8
0
10
1243.070567
20
3879.497771
0
VERTEX
8
0
10
1218.000242
20
3879.444635
0
SEQEND
0
POLYLINE
8
0
62
170
6
CONTINUOUS
70
0
66
1
40
4.000000
41
4.000000
10
0
20
0
30
0
0
VERTEX
8
0
10
1218.000242
20
3879.444635
0
VERTEX
8
0
10
1218.000242
20
3879.444635
0
SEQEND
0
POLYLINE
8
0
62
170
6
CONTINUOUS
70
0
66
1
40
4.000000
41
4.000000
10
0
20
0
30
0
0
VERTEX
8
0
10
1218.000242
20
3879.444635
0
VERTEX
8
0
10
1218.000242
20
3879.444635
0
SEQEND
0
POLYLINE
8
0
62
56
6
CONTINUOUS
70
0
66
1
40
4.000000
41
4.000000
10
0
20
0
30
0
0
VERTEX
8
0
10
7972.363610
20
3879.444635
0
VERTEX
8
0
10
13397.999758
20
3879.444635
0
SEQEND
0
POLYLINE
8
0
62
170
6
CONTINUOUS
70
0
66
1
40
4.000000
41
4.000000
10
0
20
0
30
0
0
VERTEX
8
0
10
7972.363610
20
5097.476365
0
VERTEX
8
0
10
7997.717050
20
5068.429860
0
VERTEX
8
0
10
8023.070490
20
5039.602648
0
VERTEX
8
0
10
8048.423930
20
5010.994729
0
VERTEX
8
0
10
8073.777370
20
4982.606105
0
VERTEX
8
0
10
8099.130810
20
4954.436774
0
VERTEX
8
0
10
8124.484250
20
4926.486736
0
VERTEX
8
0
10
8149.837690
20
4898.755992
0
VERTEX
8
0
10
8175.191130
20
4871.244542
0
VERTEX
8
0
10
8200.544569
20
4843.952385
0
VERTEX
8
0
10
8225.898009
20
4816.879522
0
VERTEX
8
0
10
8251.251449
20
4790.025953
0
VERTEX
8
0
10
8276.604889
20
4763.391677
0
VERTEX
8
0
10
8301.958329
20
4736.976695
0
VERTEX
8
0
10
8327.311769
20
4710.781006
0
VERTEX
8
0
10
8352.665209
20
4684.804611
0
VERTEX
8
0
10
8378.018649
20
4659.047509
0
VERTEX
8
0
10
8403.372089
20
4633.509701
0
VERTEX
8
0
10
8428.725529
20
4608.191187
0
VERTEX
8
0
10
8454.078969
20
4583.091967
0
VERTEX
8
0
10
8479.432409
20
4558.212039
0
VERTEX
8
0
10
8504.785849
20
4533.551406
0
VERTEX
8
0
10
8530.139289
20
4509.110066
0
VERTEX
8
0
10
8555.492729
20
4484.888020
0
VERTEX
8
0
10
8580.846169
20
4460.885267
0
VERTEX
8
0
10
8606.199609
20
4437.101808
0
VERTEX
8
0
10
8631.553049
20
4413.537643
0
VERTEX
8
0
10
8656.906488
20
4390.192771
0
VERTEX
8
0
10
8682.259928
20
4367.067192
0
VERTEX
8
0
10
8707.613368
20
4344.160908
0
VERTEX
8
0
10
8732.966808
20
4321.473917
0
VERTEX
8
0
10
8758.320248
20
4299.006219
0
VERTEX
8
0
10
8783.673688
20
4276.757815
0
VERTEX
8
0
10
8809.027128
20
4254.728705
0
VERTEX
8
0
10
8834.380568
20
4232.918888
0
VERTEX
8
0
10
8859.734008
20
4211.328365
0
VERTEX
8
0
10
8885.087448
20
4189.957136
0
VERTEX
8
0
10
8910.440888
20
4168.805200
0
VERTEX
8
0
10
8935.794328
20
4147.872558
0
VERTEX
8
0
10
8961.147768
20
4127.159209
0
VERTEX
8
0
10
8986.501208
20
4106.665154
0
VERTEX
8
0
10
9011.854648
20
4086.390392
0
VERTEX
8
0
10
9037.208088
20
4066.334925
0
VERTEX
8
0
10
9062.561528
20
4046.498750
0
VERTEX
8
0
10
9087.914968
20
4026.881870
0
VERTEX
8
0
10
9113.268407
20
4007.484283
0
VERTEX
8
0
10
9138.621847
20
3988.305989
0
VERTEX
8
0
10
9163.975287
20
3969.346989
0
VERTEX
8
0
10
9189.328727
20
3950.607283
0
VERTEX
8
0
10
9214.682167
20
3932.086870
0
VERTEX
8
0
10
9240.035607
20
3913.785751
0
VERTEX
8
0
10
9265.389047
20
3895.703926
0
VERTEX
8
0
10
9290.742487
20
3877.841394
0
VERTEX
8
0
10
9316.095927
20
3860.198156
0
VERTEX
8
0
10
9341.449367
20
3842.774211
0
VERTEX
8
0
10
9366.802807
20
3825.569560
0
VERTEX
8
0
10
9392.156247
20
3808.584202
0
VERTEX
8
0
10
9417.509687
20
3791.818139
0
VERTEX
8
0
10
9442.863127
20
3775.271368
0
VERTEX
8
0
10
9468.216567
20
3758.943892
0
VERTEX
8
0
10
9493.570007
20
3742.835709
0
VERTEX
8
0
10
9518.923447
20
3726.946819
0
VERTEX
8
0
10
9544.276886
20
3711.277223
0
VERTEX
8
0
10
9569.630326
20
3695.826921
0
VERTEX
8
0
10
9594.983766
20
3680.595912
0
VERTEX
8
0
10
9620.337206
20
3665.584197
0
VERTEX
8
0
10
9645.690646
20
3650.791776
0
VERTEX
8
0
10
9671.044086
20
3636.218648
0
VERTEX
8
0
10
9696.397526
20
3621.864814
0
VERTEX
8
0
10
9721.750966
20
3607.730273
0
VERTEX
8
0
10
9747.104406
20
3593.815026
0
VERTEX
8
0
10
9772.457846
20
3580.119072
0
VERTEX
8
0
10
9797.811286
20
3566.642413
0
VERTEX
8
0
10
9823.164726
20
3553.385046
0
VERTEX
8
0
10
9848.518166
20
3540.346974
0
VERTEX
8
0
10
9873.871606
20
3527.528195
0
VERTEX
8
0
10
9899.225046
20
3514.928709
0
VERTEX
8
0
10
9924.578486
20
3502.548517
0
VERTEX
8
0
10
9949.931926
20
3490.387619
0
VERTEX
8
0
10
9975.285366
20
3478.446014
0
VERTEX
8
0
10
10000.638805
20
3466.723703
0
VERTEX
8
0
10
10025.992245
20
3455.220686
0
VERTEX
8
0
10
10051.345685
20
3443.936962
0
VERTEX
8
0
10
10076.699125
20
3432.872532
0
VERTEX
8
0
10
10102.052565
20
3422.027395
0
VERTEX
8
0
10
10127.406005
20
3411.401552
0
VERTEX
8
0
10
10152.759445
20
3400.995002
0
VERTEX
8
0
10
10178.112885
20
3390.807747
0
VERTEX
8
0
10
10203.466325
20
3380.839784
0
VERTEX
8
0
10
10228.819765
20
3371.091116
0
VERTEX
8
0
10
10254.173205
20
3361.561741
0
VERTEX
8
0
10
10279.526645
20
3352.251659
0
VERTEX
8
0
10
10304.880085
20
3343.160871
0
VERTEX
8
0
10
10330.233525
20
3334.289377
0
VERTEX
8
0
10
10355.586965
20
3325.637176
0
VERTEX
8
0
10
10380.940405
20
3317.204269
0
VERTEX
8
0
10
10406.293845
20
3308.990656
0
VERTEX
8
0
10
10431.647285
20
3300.996336
0
VERTEX
8
0
10
10457.000724
20
3293.221310
0
VERTEX
8
0
10
10482.354164
20
3285.665577
0
VERTEX
8
0
10
10507.707604
20
3278.329138
0
VERTEX
8
0
10
10533.061044
20
3271.211993
0
VERTEX
8
0
10
10558.414484
20
3264.314141
0
VERTEX
8
0
10
10583.767924
20
3257.635582
0
VERTEX
8
0
10
10609.121364
20
3251.176318
0
VERTEX
8
0
10
10634.474804
20
3244.936347
0
VERTEX
8
0
10
10659.828244
20
3238.915669
0
VERTEX
8
0
10
10685.181684
20
3233.114285
0
VERTEX
8
0
10
10710.535124
20
3227.532195
0
VERTEX
8
0
10
10735.888564
20
3222.169398
0
VERTEX
8
0
10
10761.242004
20
3217.025895
0
VERTEX
8
0
10
10786.595444
20
3212.101686
0
VERTEX
8
0
10
10811.948884
20
3207.396770
0
VERTEX
8
0
10
10837.302324
20
3202.911148
0
VERTEX
8
0
10
10862.655764
20
3198.644819
0
VERTEX
8
0
10
10888.009204
20
3194.597784
0
VERTEX
8
0
10
10913.362643
20
3190.770043
0
VERTEX
8
0
10
10938.716083
20
3187.161595
0
VERTEX
8
0
10
10964.069523
20
3183.772441
0
VERTEX
8
0
10
10989.422963
20
3180.602580
0
VERTEX
8
0
10
11014.776403
20
3177.652013
0
VERTEX
8
0
10
11040.129843
20
3174.920739
0
VERTEX
8
0
10
11065.483283
20
3172.408760
0
VERTEX
8
0
10
11090.836723
20
3170.116073
0
VERTEX
8
0
10
11116.190163
20
3168.042681
0
VERTEX
8
0
10
11141.543603
20
3166.188582
0
VERTEX
8
0
10
11166.897043
20
3164.553776
0
VERTEX
8
0
10
11192.250483
20
3163.138264
0
VERTEX
8
0
10
11217.603923
20
3161.942046
0
VERTEX
8
0
10
11242.957363
20
3160.965121
0
VERTEX
8
0
10
11268.310803
20
3160.207490
0
VERTEX
8
0
10
11293.664243
20
3159.669153
0
VERTEX
8
0
10
11319.017683
20
3159.350109
0
VERTEX
8
0
10
11344.371123
20
3159.250359
0
VERTEX
8
0
10
11369.724562
20
3159.369902
0
VERTEX
8
0
10
11395.078002
20
3159.708739
0
VERTEX
8
0
10
11420.431442
20
3160.266870
0
VERTEX
8
0
10
11445.784882
20
3161.044294
0
VERTEX
8
0
10
11471.138322
20
3162.041012
0
VERTEX
8
0
10
11496.491762
20
3163.257023
0
VERTEX
8
0
10
11521.845202
20
3164.692328
0
VERTEX
8
0
10
11547.198642
20
3166.346926
0
VERTEX
8
0
10
11572.552082
20
3168.220819
0
VERTEX
8
0
10
11597.905522
20
3170.314004
0
VERTEX
8
0
10
11623.258962
20
3172.626484
0
VERTEX
8
0
10
11648.612402
20
3175.158257
0
VERTEX
8
0
10
11673.965842
20
3177.909323
0
VERTEX
8
0
10
11699.319282
20
3180.879683
0
VERTEX
8
0
10
11724.672722
20
3184.069337
0
VERTEX
8
0
10
11750.026162
20
3187.478284
0
VERTEX
8
0
10
11775.379602
20
3191.106525
0
VERTEX
8
0
10
11800.733042
20
3194.954060
0
VERTEX
8
0
10
11826.086481
20
3199.020888
0
VERTEX
8
0
10
11851.439921
20
3203.307010
0
VERTEX
8
0
10
11876.793361
20
3207.812425
0
VERTEX
8
0
10
11902.146801
20
3212.537134
0
VERTEX
8
0
10
11927.500241
20
3217.481137
0
VERTEX
8
0
10
11952.853681
20
3222.644433
0
VERTEX
8
0
10
11978.207121
20
3228.027023
0
VERTEX
8
0
10
12003.560561
20
3233.628906
0
VERTEX
8
0
10
12028.914001
20
3239.450083
0
VERTEX
8
0
10
12054.267441
20
3245.490553
0
VERTEX
8
0
10
12079.620881
20
3251.750318
0
VERTEX
8
0
10
12104.974321
20
3258.229375
0
VERTEX
8
0
10
12130.327761
20
3264.927727
0
VERTEX
8
0
10
12155.681201
20
3271.845372
0
VERTEX
8
0
10
12181.034641
20
3278.982310
0
VERTEX
8
0
10
12206.388081
20
3286.338542
0
VERTEX
8
0
10
12231.741521
20
3293.914068
0
VERTEX
8
0
10
12257.094961
20
3301.708888
0
VERTEX
8
0
10
12282.448400
20
3309.723001
0
VERTEX
8
0
10
12307.801840
20
3317.956407
0
VERTEX
8
0
10
12333.155280
20
3326.409107
0
VERTEX
8
0
10
12358.508720
20
3335.081101
0
VERTEX
8
0
10
12383.862160
20
3343.972388
0
VERTEX
8
0
10
12409.215600
20
3353.082969
0
VERTEX
8
0
10
12434.569040
20
3362.412844
0
VERTEX
8
0
10
12459.922480
20
3371.962012
0
VERTEX
8
0
10
12485.275920
20
3381.730474
0
VERTEX
8
0
10
12510.629360
20
3391.718229
0
VERTEX
8
0
10
12535.982800
20
3401.925278
0
VERTEX
8
0
10
12561.336240
20
3412.351621
0
VERTEX
8
0
10
12586.689680
20
3422.997257
0
VERTEX
8
0
10
12612.043120
20
3433.862187
0
VERTEX
8
0
10
12637.396560
20
3444.946410
0
VERTEX
8
0
10
12662.750000
20
3456.249927
0
VERTEX
8
0
10
12688.103440
20
3467.772737
0
VERTEX
8
0
10
12713.456880
20
3479.514842
0
VERTEX
8
0
10
12738.810319
20
3491.476239
0
VERTEX
8
0
10
12764.163759
20
3503.656931
0
VERTEX
8
0
10
12789.517199
20
3516.056916
0
VERTEX
8
0
10
12814.870639
20
3528.676194
0
VERTEX
8
0
10
12840.224079
20
3541.514766
0
VERTEX
8
0
10
12865.577519
20
3554.572632
0
VERTEX
8
0
10
12890.930959
20
3567.849792
0
VERTEX
8
0
10
12916.284399
20
3581.346245
0
VERTEX
8
0
10
12941.637839
20
3595.061991
0
VERTEX
8
0
10
12966.991279
20
3608.997031
0
VERTEX
8
0
10
12992.344719
20
3623.151365
0
VERTEX
8
0
10
13017.698159
20
3637.524992
0
VERTEX
8
0
10
13043.051599
20
3652.117913
0
VERTEX
8
0
10
13068.405039
20
3666.930128
0
VERTEX
8
0
10
13093.758479
20
3681.961636
0
VERTEX
8
0
10
13119.111919
20
3697.212438
0
VERTEX
8
0
10
13144.465359
20
3712.682533
0
VERTEX
8
0
10
13169.818799
20
3728.371922
0
VERTEX
8
0
10
13195.172238
20
3744.280605
0
VERTEX
8
0
10
13220.525678
20
3760.408581
0
VERTEX
8
0
10
13245.879118
20
3776.755851
0
VERTEX
8
0
10
13271.232558
20
3793.322414
0
VERTEX
8
0
10
13296.585998
20
3810.108271
0
VERTEX
8
0
10
13321.939438
20
3827.113422
0
VERTEX
8
0
10
13347.292878
20
3844.337866
0
VERTEX
8
0
10
13372.646318
20
3861.781604
0
VERTEX
8
0
10
13397.999758
20
3879.444635
0
SEQEND
0
POLYLINE
8
0
62
170
6
CONTINUOUS
70
0
66
1
40
4.000000
41
4.000000
10
0
20
0
30
0
0
VERTEX
8
0
10
13397.999758
20
3879.444635
0
VERTEX
8
0
10
13397.999758
20
3879.444635
0
SEQEND
0
POLYLINE
8
0
62
170
6
CONTINUOUS
70
0
66
1
40
4.000000
41
4.000000
10
0
20
0
30
0
0
VERTEX
8
0
10
11343.226942
20
3879.444635
0
VERTEX
8
0
10
11343.226942
20
3159.250135
0
SEQEND
0
POLYLINE
8
0
62
10
6
CONTINUOUS
70
0
66
1
40
4.000000
41
4.000000
10
0
20
0
30
0
0
VERTEX
8
0
10
11217.937208
20
3094.003214
0
VERTEX
8
0
10
11227.393037
20
3098.731251
0
VERTEX
8
0
10
11241.576781
20
3112.915365
0
VERTEX
8
0
10
11241.576781
20
3013.626571
0
SEQEND
0
POLYLINE
8
0
62
10
6
CONTINUOUS
70
0
66
1
40
4.000000
41
4.000000
10
0
20
0
30
0
0
VERTEX
8
0
10
11345.590899
20
3079.819100
0
VERTEX
8
0
10
11340.862984
20
3065.634987
0
VERTEX
8
0
10
11331.407155
20
3056.178911
0
VERTEX
8
0
10
11317.223412
20
3051.450873
0
VERTEX
8
0
10
11312.495497
20
3051.450873
0
VERTEX
8
0
10
11298.311754
20
3056.178911
0
VERTEX
8
0
10
11288.855925
20
3065.634987
0
VERTEX
8
0
10
11284.128011
20
3079.819100
0
VERTEX
8
0
10
11284.128011
20
3084.547138
0
VERTEX
8
0
10
11288.855925
20
3098.731251
0
VERTEX
8
0
10
11298.311754
20
3108.187327
0
VERTEX
8
0
10
11312.495497
20
3112.915365
0
VERTEX
8
0
10
11317.223412
20
3112.915365
0
VERTEX
8
0
10
11331.407155
20
3108.187327
0
VERTEX
8
0
10
11340.862984
20
3098.731251
0
VERTEX
8
0
10
11345.590899
20
3079.819100
0
VERTEX
8
0
10
11345.590899
20
3056.178911
0
VERTEX
8
0
10
11340.862984
20
3032.538722
0
VERTEX
8
0
10
11331.407155
20
3018.354609
0
VERTEX
8
0
10
11317.223412
20
3013.626571
0
VERTEX
8
0
10
11307.767583
20
3013.626571
0
VERTEX
8
0
10
11293.583840
20
3018.354609
0
VERTEX
8
0
10
11288.855925
20
3027.810684
0
SEQEND
0
POLYLINE
8
0
62
10
6
CONTINUOUS
70
0
66
1
40
4.000000
41
4.000000
10
0
20
0
30
0
0
VERTEX
8
0
10
11369.230471
20
3023.082646
0
VERTEX
8
0
10
11364.502557
20
3018.354609
0
VERTEX
8
0
10
11369.230471
20
3013.626571
0
VERTEX
8
0
10
11373.958386
20
3018.354609
0
VERTEX
8
0
10
11369.230471
20
3023.082646
0
SEQEND
0
POLYLINE
8
0
62
10
6
CONTINUOUS
70
0
66
1
40
4.000000
41
4.000000
10
0
20
0
30
0
0
VERTEX
8
0
10
11449.605017
20
3098.731251
0
VERTEX
8
0
10
11444.877102
20
3108.187327
0
VERTEX
8
0
10
11430.693359
20
3112.915365
0
VERTEX
8
0
10
11421.237530
20
3112.915365
0
VERTEX
8
0
10
11407.053787
20
3108.187327
0
VERTEX
8
0
10
11397.597958
20
3094.003214
0
VERTEX
8
0
10
11392.870043
20
3070.363025
0
VERTEX
8
0
10
11392.870043
20
3046.722835
0
VERTEX
8
0
10
11397.597958
20
3027.810684
0
VERTEX
8
0
10
11407.053787
20
3018.354609
0
VERTEX
8
0
10
11421.237530
20
3013.626571
0
VERTEX
8
0
10
11425.965445
20
3013.626571
0
VERTEX
8
0
10
11440.149188
20
3018.354609
0
VERTEX
8
0
10
11449.605017
20
3027.810684
0
VERTEX
8
0
10
11454.332931
20
3041.994798
0
VERTEX
8
0
10
11454.332931
20
3046.722835
0
VERTEX
8
0
10
11449.605017
20
3060.906949
0
VERTEX
8
0
10
11440.149188
20
3070.363025
0
VERTEX
8
0
10
11425.965445
20
3075.091062
0
VERTEX
8
0
10
11421.237530
20
3075.091062
0
VERTEX
8
0
10
11407.053787
20
3070.363025
0
VERTEX
8
0
10
11397.597958
20
3060.906949
0
VERTEX
8
0
10
11392.870043
20
3046.722835
0
SEQEND
0
POLYLINE
8
0
62
56
6
CONTINUOUS
70
0
66
1
40
4.000000
41
4.000000
10
0
20
0
30
0
0
VERTEX
8
0
10
2546.727462
20
3879.444635
0
VERTEX
8
0
10
7972.363610
20
3879.444635
0
SEQEND
0
POLYLINE
8
0
62
170
6
CONTINUOUS
70
0
66
1
40
4.000000
41
4.000000
10
0
20
0
30
0
0
VERTEX
8
0
10
2546.727462
20
4028.702573
0
VERTEX
8
0
10
2572.080902
20
4010.342074
0
VERTEX
8
0
10
2597.434342
20
3992.200870
0
VERTEX
8
0
10
2622.787782
20
3974.278958
0
VERTEX
8
0
10
2648.141222
20
3956.576341
0
VERTEX
8
0
10
2673.494662
20
3939.093017
0
VERTEX
8
0
10
2698.848102
20
3921.828987
0
VERTEX
8
0
10
2724.201542
20
3904.784250
0
VERTEX
8
0
10
2749.554981
20
3887.958807
0
VERTEX
8
0
10
2774.908421
20
3871.352657
0
VERTEX
8
0
10
2800.261861
20
3854.965801
0
VERTEX
8
0
10
2825.615301
20
3838.798239
0
VERTEX
8
0
10
2850.968741
20
3822.849970
0
VERTEX
8
0
10
2876.322181
20
3807.120995
0
VERTEX
8
0
10
2901.675621
20
3791.611313
0
VERTEX
8
0
10
2927.029061
20
3776.320925
0
VERTEX
8
0
10
2952.382501
20
3761.249831
0
VERTEX
8
0
10
2977.735941
20
3746.398030
0
VERTEX
8
0
10
3003.089381
20
3731.765523
0
VERTEX
8
0
10
3028.442821
20
3717.352309
0
VERTEX
8
0
10
3053.796261
20
3703.158389
0
VERTEX
8
0
10
3079.149701
20
3689.183763
0
VERTEX
8
0
10
3104.503141
20
3675.428430
0
VERTEX
8
0
10
3129.856581
20
3661.892391
0
VERTEX
8
0
10
3155.210021
20
3648.575646
0
VERTEX
8
0
10
3180.563461
20
3635.478194
0
VERTEX
8
0
10
3205.916900
20
3622.600035
0
VERTEX
8
0
10
3231.270340
20
3609.941171
0
VERTEX
8
0
10
3256.623780
20
3597.501599
0
VERTEX
8
0
10
3281.977220
20
3585.281322
0
VERTEX
8
0
10
3307.330660
20
3573.280338
0
VERTEX
8
0
10
3332.684100
20
3561.498647
0
VERTEX
8
0
10
3358.037540
20
3549.936251
0
VERTEX
8
0
10
3383.390980
20
3538.593148
0
VERTEX
8
0
10
3408.744420
20
3527.469338
0
VERTEX
8
0
10
3434.097860
20
3516.564822
0
VERTEX
8
0
10
3459.451300
20
3505.879600
0
VERTEX
8
0
10
3484.804740
20
3495.413671
0
VERTEX
8
0
10
3510.158180
20
3485.167036
0
VERTEX
8
0
10
3535.511620
20
3475.139694
0
VERTEX
8
0
10
3560.865060
20
3465.331646
0
VERTEX
8
0
10
3586.218500
20
3455.742892
0
VERTEX
8
0
10
3611.571940
20
3446.373431
0
VERTEX
8
0
10
3636.925380
20
3437.223264
0
VERTEX
8
0
10
3662.278819
20
3428.292390
0
VERTEX
8
0
10
3687.632259
20
3419.580810
0
VERTEX
8
0
10
3712.985699
20
3411.088524
0
VERTEX
8
0
10
3738.339139
20
3402.815531
0
VERTEX
8
0
10
3763.692579
20
3394.761832
0
VERTEX
8
0
10
3789.046019
20
3386.927427
0
VERTEX
8
0
10
3814.399459
20
3379.312315
0
VERTEX
8
0
10
3839.752899
20
3371.916496
0
VERTEX
8
0
10
3865.106339
20
3364.739972
0
VERTEX
8
0
10
3890.459779
20
3357.782740
0
VERTEX
8
0
10
3915.813219
20
3351.044803
0
VERTEX
8
0
10
3941.166659
20
3344.526159
0
VERTEX
8
0
10
3966.520099
20
3338.226809
0
VERTEX
8
0
10
3991.873539
20
3332.146752
0
VERTEX
8
0
10
4017.226979
20
3326.285989
0
VERTEX
8
0
10
4042.580419
20
3320.644519
0
VERTEX
8
0
10
4067.933859
20
3315.222343
0
VERTEX
8
0
10
4093.287299
20
3310.019461
0
VERTEX
8
0
10
4118.640738
20
3305.035872
0
VERTEX
8
0
10
4143.994178
20
3300.271577
0
VERTEX
8
0
10
4169.347618
20
3295.726575
0
VERTEX
8
0
10
4194.701058
20
3291.400867
0
VERTEX
8
0
10
4220.054498
20
3287.294453
0
VERTEX
8
0
10
4245.407938
20
3283.407332
0
VERTEX
8
0
10
4270.761378
20
3279.739505
0
VERTEX
8
0
10
4296.114818
20
3276.290972
0
VERTEX
8
0
10
4321.468258
20
3273.061732
0
VERTEX
8
0
10
4346.821698
20
3270.051785
0
VERTEX
8
0
10
4372.175138
20
3267.261132
0
VERTEX
8
0
10
4397.528578
20
3264.689773
0
VERTEX
8
0
10
4422.882018
20
3262.337708
0
VERTEX
8
0
10
4448.235458
20
3260.204936
0
VERTEX
8
0
10
4473.588898
20
3258.291457
0
VERTEX
8
0
10
4498.942338
20
3256.597273
0
VERTEX
8
0
10
4524.295778
20
3255.122382
0
VERTEX
8
0
10
4549.649218
20
3253.866784
0
VERTEX
8
0
10
4575.002657
20
3252.830480
0
VERTEX
8
0
10
4600.356097
20
3252.013470
0
VERTEX
8
0
10
4625.709537
20
3251.415753
0
VERTEX
8
0
10
4651.062977
20
3251.037330
0
VERTEX
8
0
10
4676.416417
20
3250.878200
0
VERTEX
8
0
10
4701.769857
20
3250.938364
0
VERTEX
8
0
10
4727.123297
20
3251.217822
0
VERTEX
8
0
10
4752.476737
20
3251.716573
0
VERTEX
8
0
10
4777.830177
20
3252.434618
0
VERTEX
8
0
10
4803.183617
20
3253.371957
0
VERTEX
8
0
10
4828.537057
20
3254.528589
0
VERTEX
8
0
10
4853.890497
20
3255.904514
0
VERTEX
8
0
10
4879.243937
20
3257.499734
0
VERTEX
8
0
10
4904.597377
20
3259.314246
0
VERTEX
8
0
10
4929.950817
20
3261.348053
0
VERTEX
8
0
10
4955.304257
20
3263.601153
0
VERTEX
8
0
10
4980.657697
20
3266.073547
0
VERTEX
8
0
10
5006.011137
20
3268.765234
0
VERTEX
8
0
10
5031.364576
20
3271.676215
0
VERTEX
8
0
10
5056.718016
20
3274.806489
0
VERTEX
8
0
10
5082.071456
20
3278.156057
0
VERTEX
8
0
10
5107.424896
20
3281.724919
0
VERTEX
8
0
10
5132.778336
20
3285.513074
0
VERTEX
8
0
10
5158.131776
20
3289.520523
0
VERTEX
8
0
10
5183.485216
20
3293.747265
0
VERTEX
8
0
10
5208.838656
20
3298.193301
0
VERTEX
8
0
10
5234.192096
20
3302.858631
0
VERTEX
8
0
10
5259.545536
20
3307.743254
0
VERTEX
8
0
10
5284.898976
20
3312.847171
0
VERTEX
8
0
10
5310.252416
20
3318.170382
0
VERTEX
8
0
10
5335.605856
20
3323.712886
0
VERTEX
8
0
10
5360.959296
20
3329.474683
0
VERTEX
8
0
10
5386.312736
20
3335.455775
0
VERTEX
8
0
10
5411.666176
20
3341.656159
0
VERTEX
8
0
10
5437.019616
20
3348.075838
0
VERTEX
8
0
10
5462.373055
20
3354.714810
0
VERTEX
8
0
10
5487.726495
20
3361.573076
0
VERTEX
8
0
10
5513.079935
20
3368.650635
0
VERTEX
8
0
10
5538.433375
20
3375.947488
0
VERTEX
8
0
10
5563.786815
20
3383.463634
0
VERTEX
8
0
10
5589.140255
20
3391.199074
0
VERTEX
8
0
10
5614.493695
20
3399.153808
0
VERTEX
8
0
10
5639.847135
20
3407.327835
0
VERTEX
8
0
10
5665.200575
20
3415.721156
0
VERTEX
8
0
10
5690.554015
20
3424.333771
0
VERTEX
8
0
10
5715.907455
20
3433.165679
0
VERTEX
8
0
10
5741.260895
20
3442.216880
0
VERTEX
8
0
10
5766.614335
20
3451.487376
0
VERTEX
8
0
10
5791.967775
20
3460.977164
0
VERTEX
8
0
10
5817.321215
20
3470.686247
0
VERTEX
8
0
10
5842.674655
20
3480.614623
0
VERTEX
8
0
10
5868.028095
20
3490.762293
0
VERTEX
8
0
10
5893.381535
20
3501.129256
0
VERTEX
8
0
10
5918.734974
20
3511.715513
0
VERTEX
8
0
10
5944.088414
20
3522.521063
0
VERTEX
8
0
10
5969.441854
20
3533.545907
0
VERTEX
8
0
10
5994.795294
20
3544.790045
0
VERTEX
8
0
10
6020.148734
20
3556.253476
0
VERTEX
8
0
10
6045.502174
20
3567.936201
0
VERTEX
8
0
10
6070.855614
20
3579.838219
0
VERTEX
8
0
10
6096.209054
20
3591.959532
0
VERTEX
8
0
10
6121.562494
20
3604.300137
0
VERTEX
8
0
10
6146.915934
20
3616.860036
0
VERTEX
8
0
10
6172.269374
20
3629.639229
0
VERTEX
8
0
10
6197.622814
20
3642.637716
0
VERTEX
8
0
10
6222.976254
20
3655.855496
0
VERTEX
8
0
10
6248.329694
20
3669.292570
0
VERTEX
8
0
10
6273.683134
20
3682.948937
0
VERTEX
8
0
10
6299.036574
20
3696.824598
0
VERTEX
8
0
10
6324.390014
20
3710.919552
0
VERTEX
8
0
10
6349.743454
20
3725.233800
0
VERTEX
8
0
10
6375.096893
20
3739.767342
0
VERTEX
8
0
10
6400.450333
20
3754.520177
0
VERTEX
8
0
10
6425.803773
20
3769.492306
0
VERTEX
8
0
10
6451.157213
20
3784.683728
0
VERTEX
8
0
10
6476.510653
20
3800.094445
0
VERTEX
8
0
10
6501.864093
20
3815.724454
0
VERTEX
8
0
10
6527.217533
20
3831.573757
0
VERTEX
8
0
10
6552.570973
20
3847.642354
0
VERTEX
8
0
10
6577.924413
20
3863.930245
0
VERTEX
8
0
10
6603.277853
20
3880.437429
0
VERTEX
8
0
10
6628.631293
20
3897.163907
0
VERTEX
8
0
10
6653.984733
20
3914.109678
0
VERTEX
8
0
10
6679.338173
20
3931.274743
0
VERTEX
8
0
10
6704.691613
20
3948.659101
0
VERTEX
8
0
10
6730.045053
20
3966.262753
0
VERTEX
8
0
10
6755.398493
20
3984.085699
0
VERTEX
8
0
10
6780.751933
20
4002.127938
0
VERTEX
8
0
10
6806.105373
20
4020.389471
0
VERTEX
8
0
10
6831.458812
20
4038.870298
0
VERTEX
8
0
10
6856.812252
20
4057.570418
0
VERTEX
8
0
10
6882.165692
20
4076.489831
0
VERTEX
8
0
10
6907.519132
20
4095.628539
0
VERTEX
8
0
10
6932.872572
20
4114.986539
0
VERTEX
8
0
10
6958.226012
20
4134.563834
0
VERTEX
8
0
10
6983.579452
20
4154.360422
0
VERTEX
8
0
10
7008.932892
20
4174.376304
0
VERTEX
8
0
10
7034.286332
20
4194.611479
0
VERTEX
8
0
10
7059.639772
20
4215.065948
0
VERTEX
8
0
10
7084.993212
20
4235.739710
0
VERTEX
8
0
10
7110.346652
20
4256.632766
0
VERTEX
8
0
10
7135.700092
20
4277.745116
0
VERTEX
8
0
10
7161.053532
20
4299.076759
0
VERTEX
8
0
10
7186.406972
20
4320.627696
0
VERTEX
8
0
10
7211.760412
20
4342.397927
0
VERTEX
8
0
10
7237.113852
20
4364.387451
0
VERTEX
8
0
10
7262.467292
20
4386.596268
0
VERTEX
8
0
10
7287.820731
20
4409.024380
0
VERTEX
8
0
10
7313.174171
20
4431.671785
0
VERTEX
8
0
10
7338.527611
20
4454.538483
0
VERTEX
8
0
10
7363.881051
20
4477.624475
0
VERTEX
8
0
10
7389.234491
20
4500.929761
0
VERTEX
8
0
10
7414.587931
20
4524.454340
0
VERTEX
8
0
10
7439.941371
20
4548.198213
0
VERTEX
8
0
10
7465.294811
20
4572.161379
0
VERTEX
8
0
10
7490.648251
20
4596.343839
0
VERTEX
8
0
10
7516.001691
20
4620.745593
0
VERTEX
8
0
10
7541.355131
20
4645.366640
0
VERTEX
8
0
10
7566.708571
20
4670.206981
0
VERTEX
8
0
10
7592.062011
20
4695.266616
0
VERTEX
8
0
10
7617.415451
20
4720.545544
0
VERTEX
8
0
10
7642.768891
20
4746.043766
0
VERTEX
8
0
10
7668.122331
20
4771.761281
0
VERTEX
8
0
10
7693.475771
20
4797.698090
0
VERTEX
8
0
10
7718.829211
20
4823.854192
0
VERTEX
8
0
10
7744.182650
20
4850.229588
0
VERTEX
8
0
10
7769.536090
20
4876.824278
0
VERTEX
8
0
10
7794.889530
20
4903.638261
0
VERTEX
8
0
10
7820.242970
20
4930.671538
0
VERTEX
8
0
10
7845.596410
20
4957.924109
0
VERTEX
8
0
10
7870.949850
20
4985.395973
0
VERTEX
8
0
10
7896.303290
20
5013.087130
0
VERTEX
8
0
10
7921.656730
20
5040.997582
0
VERTEX
8
0
10
7947.010170
20
5069.127327
0
VERTEX
8
0
10
7972.363610
20
5097.476365
0
SEQEND
0
POLYLINE
8
0
62
170
6
CONTINUOUS
70
0
66
1
40
4.000000
41
4.000000
10
0
20
0
30
0
0
VERTEX
8
0
10
2546.727462
20
3879.444635
0
VERTEX
8
0
10
2546.727462
20
4028.702573
0
SEQEND
0
POLYLINE
8
0
62
10
6
CONTINUOUS
70
0
66
1
40
4.000000
41
4.000000
10
0
20
0
30
0
0
VERTEX
8
0
10
2506.540189
20
4174.326138
0
VERTEX
8
0
10
2459.261044
20
4108.133608
0
VERTEX
8
0
10
2530.179761
20
4108.133608
0
SEQEND
0
POLYLINE
8
0
62
10
6
CONTINUOUS
70
0
66
1
40
4.000000
41
4.000000
10
0
20
0
30
0
0
VERTEX
8
0
10
2506.540189
20
4174.326138
0
VERTEX
8
0
10
2506.540189
20
4075.037343
0
SEQEND
0
POLYLINE
8
0
62
10
6
CONTINUOUS
70
0
66
1
40
4.000000
41
4.000000
10
0
20
0
30
0
0
VERTEX
8
0
10
2544.363505
20
4084.493419
0
VERTEX
8
0
10
2539.635590
20
4079.765381
0
VERTEX
8
0
10
2544.363505
20
4075.037343
0
VERTEX
8
0
10
2549.091419
20
4079.765381
0
VERTEX
8
0
10
2544.363505
20
4084.493419
0
SEQEND
0
POLYLINE
8
0
62
10
6
CONTINUOUS
70
0
66
1
40
4.000000
41
4.000000
10
0
20
0
30
0
0
VERTEX
8
0
10
2568.003077
20
4155.413986
0
VERTEX
8
0
10
2577.458906
20
4160.142024
0
VERTEX
8
0
10
2591.642649
20
4174.326138
0
VERTEX
8
0
10
2591.642649
20
4075.037343
0
SEQEND
0
POLYLINE
8
0
62
170
6
CONTINUOUS
70
0
66
1
40
4.000000
41
4.000000
10
0
20
0
30
0
0
VERTEX
8
0
10
7972.363610
20
3879.444635
0
VERTEX
8
0
10
7972.363610
20
5097.476365
0
SEQEND
0
POLYLINE
8
0
62
10
6
CONTINUOUS
70
0
66
1
40
4.000000
41
4.000000
10
0
20
0
30
0
0
VERTEX
8
0
10
7847.073877
20
5243.099930
0
VERTEX
8
0
10
7899.080936
20
5243.099930
0
VERTEX
8
0
10
7870.713449
20
5205.275627
0
VERTEX
8
0
10
7884.897192
20
5205.275627
0
VERTEX
8
0
10
7894.353021
20
5200.547589
0
VERTEX
8
0
10
7899.080936
20
5195.819552
0
VERTEX
8
0
10
7903.808850
20
5181.635438
0
VERTEX
8
0
10
7903.808850
20
5172.179363
0
VERTEX
8
0
10
7899.080936
20
5157.995249
0
VERTEX
8
0
10
7889.625107
20
5148.539173
0
VERTEX
8
0
10
7875.441363
20
5143.811136
0
VERTEX
8
0
10
7861.257620
20
5143.811136
0
VERTEX
8
0
10
7847.073877
20
5148.539173
0
VERTEX
8
0
10
7842.345962
20
5153.267211
0
VERTEX
8
0
10
7837.618048
20
5162.723287
0
SEQEND
0
POLYLINE
8
0
62
10
6
CONTINUOUS
70
0
66
1
40
4.000000
41
4.000000
10
0
20
0
30
0
0
VERTEX
8
0
10
7927.448423
20
5243.099930
0
VERTEX
8
0
10
7979.455482
20
5243.099930
0
VERTEX
8
0
10
7951.087995
20
5205.275627
0
VERTEX
8
0
10
7965.271738
20
5205.275627
0
VERTEX
8
0
10
7974.727567
20
5200.547589
0
VERTEX
8
0
10
7979.455482
20
5195.819552
0
VERTEX
8
0
10
7984.183396
20
5181.635438
0
VERTEX
8
0
10
7984.183396
20
5172.179363
0
VERTEX
8
0
10
7979.455482
20
5157.995249
0
VERTEX
8
0
10
7969.999653
20
5148.539173
0
VERTEX
8
0
10
7955.815909
20
5143.811136
0
VERTEX
8
0
10
7941.632166
20
5143.811136
0
VERTEX
8
0
10
7927.448423
20
5148.539173
0
VERTEX
8
0
10
7922.720508
20
5153.267211
0
VERTEX
8
0
10
7917.992594
20
5162.723287
0
SEQEND
0
POLYLINE
8
0
62
10
6
CONTINUOUS
70
0
66
1
40
4.000000
41
4.000000
10
0
20
0
30
0
0
VERTEX
8
0
10
8003.095054
20
5153.267211
0
VERTEX
8
0
10
7998.367140
20
5148.539173
0
VERTEX
8
0
10
8003.095054
20
5143.811136
0
VERTEX
8
0
10
8007.822968
20
5148.539173
0
VERTEX
8
0
10
8003.095054
20
5153.267211
0
SEQEND
0
POLYLINE
8
0
62
10
6
CONTINUOUS
70
0
66
1
40
4.000000
41
4.000000
10
0
20
0
30
0
0
VERTEX
8
0
10
8031.462541
20
5219.459741
0
VERTEX
8
0
10
8031.462541
20
5224.187779
0
VERTEX
8
0
10
8036.190455
20
5233.643854
0
VERTEX
8
0
10
8040.918370
20
5238.371892
0
VERTEX
8
0
10
8050.374199
20
5243.099930
0
VERTEX
8
0
10
8069.285856
20
5243.099930
0
VERTEX
8
0
10
8078.741685
20
5238.371892
0
VERTEX
8
0
10
8083.469600
20
5233.643854
0
VERTEX
8
0
10
8088.197514
20
5224.187779
0
VERTEX
8
0
10
8088.197514
20
5214.731703
0
VERTEX
8
0
10
8083.469600
20
5205.275627
0
VERTEX
8
0
10
8074.013771
20
5191.091514
0
VERTEX
8
0
10
8026.734626
20
5143.811136
0
VERTEX
8
0
10
8092.925429
20
5143.811136
0
SEQEND
0
POLYLINE
8
0
62
170
6
CONTINUOUS
70
0
66
1
40
4.000000
41
4.000000
10
0
20
0
30
0
0
VERTEX
8
0
10
4682.137322
20
3879.444635
0
VERTEX
8
0
10
4682.137322
20
3250.872617
0
SEQEND
0
POLYLINE
8
0
62
10
6
CONTINUOUS
70
0
66
1
40
4.000000
41
4.000000
10
0
20
0
30
0
0
VERTEX
8
0
10
4561.575504
20
3185.625696
0
VERTEX
8
0
10
4571.031333
20
3190.353733
0
VERTEX
8
0
10
4585.215076
20
3204.537847
0
VERTEX
8
0
10
4585.215076
20
3105.249053
0
SEQEND
0
POLYLINE
8
0
62
10
6
CONTINUOUS
70
0
66
1
40
4.000000
41
4.000000
10
0
20
0
30
0
0
VERTEX
8
0
10
4693.957109
20
3204.537847
0
VERTEX
8
0
10
4646.677964
20
3105.249053
0
SEQEND
0
POLYLINE
8
0
62
10
6
CONTINUOUS
70
0
66
1
40
4.000000
41
4.000000
10
0
20
0
30
0
0
VERTEX
8
0
10
4627.766306
20
3204.537847
0
VERTEX
8
0
10
4693.957109
20
3204.537847
0
SEQEND
0
POLYLINE
8
0
62
10
6
CONTINUOUS
70
0
66
1
40
4.000000
41
4.000000
10
0
20
0
30
0
0
VERTEX
8
0
10
4712.868766
20
3114.705128
0
VERTEX
8
0
10
4708.140852
20
3109.977091
0
VERTEX
8
0
10
4712.868766
20
3105.249053
0
VERTEX
8
0
10
4717.596681
20
3109.977091
0
VERTEX
8
0
10
4712.868766
20
3114.705128
0
SEQEND
0
POLYLINE
8
0
62
10
6
CONTINUOUS
70
0
66
1
40
4.000000
41
4.000000
10
0
20
0
30
0
0
VERTEX
8
0
10
4736.508339
20
3185.625696
0
VERTEX
8
0
10
4745.964168
20
3190.353733
0
VERTEX
8
0
10
4760.147911
20
3204.537847
0
VERTEX
8
0
10
4760.147911
20
3105.249053
0
SEQEND
0
POLYLINE
8
0
62
96
6
CONTINUOUS
70
0
66
1
40
4.000000
41
4.000000
10
0
20
0
30
0
0
VERTEX
8
0
10
13260.103632
20
3640.593029
0
VERTEX
8
0
10
13397.999758
20
3879.444635
0
VERTEX
8
0
10
13535.895884
20
3640.593029
0
SEQEND
0
POLYLINE
8
0
62
96
6
CONTINUOUS
70
0
66
1
40
4.000000
41
4.000000
10
0
20
0
30
0
0
VERTEX
8
0
10
13191.157637
20
3640.593029
0
VERTEX
8
0
10
13604.841879
20
3640.593029
0
SEQEND
0
POLYLINE
8
0
62
96
6
CONTINUOUS
70
0
66
1
40
4.000000
41
4.000000
10
0
20
0
30
0
0
VERTEX
8
0
10
13273.896140
20
3640.593029
0
VERTEX
8
0
10
13191.157637
20
3557.852368
0
SEQEND
0
POLYLINE
8
0
62
96
6
CONTINUOUS
70
0
66
1
40
4.000000
41
4.000000
10
0
20
0
30
0
0
VERTEX
8
0
10
13356.634643
20
3640.593029
0
VERTEX
8
0
10
13273.896140
20
3557.852368
0
SEQEND
0
POLYLINE
8
0
62
96
6
CONTINUOUS
70
0
66
1
40
4.000000
41
4.000000
10
0
20
0
30
0
0
VERTEX
8
0
10
13439.373146
20
3640.593029
0
VERTEX
8
0
10
13356.634643
20
3557.852368
0
SEQEND
0
POLYLINE
8
0
62
96
6
CONTINUOUS
70
0
66
1
40
4.000000
41
4.000000
10
0
20
0
30
0
0
VERTEX
8
0
10
13522.111650
20
3640.593029
0
VERTEX
8
0
10
13439.373146
20
3557.852368
0
SEQEND
0
POLYLINE
8
0
62
96
6
CONTINUOUS
70
0
66
1
40
4.000000
41
4.000000
10
0
20
0
30
0
0
VERTEX
8
0
10
13604.850153
20
3640.593029
0
VERTEX
8
0
10
13522.111650
20
3557.852368
0
SEQEND
0
POLYLINE
8
0
62
96
6
CONTINUOUS
70
0
66
1
40
4.000000
41
4.000000
10
0
20
0
30
0
0
VERTEX
8
0
10
7834.467484
20
3640.593029
0
VERTEX
8
0
10
7972.363610
20
3879.444635
0
VERTEX
8
0
10
8110.259736
20
3640.593029
0
SEQEND
0
POLYLINE
8
0
62
96
6
CONTINUOUS
70
0
66
1
40
4.000000
41
4.000000
10
0
20
0
30
0
0
VERTEX
8
0
10
7765.521489
20
3640.593029
0
VERTEX
8
0
10
8179.205731
20
3640.593029
0
SEQEND
0
POLYLINE
8
0
62
96
6
CONTINUOUS
70
0
66
1
40
4.000000
41
4.000000
10
0
20
0
30
0
0
VERTEX
8
0
10
7848.259992
20
3640.593029
0
VERTEX
8
0
10
7765.521489
20
3557.852368
0
SEQEND
0
POLYLINE
8
0
62
96
6
CONTINUOUS
70
0
66
1
40
4.000000
41
4.000000
10
0
20
0
30
0
0
VERTEX
8
0
10
7930.998495
20
3640.593029
0
VERTEX
8
0
10
7848.259992
20
3557.852368
0
SEQEND
0
POLYLINE
8
0
62
96
6
CONTINUOUS
70
0
66
1
40
4.000000
41
4.000000
10
0
20
0
30
0
0
VERTEX
8
0
10
8013.736998
20
3640.593029
0
VERTEX
8
0
10
7930.998495
20
3557.852368
0
SEQEND
0
POLYLINE
8
0
62
96
6
CONTINUOUS
70
0
66
1
40
4.000000
41
4.000000
10
0
20
0
30
0
0
VERTEX
8
0
10
8096.475502
20
3640.593029
0
VERTEX
8
0
10
8013.736998
20
3557.852368
0
SEQEND
0
POLYLINE
8
0
62
96
6
CONTINUOUS
70
0
66
1
40
4.000000
41
4.000000
10
0
20
0
30
0
0
VERTEX
8
0
10
8179.214005
20
3640.593029
0
VERTEX
8
0
10
8096.475502
20
3557.852368
0
SEQEND
0
POLYLINE
8
0
62
96
6
CONTINUOUS
70
0
66
1
40
4.000000
41
4.000000
10
0
20
0
30
0
0
VERTEX
8
0
10
2408.831336
20
3640.593029
0
VERTEX
8
0
10
2546.727462
20
3879.444635
0
VERTEX
8
0
10
2684.623588
20
3640.593029
0
SEQEND
0
POLYLINE
8
0
62
96
6
CONTINUOUS
70
0
66
1
40
4.000000
41
4.000000
10
0
20
0
30
0
0
VERTEX
8
0
10
2339.885341
20
3640.593029
0
VERTEX
8
0
10
2753.569583
20
3640.593029
0
SEQEND
0
POLYLINE
8
0
62
96
6
CONTINUOUS
70
0
66
1
40
4.000000
41
4.000000
10
0
20
0
30
0
0
VERTEX
8
0
10
2422.623844
20
3640.593029
0
VERTEX
8
0
10
2339.885341
20
3557.852368
0
SEQEND
0
POLYLINE
8
0
62
96
6
CONTINUOUS
70
0
66
1
40
4.000000
41
4.000000
10
0
20
0
30
0
0
VERTEX
8
0
10
2505.362347
20
3640.593029
0
VERTEX
8
0
10
2422.623844
20
3557.852368
0
SEQEND
0
POLYLINE
8
0
62
96
6
CONTINUOUS
70
0
66
1
40
4.000000
41
4.000000
10
0
20
0
30
0
0
VERTEX
8
0
10
2588.100850
20
3640.593029
0
VERTEX
8
0
10
2505.362347
20
3557.852368
0
SEQEND
0
POLYLINE
8
0
62
96
6
CONTINUOUS
70
0
66
1
40
4.000000
41
4.000000
10
0
20
0
30
0
0
VERTEX
8
0
10
2670.839353
20
3640.593029
0
VERTEX
8
0
10
2588.100850
20
3557.852368
0
SEQEND
0
POLYLINE
8
0
62
96
6
CONTINUOUS
70
0
66
1
40
4.000000
41
4.000000
10
0
20
0
30
0
0
VERTEX
8
0
10
2753.577857
20
3640.593029
0
VERTEX
8
0
10
2670.839353
20
3557.852368
0
SEQEND
0
ENDSEC
0
EOF
