999
CD - A 2D Graphics Library, version 5.10
0
SECTION
2
HEADER
9
$ACADVER
1
AC1006
9
$LIMCHECK
70
1
9
$LIMMIN
10
0.000000
20
0.000000
9
$LIMMAX
10
14617.000000
20
7759.000000
9
$EXTMIN
10
0.000000
20
0.000000
9
$EXTMAX
10
14617.000000
20
7759.000000
9
$CLAYER
8
0
9
$LUNITS
70
2
9
$LUPREC
70
2
9
$AUNITS
70
0
9
$AUPREC
70
2
9
$TEXTSTYLE
7
STANDARD
0
ENDSEC
0
SECTION
2
TABLES
0
TABLE
2
LTYPE
70
11
0
LTYPE
2
BYBLOCK
70
0
3

72
65
73
0
40
0
0
LTYPE
2
BYLAYER
70
0
3

72
65
73
0
40
0
0
LTYPE
2
CONTINUOUS
70
0
3
Solid line
72
65
73
0
40
0
0
LTYPE
2
DASHED
70
0
3
Dashed line
72
65
73
2
40
15
49
10
49
-5
0
LTYPE
2
HIDDEN
70
0
3
Hidden line
72
65
73
2
40
10
49
5
49
-5
0
LTYPE
2
CENTER
70
0
3
Center line
72
65
73
4
40
35
49
20
49
-5
49
5
49
-5
0
LTYPE
2
PHANTOM
70
0
3
Phantom line
72
65
73
6
40
50
49
25
49
-5
49
5
49
-5
49
5
49
-5
0
LTYPE
2
DOT
70
0
3
Dot line
72
65
73
2
40
5
49
0
49
-5
0
LTYPE
2
DASHDOT
70
0
3
Dashdot line
72
65
73
4
40
20
49
10
49
-5
49
0
49
-5
0
LTYPE
2
BORDER
70
0
3
Border line
72
65
73
6
40
35
49
10
49
-5
49
10
49
-5
49
0
49
-5
0
LTYPE
2
DIVIDE
70
0
3
Divide Line
72
65
73
6
40
25
49
10
49
-5
49
0
49
-5
49
0
49
-5
0
ENDTAB
0
TABLE
2
STYLE
70
6
0
STYLE
2
ROMAN
70
0
3
romanc.shx
71
0
40
0
41
1
42
0
4

50
0
0
STYLE
2
ROMAN_BOLD
70
0
3
romant.shx
71
0
40
0
41
1
42
0
4

50
0
0
STYLE
2
ROMANTIC
70
0
3
rom_____.pfb
71
0
40
0
41
1
42
0
4

50
0
0
STYLE
2
ROMANTIC_BOLD
70
0
3
romb____.pfb
71
0
40
0
41
1
42
0
4

50
0
0
STYLE
2
SANSSERIF
70
0
3
sas_____.pfb
71
0
40
0
41
1
42
0
4

50
0
0
STYLE
2
SANSSERIF_BOLD
70
0
3
sasb____.pfb
71
0
40
0
41
1
42
0
4

50
0
0
ENDTAB
0
ENDSEC
0
SECTION
2
BLOCKS
0
ENDSEC
0
SECTION
2
ENTITIES
0
POLYLINE
8
0
62
56
6
CONTINUOUS
70
0
66
1
40
4.000000
41
4.000000
10
0
20
0
30
0
0
VERTEX
8
0
10
2546.727462
20
3879.444635
0
VERTEX
8
0
10
1218.000242
20
3879.444635
0
SEQEND
0
POLYLINE
8
0
62
170
6
CONTINUOUS
70
0
66
1
40
4.000000
41
4.000000
10
0
20
0
30
0
0
VERTEX
8
0
10
2546.727462
20
4360.580246
0
VERTEX
8
0
10
2521.657137
20
4342.595469
0
VERTEX
8
0
10
2496.586812
20
4324.953259
0
VERTEX
8
0
10
2471.516487
20
4307.653616
0
VERTEX
8
0
10
2446.446162
20
4290.696540
0
VERTEX
8
0
10
2421.375837
20
4274.082032
0
VERTEX
8
0
10
2396.305512
20
4257.810090
0
VERTEX
8
0
10
2371.235188
20
4241.880716
0
VERTEX
8
0
10
2346.164863
20
4226.293909
0
VERTEX
8
0
10
2321.094538
20
4211.049670
0
VERTEX
8
0
10
2296.024213
20
4196.147997
0
VERTEX
8
0
10
2270.953888
20
4181.588892
0
VERTEX
8
0
10
2245.883563
20
4167.372354
0
VERTEX
8
0
10
2220.813238
20
4153.498383
0
VERTEX
8
0
10
2195.742913
20
4139.966979
0
VERTEX
8
0
10
2170.672588
20
4126.778142
0
VERTEX
8
0
10
2145.602263
20
4113.931873
0
VERTEX
8
0
10
2120.531939
20
4101.428171
0
VERTEX
8
0
10
2095.461614
20
4089.267036
0
VERTEX
8
0
10
2070.391289
20
4077.448468
0
VERTEX
8
0
10
2045.320964
20
4065.972467
0
VERTEX
8
0
10
2020.250639
20
4054.839033
0
VERTEX
8
0
10
1995.180314
20
4044.048167
0
VERTEX
8
0
10
1970.109989
20
4033.599868
0
VERTEX
8
0
10
1945.039664
20
4023.494136
0
VERTEX
8
0
10
1919.969339
20
4013.730971
0
VERTEX
8
0
10
1894.899014
20
4004.310374
0
VERTEX
8
0
10
1869.828690
20
3995.232343
0
VERTEX
8
0
10
1844.758365
20
3986.496880
0
VERTEX
8
0
10
1819.688040
20
3978.103984
0
VERTEX
8
0
10
1794.617715
20
3970.053655
0
VERTEX
8
0
10
1769.547390
20
3962.345894
0
VERTEX
8
0
10
1744.477065
20
3954.980699
0
VERTEX
8
0
10
1719.406740
20
3947.958072
0
VERTEX
8
0
10
1694.336415
20
3941.278012
0
VERTEX
8
0
10
1669.266090
20
3934.940519
0
VERTEX
8
0
10
1644.195765
20
3928.945593
0
VERTEX
8
0
10
1619.125440
20
3923.293235
0
VERTEX
8
0
10
1594.055116
20
3917.983443
0
VERTEX
8
0
10
1568.984791
20
3913.016219
0
VERTEX
8
0
10
1543.914466
20
3908.391562
0
VERTEX
8
0
10
1518.844141
20
3904.109472
0
VERTEX
8
0
10
1493.773816
20
3900.169950
0
VERTEX
8
0
10
1468.703491
20
3896.572994
0
VERTEX
8
0
10
1443.633166
20
3893.318606
0
VERTEX
8
0
10
1418.562841
20
3890.406785
0
VERTEX
8
0
10
1393.492516
20
3887.837531
0
VERTEX
8
0
10
1368.422191
20
3885.610844
0
VERTEX
8
0
10
1343.351867
20
3883.726725
0
VERTEX
8
0
10
1318.281542
20
3882.185172
0
VERTEX
8
0
10
1293.211217
20
3880.986187
0
VERTEX
8
0
10
1268.140892
20
3880.129769
0
VERTEX
8
0
10
1243.070567
20
3879.615919
0
VERTEX
8
0
10
1218.000242
20
3879.444635
0
SEQEND
0
POLYLINE
8
0
62
170
6
CONTINUOUS
70
0
66
1
40
4.000000
41
4.000000
10
0
20
0
30
0
0
VERTEX
8
0
10
1218.000242
20
3879.444635
0
VERTEX
8
0
10
1218.000242
20
3879.444635
0
SEQEND
0
POLYLINE
8
0
62
170
6
CONTINUOUS
70
0
66
1
40
4.000000
41
4.000000
10
0
20
0
30
0
0
VERTEX
8
0
10
1218.000242
20
3879.444635
0
VERTEX
8
0
10
1218.000242
20
3879.444635
0
SEQEND
0
POLYLINE
8
0
62
56
6
CONTINUOUS
70
0
66
1
40
4.000000
41
4.000000
10
0
20
0
30
0
0
VERTEX
8
0
10
7972.363610
20
3879.444635
0
VERTEX
8
0
10
13397.999758
20
3879.444635
0
SEQEND
0
POLYLINE
8
0
62
170
6
CONTINUOUS
70
0
66
1
40
4.000000
41
4.000000
10
0
20
0
30
0
0
VERTEX
8
0
10
7972.363610
20
5097.476365
0
VERTEX
8
0
10
7997.717050
20
5059.438051
0
VERTEX
8
0
10
8023.070490
20
5021.703461
0
VERTEX
8
0
10
8048.423930
20
4984.272595
0
VERTEX
8
0
10
8073.777370
20
4947.145452
0
VERTEX
8
0
10
8099.130810
20
4910.322033
0
VERTEX
8
0
10
8124.484250
20
4873.802338
0
VERTEX
8
0
10
8149.837690
20
4837.586367
0
VERTEX
8
0
10
8175.191130
20
4801.674119
0
VERTEX
8
0
10
8200.544569
20
4766.065595
0
VERTEX
8
0
10
8225.898009
20
4730.760795
0
VERTEX
8
0
10
8251.251449
20
4695.759719
0
VERTEX
8
0
10
8276.604889
20
4661.062366
0
VERTEX
8
0
10
8301.958329
20
4626.668737
0
VERTEX
8
0
10
8327.311769
20
4592.578831
0
VERTEX
8
0
10
8352.665209
20
4558.792650
0
VERTEX
8
0
10
8378.018649
20
4525.310192
0
VERTEX
8
0
10
8403.372089
20
4492.131458
0
VERTEX
8
0
10
8428.725529
20
4459.256447
0
VERTEX
8
0
10
8454.078969
20
4426.685161
0
VERTEX
8
0
10
8479.432409
20
4394.417598
0
VERTEX
8
0
10
8504.785849
20
4362.453758
0
VERTEX
8
0
10
8530.139289
20
4330.793643
0
VERTEX
8
0
10
8555.492729
20
4299.437251
0
VERTEX
8
0
10
8580.846169
20
4268.384583
0
VERTEX
8
0
10
8606.199609
20
4237.635639
0
VERTEX
8
0
10
8631.553049
20
4207.190418
0
VERTEX
8
0
10
8656.906488
20
4177.048921
0
VERTEX
8
0
10
8682.259928
20
4147.211148
0
VERTEX
8
0
10
8707.613368
20
4117.677098
0
VERTEX
8
0
10
8732.966808
20
4088.446773
0
VERTEX
8
0
10
8758.320248
20
4059.520171
0
VERTEX
8
0
10
8783.673688
20
4030.897292
0
VERTEX
8
0
10
8809.027128
20
4002.578138
0
VERTEX
8
0
10
8834.380568
20
3974.562707
0
VERTEX
8
0
10
8859.734008
20
3946.851000
0
VERTEX
8
0
10
8885.087448
20
3919.443016
0
VERTEX
8
0
10
8910.440888
20
3892.338757
0
VERTEX
8
0
10
8935.794328
20
3865.538221
0
VERTEX
8
0
10
8961.147768
20
3839.041409
0
VERTEX
8
0
10
8986.501208
20
3812.848320
0
VERTEX
8
0
10
9011.854648
20
3786.958955
0
VERTEX
8
0
10
9037.208088
20
3761.373314
0
VERTEX
8
0
10
9062.561528
20
3736.091397
0
VERTEX
8
0
10
9087.914968
20
3711.113203
0
VERTEX
8
0
10
9113.268407
20
3686.438734
0
VERTEX
8
0
10
9138.621847
20
3662.067987
0
VERTEX
8
0
10
9163.975287
20
3638.000965
0
VERTEX
8
0
10
9189.328727
20
3614.237666
0
VERTEX
8
0
10
9214.682167
20
3590.778091
0
VERTEX
8
0
10
9240.035607
20
3567.622240
0
VERTEX
8
0
10
9265.389047
20
3544.770113
0
VERTEX
8
0
10
9290.742487
20
3522.221709
0
VERTEX
8
0
10
9316.095927
20
3499.977029
0
VERTEX
8
0
10
9341.449367
20
3478.036072
0
VERTEX
8
0
10
9366.802807
20
3456.398840
0
VERTEX
8
0
10
9392.156247
20
3435.065331
0
VERTEX
8
0
10
9417.509687
20
3414.035546
0
VERTEX
8
0
10
9442.863127
20
3393.309484
0
VERTEX
8
0
10
9468.216567
20
3372.887147
0
VERTEX
8
0
10
9493.570007
20
3352.768533
0
VERTEX
8
0
10
9518.923447
20
3332.953642
0
VERTEX
8
0
10
9544.276886
20
3313.442476
0
VERTEX
8
0
10
9569.630326
20
3294.235033
0
VERTEX
8
0
10
9594.983766
20
3275.331314
0
VERTEX
8
0
10
9620.337206
20
3256.731319
0
VERTEX
8
0
10
9645.690646
20
3238.435047
0
VERTEX
8
0
10
9671.044086
20
3220.442499
0
VERTEX
8
0
10
9696.397526
20
3202.753675
0
VERTEX
8
0
10
9721.750966
20
3185.368574
0
VERTEX
8
0
10
9747.104406
20
3168.287198
0
VERTEX
8
0
10
9772.457846
20
3151.509545
0
VERTEX
8
0
10
9797.811286
20
3135.035615
0
VERTEX
8
0
10
9823.164726
20
3118.865410
0
VERTEX
8
0
10
9848.518166
20
3102.998928
0
VERTEX
8
0
10
9873.871606
20
3087.436170
0
VERTEX
8
0
10
9899.225046
20
3072.177135
0
VERTEX
8
0
10
9924.578486
20
3057.221825
0
VERTEX
8
0
10
9949.931926
20
3042.570238
0
VERTEX
8
0
10
9975.285366
20
3028.222375
0
VERTEX
8
0
10
10000.638805
20
3014.178235
0
VERTEX
8
0
10
10025.992245
20
3000.437819
0
VERTEX
8
0
10
10051.345685
20
2987.001127
0
VERTEX
8
0
10
10076.699125
20
2973.868159
0
VERTEX
8
0
10
10102.052565
20
2961.038914
0
VERTEX
8
0
10
10127.406005
20
2948.513393
0
VERTEX
8
0
10
10152.759445
20
2936.291596
0
VERTEX
8
0
10
10178.112885
20
2924.373523
0
VERTEX
8
0
10
10203.466325
20
2912.759173
0
VERTEX
8
0
10
10228.819765
20
2901.448547
0
VERTEX
8
0
10
10254.173205
20
2890.441645
0
VERTEX
8
0
10
10279.526645
20
2879.738467
0
VERTEX
8
0
10
10304.880085
20
2869.339012
0
VERTEX
8
0
10
10330.233525
20
2859.243281
0
VERTEX
8
0
10
10355.586965
20
2849.451273
0
VERTEX
8
0
10
10380.940405
20
2839.962990
0
VERTEX
8
0
10
10406.293845
20
2830.778430
0
VERTEX
8
0
10
10431.647285
20
2821.897594
0
VERTEX
8
0
10
10457.000724
20
2813.320481
0
VERTEX
8
0
10
10482.354164
20
2805.047092
0
VERTEX
8
0
10
10507.707604
20
2797.077427
0
VERTEX
8
0
10
10533.061044
20
2789.411486
0
VERTEX
8
0
10
10558.414484
20
2782.049269
0
VERTEX
8
0
10
10583.767924
20
2774.990775
0
VERTEX
8
0
10
10609.121364
20
2768.236005
0
VERTEX
8
0
10
10634.474804
20
2761.784958
0
VERTEX
8
0
10
10659.828244
20
2755.637636
0
VERTEX
8
0
10
10685.181684
20
2749.794037
0
VERTEX
8
0
10
10710.535124
20
2744.254162
0
VERTEX
8
0
10
10735.888564
20
2739.018010
0
VERTEX
8
0
10
10761.242004
20
2734.085582
0
VERTEX
8
0
10
10786.595444
20
2729.456878
0
VERTEX
8
0
10
10811.948884
20
2725.131898
0
VERTEX
8
0
10
10837.302324
20
2721.110642
0
VERTEX
8
0
10
10862.655764
20
2717.393109
0
VERTEX
8
0
10
10888.009204
20
2713.979300
0
VERTEX
8
0
10
10913.362643
20
2710.869214
0
VERTEX
8
0
10
10938.716083
20
2708.062853
0
VERTEX
8
0
10
10964.069523
20
2705.560215
0
VERTEX
8
0
10
10989.422963
20
2703.361300
0
VERTEX
8
0
10
11014.776403
20
2701.466110
0
VERTEX
8
0
10
11040.129843
20
2699.874643
0
VERTEX
8
0
10
11065.483283
20
2698.586900
0
VERTEX
8
0
10
11090.836723
20
2697.602881
0
VERTEX
8
0
10
11116.190163
20
2696.922585
0
VERTEX
8
0
10
11141.543603
20
2696.546013
0
VERTEX
8
0
10
11166.897043
20
2696.473165
0
VERTEX
8
0
10
11192.250483
20
2696.704041
0
VERTEX
8
0
10
11217.603923
20
2697.238640
0
VERTEX
8
0
10
11242.957363
20
2698.076963
0
VERTEX
8
0
10
11268.310803
20
2699.219010
0
VERTEX
8
0
10
11293.664243
20
2700.664780
0
VERTEX
8
0
10
11319.017683
20
2702.414274
0
VERTEX
8
0
10
11344.371123
20
2704.467492
0
VERTEX
8
0
10
11369.724562
20
2706.824434
0
VERTEX
8
0
10
11395.078002
20
2709.485099
0
VERTEX
8
0
10
11420.431442
20
2712.449489
0
VERTEX
8
0
10
11445.784882
20
2715.717601
0
VERTEX
8
0
10
11471.138322
20
2719.289438
0
VERTEX
8
0
10
11496.491762
20
2723.164998
0
VERTEX
8
0
10
11521.845202
20
2727.344282
0
VERTEX
8
0
10
11547.198642
20
2731.827290
0
VERTEX
8
0
10
11572.552082
20
2736.614021
0
VERTEX
8
0
10
11597.905522
20
2741.704477
0
VERTEX
8
0
10
11623.258962
20
2747.098655
0
VERTEX
8
0
10
11648.612402
20
2752.796558
0
VERTEX
8
0
10
11673.965842
20
2758.798184
0
VERTEX
8
0
10
11699.319282
20
2765.103534
0
VERTEX
8
0
10
11724.672722
20
2771.712608
0
VERTEX
8
0
10
11750.026162
20
2778.625406
0
VERTEX
8
0
10
11775.379602
20
2785.841927
0
VERTEX
8
0
10
11800.733042
20
2793.362172
0
VERTEX
8
0
10
11826.086481
20
2801.186141
0
VERTEX
8
0
10
11851.439921
20
2809.313833
0
VERTEX
8
0
10
11876.793361
20
2817.745249
0
VERTEX
8
0
10
11902.146801
20
2826.480389
0
VERTEX
8
0
10
11927.500241
20
2835.519253
0
VERTEX
8
0
10
11952.853681
20
2844.861840
0
VERTEX
8
0
10
11978.207121
20
2854.508151
0
VERTEX
8
0
10
12003.560561
20
2864.458186
0
VERTEX
8
0
10
12028.914001
20
2874.711944
0
VERTEX
8
0
10
12054.267441
20
2885.269427
0
VERTEX
8
0
10
12079.620881
20
2896.130633
0
VERTEX
8
0
10
12104.974321
20
2907.295562
0
VERTEX
8
0
10
12130.327761
20
2918.764216
0
VERTEX
8
0
10
12155.681201
20
2930.536593
0
VERTEX
8
0
10
12181.034641
20
2942.612694
0
VERTEX
8
0
10
12206.388081
20
2954.992518
0
VERTEX
8
0
10
12231.741521
20
2967.676067
0
VERTEX
8
0
10
12257.094961
20
2980.663339
0
VERTEX
8
0
10
12282.448400
20
2993.954334
0
VERTEX
8
0
10
12307.801840
20
3007.549054
0
VERTEX
8
0
10
12333.155280
20
3021.447497
0
VERTEX
8
0
10
12358.508720
20
3035.649664
0
VERTEX
8
0
10
12383.862160
20
3050.155555
0
VERTEX
8
0
10
12409.215600
20
3064.965169
0
VERTEX
8
0
10
12434.569040
20
3080.078507
0
VERTEX
8
0
10
12459.922480
20
3095.495569
0
VERTEX
8
0
10
12485.275920
20
3111.216354
0
VERTEX
8
0
10
12510.629360
20
3127.240864
0
VERTEX
8
0
10
12535.982800
20
3143.569097
0
VERTEX
8
0
10
12561.336240
20
3160.201053
0
VERTEX
8
0
10
12586.689680
20
3177.136734
0
VERTEX
8
0
10
12612.043120
20
3194.376138
0
VERTEX
8
0
10
12637.396560
20
3211.919266
0
VERTEX
8
0
10
12662.750000
20
3229.766118
0
VERTEX
8
0
10
12688.103440
20
3247.916693
0
VERTEX
8
0
10
12713.456880
20
3266.370992
0
VERTEX
8
0
10
12738.810319
20
3285.129015
0
VERTEX
8
0
10
12764.163759
20
3304.190761
0
VERTEX
8
0
10
12789.517199
20
3323.556232
0
VERTEX
8
0
10
12814.870639
20
3343.225425
0
VERTEX
8
0
10
12840.224079
20
3363.198343
0
VERTEX
8
0
10
12865.577519
20
3383.474985
0
VERTEX
8
0
10
12890.930959
20
3404.055350
0
VERTEX
8
0
10
12916.284399
20
3424.939439
0
VERTEX
8
0
10
12941.637839
20
3446.127251
0
VERTEX
8
0
10
12966.991279
20
3467.618788
0
VERTEX
8
0
10
12992.344719
20
3489.414048
0
VERTEX
8
0
10
13017.698159
20
3511.513031
0
VERTEX
8
0
10
13043.051599
20
3533.915739
0
VERTEX
8
0
10
13068.405039
20
3556.622170
0
VERTEX
8
0
10
13093.758479
20
3579.632325
0
VERTEX
8
0
10
13119.111919
20
3602.946204
0
VERTEX
8
0
10
13144.465359
20
3626.563806
0
VERTEX
8
0
10
13169.818799
20
3650.485132
0
VERTEX
8
0
10
13195.172238
20
3674.710182
0
VERTEX
8
0
10
13220.525678
20
3699.238956
0
VERTEX
8
0
10
13245.879118
20
3724.071453
0
VERTEX
8
0
10
13271.232558
20
3749.207674
0
VERTEX
8
0
10
13296.585998
20
3774.647619
0
VERTEX
8
0
10
13321.939438
20
3800.391287
0
VERTEX
8
0
10
13347.292878
20
3826.438679
0
VERTEX
8
0
10
13372.646318
20
3852.789795
0
VERTEX
8
0
10
13397.999758
20
3879.444635
0
SEQEND
0
POLYLINE
8
0
62
170
6
CONTINUOUS
70
0
66
1
40
4.000000
41
4.000000
10
0
20
0
30
0
0
VERTEX
8
0
10
13397.999758
20
3879.444635
0
VERTEX
8
0
10
13397.999758
20
3879.444635
0
SEQEND
0
POLYLINE
8
0
62
170
6
CONTINUOUS
70
0
66
1
40
4.000000
41
4.000000
10
0
20
0
30
0
0
VERTEX
8
0
10
11160.301346
20
3879.444635
0
VERTEX
8
0
10
11160.301346
20
2696.462887
0
SEQEND
0
POLYLINE
8
0
62
10
6
CONTINUOUS
70
0
66
1
40
4.000000
41
4.000000
10
0
20
0
30
0
0
VERTEX
8
0
10
11030.283699
20
2626.487928
0
VERTEX
8
0
10
11030.283699
20
2631.215966
0
VERTEX
8
0
10
11035.011613
20
2640.672041
0
VERTEX
8
0
10
11039.739528
20
2645.400079
0
VERTEX
8
0
10
11049.195357
20
2650.128117
0
VERTEX
8
0
10
11068.107014
20
2650.128117
0
VERTEX
8
0
10
11077.562843
20
2645.400079
0
VERTEX
8
0
10
11082.290758
20
2640.672041
0
VERTEX
8
0
10
11087.018672
20
2631.215966
0
VERTEX
8
0
10
11087.018672
20
2621.759890
0
VERTEX
8
0
10
11082.290758
20
2612.303814
0
VERTEX
8
0
10
11072.834929
20
2598.119701
0
VERTEX
8
0
10
11025.555784
20
2550.839323
0
VERTEX
8
0
10
11091.746587
20
2550.839323
0
SEQEND
0
POLYLINE
8
0
62
10
6
CONTINUOUS
70
0
66
1
40
4.000000
41
4.000000
10
0
20
0
30
0
0
VERTEX
8
0
10
11115.386159
20
2650.128117
0
VERTEX
8
0
10
11167.393218
20
2650.128117
0
VERTEX
8
0
10
11139.025731
20
2612.303814
0
VERTEX
8
0
10
11153.209475
20
2612.303814
0
VERTEX
8
0
10
11162.665304
20
2607.575776
0
VERTEX
8
0
10
11167.393218
20
2602.847739
0
VERTEX
8
0
10
11172.121133
20
2588.663625
0
VERTEX
8
0
10
11172.121133
20
2579.207550
0
VERTEX
8
0
10
11167.393218
20
2565.023436
0
VERTEX
8
0
10
11157.937389
20
2555.567360
0
VERTEX
8
0
10
11143.753646
20
2550.839323
0
VERTEX
8
0
10
11129.569902
20
2550.839323
0
VERTEX
8
0
10
11115.386159
20
2555.567360
0
VERTEX
8
0
10
11110.658245
20
2560.295398
0
VERTEX
8
0
10
11105.930330
20
2569.751474
0
SEQEND
0
POLYLINE
8
0
62
10
6
CONTINUOUS
70
0
66
1
40
4.000000
41
4.000000
10
0
20
0
30
0
0
VERTEX
8
0
10
11191.032790
20
2560.295398
0
VERTEX
8
0
10
11186.304876
20
2555.567360
0
VERTEX
8
0
10
11191.032790
20
2550.839323
0
VERTEX
8
0
10
11195.760705
20
2555.567360
0
VERTEX
8
0
10
11191.032790
20
2560.295398
0
SEQEND
0
POLYLINE
8
0
62
10
6
CONTINUOUS
70
0
66
1
40
4.000000
41
4.000000
10
0
20
0
30
0
0
VERTEX
8
0
10
11224.128192
20
2650.128117
0
VERTEX
8
0
10
11276.135251
20
2650.128117
0
VERTEX
8
0
10
11247.767764
20
2612.303814
0
VERTEX
8
0
10
11261.951507
20
2612.303814
0
VERTEX
8
0
10
11271.407336
20
2607.575776
0
VERTEX
8
0
10
11276.135251
20
2602.847739
0
VERTEX
8
0
10
11280.863165
20
2588.663625
0
VERTEX
8
0
10
11280.863165
20
2579.207550
0
VERTEX
8
0
10
11276.135251
20
2565.023436
0
VERTEX
8
0
10
11266.679422
20
2555.567360
0
VERTEX
8
0
10
11252.495678
20
2550.839323
0
VERTEX
8
0
10
11238.311935
20
2550.839323
0
VERTEX
8
0
10
11224.128192
20
2555.567360
0
VERTEX
8
0
10
11219.400277
20
2560.295398
0
VERTEX
8
0
10
11214.672363
20
2569.751474
0
SEQEND
0
POLYLINE
8
0
62
56
6
CONTINUOUS
70
0
66
1
40
4.000000
41
4.000000
10
0
20
0
30
0
0
VERTEX
8
0
10
2546.727462
20
3879.444635
0
VERTEX
8
0
10
7972.363610
20
3879.444635
0
SEQEND
0
POLYLINE
8
0
62
170
6
CONTINUOUS
70
0
66
1
40
4.000000
41
4.000000
10
0
20
0
30
0
0
VERTEX
8
0
10
2546.727462
20
4360.580246
0
VERTEX
8
0
10
2572.080902
20
4346.573559
0
VERTEX
8
0
10
2597.434342
20
4332.730723
0
VERTEX
8
0
10
2622.787782
20
4319.051737
0
VERTEX
8
0
10
2648.141222
20
4305.536603
0
VERTEX
8
0
10
2673.494662
20
4292.185320
0
VERTEX
8
0
10
2698.848102
20
4278.997888
0
VERTEX
8
0
10
2724.201542
20
4265.974306
0
VERTEX
8
0
10
2749.554981
20
4253.114576
0
VERTEX
8
0
10
2774.908421
20
4240.418696
0
VERTEX
8
0
10
2800.261861
20
4227.886668
0
VERTEX
8
0
10
2825.615301
20
4215.518490
0
VERTEX
8
0
10
2850.968741
20
4203.314164
0
VERTEX
8
0
10
2876.322181
20
4191.273688
0
VERTEX
8
0
10
2901.675621
20
4179.397064
0
VERTEX
8
0
10
2927.029061
20
4167.684290
0
VERTEX
8
0
10
2952.382501
20
4156.135367
0
VERTEX
8
0
10
2977.735941
20
4144.750295
0
VERTEX
8
0
10
3003.089381
20
4133.529074
0
VERTEX
8
0
10
3028.442821
20
4122.471705
0
VERTEX
8
0
10
3053.796261
20
4111.578186
0
VERTEX
8
0
10
3079.149701
20
4100.848518
0
VERTEX
8
0
10
3104.503141
20
4090.282701
0
VERTEX
8
0
10
3129.856581
20
4079.880735
0
VERTEX
8
0
10
3155.210021
20
4069.642620
0
VERTEX
8
0
10
3180.563461
20
4059.568355
0
VERTEX
8
0
10
3205.916900
20
4049.657942
0
VERTEX
8
0
10
3231.270340
20
4039.911380
0
VERTEX
8
0
10
3256.623780
20
4030.328669
0
VERTEX
8
0
10
3281.977220
20
4020.909808
0
VERTEX
8
0
10
3307.330660
20
4011.654799
0
VERTEX
8
0
10
3332.684100
20
4002.563641
0
VERTEX
8
0
10
3358.037540
20
3993.636333
0
VERTEX
8
0
10
3383.390980
20
3984.872877
0
VERTEX
8
0
10
3408.744420
20
3976.273271
0
VERTEX
8
0
10
3434.097860
20
3967.837517
0
VERTEX
8
0
10
3459.451300
20
3959.565613
0
VERTEX
8
0
10
3484.804740
20
3951.457561
0
VERTEX
8
0
10
3510.158180
20
3943.513359
0
VERTEX
8
0
10
3535.511620
20
3935.733008
0
VERTEX
8
0
10
3560.865060
20
3928.116508
0
VERTEX
8
0
10
3586.218500
20
3920.663859
0
VERTEX
8
0
10
3611.571940
20
3913.375062
0
VERTEX
8
0
10
3636.925380
20
3906.250115
0
VERTEX
8
0
10
3662.278819
20
3899.289019
0
VERTEX
8
0
10
3687.632259
20
3892.491774
0
VERTEX
8
0
10
3712.985699
20
3885.858380
0
VERTEX
8
0
10
3738.339139
20
3879.388837
0
VERTEX
8
0
10
3763.692579
20
3873.083145
0
VERTEX
8
0
10
3789.046019
20
3866.941303
0
VERTEX
8
0
10
3814.399459
20
3860.963313
0
VERTEX
8
0
10
3839.752899
20
3855.149174
0
VERTEX
8
0
10
3865.106339
20
3849.498886
0
VERTEX
8
0
10
3890.459779
20
3844.012448
0
VERTEX
8
0
10
3915.813219
20
3838.689862
0
VERTEX
8
0
10
3941.166659
20
3833.531126
0
VERTEX
8
0
10
3966.520099
20
3828.536242
0
VERTEX
8
0
10
3991.873539
20
3823.705208
0
VERTEX
8
0
10
4017.226979
20
3819.038026
0
VERTEX
8
0
10
4042.580419
20
3814.534694
0
VERTEX
8
0
10
4067.933859
20
3810.195214
0
VERTEX
8
0
10
4093.287299
20
3806.019584
0
VERTEX
8
0
10
4118.640738
20
3802.007805
0
VERTEX
8
0
10
4143.994178
20
3798.159878
0
VERTEX
8
0
10
4169.347618
20
3794.475801
0
VERTEX
8
0
10
4194.701058
20
3790.955575
0
VERTEX
8
0
10
4220.054498
20
3787.599200
0
VERTEX
8
0
10
4245.407938
20
3784.406676
0
VERTEX
8
0
10
4270.761378
20
3781.378003
0
VERTEX
8
0
10
4296.114818
20
3778.513181
0
VERTEX
8
0
10
4321.468258
20
3775.812210
0
VERTEX
8
0
10
4346.821698
20
3773.275090
0
VERTEX
8
0
10
4372.175138
20
3770.901821
0
VERTEX
8
0
10
4397.528578
20
3768.692402
0
VERTEX
8
0
10
4422.882018
20
3766.646835
0
VERTEX
8
0
10
4448.235458
20
3764.765119
0
VERTEX
8
0
10
4473.588898
20
3763.047254
0
VERTEX
8
0
10
4498.942338
20
3761.493239
0
VERTEX
8
0
10
4524.295778
20
3760.103076
0
VERTEX
8
0
10
4549.649218
20
3758.876763
0
VERTEX
8
0
10
4575.002657
20
3757.814302
0
VERTEX
8
0
10
4600.356097
20
3756.915691
0
VERTEX
8
0
10
4625.709537
20
3756.180932
0
VERTEX
8
0
10
4651.062977
20
3755.610023
0
VERTEX
8
0
10
4676.416417
20
3755.202965
0
VERTEX
8
0
10
4701.769857
20
3754.959759
0
VERTEX
8
0
10
4727.123297
20
3754.880403
0
VERTEX
8
0
10
4752.476737
20
3754.964898
0
VERTEX
8
0
10
4777.830177
20
3755.213244
0
VERTEX
8
0
10
4803.183617
20
3755.625441
0
VERTEX
8
0
10
4828.537057
20
3756.201489
0
VERTEX
8
0
10
4853.890497
20
3756.941388
0
VERTEX
8
0
10
4879.243937
20
3757.845138
0
VERTEX
8
0
10
4904.597377
20
3758.912739
0
VERTEX
8
0
10
4929.950817
20
3760.144191
0
VERTEX
8
0
10
4955.304257
20
3761.539494
0
VERTEX
8
0
10
4980.657697
20
3763.098648
0
VERTEX
8
0
10
5006.011137
20
3764.821653
0
VERTEX
8
0
10
5031.364576
20
3766.708508
0
VERTEX
8
0
10
5056.718016
20
3768.759215
0
VERTEX
8
0
10
5082.071456
20
3770.973773
0
VERTEX
8
0
10
5107.424896
20
3773.352181
0
VERTEX
8
0
10
5132.778336
20
3775.894441
0
VERTEX
8
0
10
5158.131776
20
3778.600551
0
VERTEX
8
0
10
5183.485216
20
3781.470513
0
VERTEX
8
0
10
5208.838656
20
3784.504325
0
VERTEX
8
0
10
5234.192096
20
3787.701989
0
VERTEX
8
0
10
5259.545536
20
3791.063503
0
VERTEX
8
0
10
5284.898976
20
3794.588868
0
VERTEX
8
0
10
5310.252416
20
3798.278084
0
VERTEX
8
0
10
5335.605856
20
3802.131152
0
VERTEX
8
0
10
5360.959296
20
3806.148070
0
VERTEX
8
0
10
5386.312736
20
3810.328839
0
VERTEX
8
0
10
5411.666176
20
3814.673459
0
VERTEX
8
0
10
5437.019616
20
3819.181930
0
VERTEX
8
0
10
5462.373055
20
3823.854252
0
VERTEX
8
0
10
5487.726495
20
3828.690425
0
VERTEX
8
0
10
5513.079935
20
3833.690449
0
VERTEX
8
0
10
5538.433375
20
3838.854324
0
VERTEX
8
0
10
5563.786815
20
3844.182050
0
VERTEX
8
0
10
5589.140255
20
3849.673626
0
VERTEX
8
0
10
5614.493695
20
3855.329054
0
VERTEX
8
0
10
5639.847135
20
3861.148333
0
VERTEX
8
0
10
5665.200575
20
3867.131462
0
VERTEX
8
0
10
5690.554015
20
3873.278443
0
VERTEX
8
0
10
5715.907455
20
3879.589274
0
VERTEX
8
0
10
5741.260895
20
3886.063957
0
VERTEX
8
0
10
5766.614335
20
3892.702490
0
VERTEX
8
0
10
5791.967775
20
3899.504875
0
VERTEX
8
0
10
5817.321215
20
3906.471110
0
VERTEX
8
0
10
5842.674655
20
3913.601197
0
VERTEX
8
0
10
5868.028095
20
3920.895134
0
VERTEX
8
0
10
5893.381535
20
3928.352922
0
VERTEX
8
0
10
5918.734974
20
3935.974561
0
VERTEX
8
0
10
5944.088414
20
3943.760052
0
VERTEX
8
0
10
5969.441854
20
3951.709393
0
VERTEX
8
0
10
5994.795294
20
3959.822585
0
VERTEX
8
0
10
6020.148734
20
3968.099628
0
VERTEX
8
0
10
6045.502174
20
3976.540522
0
VERTEX
8
0
10
6070.855614
20
3985.145267
0
VERTEX
8
0
10
6096.209054
20
3993.913863
0
VERTEX
8
0
10
6121.562494
20
4002.846309
0
VERTEX
8
0
10
6146.915934
20
4011.942607
0
VERTEX
8
0
10
6172.269374
20
4021.202756
0
VERTEX
8
0
10
6197.622814
20
4030.626756
0
VERTEX
8
0
10
6222.976254
20
4040.214607
0
VERTEX
8
0
10
6248.329694
20
4049.966308
0
VERTEX
8
0
10
6273.683134
20
4059.881861
0
VERTEX
8
0
10
6299.036574
20
4069.961264
0
VERTEX
8
0
10
6324.390014
20
4080.204519
0
VERTEX
8
0
10
6349.743454
20
4090.611624
0
VERTEX
8
0
10
6375.096893
20
4101.182581
0
VERTEX
8
0
10
6400.450333
20
4111.917388
0
VERTEX
8
0
10
6425.803773
20
4122.816046
0
VERTEX
8
0
10
6451.157213
20
4133.878556
0
VERTEX
8
0
10
6476.510653
20
4145.104916
0
VERTEX
8
0
10
6501.864093
20
4156.495127
0
VERTEX
8
0
10
6527.217533
20
4168.049189
0
VERTEX
8
0
10
6552.570973
20
4179.767103
0
VERTEX
8
0
10
6577.924413
20
4191.648867
0
VERTEX
8
0
10
6603.277853
20
4203.694482
0
VERTEX
8
0
10
6628.631293
20
4215.903948
0
VERTEX
8
0
10
6653.984733
20
4228.277265
0
VERTEX
8
0
10
6679.338173
20
4240.814433
0
VERTEX
8
0
10
6704.691613
20
4253.515451
0
VERTEX
8
0
10
6730.045053
20
4266.380321
0
VERTEX
8
0
10
6755.398493
20
4279.409042
0
VERTEX
8
0
10
6780.751933
20
4292.601614
0
VERTEX
8
0
10
6806.105373
20
4305.958037
0
VERTEX
8
0
10
6831.458812
20
4319.478310
0
VERTEX
8
0
10
6856.812252
20
4333.162435
0
VERTEX
8
0
10
6882.165692
20
4347.010410
0
VERTEX
8
0
10
6907.519132
20
4361.022237
0
VERTEX
8
0
10
6932.872572
20
4375.197914
0
VERTEX
8
0
10
6958.226012
20
4389.537443
0
VERTEX
8
0
10
6983.579452
20
4404.040822
0
VERTEX
8
0
10
7008.932892
20
4418.708053
0
VERTEX
8
0
10
7034.286332
20
4433.539134
0
VERTEX
8
0
10
7059.639772
20
4448.534066
0
VERTEX
8
0
10
7084.993212
20
4463.692849
0
VERTEX
8
0
10
7110.346652
20
4479.015484
0
VERTEX
8
0
10
7135.700092
20
4494.501969
0
VERTEX
8
0
10
7161.053532
20
4510.152305
0
VERTEX
8
0
10
7186.406972
20
4525.966492
0
VERTEX
8
0
10
7211.760412
20
4541.944530
0
VERTEX
8
0
10
7237.113852
20
4558.086419
0
VERTEX
8
0
10
7262.467292
20
4574.392159
0
VERTEX
8
0
10
7287.820731
20
4590.861750
0
VERTEX
8
0
10
7313.174171
20
4607.495191
0
VERTEX
8
0
10
7338.527611
20
4624.292484
0
VERTEX
8
0
10
7363.881051
20
4641.253628
0
VERTEX
8
0
10
7389.234491
20
4658.378623
0
VERTEX
8
0
10
7414.587931
20
4675.667468
0
VERTEX
8
0
10
7439.941371
20
4693.120165
0
VERTEX
8
0
10
7465.294811
20
4710.736713
0
VERTEX
8
0
10
7490.648251
20
4728.517111
0
VERTEX
8
0
10
7516.001691
20
4746.461361
0
VERTEX
8
0
10
7541.355131
20
4764.569461
0
VERTEX
8
0
10
7566.708571
20
4782.841412
0
VERTEX
8
0
10
7592.062011
20
4801.277215
0
VERTEX
8
0
10
7617.415451
20
4819.876868
0
VERTEX
8
0
10
7642.768891
20
4838.640372
0
VERTEX
8
0
10
7668.122331
20
4857.567728
0
VERTEX
8
0
10
7693.475771
20
4876.658934
0
VERTEX
8
0
10
7718.829211
20
4895.913991
0
VERTEX
8
0
10
7744.182650
20
4915.332899
0
VERTEX
8
0
10
7769.536090
20
4934.915658
0
VERTEX
8
0
10
7794.889530
20
4954.662268
0
VERTEX
8
0
10
7820.242970
20
4974.572729
0
VERTEX
8
0
10
7845.596410
20
4994.647041
0
VERTEX
8
0
10
7870.949850
20
5014.885204
0
VERTEX
8
0
10
7896.303290
20
5035.287218
0
VERTEX
8
0
10
7921.656730
20
5055.853083
0
VERTEX
8
0
10
7947.010170
20
5076.582798
0
VERTEX
8
0
10
7972.363610
20
5097.476365
0
SEQEND
0
POLYLINE
8
0
62
170
6
CONTINUOUS
70
0
66
1
40
4.000000
41
4.000000
10
0
20
0
30
0
0
VERTEX
8
0
10
2546.727462
20
3879.444635
0
VERTEX
8
0
10
2546.727462
20
4360.580246
0
SEQEND
0
POLYLINE
8
0
62
10
6
CONTINUOUS
70
0
66
1
40
4.000000
41
4.000000
10
0
20
0
30
0
0
VERTEX
8
0
10
2513.632061
20
4473.107546
0
VERTEX
8
0
10
2508.904146
20
4458.923432
0
VERTEX
8
0
10
2499.448317
20
4449.467357
0
VERTEX
8
0
10
2485.264574
20
4444.739319
0
VERTEX
8
0
10
2480.536659
20
4444.739319
0
VERTEX
8
0
10
2466.352916
20
4449.467357
0
VERTEX
8
0
10
2456.897087
20
4458.923432
0
VERTEX
8
0
10
2452.169173
20
4473.107546
0
VERTEX
8
0
10
2452.169173
20
4477.835584
0
VERTEX
8
0
10
2456.897087
20
4492.019697
0
VERTEX
8
0
10
2466.352916
20
4501.475773
0
VERTEX
8
0
10
2480.536659
20
4506.203811
0
VERTEX
8
0
10
2485.264574
20
4506.203811
0
VERTEX
8
0
10
2499.448317
20
4501.475773
0
VERTEX
8
0
10
2508.904146
20
4492.019697
0
VERTEX
8
0
10
2513.632061
20
4473.107546
0
VERTEX
8
0
10
2513.632061
20
4449.467357
0
VERTEX
8
0
10
2508.904146
20
4425.827168
0
VERTEX
8
0
10
2499.448317
20
4411.643054
0
VERTEX
8
0
10
2485.264574
20
4406.915016
0
VERTEX
8
0
10
2475.808745
20
4406.915016
0
VERTEX
8
0
10
2461.625002
20
4411.643054
0
VERTEX
8
0
10
2456.897087
20
4421.099130
0
SEQEND
0
POLYLINE
8
0
62
10
6
CONTINUOUS
70
0
66
1
40
4.000000
41
4.000000
10
0
20
0
30
0
0
VERTEX
8
0
10
2537.271633
20
4416.371092
0
VERTEX
8
0
10
2532.543719
20
4411.643054
0
VERTEX
8
0
10
2537.271633
20
4406.915016
0
VERTEX
8
0
10
2541.999547
20
4411.643054
0
VERTEX
8
0
10
2537.271633
20
4416.371092
0
SEQEND
0
POLYLINE
8
0
62
10
6
CONTINUOUS
70
0
66
1
40
4.000000
41
4.000000
10
0
20
0
30
0
0
VERTEX
8
0
10
2617.646179
20
4506.203811
0
VERTEX
8
0
10
2570.367034
20
4506.203811
0
VERTEX
8
0
10
2565.639120
20
4463.651470
0
VERTEX
8
0
10
2570.367034
20
4468.379508
0
VERTEX
8
0
10
2584.550778
20
4473.107546
0
VERTEX
8
0
10
2598.734521
20
4473.107546
0
VERTEX
8
0
10
2612.918264
20
4468.379508
0
VERTEX
8
0
10
2622.374093
20
4458.923432
0
VERTEX
8
0
10
2627.102008
20
4444.739319
0
VERTEX
8
0
10
2627.102008
20
4435.283243
0
VERTEX
8
0
10
2622.374093
20
4421.099130
0
VERTEX
8
0
10
2612.918264
20
4411.643054
0
VERTEX
8
0
10
2598.734521
20
4406.915016
0
VERTEX
8
0
10
2584.550778
20
4406.915016
0
VERTEX
8
0
10
2570.367034
20
4411.643054
0
VERTEX
8
0
10
2565.639120
20
4416.371092
0
VERTEX
8
0
10
2560.911205
20
4425.827168
0
SEQEND
0
POLYLINE
8
0
62
170
6
CONTINUOUS
70
0
66
1
40
4.000000
41
4.000000
10
0
20
0
30
0
0
VERTEX
8
0
10
7972.363610
20
3879.444635
0
VERTEX
8
0
10
7972.363610
20
5097.476365
0
SEQEND
0
POLYLINE
8
0
62
10
6
CONTINUOUS
70
0
66
1
40
4.000000
41
4.000000
10
0
20
0
30
0
0
VERTEX
8
0
10
7842.345962
20
5219.459741
0
VERTEX
8
0
10
7842.345962
20
5224.187779
0
VERTEX
8
0
10
7847.073877
20
5233.643854
0
VERTEX
8
0
10
7851.801791
20
5238.371892
0
VERTEX
8
0
10
7861.257620
20
5243.099930
0
VERTEX
8
0
10
7880.169278
20
5243.099930
0
VERTEX
8
0
10
7889.625107
20
5238.371892
0
VERTEX
8
0
10
7894.353021
20
5233.643854
0
VERTEX
8
0
10
7899.080936
20
5224.187779
0
VERTEX
8
0
10
7899.080936
20
5214.731703
0
VERTEX
8
0
10
7894.353021
20
5205.275627
0
VERTEX
8
0
10
7884.897192
20
5191.091514
0
VERTEX
8
0
10
7837.618048
20
5143.811136
0
VERTEX
8
0
10
7903.808850
20
5143.811136
0
SEQEND
0
POLYLINE
8
0
62
10
6
CONTINUOUS
70
0
66
1
40
4.000000
41
4.000000
10
0
20
0
30
0
0
VERTEX
8
0
10
7965.271738
20
5243.099930
0
VERTEX
8
0
10
7917.992594
20
5176.907400
0
VERTEX
8
0
10
7988.911311
20
5176.907400
0
SEQEND
0
POLYLINE
8
0
62
10
6
CONTINUOUS
70
0
66
1
40
4.000000
41
4.000000
10
0
20
0
30
0
0
VERTEX
8
0
10
7965.271738
20
5243.099930
0
VERTEX
8
0
10
7965.271738
20
5143.811136
0
SEQEND
0
POLYLINE
8
0
62
10
6
CONTINUOUS
70
0
66
1
40
4.000000
41
4.000000
10
0
20
0
30
0
0
VERTEX
8
0
10
8003.095054
20
5153.267211
0
VERTEX
8
0
10
7998.367140
20
5148.539173
0
VERTEX
8
0
10
8003.095054
20
5143.811136
0
VERTEX
8
0
10
8007.822968
20
5148.539173
0
VERTEX
8
0
10
8003.095054
20
5153.267211
0
SEQEND
0
POLYLINE
8
0
62
10
6
CONTINUOUS
70
0
66
1
40
4.000000
41
4.000000
10
0
20
0
30
0
0
VERTEX
8
0
10
8055.102113
20
5243.099930
0
VERTEX
8
0
10
8040.918370
20
5238.371892
0
VERTEX
8
0
10
8031.462541
20
5224.187779
0
VERTEX
8
0
10
8026.734626
20
5200.547589
0
VERTEX
8
0
10
8026.734626
20
5186.363476
0
VERTEX
8
0
10
8031.462541
20
5162.723287
0
VERTEX
8
0
10
8040.918370
20
5148.539173
0
VERTEX
8
0
10
8055.102113
20
5143.811136
0
VERTEX
8
0
10
8064.557942
20
5143.811136
0
VERTEX
8
0
10
8078.741685
20
5148.539173
0
VERTEX
8
0
10
8088.197514
20
5162.723287
0
VERTEX
8
0
10
8092.925429
20
5186.363476
0
VERTEX
8
0
10
8092.925429
20
5200.547589
0
VERTEX
8
0
10
8088.197514
20
5224.187779
0
VERTEX
8
0
10
8078.741685
20
5238.371892
0
VERTEX
8
0
10
8064.557942
20
5243.099930
0
VERTEX
8
0
10
8055.102113
20
5243.099930
0
SEQEND
0
POLYLINE
8
0
62
170
6
CONTINUOUS
70
0
66
1
40
4.000000
41
4.000000
10
0
20
0
30
0
0
VERTEX
8
0
10
4726.725673
20
3879.444635
0
VERTEX
8
0
10
4726.725673
20
3754.880383
0
SEQEND
0
POLYLINE
8
0
62
10
6
CONTINUOUS
70
0
66
1
40
4.000000
41
4.000000
10
0
20
0
30
0
0
VERTEX
8
0
10
4636.895298
20
3684.905423
0
VERTEX
8
0
10
4636.895298
20
3689.633461
0
VERTEX
8
0
10
4641.623212
20
3699.089537
0
VERTEX
8
0
10
4646.351127
20
3703.817574
0
VERTEX
8
0
10
4655.806956
20
3708.545612
0
VERTEX
8
0
10
4674.718614
20
3708.545612
0
VERTEX
8
0
10
4684.174443
20
3703.817574
0
VERTEX
8
0
10
4688.902357
20
3699.089537
0
VERTEX
8
0
10
4693.630271
20
3689.633461
0
VERTEX
8
0
10
4693.630271
20
3680.177385
0
VERTEX
8
0
10
4688.902357
20
3670.721310
0
VERTEX
8
0
10
4679.446528
20
3656.537196
0
VERTEX
8
0
10
4632.167383
20
3609.256818
0
VERTEX
8
0
10
4698.358186
20
3609.256818
0
SEQEND
0
POLYLINE
8
0
62
10
6
CONTINUOUS
70
0
66
1
40
4.000000
41
4.000000
10
0
20
0
30
0
0
VERTEX
8
0
10
4717.269844
20
3618.712894
0
VERTEX
8
0
10
4712.541929
20
3613.984856
0
VERTEX
8
0
10
4717.269844
20
3609.256818
0
VERTEX
8
0
10
4721.997758
20
3613.984856
0
VERTEX
8
0
10
4717.269844
20
3618.712894
0
SEQEND
0
POLYLINE
8
0
62
10
6
CONTINUOUS
70
0
66
1
40
4.000000
41
4.000000
10
0
20
0
30
0
0
VERTEX
8
0
10
4797.644390
20
3708.545612
0
VERTEX
8
0
10
4750.365245
20
3708.545612
0
VERTEX
8
0
10
4745.637331
20
3665.993272
0
VERTEX
8
0
10
4750.365245
20
3670.721310
0
VERTEX
8
0
10
4764.548988
20
3675.449347
0
VERTEX
8
0
10
4778.732732
20
3675.449347
0
VERTEX
8
0
10
4792.916475
20
3670.721310
0
VERTEX
8
0
10
4802.372304
20
3661.265234
0
VERTEX
8
0
10
4807.100219
20
3647.081121
0
VERTEX
8
0
10
4807.100219
20
3637.625045
0
VERTEX
8
0
10
4802.372304
20
3623.440931
0
VERTEX
8
0
10
4792.916475
20
3613.984856
0
VERTEX
8
0
10
4778.732732
20
3609.256818
0
VERTEX
8
0
10
4764.548988
20
3609.256818
0
VERTEX
8
0
10
4750.365245
20
3613.984856
0
VERTEX
8
0
10
4745.637331
20
3618.712894
0
VERTEX
8
0
10
4740.909416
20
3628.168969
0
SEQEND
0
POLYLINE
8
0
62
96
6
CONTINUOUS
70
0
66
1
40
4.000000
41
4.000000
10
0
20
0
30
0
0
VERTEX
8
0
10
13260.103632
20
3640.593029
0
VERTEX
8
0
10
13397.999758
20
3879.444635
0
VERTEX
8
0
10
13535.895884
20
3640.593029
0
SEQEND
0
POLYLINE
8
0
62
96
6
CONTINUOUS
70
0
66
1
40
4.000000
41
4.000000
10
0
20
0
30
0
0
VERTEX
8
0
10
13191.157637
20
3640.593029
0
VERTEX
8
0
10
13604.841879
20
3640.593029
0
SEQEND
0
POLYLINE
8
0
62
96
6
CONTINUOUS
70
0
66
1
40
4.000000
41
4.000000
10
0
20
0
30
0
0
VERTEX
8
0
10
13273.896140
20
3640.593029
0
VERTEX
8
0
10
13191.157637
20
3557.852368
0
SEQEND
0
POLYLINE
8
0
62
96
6
CONTINUOUS
70
0
66
1
40
4.000000
41
4.000000
10
0
20
0
30
0
0
VERTEX
8
0
10
13356.634643
20
3640.593029
0
VERTEX
8
0
10
13273.896140
20
3557.852368
0
SEQEND
0
POLYLINE
8
0
62
96
6
CONTINUOUS
70
0
66
1
40
4.000000
41
4.000000
10
0
20
0
30
0
0
VERTEX
8
0
10
13439.373146
20
3640.593029
0
VERTEX
8
0
10
13356.634643
20
3557.852368
0
SEQEND
0
POLYLINE
8
0
62
96
6
CONTINUOUS
70
0
66
1
40
4.000000
41
4.000000
10
0
20
0
30
0
0
VERTEX
8
0
10
13522.111650
20
3640.593029
0
VERTEX
8
0
10
13439.373146
20
3557.852368
0
SEQEND
0
POLYLINE
8
0
62
96
6
CONTINUOUS
70
0
66
1
40
4.000000
41
4.000000
10
0
20
0
30
0
0
VERTEX
8
0
10
13604.850153
20
3640.593029
0
VERTEX
8
0
10
13522.111650
20
3557.852368
0
SEQEND
0
POLYLINE
8
0
62
96
6
CONTINUOUS
70
0
66
1
40
4.000000
41
4.000000
10
0
20
0
30
0
0
VERTEX
8
0
10
7834.467484
20
3640.593029
0
VERTEX
8
0
10
7972.363610
20
3879.444635
0
VERTEX
8
0
10
8110.259736
20
3640.593029
0
SEQEND
0
POLYLINE
8
0
62
96
6
CONTINUOUS
70
0
66
1
40
4.000000
41
4.000000
10
0
20
0
30
0
0
VERTEX
8
0
10
7765.521489
20
3640.593029
0
VERTEX
8
0
10
8179.205731
20
3640.593029
0
SEQEND
0
POLYLINE
8
0
62
96
6
CONTINUOUS
70
0
66
1
40
4.000000
41
4.000000
10
0
20
0
30
0
0
VERTEX
8
0
10
7848.259992
20
3640.593029
0
VERTEX
8
0
10
7765.521489
20
3557.852368
0
SEQEND
0
POLYLINE
8
0
62
96
6
CONTINUOUS
70
0
66
1
40
4.000000
41
4.000000
10
0
20
0
30
0
0
VERTEX
8
0
10
7930.998495
20
3640.593029
0
VERTEX
8
0
10
7848.259992
20
3557.852368
0
SEQEND
0
POLYLINE
8
0
62
96
6
CONTINUOUS
70
0
66
1
40
4.000000
41
4.000000
10
0
20
0
30
0
0
VERTEX
8
0
10
8013.736998
20
3640.593029
0
VERTEX
8
0
10
7930.998495
20
3557.852368
0
SEQEND
0
POLYLINE
8
0
62
96
6
CONTINUOUS
70
0
66
1
40
4.000000
41
4.000000
10
0
20
0
30
0
0
VERTEX
8
0
10
8096.475502
20
3640.593029
0
VERTEX
8
0
10
8013.736998
20
3557.852368
0
SEQEND
0
POLYLINE
8
0
62
96
6
CONTINUOUS
70
0
66
1
40
4.000000
41
4.000000
10
0
20
0
30
0
0
VERTEX
8
0
10
8179.214005
20
3640.593029
0
VERTEX
8
0
10
8096.475502
20
3557.852368
0
SEQEND
0
POLYLINE
8
0
62
96
6
CONTINUOUS
70
0
66
1
40
4.000000
41
4.000000
10
0
20
0
30
0
0
VERTEX
8
0
10
2408.831336
20
3640.593029
0
VERTEX
8
0
10
2546.727462
20
3879.444635
0
VERTEX
8
0
10
2684.623588
20
3640.593029
0
SEQEND
0
POLYLINE
8
0
62
96
6
CONTINUOUS
70
0
66
1
40
4.000000
41
4.000000
10
0
20
0
30
0
0
VERTEX
8
0
10
2339.885341
20
3640.593029
0
VERTEX
8
0
10
2753.569583
20
3640.593029
0
SEQEND
0
POLYLINE
8
0
62
96
6
CONTINUOUS
70
0
66
1
40
4.000000
41
4.000000
10
0
20
0
30
0
0
VERTEX
8
0
10
2422.623844
20
3640.593029
0
VERTEX
8
0
10
2339.885341
20
3557.852368
0
SEQEND
0
POLYLINE
8
0
62
96
6
CONTINUOUS
70
0
66
1
40
4.000000
41
4.000000
10
0
20
0
30
0
0
VERTEX
8
0
10
2505.362347
20
3640.593029
0
VERTEX
8
0
10
2422.623844
20
3557.852368
0
SEQEND
0
POLYLINE
8
0
62
96
6
CONTINUOUS
70
0
66
1
40
4.000000
41
4.000000
10
0
20
0
30
0
0
VERTEX
8
0
10
2588.100850
20
3640.593029
0
VERTEX
8
0
10
2505.362347
20
3557.852368
0
SEQEND
0
POLYLINE
8
0
62
96
6
CONTINUOUS
70
0
66
1
40
4.000000
41
4.000000
10
0
20
0
30
0
0
VERTEX
8
0
10
2670.839353
20
3640.593029
0
VERTEX
8
0
10
2588.100850
20
3557.852368
0
SEQEND
0
POLYLINE
8
0
62
96
6
CONTINUOUS
70
0
66
1
40
4.000000
41
4.000000
10
0
20
0
30
0
0
VERTEX
8
0
10
2753.577857
20
3640.593029
0
VERTEX
8
0
10
2670.839353
20
3557.852368
0
SEQEND
0
ENDSEC
0
EOF
