999
CD - A 2D Graphics Library, version 5.10
0
SECTION
2
HEADER
9
$ACADVER
1
AC1006
9
$LIMCHECK
70
1
9
$LIMMIN
10
0.000000
20
0.000000
9
$LIMMAX
10
14617.000000
20
7759.000000
9
$EXTMIN
10
0.000000
20
0.000000
9
$EXTMAX
10
14617.000000
20
7759.000000
9
$CLAYER
8
0
9
$LUNITS
70
2
9
$LUPREC
70
2
9
$AUNITS
70
0
9
$AUPREC
70
2
9
$TEXTSTYLE
7
STANDARD
0
ENDSEC
0
SECTION
2
TABLES
0
TABLE
2
LTYPE
70
11
0
LTYPE
2
BYBLOCK
70
0
3

72
65
73
0
40
0
0
LTYPE
2
BYLAYER
70
0
3

72
65
73
0
40
0
0
LTYPE
2
CONTINUOUS
70
0
3
Solid line
72
65
73
0
40
0
0
LTYPE
2
DASHED
70
0
3
Dashed line
72
65
73
2
40
15
49
10
49
-5
0
LTYPE
2
HIDDEN
70
0
3
Hidden line
72
65
73
2
40
10
49
5
49
-5
0
LTYPE
2
CENTER
70
0
3
Center line
72
65
73
4
40
35
49
20
49
-5
49
5
49
-5
0
LTYPE
2
PHANTOM
70
0
3
Phantom line
72
65
73
6
40
50
49
25
49
-5
49
5
49
-5
49
5
49
-5
0
LTYPE
2
DOT
70
0
3
Dot line
72
65
73
2
40
5
49
0
49
-5
0
LTYPE
2
DASHDOT
70
0
3
Dashdot line
72
65
73
4
40
20
49
10
49
-5
49
0
49
-5
0
LTYPE
2
BORDER
70
0
3
Border line
72
65
73
6
40
35
49
10
49
-5
49
10
49
-5
49
0
49
-5
0
LTYPE
2
DIVIDE
70
0
3
Divide Line
72
65
73
6
40
25
49
10
49
-5
49
0
49
-5
49
0
49
-5
0
ENDTAB
0
TABLE
2
STYLE
70
6
0
STYLE
2
ROMAN
70
0
3
romanc.shx
71
0
40
0
41
1
42
0
4

50
0
0
STYLE
2
ROMAN_BOLD
70
0
3
romant.shx
71
0
40
0
41
1
42
0
4

50
0
0
STYLE
2
ROMANTIC
70
0
3
rom_____.pfb
71
0
40
0
41
1
42
0
4

50
0
0
STYLE
2
ROMANTIC_BOLD
70
0
3
romb____.pfb
71
0
40
0
41
1
42
0
4

50
0
0
STYLE
2
SANSSERIF
70
0
3
sas_____.pfb
71
0
40
0
41
1
42
0
4

50
0
0
STYLE
2
SANSSERIF_BOLD
70
0
3
sasb____.pfb
71
0
40
0
41
1
42
0
4

50
0
0
ENDTAB
0
ENDSEC
0
SECTION
2
BLOCKS
0
ENDSEC
0
SECTION
2
ENTITIES
0
POLYLINE
8
0
62
56
6
CONTINUOUS
70
0
66
1
40
4.000000
41
4.000000
10
0
20
0
30
0
0
VERTEX
8
0
10
2546.727462
20
3879.444635
0
VERTEX
8
0
10
1218.000242
20
3879.444635
0
SEQEND
0
POLYLINE
8
0
62
170
6
CONTINUOUS
70
0
66
1
40
4.000000
41
4.000000
10
0
20
0
30
0
0
VERTEX
8
0
10
2546.727462
20
3879.444635
0
VERTEX
8
0
10
1218.000242
20
3879.444635
0
SEQEND
0
POLYLINE
8
0
62
170
6
CONTINUOUS
70
0
66
1
40
4.000000
41
4.000000
10
0
20
0
30
0
0
VERTEX
8
0
10
1218.000242
20
3879.444635
0
VERTEX
8
0
10
1218.000242
20
3879.444635
0
SEQEND
0
POLYLINE
8
0
62
56
6
CONTINUOUS
70
0
66
1
40
4.000000
41
4.000000
10
0
20
0
30
0
0
VERTEX
8
0
10
7972.363610
20
3879.444635
0
VERTEX
8
0
10
13397.999758
20
3879.444635
0
SEQEND
0
POLYLINE
8
0
62
170
6
CONTINUOUS
70
0
66
1
40
4.000000
41
4.000000
10
0
20
0
30
0
0
VERTEX
8
0
10
7972.363610
20
3879.444635
0
VERTEX
8
0
10
13397.999758
20
3879.444635
0
SEQEND
0
POLYLINE
8
0
62
170
6
CONTINUOUS
70
0
66
1
40
4.000000
41
4.000000
10
0
20
0
30
0
0
VERTEX
8
0
10
13397.999758
20
3879.444635
0
VERTEX
8
0
10
13397.999758
20
3879.444635
0
SEQEND
0
POLYLINE
8
0
62
56
6
CONTINUOUS
70
0
66
1
40
4.000000
41
4.000000
10
0
20
0
30
0
0
VERTEX
8
0
10
2546.727462
20
3879.444635
0
VERTEX
8
0
10
7972.363610
20
3879.444635
0
SEQEND
0
POLYLINE
8
0
62
170
6
CONTINUOUS
70
0
66
1
40
4.000000
41
4.000000
10
0
20
0
30
0
0
VERTEX
8
0
10
2546.727462
20
3879.444635
0
VERTEX
8
0
10
7972.363610
20
3879.444635
0
SEQEND
0
POLYLINE
8
0
62
170
6
CONTINUOUS
70
0
66
1
40
4.000000
41
4.000000
10
0
20
0
30
0
0
VERTEX
8
0
10
2546.727462
20
3879.444635
0
VERTEX
8
0
10
2546.727462
20
3879.444635
0
SEQEND
0
POLYLINE
8
0
62
170
6
CONTINUOUS
70
0
66
1
40
4.000000
41
4.000000
10
0
20
0
30
0
0
VERTEX
8
0
10
7972.363610
20
3879.444635
0
VERTEX
8
0
10
7972.363610
20
3879.444635
0
SEQEND
0
POLYLINE
8
0
62
96
6
CONTINUOUS
70
0
66
1
40
4.000000
41
4.000000
10
0
20
0
30
0
0
VERTEX
8
0
10
13260.103632
20
3640.593029
0
VERTEX
8
0
10
13397.999758
20
3879.444635
0
VERTEX
8
0
10
13535.895884
20
3640.593029
0
SEQEND
0
POLYLINE
8
0
62
96
6
CONTINUOUS
70
0
66
1
40
4.000000
41
4.000000
10
0
20
0
30
0
0
VERTEX
8
0
10
13191.157637
20
3640.593029
0
VERTEX
8
0
10
13604.841879
20
3640.593029
0
SEQEND
0
POLYLINE
8
0
62
96
6
CONTINUOUS
70
0
66
1
40
4.000000
41
4.000000
10
0
20
0
30
0
0
VERTEX
8
0
10
13273.896140
20
3640.593029
0
VERTEX
8
0
10
13191.157637
20
3557.852368
0
SEQEND
0
POLYLINE
8
0
62
96
6
CONTINUOUS
70
0
66
1
40
4.000000
41
4.000000
10
0
20
0
30
0
0
VERTEX
8
0
10
13356.634643
20
3640.593029
0
VERTEX
8
0
10
13273.896140
20
3557.852368
0
SEQEND
0
POLYLINE
8
0
62
96
6
CONTINUOUS
70
0
66
1
40
4.000000
41
4.000000
10
0
20
0
30
0
0
VERTEX
8
0
10
13439.373146
20
3640.593029
0
VERTEX
8
0
10
13356.634643
20
3557.852368
0
SEQEND
0
POLYLINE
8
0
62
96
6
CONTINUOUS
70
0
66
1
40
4.000000
41
4.000000
10
0
20
0
30
0
0
VERTEX
8
0
10
13522.111650
20
3640.593029
0
VERTEX
8
0
10
13439.373146
20
3557.852368
0
SEQEND
0
POLYLINE
8
0
62
96
6
CONTINUOUS
70
0
66
1
40
4.000000
41
4.000000
10
0
20
0
30
0
0
VERTEX
8
0
10
13604.850153
20
3640.593029
0
VERTEX
8
0
10
13522.111650
20
3557.852368
0
SEQEND
0
POLYLINE
8
0
62
16
6
CONTINUOUS
70
0
66
1
40
4.000000
41
4.000000
10
0
20
0
30
0
0
VERTEX
8
0
10
13397.999758
20
3134.778679
0
VERTEX
8
0
10
13397.999758
20
3730.511444
0
SEQEND
0
POLYLINE
8
0
62
16
6
CONTINUOUS
70
0
66
1
40
4.000000
41
4.000000
10
0
20
0
30
0
0
VERTEX
8
0
10
13323.535105
20
3581.578252
0
VERTEX
8
0
10
13397.999758
20
3730.511444
0
VERTEX
8
0
10
13472.464411
20
3581.578252
0
VERTEX
8
0
10
13323.535105
20
3581.578252
0
SEQEND
0
POLYLINE
8
0
62
16
6
CONTINUOUS
70
0
66
1
40
4.000000
41
4.000000
10
0
20
0
30
0
0
VERTEX
8
0
10
13323.535105
20
3436.368391
0
VERTEX
8
0
10
13472.464411
20
3436.368391
0
SEQEND
0
POLYLINE
8
0
62
255
6
CONTINUOUS
70
0
66
1
40
4.000000
41
4.000000
10
0
20
0
30
0
0
VERTEX
8
0
10
13282.165854
20
3114.684518
0
VERTEX
8
0
10
13282.165854
20
3507.111657
0
VERTEX
8
0
10
13116.688848
20
3507.111657
0
VERTEX
8
0
10
13116.688848
20
3114.684518
0
VERTEX
8
0
10
13282.165854
20
3114.684518
0
SEQEND
0
POLYLINE
8
0
62
16
6
CONTINUOUS
70
0
66
1
40
4.000000
41
4.000000
10
0
20
0
30
0
0
VERTEX
8
0
10
13182.879650
20
3176.149010
0
VERTEX
8
0
10
13197.063393
20
3171.420972
0
VERTEX
8
0
10
13206.519222
20
3161.964896
0
VERTEX
8
0
10
13211.247137
20
3147.780783
0
VERTEX
8
0
10
13211.247137
20
3143.052745
0
VERTEX
8
0
10
13206.519222
20
3128.868632
0
VERTEX
8
0
10
13197.063393
20
3119.412556
0
VERTEX
8
0
10
13182.879650
20
3114.684518
0
VERTEX
8
0
10
13178.151736
20
3114.684518
0
VERTEX
8
0
10
13163.967992
20
3119.412556
0
VERTEX
8
0
10
13154.512163
20
3128.868632
0
VERTEX
8
0
10
13149.784249
20
3143.052745
0
VERTEX
8
0
10
13149.784249
20
3147.780783
0
VERTEX
8
0
10
13154.512163
20
3161.964896
0
VERTEX
8
0
10
13163.967992
20
3171.420972
0
VERTEX
8
0
10
13182.879650
20
3176.149010
0
VERTEX
8
0
10
13206.519222
20
3176.149010
0
VERTEX
8
0
10
13230.158795
20
3171.420972
0
VERTEX
8
0
10
13244.342538
20
3161.964896
0
VERTEX
8
0
10
13249.070452
20
3147.780783
0
VERTEX
8
0
10
13249.070452
20
3138.324707
0
VERTEX
8
0
10
13244.342538
20
3124.140594
0
VERTEX
8
0
10
13234.886709
20
3119.412556
0
SEQEND
0
POLYLINE
8
0
62
16
6
CONTINUOUS
70
0
66
1
40
4.000000
41
4.000000
10
0
20
0
30
0
0
VERTEX
8
0
10
13239.614624
20
3199.789199
0
VERTEX
8
0
10
13244.342538
20
3195.061161
0
VERTEX
8
0
10
13249.070452
20
3199.789199
0
VERTEX
8
0
10
13244.342538
20
3204.517237
0
VERTEX
8
0
10
13239.614624
20
3199.789199
0
SEQEND
0
POLYLINE
8
0
62
16
6
CONTINUOUS
70
0
66
1
40
4.000000
41
4.000000
10
0
20
0
30
0
0
VERTEX
8
0
10
13182.879650
20
3284.893879
0
VERTEX
8
0
10
13197.063393
20
3280.165842
0
VERTEX
8
0
10
13206.519222
20
3270.709766
0
VERTEX
8
0
10
13211.247137
20
3256.525653
0
VERTEX
8
0
10
13211.247137
20
3251.797615
0
VERTEX
8
0
10
13206.519222
20
3237.613501
0
VERTEX
8
0
10
13197.063393
20
3228.157426
0
VERTEX
8
0
10
13182.879650
20
3223.429388
0
VERTEX
8
0
10
13178.151736
20
3223.429388
0
VERTEX
8
0
10
13163.967992
20
3228.157426
0
VERTEX
8
0
10
13154.512163
20
3237.613501
0
VERTEX
8
0
10
13149.784249
20
3251.797615
0
VERTEX
8
0
10
13149.784249
20
3256.525653
0
VERTEX
8
0
10
13154.512163
20
3270.709766
0
VERTEX
8
0
10
13163.967992
20
3280.165842
0
VERTEX
8
0
10
13182.879650
20
3284.893879
0
VERTEX
8
0
10
13206.519222
20
3284.893879
0
VERTEX
8
0
10
13230.158795
20
3280.165842
0
VERTEX
8
0
10
13244.342538
20
3270.709766
0
VERTEX
8
0
10
13249.070452
20
3256.525653
0
VERTEX
8
0
10
13249.070452
20
3247.069577
0
VERTEX
8
0
10
13244.342538
20
3232.885464
0
VERTEX
8
0
10
13234.886709
20
3228.157426
0
SEQEND
0
POLYLINE
8
0
62
16
6
CONTINUOUS
70
0
66
1
40
4.000000
41
4.000000
10
0
20
0
30
0
0
VERTEX
8
0
10
13149.784249
20
3360.542485
0
VERTEX
8
0
10
13249.070452
20
3360.542485
0
SEQEND
0
POLYLINE
8
0
62
16
6
CONTINUOUS
70
0
66
1
40
4.000000
41
4.000000
10
0
20
0
30
0
0
VERTEX
8
0
10
13182.879650
20
3407.822863
0
VERTEX
8
0
10
13230.158795
20
3360.542485
0
SEQEND
0
POLYLINE
8
0
62
16
6
CONTINUOUS
70
0
66
1
40
4.000000
41
4.000000
10
0
20
0
30
0
0
VERTEX
8
0
10
13211.247137
20
3379.454636
0
VERTEX
8
0
10
13249.070452
20
3412.550901
0
SEQEND
0
POLYLINE
8
0
62
16
6
CONTINUOUS
70
0
66
1
40
4.000000
41
4.000000
10
0
20
0
30
0
0
VERTEX
8
0
10
13149.784249
20
3422.006976
0
VERTEX
8
0
10
13249.070452
20
3422.006976
0
SEQEND
0
POLYLINE
8
0
62
16
6
CONTINUOUS
70
0
66
1
40
4.000000
41
4.000000
10
0
20
0
30
0
0
VERTEX
8
0
10
13149.784249
20
3422.006976
0
VERTEX
8
0
10
13249.070452
20
3488.199506
0
SEQEND
0
POLYLINE
8
0
62
16
6
CONTINUOUS
70
0
66
1
40
4.000000
41
4.000000
10
0
20
0
30
0
0
VERTEX
8
0
10
13149.784249
20
3488.199506
0
VERTEX
8
0
10
13249.070452
20
3488.199506
0
SEQEND
0
POLYLINE
8
0
62
96
6
CONTINUOUS
70
0
66
1
40
4.000000
41
4.000000
10
0
20
0
30
0
0
VERTEX
8
0
10
7834.467484
20
3640.593029
0
VERTEX
8
0
10
7972.363610
20
3879.444635
0
VERTEX
8
0
10
8110.259736
20
3640.593029
0
SEQEND
0
POLYLINE
8
0
62
96
6
CONTINUOUS
70
0
66
1
40
4.000000
41
4.000000
10
0
20
0
30
0
0
VERTEX
8
0
10
7765.521489
20
3640.593029
0
VERTEX
8
0
10
8179.205731
20
3640.593029
0
SEQEND
0
POLYLINE
8
0
62
96
6
CONTINUOUS
70
0
66
1
40
4.000000
41
4.000000
10
0
20
0
30
0
0
VERTEX
8
0
10
7848.259992
20
3640.593029
0
VERTEX
8
0
10
7765.521489
20
3557.852368
0
SEQEND
0
POLYLINE
8
0
62
96
6
CONTINUOUS
70
0
66
1
40
4.000000
41
4.000000
10
0
20
0
30
0
0
VERTEX
8
0
10
7930.998495
20
3640.593029
0
VERTEX
8
0
10
7848.259992
20
3557.852368
0
SEQEND
0
POLYLINE
8
0
62
96
6
CONTINUOUS
70
0
66
1
40
4.000000
41
4.000000
10
0
20
0
30
0
0
VERTEX
8
0
10
8013.736998
20
3640.593029
0
VERTEX
8
0
10
7930.998495
20
3557.852368
0
SEQEND
0
POLYLINE
8
0
62
96
6
CONTINUOUS
70
0
66
1
40
4.000000
41
4.000000
10
0
20
0
30
0
0
VERTEX
8
0
10
8096.475502
20
3640.593029
0
VERTEX
8
0
10
8013.736998
20
3557.852368
0
SEQEND
0
POLYLINE
8
0
62
96
6
CONTINUOUS
70
0
66
1
40
4.000000
41
4.000000
10
0
20
0
30
0
0
VERTEX
8
0
10
8179.214005
20
3640.593029
0
VERTEX
8
0
10
8096.475502
20
3557.852368
0
SEQEND
0
POLYLINE
8
0
62
16
6
CONTINUOUS
70
0
66
1
40
4.000000
41
4.000000
10
0
20
0
30
0
0
VERTEX
8
0
10
7972.363610
20
3134.778679
0
VERTEX
8
0
10
7972.363610
20
3730.511444
0
SEQEND
0
POLYLINE
8
0
62
16
6
CONTINUOUS
70
0
66
1
40
4.000000
41
4.000000
10
0
20
0
30
0
0
VERTEX
8
0
10
7897.898957
20
3581.578252
0
VERTEX
8
0
10
7972.363610
20
3730.511444
0
VERTEX
8
0
10
8046.828263
20
3581.578252
0
VERTEX
8
0
10
7897.898957
20
3581.578252
0
SEQEND
0
POLYLINE
8
0
62
16
6
CONTINUOUS
70
0
66
1
40
4.000000
41
4.000000
10
0
20
0
30
0
0
VERTEX
8
0
10
7897.898957
20
3436.368391
0
VERTEX
8
0
10
8046.828263
20
3436.368391
0
SEQEND
0
POLYLINE
8
0
62
255
6
CONTINUOUS
70
0
66
1
40
4.000000
41
4.000000
10
0
20
0
30
0
0
VERTEX
8
0
10
7856.529706
20
3034.307875
0
VERTEX
8
0
10
7856.529706
20
3507.111657
0
VERTEX
8
0
10
7691.052699
20
3507.111657
0
VERTEX
8
0
10
7691.052699
20
3034.307875
0
VERTEX
8
0
10
7856.529706
20
3034.307875
0
SEQEND
0
POLYLINE
8
0
62
16
6
CONTINUOUS
70
0
66
1
40
4.000000
41
4.000000
10
0
20
0
30
0
0
VERTEX
8
0
10
7724.148101
20
3091.044329
0
VERTEX
8
0
10
7724.148101
20
3043.763951
0
VERTEX
8
0
10
7766.699331
20
3039.035913
0
VERTEX
8
0
10
7761.971416
20
3043.763951
0
VERTEX
8
0
10
7757.243502
20
3057.948064
0
VERTEX
8
0
10
7757.243502
20
3072.132178
0
VERTEX
8
0
10
7761.971416
20
3086.316291
0
VERTEX
8
0
10
7771.427245
20
3095.772367
0
VERTEX
8
0
10
7785.610989
20
3100.500405
0
VERTEX
8
0
10
7795.066818
20
3100.500405
0
VERTEX
8
0
10
7809.250561
20
3095.772367
0
VERTEX
8
0
10
7818.706390
20
3086.316291
0
VERTEX
8
0
10
7823.434304
20
3072.132178
0
VERTEX
8
0
10
7823.434304
20
3057.948064
0
VERTEX
8
0
10
7818.706390
20
3043.763951
0
VERTEX
8
0
10
7813.978475
20
3039.035913
0
VERTEX
8
0
10
7804.522647
20
3034.307875
0
SEQEND
0
POLYLINE
8
0
62
16
6
CONTINUOUS
70
0
66
1
40
4.000000
41
4.000000
10
0
20
0
30
0
0
VERTEX
8
0
10
7747.787673
20
3119.412556
0
VERTEX
8
0
10
7743.059759
20
3119.412556
0
VERTEX
8
0
10
7733.603930
20
3124.140594
0
VERTEX
8
0
10
7728.876015
20
3128.868632
0
VERTEX
8
0
10
7724.148101
20
3138.324707
0
VERTEX
8
0
10
7724.148101
20
3157.236858
0
VERTEX
8
0
10
7728.876015
20
3166.692934
0
VERTEX
8
0
10
7733.603930
20
3171.420972
0
VERTEX
8
0
10
7743.059759
20
3176.149010
0
VERTEX
8
0
10
7752.515587
20
3176.149010
0
VERTEX
8
0
10
7761.971416
20
3171.420972
0
VERTEX
8
0
10
7776.155160
20
3161.964896
0
VERTEX
8
0
10
7823.434304
20
3114.684518
0
VERTEX
8
0
10
7823.434304
20
3180.877048
0
SEQEND
0
POLYLINE
8
0
62
16
6
CONTINUOUS
70
0
66
1
40
4.000000
41
4.000000
10
0
20
0
30
0
0
VERTEX
8
0
10
7813.978475
20
3199.789199
0
VERTEX
8
0
10
7818.706390
20
3195.061161
0
VERTEX
8
0
10
7823.434304
20
3199.789199
0
VERTEX
8
0
10
7818.706390
20
3204.517237
0
VERTEX
8
0
10
7813.978475
20
3199.789199
0
SEQEND
0
POLYLINE
8
0
62
16
6
CONTINUOUS
70
0
66
1
40
4.000000
41
4.000000
10
0
20
0
30
0
0
VERTEX
8
0
10
7724.148101
20
3280.165842
0
VERTEX
8
0
10
7724.148101
20
3232.885464
0
VERTEX
8
0
10
7766.699331
20
3228.157426
0
VERTEX
8
0
10
7761.971416
20
3232.885464
0
VERTEX
8
0
10
7757.243502
20
3247.069577
0
VERTEX
8
0
10
7757.243502
20
3261.253690
0
VERTEX
8
0
10
7761.971416
20
3275.437804
0
VERTEX
8
0
10
7771.427245
20
3284.893879
0
VERTEX
8
0
10
7785.610989
20
3289.621917
0
VERTEX
8
0
10
7795.066818
20
3289.621917
0
VERTEX
8
0
10
7809.250561
20
3284.893879
0
VERTEX
8
0
10
7818.706390
20
3275.437804
0
VERTEX
8
0
10
7823.434304
20
3261.253690
0
VERTEX
8
0
10
7823.434304
20
3247.069577
0
VERTEX
8
0
10
7818.706390
20
3232.885464
0
VERTEX
8
0
10
7813.978475
20
3228.157426
0
VERTEX
8
0
10
7804.522647
20
3223.429388
0
SEQEND
0
POLYLINE
8
0
62
16
6
CONTINUOUS
70
0
66
1
40
4.000000
41
4.000000
10
0
20
0
30
0
0
VERTEX
8
0
10
7724.148101
20
3360.542485
0
VERTEX
8
0
10
7823.434304
20
3360.542485
0
SEQEND
0
POLYLINE
8
0
62
16
6
CONTINUOUS
70
0
66
1
40
4.000000
41
4.000000
10
0
20
0
30
0
0
VERTEX
8
0
10
7757.243502
20
3407.822863
0
VERTEX
8
0
10
7804.522647
20
3360.542485
0
SEQEND
0
POLYLINE
8
0
62
16
6
CONTINUOUS
70
0
66
1
40
4.000000
41
4.000000
10
0
20
0
30
0
0
VERTEX
8
0
10
7785.610989
20
3379.454636
0
VERTEX
8
0
10
7823.434304
20
3412.550901
0
SEQEND
0
POLYLINE
8
0
62
16
6
CONTINUOUS
70
0
66
1
40
4.000000
41
4.000000
10
0
20
0
30
0
0
VERTEX
8
0
10
7724.148101
20
3422.006976
0
VERTEX
8
0
10
7823.434304
20
3422.006976
0
SEQEND
0
POLYLINE
8
0
62
16
6
CONTINUOUS
70
0
66
1
40
4.000000
41
4.000000
10
0
20
0
30
0
0
VERTEX
8
0
10
7724.148101
20
3422.006976
0
VERTEX
8
0
10
7823.434304
20
3488.199506
0
SEQEND
0
POLYLINE
8
0
62
16
6
CONTINUOUS
70
0
66
1
40
4.000000
41
4.000000
10
0
20
0
30
0
0
VERTEX
8
0
10
7724.148101
20
3488.199506
0
VERTEX
8
0
10
7823.434304
20
3488.199506
0
SEQEND
0
POLYLINE
8
0
62
96
6
CONTINUOUS
70
0
66
1
40
4.000000
41
4.000000
10
0
20
0
30
0
0
VERTEX
8
0
10
2408.831336
20
3640.593029
0
VERTEX
8
0
10
2546.727462
20
3879.444635
0
VERTEX
8
0
10
2684.623588
20
3640.593029
0
SEQEND
0
POLYLINE
8
0
62
96
6
CONTINUOUS
70
0
66
1
40
4.000000
41
4.000000
10
0
20
0
30
0
0
VERTEX
8
0
10
2339.885341
20
3640.593029
0
VERTEX
8
0
10
2753.569583
20
3640.593029
0
SEQEND
0
POLYLINE
8
0
62
96
6
CONTINUOUS
70
0
66
1
40
4.000000
41
4.000000
10
0
20
0
30
0
0
VERTEX
8
0
10
2422.623844
20
3640.593029
0
VERTEX
8
0
10
2339.885341
20
3557.852368
0
SEQEND
0
POLYLINE
8
0
62
96
6
CONTINUOUS
70
0
66
1
40
4.000000
41
4.000000
10
0
20
0
30
0
0
VERTEX
8
0
10
2505.362347
20
3640.593029
0
VERTEX
8
0
10
2422.623844
20
3557.852368
0
SEQEND
0
POLYLINE
8
0
62
96
6
CONTINUOUS
70
0
66
1
40
4.000000
41
4.000000
10
0
20
0
30
0
0
VERTEX
8
0
10
2588.100850
20
3640.593029
0
VERTEX
8
0
10
2505.362347
20
3557.852368
0
SEQEND
0
POLYLINE
8
0
62
96
6
CONTINUOUS
70
0
66
1
40
4.000000
41
4.000000
10
0
20
0
30
0
0
VERTEX
8
0
10
2670.839353
20
3640.593029
0
VERTEX
8
0
10
2588.100850
20
3557.852368
0
SEQEND
0
POLYLINE
8
0
62
96
6
CONTINUOUS
70
0
66
1
40
4.000000
41
4.000000
10
0
20
0
30
0
0
VERTEX
8
0
10
2753.577857
20
3640.593029
0
VERTEX
8
0
10
2670.839353
20
3557.852368
0
SEQEND
0
POLYLINE
8
0
62
16
6
CONTINUOUS
70
0
66
1
40
4.000000
41
4.000000
10
0
20
0
30
0
0
VERTEX
8
0
10
2546.727462
20
3134.778679
0
VERTEX
8
0
10
2546.727462
20
3730.511444
0
SEQEND
0
POLYLINE
8
0
62
16
6
CONTINUOUS
70
0
66
1
40
4.000000
41
4.000000
10
0
20
0
30
0
0
VERTEX
8
0
10
2472.262809
20
3581.578252
0
VERTEX
8
0
10
2546.727462
20
3730.511444
0
VERTEX
8
0
10
2621.192115
20
3581.578252
0
VERTEX
8
0
10
2472.262809
20
3581.578252
0
SEQEND
0
POLYLINE
8
0
62
16
6
CONTINUOUS
70
0
66
1
40
4.000000
41
4.000000
10
0
20
0
30
0
0
VERTEX
8
0
10
2472.262809
20
3436.368391
0
VERTEX
8
0
10
2621.192115
20
3436.368391
0
SEQEND
0
POLYLINE
8
0
62
255
6
CONTINUOUS
70
0
66
1
40
4.000000
41
4.000000
10
0
20
0
30
0
0
VERTEX
8
0
10
2430.893558
20
3034.307875
0
VERTEX
8
0
10
2430.893558
20
3507.111657
0
VERTEX
8
0
10
2265.416551
20
3507.111657
0
VERTEX
8
0
10
2265.416551
20
3034.307875
0
VERTEX
8
0
10
2430.893558
20
3034.307875
0
SEQEND
0
POLYLINE
8
0
62
16
6
CONTINUOUS
70
0
66
1
40
4.000000
41
4.000000
10
0
20
0
30
0
0
VERTEX
8
0
10
2298.511953
20
3043.763951
0
VERTEX
8
0
10
2298.511953
20
3095.772367
0
VERTEX
8
0
10
2336.335268
20
3067.404140
0
VERTEX
8
0
10
2336.335268
20
3081.588253
0
VERTEX
8
0
10
2341.063183
20
3091.044329
0
VERTEX
8
0
10
2345.791097
20
3095.772367
0
VERTEX
8
0
10
2359.974841
20
3100.500405
0
VERTEX
8
0
10
2369.430670
20
3100.500405
0
VERTEX
8
0
10
2383.614413
20
3095.772367
0
VERTEX
8
0
10
2393.070242
20
3086.316291
0
VERTEX
8
0
10
2397.798156
20
3072.132178
0
VERTEX
8
0
10
2397.798156
20
3057.948064
0
VERTEX
8
0
10
2393.070242
20
3043.763951
0
VERTEX
8
0
10
2388.342327
20
3039.035913
0
VERTEX
8
0
10
2378.886499
20
3034.307875
0
SEQEND
0
POLYLINE
8
0
62
16
6
CONTINUOUS
70
0
66
1
40
4.000000
41
4.000000
10
0
20
0
30
0
0
VERTEX
8
0
10
2298.511953
20
3143.052745
0
VERTEX
8
0
10
2303.239867
20
3128.868632
0
VERTEX
8
0
10
2317.423611
20
3119.412556
0
VERTEX
8
0
10
2341.063183
20
3114.684518
0
VERTEX
8
0
10
2355.246926
20
3114.684518
0
VERTEX
8
0
10
2378.886499
20
3119.412556
0
VERTEX
8
0
10
2393.070242
20
3128.868632
0
VERTEX
8
0
10
2397.798156
20
3143.052745
0
VERTEX
8
0
10
2397.798156
20
3152.508821
0
VERTEX
8
0
10
2393.070242
20
3166.692934
0
VERTEX
8
0
10
2378.886499
20
3176.149010
0
VERTEX
8
0
10
2355.246926
20
3180.877048
0
VERTEX
8
0
10
2341.063183
20
3180.877048
0
VERTEX
8
0
10
2317.423611
20
3176.149010
0
VERTEX
8
0
10
2303.239867
20
3166.692934
0
VERTEX
8
0
10
2298.511953
20
3152.508821
0
VERTEX
8
0
10
2298.511953
20
3143.052745
0
SEQEND
0
POLYLINE
8
0
62
16
6
CONTINUOUS
70
0
66
1
40
4.000000
41
4.000000
10
0
20
0
30
0
0
VERTEX
8
0
10
2388.342327
20
3199.789199
0
VERTEX
8
0
10
2393.070242
20
3195.061161
0
VERTEX
8
0
10
2397.798156
20
3199.789199
0
VERTEX
8
0
10
2393.070242
20
3204.517237
0
VERTEX
8
0
10
2388.342327
20
3199.789199
0
SEQEND
0
POLYLINE
8
0
62
16
6
CONTINUOUS
70
0
66
1
40
4.000000
41
4.000000
10
0
20
0
30
0
0
VERTEX
8
0
10
2298.511953
20
3270.709766
0
VERTEX
8
0
10
2364.702755
20
3223.429388
0
VERTEX
8
0
10
2364.702755
20
3294.349955
0
SEQEND
0
POLYLINE
8
0
62
16
6
CONTINUOUS
70
0
66
1
40
4.000000
41
4.000000
10
0
20
0
30
0
0
VERTEX
8
0
10
2298.511953
20
3270.709766
0
VERTEX
8
0
10
2397.798156
20
3270.709766
0
SEQEND
0
POLYLINE
8
0
62
16
6
CONTINUOUS
70
0
66
1
40
4.000000
41
4.000000
10
0
20
0
30
0
0
VERTEX
8
0
10
2298.511953
20
3360.542485
0
VERTEX
8
0
10
2397.798156
20
3360.542485
0
SEQEND
0
POLYLINE
8
0
62
16
6
CONTINUOUS
70
0
66
1
40
4.000000
41
4.000000
10
0
20
0
30
0
0
VERTEX
8
0
10
2331.607354
20
3407.822863
0
VERTEX
8
0
10
2378.886499
20
3360.542485
0
SEQEND
0
POLYLINE
8
0
62
16
6
CONTINUOUS
70
0
66
1
40
4.000000
41
4.000000
10
0
20
0
30
0
0
VERTEX
8
0
10
2359.974841
20
3379.454636
0
VERTEX
8
0
10
2397.798156
20
3412.550901
0
SEQEND
0
POLYLINE
8
0
62
16
6
CONTINUOUS
70
0
66
1
40
4.000000
41
4.000000
10
0
20
0
30
0
0
VERTEX
8
0
10
2298.511953
20
3422.006976
0
VERTEX
8
0
10
2397.798156
20
3422.006976
0
SEQEND
0
POLYLINE
8
0
62
16
6
CONTINUOUS
70
0
66
1
40
4.000000
41
4.000000
10
0
20
0
30
0
0
VERTEX
8
0
10
2298.511953
20
3422.006976
0
VERTEX
8
0
10
2397.798156
20
3488.199506
0
SEQEND
0
POLYLINE
8
0
62
16
6
CONTINUOUS
70
0
66
1
40
4.000000
41
4.000000
10
0
20
0
30
0
0
VERTEX
8
0
10
2298.511953
20
3488.199506
0
VERTEX
8
0
10
2397.798156
20
3488.199506
0
SEQEND
0
ENDSEC
0
EOF
