999
CD - A 2D Graphics Library, version 5.10
0
SECTION
2
HEADER
9
$ACADVER
1
AC1006
9
$LIMCHECK
70
1
9
$LIMMIN
10
0.000000
20
0.000000
9
$LIMMAX
10
14617.000000
20
7759.000000
9
$EXTMIN
10
0.000000
20
0.000000
9
$EXTMAX
10
14617.000000
20
7759.000000
9
$CLAYER
8
0
9
$LUNITS
70
2
9
$LUPREC
70
2
9
$AUNITS
70
0
9
$AUPREC
70
2
9
$TEXTSTYLE
7
STANDARD
0
ENDSEC
0
SECTION
2
TABLES
0
TABLE
2
LTYPE
70
11
0
LTYPE
2
BYBLOCK
70
0
3

72
65
73
0
40
0
0
LTYPE
2
BYLAYER
70
0
3

72
65
73
0
40
0
0
LTYPE
2
CONTINUOUS
70
0
3
Solid line
72
65
73
0
40
0
0
LTYPE
2
DASHED
70
0
3
Dashed line
72
65
73
2
40
15
49
10
49
-5
0
LTYPE
2
HIDDEN
70
0
3
Hidden line
72
65
73
2
40
10
49
5
49
-5
0
LTYPE
2
CENTER
70
0
3
Center line
72
65
73
4
40
35
49
20
49
-5
49
5
49
-5
0
LTYPE
2
PHANTOM
70
0
3
Phantom line
72
65
73
6
40
50
49
25
49
-5
49
5
49
-5
49
5
49
-5
0
LTYPE
2
DOT
70
0
3
Dot line
72
65
73
2
40
5
49
0
49
-5
0
LTYPE
2
DASHDOT
70
0
3
Dashdot line
72
65
73
4
40
20
49
10
49
-5
49
0
49
-5
0
LTYPE
2
BORDER
70
0
3
Border line
72
65
73
6
40
35
49
10
49
-5
49
10
49
-5
49
0
49
-5
0
LTYPE
2
DIVIDE
70
0
3
Divide Line
72
65
73
6
40
25
49
10
49
-5
49
0
49
-5
49
0
49
-5
0
ENDTAB
0
TABLE
2
STYLE
70
6
0
STYLE
2
ROMAN
70
0
3
romanc.shx
71
0
40
0
41
1
42
0
4

50
0
0
STYLE
2
ROMAN_BOLD
70
0
3
romant.shx
71
0
40
0
41
1
42
0
4

50
0
0
STYLE
2
ROMANTIC
70
0
3
rom_____.pfb
71
0
40
0
41
1
42
0
4

50
0
0
STYLE
2
ROMANTIC_BOLD
70
0
3
romb____.pfb
71
0
40
0
41
1
42
0
4

50
0
0
STYLE
2
SANSSERIF
70
0
3
sas_____.pfb
71
0
40
0
41
1
42
0
4

50
0
0
STYLE
2
SANSSERIF_BOLD
70
0
3
sasb____.pfb
71
0
40
0
41
1
42
0
4

50
0
0
ENDTAB
0
ENDSEC
0
SECTION
2
BLOCKS
0
ENDSEC
0
SECTION
2
ENTITIES
0
POLYLINE
8
0
62
56
6
CONTINUOUS
70
0
66
1
40
4.000000
41
4.000000
10
0
20
0
30
0
0
VERTEX
8
0
10
2546.727462
20
3879.444635
0
VERTEX
8
0
10
1218.000242
20
3879.444635
0
SEQEND
0
POLYLINE
8
0
62
170
6
CONTINUOUS
70
0
66
1
40
4.000000
41
4.000000
10
0
20
0
30
0
0
VERTEX
8
0
10
2546.727462
20
3293.838652
0
VERTEX
8
0
10
1218.000242
20
3879.444635
0
SEQEND
0
POLYLINE
8
0
62
170
6
CONTINUOUS
70
0
66
1
40
4.000000
41
4.000000
10
0
20
0
30
0
0
VERTEX
8
0
10
2546.727462
20
3879.444635
0
VERTEX
8
0
10
2546.727462
20
3293.838652
0
SEQEND
0
POLYLINE
8
0
62
10
6
CONTINUOUS
70
0
66
1
40
4.000000
41
4.000000
10
0
20
0
30
0
0
VERTEX
8
0
10
2160.929642
20
3190.767428
0
VERTEX
8
0
10
2246.032102
20
3190.767428
0
SEQEND
0
POLYLINE
8
0
62
10
6
CONTINUOUS
70
0
66
1
40
4.000000
41
4.000000
10
0
20
0
30
0
0
VERTEX
8
0
10
2264.943760
20
3228.591731
0
VERTEX
8
0
10
2274.399589
20
3233.319768
0
VERTEX
8
0
10
2288.583332
20
3247.503882
0
VERTEX
8
0
10
2288.583332
20
3148.215088
0
SEQEND
0
POLYLINE
8
0
62
10
6
CONTINUOUS
70
0
66
1
40
4.000000
41
4.000000
10
0
20
0
30
0
0
VERTEX
8
0
10
2387.869536
20
3247.503882
0
VERTEX
8
0
10
2340.590391
20
3247.503882
0
VERTEX
8
0
10
2335.862477
20
3204.951542
0
VERTEX
8
0
10
2340.590391
20
3209.679579
0
VERTEX
8
0
10
2354.774135
20
3214.407617
0
VERTEX
8
0
10
2368.957878
20
3214.407617
0
VERTEX
8
0
10
2383.141622
20
3209.679579
0
VERTEX
8
0
10
2392.597450
20
3200.223504
0
VERTEX
8
0
10
2397.325365
20
3186.039390
0
VERTEX
8
0
10
2397.325365
20
3176.583315
0
VERTEX
8
0
10
2392.597450
20
3162.399201
0
VERTEX
8
0
10
2383.141622
20
3152.943126
0
VERTEX
8
0
10
2368.957878
20
3148.215088
0
VERTEX
8
0
10
2354.774135
20
3148.215088
0
VERTEX
8
0
10
2340.590391
20
3152.943126
0
VERTEX
8
0
10
2335.862477
20
3157.671163
0
VERTEX
8
0
10
2331.134562
20
3167.127239
0
SEQEND
0
POLYLINE
8
0
62
10
6
CONTINUOUS
70
0
66
1
40
4.000000
41
4.000000
10
0
20
0
30
0
0
VERTEX
8
0
10
2416.237023
20
3157.671163
0
VERTEX
8
0
10
2411.509108
20
3152.943126
0
VERTEX
8
0
10
2416.237023
20
3148.215088
0
VERTEX
8
0
10
2420.964937
20
3152.943126
0
VERTEX
8
0
10
2416.237023
20
3157.671163
0
SEQEND
0
POLYLINE
8
0
62
10
6
CONTINUOUS
70
0
66
1
40
4.000000
41
4.000000
10
0
20
0
30
0
0
VERTEX
8
0
10
2463.516167
20
3247.503882
0
VERTEX
8
0
10
2449.332424
20
3242.775844
0
VERTEX
8
0
10
2444.604510
20
3233.319768
0
VERTEX
8
0
10
2444.604510
20
3223.863693
0
VERTEX
8
0
10
2449.332424
20
3214.407617
0
VERTEX
8
0
10
2458.788253
20
3209.679579
0
VERTEX
8
0
10
2477.699911
20
3204.951542
0
VERTEX
8
0
10
2491.883654
20
3200.223504
0
VERTEX
8
0
10
2501.339483
20
3190.767428
0
VERTEX
8
0
10
2506.067398
20
3181.311352
0
VERTEX
8
0
10
2506.067398
20
3167.127239
0
VERTEX
8
0
10
2501.339483
20
3157.671163
0
VERTEX
8
0
10
2496.611569
20
3152.943126
0
VERTEX
8
0
10
2482.427825
20
3148.215088
0
VERTEX
8
0
10
2463.516167
20
3148.215088
0
VERTEX
8
0
10
2449.332424
20
3152.943126
0
VERTEX
8
0
10
2444.604510
20
3157.671163
0
VERTEX
8
0
10
2439.876595
20
3167.127239
0
VERTEX
8
0
10
2439.876595
20
3181.311352
0
VERTEX
8
0
10
2444.604510
20
3190.767428
0
VERTEX
8
0
10
2454.060338
20
3200.223504
0
VERTEX
8
0
10
2468.244082
20
3204.951542
0
VERTEX
8
0
10
2487.155740
20
3209.679579
0
VERTEX
8
0
10
2496.611569
20
3214.407617
0
VERTEX
8
0
10
2501.339483
20
3223.863693
0
VERTEX
8
0
10
2501.339483
20
3233.319768
0
VERTEX
8
0
10
2496.611569
20
3242.775844
0
VERTEX
8
0
10
2482.427825
20
3247.503882
0
VERTEX
8
0
10
2463.516167
20
3247.503882
0
SEQEND
0
POLYLINE
8
0
62
170
6
CONTINUOUS
70
0
66
1
40
4.000000
41
4.000000
10
0
20
0
30
0
0
VERTEX
8
0
10
1218.000242
20
3879.444635
0
VERTEX
8
0
10
1218.000242
20
3879.444635
0
SEQEND
0
POLYLINE
8
0
62
56
6
CONTINUOUS
70
0
66
1
40
4.000000
41
4.000000
10
0
20
0
30
0
0
VERTEX
8
0
10
7972.363610
20
3879.444635
0
VERTEX
8
0
10
13397.999758
20
3879.444635
0
SEQEND
0
POLYLINE
8
0
62
170
6
CONTINUOUS
70
0
66
1
40
4.000000
41
4.000000
10
0
20
0
30
0
0
VERTEX
8
0
10
7972.363610
20
5097.476365
0
VERTEX
8
0
10
13397.999758
20
3024.475720
0
SEQEND
0
POLYLINE
8
0
62
170
6
CONTINUOUS
70
0
66
1
40
4.000000
41
4.000000
10
0
20
0
30
0
0
VERTEX
8
0
10
7972.363610
20
3879.444635
0
VERTEX
8
0
10
7972.363610
20
5097.476365
0
SEQEND
0
POLYLINE
8
0
62
10
6
CONTINUOUS
70
0
66
1
40
4.000000
41
4.000000
10
0
20
0
30
0
0
VERTEX
8
0
10
8008.295760
20
5243.099930
0
VERTEX
8
0
10
8060.302819
20
5243.099930
0
VERTEX
8
0
10
8031.935332
20
5205.275627
0
VERTEX
8
0
10
8046.119076
20
5205.275627
0
VERTEX
8
0
10
8055.574904
20
5200.547589
0
VERTEX
8
0
10
8060.302819
20
5195.819552
0
VERTEX
8
0
10
8065.030733
20
5181.635438
0
VERTEX
8
0
10
8065.030733
20
5172.179363
0
VERTEX
8
0
10
8060.302819
20
5157.995249
0
VERTEX
8
0
10
8050.846990
20
5148.539173
0
VERTEX
8
0
10
8036.663247
20
5143.811136
0
VERTEX
8
0
10
8022.479503
20
5143.811136
0
VERTEX
8
0
10
8008.295760
20
5148.539173
0
VERTEX
8
0
10
8003.567845
20
5153.267211
0
VERTEX
8
0
10
7998.839931
20
5162.723287
0
SEQEND
0
POLYLINE
8
0
62
10
6
CONTINUOUS
70
0
66
1
40
4.000000
41
4.000000
10
0
20
0
30
0
0
VERTEX
8
0
10
8083.942391
20
5219.459741
0
VERTEX
8
0
10
8083.942391
20
5224.187779
0
VERTEX
8
0
10
8088.670306
20
5233.643854
0
VERTEX
8
0
10
8093.398220
20
5238.371892
0
VERTEX
8
0
10
8102.854049
20
5243.099930
0
VERTEX
8
0
10
8121.765707
20
5243.099930
0
VERTEX
8
0
10
8131.221536
20
5238.371892
0
VERTEX
8
0
10
8135.949450
20
5233.643854
0
VERTEX
8
0
10
8140.677365
20
5224.187779
0
VERTEX
8
0
10
8140.677365
20
5214.731703
0
VERTEX
8
0
10
8135.949450
20
5205.275627
0
VERTEX
8
0
10
8126.493621
20
5191.091514
0
VERTEX
8
0
10
8079.214477
20
5143.811136
0
VERTEX
8
0
10
8145.405279
20
5143.811136
0
SEQEND
0
POLYLINE
8
0
62
10
6
CONTINUOUS
70
0
66
1
40
4.000000
41
4.000000
10
0
20
0
30
0
0
VERTEX
8
0
10
8164.316937
20
5153.267211
0
VERTEX
8
0
10
8159.589023
20
5148.539173
0
VERTEX
8
0
10
8164.316937
20
5143.811136
0
VERTEX
8
0
10
8169.044852
20
5148.539173
0
VERTEX
8
0
10
8164.316937
20
5153.267211
0
SEQEND
0
POLYLINE
8
0
62
10
6
CONTINUOUS
70
0
66
1
40
4.000000
41
4.000000
10
0
20
0
30
0
0
VERTEX
8
0
10
8211.596082
20
5243.099930
0
VERTEX
8
0
10
8197.412338
20
5238.371892
0
VERTEX
8
0
10
8192.684424
20
5228.915816
0
VERTEX
8
0
10
8192.684424
20
5219.459741
0
VERTEX
8
0
10
8197.412338
20
5210.003665
0
VERTEX
8
0
10
8206.868167
20
5205.275627
0
VERTEX
8
0
10
8225.779825
20
5200.547589
0
VERTEX
8
0
10
8239.963569
20
5195.819552
0
VERTEX
8
0
10
8249.419397
20
5186.363476
0
VERTEX
8
0
10
8254.147312
20
5176.907400
0
VERTEX
8
0
10
8254.147312
20
5162.723287
0
VERTEX
8
0
10
8249.419397
20
5153.267211
0
VERTEX
8
0
10
8244.691483
20
5148.539173
0
VERTEX
8
0
10
8230.507740
20
5143.811136
0
VERTEX
8
0
10
8211.596082
20
5143.811136
0
VERTEX
8
0
10
8197.412338
20
5148.539173
0
VERTEX
8
0
10
8192.684424
20
5153.267211
0
VERTEX
8
0
10
8187.956509
20
5162.723287
0
VERTEX
8
0
10
8187.956509
20
5176.907400
0
VERTEX
8
0
10
8192.684424
20
5186.363476
0
VERTEX
8
0
10
8202.140253
20
5195.819552
0
VERTEX
8
0
10
8216.323996
20
5200.547589
0
VERTEX
8
0
10
8235.235654
20
5205.275627
0
VERTEX
8
0
10
8244.691483
20
5210.003665
0
VERTEX
8
0
10
8249.419397
20
5219.459741
0
VERTEX
8
0
10
8249.419397
20
5228.915816
0
VERTEX
8
0
10
8244.691483
20
5238.371892
0
VERTEX
8
0
10
8230.507740
20
5243.099930
0
VERTEX
8
0
10
8211.596082
20
5243.099930
0
SEQEND
0
POLYLINE
8
0
62
170
6
CONTINUOUS
70
0
66
1
40
4.000000
41
4.000000
10
0
20
0
30
0
0
VERTEX
8
0
10
13397.999758
20
3879.444635
0
VERTEX
8
0
10
13397.999758
20
3024.475720
0
SEQEND
0
POLYLINE
8
0
62
10
6
CONTINUOUS
70
0
66
1
40
4.000000
41
4.000000
10
0
20
0
30
0
0
VERTEX
8
0
10
12998.018195
20
2921.404495
0
VERTEX
8
0
10
13083.120655
20
2921.404495
0
SEQEND
0
POLYLINE
8
0
62
10
6
CONTINUOUS
70
0
66
1
40
4.000000
41
4.000000
10
0
20
0
30
0
0
VERTEX
8
0
10
13106.760227
20
2954.500760
0
VERTEX
8
0
10
13106.760227
20
2959.228798
0
VERTEX
8
0
10
13111.488142
20
2968.684874
0
VERTEX
8
0
10
13116.216056
20
2973.412911
0
VERTEX
8
0
10
13125.671885
20
2978.140949
0
VERTEX
8
0
10
13144.583543
20
2978.140949
0
VERTEX
8
0
10
13154.039372
20
2973.412911
0
VERTEX
8
0
10
13158.767286
20
2968.684874
0
VERTEX
8
0
10
13163.495201
20
2959.228798
0
VERTEX
8
0
10
13163.495201
20
2949.772722
0
VERTEX
8
0
10
13158.767286
20
2940.316647
0
VERTEX
8
0
10
13149.311457
20
2926.132533
0
VERTEX
8
0
10
13102.032313
20
2878.852155
0
VERTEX
8
0
10
13168.223115
20
2878.852155
0
SEQEND
0
POLYLINE
8
0
62
10
6
CONTINUOUS
70
0
66
1
40
4.000000
41
4.000000
10
0
20
0
30
0
0
VERTEX
8
0
10
13191.862687
20
2978.140949
0
VERTEX
8
0
10
13243.869747
20
2978.140949
0
VERTEX
8
0
10
13215.502260
20
2940.316647
0
VERTEX
8
0
10
13229.686003
20
2940.316647
0
VERTEX
8
0
10
13239.141832
20
2935.588609
0
VERTEX
8
0
10
13243.869747
20
2930.860571
0
VERTEX
8
0
10
13248.597661
20
2916.676458
0
VERTEX
8
0
10
13248.597661
20
2907.220382
0
VERTEX
8
0
10
13243.869747
20
2893.036269
0
VERTEX
8
0
10
13234.413918
20
2883.580193
0
VERTEX
8
0
10
13220.230174
20
2878.852155
0
VERTEX
8
0
10
13206.046431
20
2878.852155
0
VERTEX
8
0
10
13191.862687
20
2883.580193
0
VERTEX
8
0
10
13187.134773
20
2888.308231
0
VERTEX
8
0
10
13182.406859
20
2897.764306
0
SEQEND
0
POLYLINE
8
0
62
10
6
CONTINUOUS
70
0
66
1
40
4.000000
41
4.000000
10
0
20
0
30
0
0
VERTEX
8
0
10
13267.509319
20
2888.308231
0
VERTEX
8
0
10
13262.781404
20
2883.580193
0
VERTEX
8
0
10
13267.509319
20
2878.852155
0
VERTEX
8
0
10
13272.237233
20
2883.580193
0
VERTEX
8
0
10
13267.509319
20
2888.308231
0
SEQEND
0
POLYLINE
8
0
62
10
6
CONTINUOUS
70
0
66
1
40
4.000000
41
4.000000
10
0
20
0
30
0
0
VERTEX
8
0
10
13319.516378
20
2978.140949
0
VERTEX
8
0
10
13305.332635
20
2973.412911
0
VERTEX
8
0
10
13295.876806
20
2959.228798
0
VERTEX
8
0
10
13291.148891
20
2935.588609
0
VERTEX
8
0
10
13291.148891
20
2921.404495
0
VERTEX
8
0
10
13295.876806
20
2897.764306
0
VERTEX
8
0
10
13305.332635
20
2883.580193
0
VERTEX
8
0
10
13319.516378
20
2878.852155
0
VERTEX
8
0
10
13328.972207
20
2878.852155
0
VERTEX
8
0
10
13343.155950
20
2883.580193
0
VERTEX
8
0
10
13352.611779
20
2897.764306
0
VERTEX
8
0
10
13357.339694
20
2921.404495
0
VERTEX
8
0
10
13357.339694
20
2935.588609
0
VERTEX
8
0
10
13352.611779
20
2959.228798
0
VERTEX
8
0
10
13343.155950
20
2973.412911
0
VERTEX
8
0
10
13328.972207
20
2978.140949
0
VERTEX
8
0
10
13319.516378
20
2978.140949
0
SEQEND
0
POLYLINE
8
0
62
56
6
CONTINUOUS
70
0
66
1
40
4.000000
41
4.000000
10
0
20
0
30
0
0
VERTEX
8
0
10
2546.727462
20
3879.444635
0
VERTEX
8
0
10
7972.363610
20
3879.444635
0
SEQEND
0
POLYLINE
8
0
62
170
6
CONTINUOUS
70
0
66
1
40
4.000000
41
4.000000
10
0
20
0
30
0
0
VERTEX
8
0
10
2546.727462
20
4328.784730
0
VERTEX
8
0
10
7972.363610
20
3210.455435
0
SEQEND
0
POLYLINE
8
0
62
170
6
CONTINUOUS
70
0
66
1
40
4.000000
41
4.000000
10
0
20
0
30
0
0
VERTEX
8
0
10
2546.727462
20
3879.444635
0
VERTEX
8
0
10
2546.727462
20
4328.784730
0
SEQEND
0
POLYLINE
8
0
62
10
6
CONTINUOUS
70
0
66
1
40
4.000000
41
4.000000
10
0
20
0
30
0
0
VERTEX
8
0
10
2573.203783
20
4455.496144
0
VERTEX
8
0
10
2582.659612
20
4460.224181
0
VERTEX
8
0
10
2596.843355
20
4474.408295
0
VERTEX
8
0
10
2596.843355
20
4375.119501
0
SEQEND
0
POLYLINE
8
0
62
10
6
CONTINUOUS
70
0
66
1
40
4.000000
41
4.000000
10
0
20
0
30
0
0
VERTEX
8
0
10
2644.122500
20
4450.768106
0
VERTEX
8
0
10
2644.122500
20
4455.496144
0
VERTEX
8
0
10
2648.850414
20
4464.952219
0
VERTEX
8
0
10
2653.578329
20
4469.680257
0
VERTEX
8
0
10
2663.034158
20
4474.408295
0
VERTEX
8
0
10
2681.945816
20
4474.408295
0
VERTEX
8
0
10
2691.401644
20
4469.680257
0
VERTEX
8
0
10
2696.129559
20
4464.952219
0
VERTEX
8
0
10
2700.857473
20
4455.496144
0
VERTEX
8
0
10
2700.857473
20
4446.040068
0
VERTEX
8
0
10
2696.129559
20
4436.583992
0
VERTEX
8
0
10
2686.673730
20
4422.399879
0
VERTEX
8
0
10
2639.394585
20
4375.119501
0
VERTEX
8
0
10
2705.585388
20
4375.119501
0
SEQEND
0
POLYLINE
8
0
62
10
6
CONTINUOUS
70
0
66
1
40
4.000000
41
4.000000
10
0
20
0
30
0
0
VERTEX
8
0
10
2724.497046
20
4384.575576
0
VERTEX
8
0
10
2719.769131
20
4379.847539
0
VERTEX
8
0
10
2724.497046
20
4375.119501
0
VERTEX
8
0
10
2729.224960
20
4379.847539
0
VERTEX
8
0
10
2724.497046
20
4384.575576
0
SEQEND
0
POLYLINE
8
0
62
10
6
CONTINUOUS
70
0
66
1
40
4.000000
41
4.000000
10
0
20
0
30
0
0
VERTEX
8
0
10
2748.136618
20
4455.496144
0
VERTEX
8
0
10
2757.592447
20
4460.224181
0
VERTEX
8
0
10
2771.776190
20
4474.408295
0
VERTEX
8
0
10
2771.776190
20
4375.119501
0
SEQEND
0
POLYLINE
8
0
62
170
6
CONTINUOUS
70
0
66
1
40
4.000000
41
4.000000
10
0
20
0
30
0
0
VERTEX
8
0
10
7972.363610
20
3879.444635
0
VERTEX
8
0
10
7972.363610
20
3210.455435
0
SEQEND
0
POLYLINE
8
0
62
10
6
CONTINUOUS
70
0
66
1
40
4.000000
41
4.000000
10
0
20
0
30
0
0
VERTEX
8
0
10
7586.565790
20
3107.384210
0
VERTEX
8
0
10
7671.668250
20
3107.384210
0
SEQEND
0
POLYLINE
8
0
62
10
6
CONTINUOUS
70
0
66
1
40
4.000000
41
4.000000
10
0
20
0
30
0
0
VERTEX
8
0
10
7690.579908
20
3145.208513
0
VERTEX
8
0
10
7700.035737
20
3149.936551
0
VERTEX
8
0
10
7714.219480
20
3164.120664
0
VERTEX
8
0
10
7714.219480
20
3064.831870
0
SEQEND
0
POLYLINE
8
0
62
10
6
CONTINUOUS
70
0
66
1
40
4.000000
41
4.000000
10
0
20
0
30
0
0
VERTEX
8
0
10
7780.410283
20
3164.120664
0
VERTEX
8
0
10
7766.226539
20
3159.392626
0
VERTEX
8
0
10
7761.498625
20
3149.936551
0
VERTEX
8
0
10
7761.498625
20
3140.480475
0
VERTEX
8
0
10
7766.226539
20
3131.024399
0
VERTEX
8
0
10
7775.682368
20
3126.296362
0
VERTEX
8
0
10
7794.594026
20
3121.568324
0
VERTEX
8
0
10
7808.777770
20
3116.840286
0
VERTEX
8
0
10
7818.233599
20
3107.384210
0
VERTEX
8
0
10
7822.961513
20
3097.928135
0
VERTEX
8
0
10
7822.961513
20
3083.744021
0
VERTEX
8
0
10
7818.233599
20
3074.287946
0
VERTEX
8
0
10
7813.505684
20
3069.559908
0
VERTEX
8
0
10
7799.321941
20
3064.831870
0
VERTEX
8
0
10
7780.410283
20
3064.831870
0
VERTEX
8
0
10
7766.226539
20
3069.559908
0
VERTEX
8
0
10
7761.498625
20
3074.287946
0
VERTEX
8
0
10
7756.770711
20
3083.744021
0
VERTEX
8
0
10
7756.770711
20
3097.928135
0
VERTEX
8
0
10
7761.498625
20
3107.384210
0
VERTEX
8
0
10
7770.954454
20
3116.840286
0
VERTEX
8
0
10
7785.138197
20
3121.568324
0
VERTEX
8
0
10
7804.049855
20
3126.296362
0
VERTEX
8
0
10
7813.505684
20
3131.024399
0
VERTEX
8
0
10
7818.233599
20
3140.480475
0
VERTEX
8
0
10
7818.233599
20
3149.936551
0
VERTEX
8
0
10
7813.505684
20
3159.392626
0
VERTEX
8
0
10
7799.321941
20
3164.120664
0
VERTEX
8
0
10
7780.410283
20
3164.120664
0
SEQEND
0
POLYLINE
8
0
62
10
6
CONTINUOUS
70
0
66
1
40
4.000000
41
4.000000
10
0
20
0
30
0
0
VERTEX
8
0
10
7841.873171
20
3074.287946
0
VERTEX
8
0
10
7837.145256
20
3069.559908
0
VERTEX
8
0
10
7841.873171
20
3064.831870
0
VERTEX
8
0
10
7846.601085
20
3069.559908
0
VERTEX
8
0
10
7841.873171
20
3074.287946
0
SEQEND
0
POLYLINE
8
0
62
10
6
CONTINUOUS
70
0
66
1
40
4.000000
41
4.000000
10
0
20
0
30
0
0
VERTEX
8
0
10
7893.880230
20
3164.120664
0
VERTEX
8
0
10
7879.696487
20
3159.392626
0
VERTEX
8
0
10
7870.240658
20
3145.208513
0
VERTEX
8
0
10
7865.512743
20
3121.568324
0
VERTEX
8
0
10
7865.512743
20
3107.384210
0
VERTEX
8
0
10
7870.240658
20
3083.744021
0
VERTEX
8
0
10
7879.696487
20
3069.559908
0
VERTEX
8
0
10
7893.880230
20
3064.831870
0
VERTEX
8
0
10
7903.336059
20
3064.831870
0
VERTEX
8
0
10
7917.519802
20
3069.559908
0
VERTEX
8
0
10
7926.975631
20
3083.744021
0
VERTEX
8
0
10
7931.703546
20
3107.384210
0
VERTEX
8
0
10
7931.703546
20
3121.568324
0
VERTEX
8
0
10
7926.975631
20
3145.208513
0
VERTEX
8
0
10
7917.519802
20
3159.392626
0
VERTEX
8
0
10
7903.336059
20
3164.120664
0
VERTEX
8
0
10
7893.880230
20
3164.120664
0
SEQEND
0
POLYLINE
8
0
62
96
6
CONTINUOUS
70
0
66
1
40
4.000000
41
4.000000
10
0
20
0
30
0
0
VERTEX
8
0
10
13260.103632
20
3640.593029
0
VERTEX
8
0
10
13397.999758
20
3879.444635
0
VERTEX
8
0
10
13535.895884
20
3640.593029
0
SEQEND
0
POLYLINE
8
0
62
96
6
CONTINUOUS
70
0
66
1
40
4.000000
41
4.000000
10
0
20
0
30
0
0
VERTEX
8
0
10
13191.157637
20
3640.593029
0
VERTEX
8
0
10
13604.841879
20
3640.593029
0
SEQEND
0
POLYLINE
8
0
62
96
6
CONTINUOUS
70
0
66
1
40
4.000000
41
4.000000
10
0
20
0
30
0
0
VERTEX
8
0
10
13273.896140
20
3640.593029
0
VERTEX
8
0
10
13191.157637
20
3557.852368
0
SEQEND
0
POLYLINE
8
0
62
96
6
CONTINUOUS
70
0
66
1
40
4.000000
41
4.000000
10
0
20
0
30
0
0
VERTEX
8
0
10
13356.634643
20
3640.593029
0
VERTEX
8
0
10
13273.896140
20
3557.852368
0
SEQEND
0
POLYLINE
8
0
62
96
6
CONTINUOUS
70
0
66
1
40
4.000000
41
4.000000
10
0
20
0
30
0
0
VERTEX
8
0
10
13439.373146
20
3640.593029
0
VERTEX
8
0
10
13356.634643
20
3557.852368
0
SEQEND
0
POLYLINE
8
0
62
96
6
CONTINUOUS
70
0
66
1
40
4.000000
41
4.000000
10
0
20
0
30
0
0
VERTEX
8
0
10
13522.111650
20
3640.593029
0
VERTEX
8
0
10
13439.373146
20
3557.852368
0
SEQEND
0
POLYLINE
8
0
62
96
6
CONTINUOUS
70
0
66
1
40
4.000000
41
4.000000
10
0
20
0
30
0
0
VERTEX
8
0
10
13604.850153
20
3640.593029
0
VERTEX
8
0
10
13522.111650
20
3557.852368
0
SEQEND
0
POLYLINE
8
0
62
96
6
CONTINUOUS
70
0
66
1
40
4.000000
41
4.000000
10
0
20
0
30
0
0
VERTEX
8
0
10
7834.467484
20
3640.593029
0
VERTEX
8
0
10
7972.363610
20
3879.444635
0
VERTEX
8
0
10
8110.259736
20
3640.593029
0
SEQEND
0
POLYLINE
8
0
62
96
6
CONTINUOUS
70
0
66
1
40
4.000000
41
4.000000
10
0
20
0
30
0
0
VERTEX
8
0
10
7765.521489
20
3640.593029
0
VERTEX
8
0
10
8179.205731
20
3640.593029
0
SEQEND
0
POLYLINE
8
0
62
96
6
CONTINUOUS
70
0
66
1
40
4.000000
41
4.000000
10
0
20
0
30
0
0
VERTEX
8
0
10
7848.259992
20
3640.593029
0
VERTEX
8
0
10
7765.521489
20
3557.852368
0
SEQEND
0
POLYLINE
8
0
62
96
6
CONTINUOUS
70
0
66
1
40
4.000000
41
4.000000
10
0
20
0
30
0
0
VERTEX
8
0
10
7930.998495
20
3640.593029
0
VERTEX
8
0
10
7848.259992
20
3557.852368
0
SEQEND
0
POLYLINE
8
0
62
96
6
CONTINUOUS
70
0
66
1
40
4.000000
41
4.000000
10
0
20
0
30
0
0
VERTEX
8
0
10
8013.736998
20
3640.593029
0
VERTEX
8
0
10
7930.998495
20
3557.852368
0
SEQEND
0
POLYLINE
8
0
62
96
6
CONTINUOUS
70
0
66
1
40
4.000000
41
4.000000
10
0
20
0
30
0
0
VERTEX
8
0
10
8096.475502
20
3640.593029
0
VERTEX
8
0
10
8013.736998
20
3557.852368
0
SEQEND
0
POLYLINE
8
0
62
96
6
CONTINUOUS
70
0
66
1
40
4.000000
41
4.000000
10
0
20
0
30
0
0
VERTEX
8
0
10
8179.214005
20
3640.593029
0
VERTEX
8
0
10
8096.475502
20
3557.852368
0
SEQEND
0
POLYLINE
8
0
62
96
6
CONTINUOUS
70
0
66
1
40
4.000000
41
4.000000
10
0
20
0
30
0
0
VERTEX
8
0
10
2408.831336
20
3640.593029
0
VERTEX
8
0
10
2546.727462
20
3879.444635
0
VERTEX
8
0
10
2684.623588
20
3640.593029
0
SEQEND
0
POLYLINE
8
0
62
96
6
CONTINUOUS
70
0
66
1
40
4.000000
41
4.000000
10
0
20
0
30
0
0
VERTEX
8
0
10
2339.885341
20
3640.593029
0
VERTEX
8
0
10
2753.569583
20
3640.593029
0
SEQEND
0
POLYLINE
8
0
62
96
6
CONTINUOUS
70
0
66
1
40
4.000000
41
4.000000
10
0
20
0
30
0
0
VERTEX
8
0
10
2422.623844
20
3640.593029
0
VERTEX
8
0
10
2339.885341
20
3557.852368
0
SEQEND
0
POLYLINE
8
0
62
96
6
CONTINUOUS
70
0
66
1
40
4.000000
41
4.000000
10
0
20
0
30
0
0
VERTEX
8
0
10
2505.362347
20
3640.593029
0
VERTEX
8
0
10
2422.623844
20
3557.852368
0
SEQEND
0
POLYLINE
8
0
62
96
6
CONTINUOUS
70
0
66
1
40
4.000000
41
4.000000
10
0
20
0
30
0
0
VERTEX
8
0
10
2588.100850
20
3640.593029
0
VERTEX
8
0
10
2505.362347
20
3557.852368
0
SEQEND
0
POLYLINE
8
0
62
96
6
CONTINUOUS
70
0
66
1
40
4.000000
41
4.000000
10
0
20
0
30
0
0
VERTEX
8
0
10
2670.839353
20
3640.593029
0
VERTEX
8
0
10
2588.100850
20
3557.852368
0
SEQEND
0
POLYLINE
8
0
62
96
6
CONTINUOUS
70
0
66
1
40
4.000000
41
4.000000
10
0
20
0
30
0
0
VERTEX
8
0
10
2753.577857
20
3640.593029
0
VERTEX
8
0
10
2670.839353
20
3557.852368
0
SEQEND
0
ENDSEC
0
EOF
