999
CD - A 2D Graphics Library, version 5.10
0
SECTION
2
HEADER
9
$ACADVER
1
AC1006
9
$LIMCHECK
70
1
9
$LIMMIN
10
0.000000
20
0.000000
9
$LIMMAX
10
14617.000000
20
7759.000000
9
$EXTMIN
10
0.000000
20
0.000000
9
$EXTMAX
10
14617.000000
20
7759.000000
9
$CLAYER
8
0
9
$LUNITS
70
2
9
$LUPREC
70
2
9
$AUNITS
70
0
9
$AUPREC
70
2
9
$TEXTSTYLE
7
STANDARD
0
ENDSEC
0
SECTION
2
TABLES
0
TABLE
2
LTYPE
70
11
0
LTYPE
2
BYBLOCK
70
0
3

72
65
73
0
40
0
0
LTYPE
2
BYLAYER
70
0
3

72
65
73
0
40
0
0
LTYPE
2
CONTINUOUS
70
0
3
Solid line
72
65
73
0
40
0
0
LTYPE
2
DASHED
70
0
3
Dashed line
72
65
73
2
40
15
49
10
49
-5
0
LTYPE
2
HIDDEN
70
0
3
Hidden line
72
65
73
2
40
10
49
5
49
-5
0
LTYPE
2
CENTER
70
0
3
Center line
72
65
73
4
40
35
49
20
49
-5
49
5
49
-5
0
LTYPE
2
PHANTOM
70
0
3
Phantom line
72
65
73
6
40
50
49
25
49
-5
49
5
49
-5
49
5
49
-5
0
LTYPE
2
DOT
70
0
3
Dot line
72
65
73
2
40
5
49
0
49
-5
0
LTYPE
2
DASHDOT
70
0
3
Dashdot line
72
65
73
4
40
20
49
10
49
-5
49
0
49
-5
0
LTYPE
2
BORDER
70
0
3
Border line
72
65
73
6
40
35
49
10
49
-5
49
10
49
-5
49
0
49
-5
0
LTYPE
2
DIVIDE
70
0
3
Divide Line
72
65
73
6
40
25
49
10
49
-5
49
0
49
-5
49
0
49
-5
0
ENDTAB
0
TABLE
2
STYLE
70
6
0
STYLE
2
ROMAN
70
0
3
romanc.shx
71
0
40
0
41
1
42
0
4

50
0
0
STYLE
2
ROMAN_BOLD
70
0
3
romant.shx
71
0
40
0
41
1
42
0
4

50
0
0
STYLE
2
ROMANTIC
70
0
3
rom_____.pfb
71
0
40
0
41
1
42
0
4

50
0
0
STYLE
2
ROMANTIC_BOLD
70
0
3
romb____.pfb
71
0
40
0
41
1
42
0
4

50
0
0
STYLE
2
SANSSERIF
70
0
3
sas_____.pfb
71
0
40
0
41
1
42
0
4

50
0
0
STYLE
2
SANSSERIF_BOLD
70
0
3
sasb____.pfb
71
0
40
0
41
1
42
0
4

50
0
0
ENDTAB
0
ENDSEC
0
SECTION
2
BLOCKS
0
ENDSEC
0
SECTION
2
ENTITIES
0
POLYLINE
8
0
62
56
6
CONTINUOUS
70
0
66
1
40
4.000000
41
4.000000
10
0
20
0
30
0
0
VERTEX
8
0
10
2546.727462
20
3879.444635
0
VERTEX
8
0
10
1218.000242
20
3879.444635
0
SEQEND
0
POLYLINE
8
0
62
170
6
CONTINUOUS
70
0
66
1
40
4.000000
41
4.000000
10
0
20
0
30
0
0
VERTEX
8
0
10
2546.727462
20
3641.488511
0
VERTEX
8
0
10
1218.000242
20
3879.444635
0
SEQEND
0
POLYLINE
8
0
62
170
6
CONTINUOUS
70
0
66
1
40
4.000000
41
4.000000
10
0
20
0
30
0
0
VERTEX
8
0
10
2546.727462
20
3879.444635
0
VERTEX
8
0
10
2546.727462
20
3641.488511
0
SEQEND
0
POLYLINE
8
0
62
10
6
CONTINUOUS
70
0
66
1
40
4.000000
41
4.000000
10
0
20
0
30
0
0
VERTEX
8
0
10
2231.848359
20
3538.417287
0
VERTEX
8
0
10
2316.950819
20
3538.417287
0
SEQEND
0
POLYLINE
8
0
62
10
6
CONTINUOUS
70
0
66
1
40
4.000000
41
4.000000
10
0
20
0
30
0
0
VERTEX
8
0
10
2392.597450
20
3580.969627
0
VERTEX
8
0
10
2387.869536
20
3590.425703
0
VERTEX
8
0
10
2373.685793
20
3595.153741
0
VERTEX
8
0
10
2364.229964
20
3595.153741
0
VERTEX
8
0
10
2350.046220
20
3590.425703
0
VERTEX
8
0
10
2340.590391
20
3576.241589
0
VERTEX
8
0
10
2335.862477
20
3552.601400
0
VERTEX
8
0
10
2335.862477
20
3528.961211
0
VERTEX
8
0
10
2340.590391
20
3510.049060
0
VERTEX
8
0
10
2350.046220
20
3500.592984
0
VERTEX
8
0
10
2364.229964
20
3495.864947
0
VERTEX
8
0
10
2368.957878
20
3495.864947
0
VERTEX
8
0
10
2383.141622
20
3500.592984
0
VERTEX
8
0
10
2392.597450
20
3510.049060
0
VERTEX
8
0
10
2397.325365
20
3524.233173
0
VERTEX
8
0
10
2397.325365
20
3528.961211
0
VERTEX
8
0
10
2392.597450
20
3543.145325
0
VERTEX
8
0
10
2383.141622
20
3552.601400
0
VERTEX
8
0
10
2368.957878
20
3557.329438
0
VERTEX
8
0
10
2364.229964
20
3557.329438
0
VERTEX
8
0
10
2350.046220
20
3552.601400
0
VERTEX
8
0
10
2340.590391
20
3543.145325
0
VERTEX
8
0
10
2335.862477
20
3528.961211
0
SEQEND
0
POLYLINE
8
0
62
10
6
CONTINUOUS
70
0
66
1
40
4.000000
41
4.000000
10
0
20
0
30
0
0
VERTEX
8
0
10
2416.237023
20
3505.321022
0
VERTEX
8
0
10
2411.509108
20
3500.592984
0
VERTEX
8
0
10
2416.237023
20
3495.864947
0
VERTEX
8
0
10
2420.964937
20
3500.592984
0
VERTEX
8
0
10
2416.237023
20
3505.321022
0
SEQEND
0
POLYLINE
8
0
62
10
6
CONTINUOUS
70
0
66
1
40
4.000000
41
4.000000
10
0
20
0
30
0
0
VERTEX
8
0
10
2463.516167
20
3595.153741
0
VERTEX
8
0
10
2449.332424
20
3590.425703
0
VERTEX
8
0
10
2444.604510
20
3580.969627
0
VERTEX
8
0
10
2444.604510
20
3571.513552
0
VERTEX
8
0
10
2449.332424
20
3562.057476
0
VERTEX
8
0
10
2458.788253
20
3557.329438
0
VERTEX
8
0
10
2477.699911
20
3552.601400
0
VERTEX
8
0
10
2491.883654
20
3547.873363
0
VERTEX
8
0
10
2501.339483
20
3538.417287
0
VERTEX
8
0
10
2506.067398
20
3528.961211
0
VERTEX
8
0
10
2506.067398
20
3514.777098
0
VERTEX
8
0
10
2501.339483
20
3505.321022
0
VERTEX
8
0
10
2496.611569
20
3500.592984
0
VERTEX
8
0
10
2482.427825
20
3495.864947
0
VERTEX
8
0
10
2463.516167
20
3495.864947
0
VERTEX
8
0
10
2449.332424
20
3500.592984
0
VERTEX
8
0
10
2444.604510
20
3505.321022
0
VERTEX
8
0
10
2439.876595
20
3514.777098
0
VERTEX
8
0
10
2439.876595
20
3528.961211
0
VERTEX
8
0
10
2444.604510
20
3538.417287
0
VERTEX
8
0
10
2454.060338
20
3547.873363
0
VERTEX
8
0
10
2468.244082
20
3552.601400
0
VERTEX
8
0
10
2487.155740
20
3557.329438
0
VERTEX
8
0
10
2496.611569
20
3562.057476
0
VERTEX
8
0
10
2501.339483
20
3571.513552
0
VERTEX
8
0
10
2501.339483
20
3580.969627
0
VERTEX
8
0
10
2496.611569
20
3590.425703
0
VERTEX
8
0
10
2482.427825
20
3595.153741
0
VERTEX
8
0
10
2463.516167
20
3595.153741
0
SEQEND
0
POLYLINE
8
0
62
170
6
CONTINUOUS
70
0
66
1
40
4.000000
41
4.000000
10
0
20
0
30
0
0
VERTEX
8
0
10
1218.000242
20
3879.444635
0
VERTEX
8
0
10
1218.000242
20
3879.444635
0
SEQEND
0
POLYLINE
8
0
62
56
6
CONTINUOUS
70
0
66
1
40
4.000000
41
4.000000
10
0
20
0
30
0
0
VERTEX
8
0
10
7972.363610
20
3879.444635
0
VERTEX
8
0
10
13397.999758
20
3879.444635
0
SEQEND
0
POLYLINE
8
0
62
170
6
CONTINUOUS
70
0
66
1
40
4.000000
41
4.000000
10
0
20
0
30
0
0
VERTEX
8
0
10
7972.363610
20
5097.476365
0
VERTEX
8
0
10
13397.999758
20
3136.970603
0
SEQEND
0
POLYLINE
8
0
62
170
6
CONTINUOUS
70
0
66
1
40
4.000000
41
4.000000
10
0
20
0
30
0
0
VERTEX
8
0
10
7972.363610
20
3879.444635
0
VERTEX
8
0
10
7972.363610
20
5097.476365
0
SEQEND
0
POLYLINE
8
0
62
10
6
CONTINUOUS
70
0
66
1
40
4.000000
41
4.000000
10
0
20
0
30
0
0
VERTEX
8
0
10
8008.295760
20
5243.099930
0
VERTEX
8
0
10
8060.302819
20
5243.099930
0
VERTEX
8
0
10
8031.935332
20
5205.275627
0
VERTEX
8
0
10
8046.119076
20
5205.275627
0
VERTEX
8
0
10
8055.574904
20
5200.547589
0
VERTEX
8
0
10
8060.302819
20
5195.819552
0
VERTEX
8
0
10
8065.030733
20
5181.635438
0
VERTEX
8
0
10
8065.030733
20
5172.179363
0
VERTEX
8
0
10
8060.302819
20
5157.995249
0
VERTEX
8
0
10
8050.846990
20
5148.539173
0
VERTEX
8
0
10
8036.663247
20
5143.811136
0
VERTEX
8
0
10
8022.479503
20
5143.811136
0
VERTEX
8
0
10
8008.295760
20
5148.539173
0
VERTEX
8
0
10
8003.567845
20
5153.267211
0
VERTEX
8
0
10
7998.839931
20
5162.723287
0
SEQEND
0
POLYLINE
8
0
62
10
6
CONTINUOUS
70
0
66
1
40
4.000000
41
4.000000
10
0
20
0
30
0
0
VERTEX
8
0
10
8126.493621
20
5243.099930
0
VERTEX
8
0
10
8079.214477
20
5176.907400
0
VERTEX
8
0
10
8150.133194
20
5176.907400
0
SEQEND
0
POLYLINE
8
0
62
10
6
CONTINUOUS
70
0
66
1
40
4.000000
41
4.000000
10
0
20
0
30
0
0
VERTEX
8
0
10
8126.493621
20
5243.099930
0
VERTEX
8
0
10
8126.493621
20
5143.811136
0
SEQEND
0
POLYLINE
8
0
62
10
6
CONTINUOUS
70
0
66
1
40
4.000000
41
4.000000
10
0
20
0
30
0
0
VERTEX
8
0
10
8164.316937
20
5153.267211
0
VERTEX
8
0
10
8159.589023
20
5148.539173
0
VERTEX
8
0
10
8164.316937
20
5143.811136
0
VERTEX
8
0
10
8169.044852
20
5148.539173
0
VERTEX
8
0
10
8164.316937
20
5153.267211
0
SEQEND
0
POLYLINE
8
0
62
10
6
CONTINUOUS
70
0
66
1
40
4.000000
41
4.000000
10
0
20
0
30
0
0
VERTEX
8
0
10
8254.147312
20
5243.099930
0
VERTEX
8
0
10
8206.868167
20
5143.811136
0
SEQEND
0
POLYLINE
8
0
62
10
6
CONTINUOUS
70
0
66
1
40
4.000000
41
4.000000
10
0
20
0
30
0
0
VERTEX
8
0
10
8187.956509
20
5243.099930
0
VERTEX
8
0
10
8254.147312
20
5243.099930
0
SEQEND
0
POLYLINE
8
0
62
170
6
CONTINUOUS
70
0
66
1
40
4.000000
41
4.000000
10
0
20
0
30
0
0
VERTEX
8
0
10
13397.999758
20
3879.444635
0
VERTEX
8
0
10
13397.999758
20
3136.970603
0
SEQEND
0
POLYLINE
8
0
62
10
6
CONTINUOUS
70
0
66
1
40
4.000000
41
4.000000
10
0
20
0
30
0
0
VERTEX
8
0
10
13012.201938
20
3033.899379
0
VERTEX
8
0
10
13097.304398
20
3033.899379
0
SEQEND
0
POLYLINE
8
0
62
10
6
CONTINUOUS
70
0
66
1
40
4.000000
41
4.000000
10
0
20
0
30
0
0
VERTEX
8
0
10
13120.943971
20
3066.995643
0
VERTEX
8
0
10
13120.943971
20
3071.723681
0
VERTEX
8
0
10
13125.671885
20
3081.179757
0
VERTEX
8
0
10
13130.399799
20
3085.907795
0
VERTEX
8
0
10
13139.855628
20
3090.635832
0
VERTEX
8
0
10
13158.767286
20
3090.635832
0
VERTEX
8
0
10
13168.223115
20
3085.907795
0
VERTEX
8
0
10
13172.951030
20
3081.179757
0
VERTEX
8
0
10
13177.678944
20
3071.723681
0
VERTEX
8
0
10
13177.678944
20
3062.267606
0
VERTEX
8
0
10
13172.951030
20
3052.811530
0
VERTEX
8
0
10
13163.495201
20
3038.627416
0
VERTEX
8
0
10
13116.216056
20
2991.347038
0
VERTEX
8
0
10
13182.406859
20
2991.347038
0
SEQEND
0
POLYLINE
8
0
62
10
6
CONTINUOUS
70
0
66
1
40
4.000000
41
4.000000
10
0
20
0
30
0
0
VERTEX
8
0
10
13196.590602
20
3071.723681
0
VERTEX
8
0
10
13206.046431
20
3076.451719
0
VERTEX
8
0
10
13220.230174
20
3090.635832
0
VERTEX
8
0
10
13220.230174
20
2991.347038
0
SEQEND
0
POLYLINE
8
0
62
10
6
CONTINUOUS
70
0
66
1
40
4.000000
41
4.000000
10
0
20
0
30
0
0
VERTEX
8
0
10
13267.509319
20
3000.803114
0
VERTEX
8
0
10
13262.781404
20
2996.075076
0
VERTEX
8
0
10
13267.509319
20
2991.347038
0
VERTEX
8
0
10
13272.237233
20
2996.075076
0
VERTEX
8
0
10
13267.509319
20
3000.803114
0
SEQEND
0
POLYLINE
8
0
62
10
6
CONTINUOUS
70
0
66
1
40
4.000000
41
4.000000
10
0
20
0
30
0
0
VERTEX
8
0
10
13295.876806
20
3066.995643
0
VERTEX
8
0
10
13295.876806
20
3071.723681
0
VERTEX
8
0
10
13300.604720
20
3081.179757
0
VERTEX
8
0
10
13305.332635
20
3085.907795
0
VERTEX
8
0
10
13314.788463
20
3090.635832
0
VERTEX
8
0
10
13333.700121
20
3090.635832
0
VERTEX
8
0
10
13343.155950
20
3085.907795
0
VERTEX
8
0
10
13347.883865
20
3081.179757
0
VERTEX
8
0
10
13352.611779
20
3071.723681
0
VERTEX
8
0
10
13352.611779
20
3062.267606
0
VERTEX
8
0
10
13347.883865
20
3052.811530
0
VERTEX
8
0
10
13338.428036
20
3038.627416
0
VERTEX
8
0
10
13291.148891
20
2991.347038
0
VERTEX
8
0
10
13357.339694
20
2991.347038
0
SEQEND
0
POLYLINE
8
0
62
56
6
CONTINUOUS
70
0
66
1
40
4.000000
41
4.000000
10
0
20
0
30
0
0
VERTEX
8
0
10
2546.727462
20
3879.444635
0
VERTEX
8
0
10
7972.363610
20
3879.444635
0
SEQEND
0
POLYLINE
8
0
62
170
6
CONTINUOUS
70
0
66
1
40
4.000000
41
4.000000
10
0
20
0
30
0
0
VERTEX
8
0
10
2546.727462
20
4651.056151
0
VERTEX
8
0
10
7972.363610
20
2690.550389
0
SEQEND
0
POLYLINE
8
0
62
170
6
CONTINUOUS
70
0
66
1
40
4.000000
41
4.000000
10
0
20
0
30
0
0
VERTEX
8
0
10
2546.727462
20
3879.444635
0
VERTEX
8
0
10
2546.727462
20
4651.056151
0
SEQEND
0
POLYLINE
8
0
62
10
6
CONTINUOUS
70
0
66
1
40
4.000000
41
4.000000
10
0
20
0
30
0
0
VERTEX
8
0
10
2577.931697
20
4773.039527
0
VERTEX
8
0
10
2577.931697
20
4777.767565
0
VERTEX
8
0
10
2582.659612
20
4787.223640
0
VERTEX
8
0
10
2587.387526
20
4791.951678
0
VERTEX
8
0
10
2596.843355
20
4796.679716
0
VERTEX
8
0
10
2615.755013
20
4796.679716
0
VERTEX
8
0
10
2625.210842
20
4791.951678
0
VERTEX
8
0
10
2629.938756
20
4787.223640
0
VERTEX
8
0
10
2634.666671
20
4777.767565
0
VERTEX
8
0
10
2634.666671
20
4768.311489
0
VERTEX
8
0
10
2629.938756
20
4758.855414
0
VERTEX
8
0
10
2620.482928
20
4744.671300
0
VERTEX
8
0
10
2573.203783
20
4697.390922
0
VERTEX
8
0
10
2639.394585
20
4697.390922
0
SEQEND
0
POLYLINE
8
0
62
10
6
CONTINUOUS
70
0
66
1
40
4.000000
41
4.000000
10
0
20
0
30
0
0
VERTEX
8
0
10
2658.306243
20
4773.039527
0
VERTEX
8
0
10
2658.306243
20
4777.767565
0
VERTEX
8
0
10
2663.034158
20
4787.223640
0
VERTEX
8
0
10
2667.762072
20
4791.951678
0
VERTEX
8
0
10
2677.217901
20
4796.679716
0
VERTEX
8
0
10
2696.129559
20
4796.679716
0
VERTEX
8
0
10
2705.585388
20
4791.951678
0
VERTEX
8
0
10
2710.313302
20
4787.223640
0
VERTEX
8
0
10
2715.041217
20
4777.767565
0
VERTEX
8
0
10
2715.041217
20
4768.311489
0
VERTEX
8
0
10
2710.313302
20
4758.855414
0
VERTEX
8
0
10
2700.857473
20
4744.671300
0
VERTEX
8
0
10
2653.578329
20
4697.390922
0
VERTEX
8
0
10
2719.769131
20
4697.390922
0
SEQEND
0
POLYLINE
8
0
62
10
6
CONTINUOUS
70
0
66
1
40
4.000000
41
4.000000
10
0
20
0
30
0
0
VERTEX
8
0
10
2738.680789
20
4706.846998
0
VERTEX
8
0
10
2733.952875
20
4702.118960
0
VERTEX
8
0
10
2738.680789
20
4697.390922
0
VERTEX
8
0
10
2743.408704
20
4702.118960
0
VERTEX
8
0
10
2738.680789
20
4706.846998
0
SEQEND
0
POLYLINE
8
0
62
10
6
CONTINUOUS
70
0
66
1
40
4.000000
41
4.000000
10
0
20
0
30
0
0
VERTEX
8
0
10
2790.687848
20
4796.679716
0
VERTEX
8
0
10
2776.504105
20
4791.951678
0
VERTEX
8
0
10
2767.048276
20
4777.767565
0
VERTEX
8
0
10
2762.320361
20
4754.127376
0
VERTEX
8
0
10
2762.320361
20
4739.943262
0
VERTEX
8
0
10
2767.048276
20
4716.303073
0
VERTEX
8
0
10
2776.504105
20
4702.118960
0
VERTEX
8
0
10
2790.687848
20
4697.390922
0
VERTEX
8
0
10
2800.143677
20
4697.390922
0
VERTEX
8
0
10
2814.327420
20
4702.118960
0
VERTEX
8
0
10
2823.783249
20
4716.303073
0
VERTEX
8
0
10
2828.511164
20
4739.943262
0
VERTEX
8
0
10
2828.511164
20
4754.127376
0
VERTEX
8
0
10
2823.783249
20
4777.767565
0
VERTEX
8
0
10
2814.327420
20
4791.951678
0
VERTEX
8
0
10
2800.143677
20
4796.679716
0
VERTEX
8
0
10
2790.687848
20
4796.679716
0
SEQEND
0
POLYLINE
8
0
62
170
6
CONTINUOUS
70
0
66
1
40
4.000000
41
4.000000
10
0
20
0
30
0
0
VERTEX
8
0
10
7972.363610
20
3879.444635
0
VERTEX
8
0
10
7972.363610
20
2690.550389
0
SEQEND
0
POLYLINE
8
0
62
10
6
CONTINUOUS
70
0
66
1
40
4.000000
41
4.000000
10
0
20
0
30
0
0
VERTEX
8
0
10
7572.382046
20
2587.479165
0
VERTEX
8
0
10
7657.484507
20
2587.479165
0
SEQEND
0
POLYLINE
8
0
62
10
6
CONTINUOUS
70
0
66
1
40
4.000000
41
4.000000
10
0
20
0
30
0
0
VERTEX
8
0
10
7685.851994
20
2644.215619
0
VERTEX
8
0
10
7737.859053
20
2644.215619
0
VERTEX
8
0
10
7709.491566
20
2606.391316
0
VERTEX
8
0
10
7723.675309
20
2606.391316
0
VERTEX
8
0
10
7733.131138
20
2601.663278
0
VERTEX
8
0
10
7737.859053
20
2596.935241
0
VERTEX
8
0
10
7742.586967
20
2582.751127
0
VERTEX
8
0
10
7742.586967
20
2573.295051
0
VERTEX
8
0
10
7737.859053
20
2559.110938
0
VERTEX
8
0
10
7728.403224
20
2549.654862
0
VERTEX
8
0
10
7714.219480
20
2544.926825
0
VERTEX
8
0
10
7700.035737
20
2544.926825
0
VERTEX
8
0
10
7685.851994
20
2549.654862
0
VERTEX
8
0
10
7681.124079
20
2554.382900
0
VERTEX
8
0
10
7676.396165
20
2563.838976
0
SEQEND
0
POLYLINE
8
0
62
10
6
CONTINUOUS
70
0
66
1
40
4.000000
41
4.000000
10
0
20
0
30
0
0
VERTEX
8
0
10
7766.226539
20
2644.215619
0
VERTEX
8
0
10
7818.233599
20
2644.215619
0
VERTEX
8
0
10
7789.866112
20
2606.391316
0
VERTEX
8
0
10
7804.049855
20
2606.391316
0
VERTEX
8
0
10
7813.505684
20
2601.663278
0
VERTEX
8
0
10
7818.233599
20
2596.935241
0
VERTEX
8
0
10
7822.961513
20
2582.751127
0
VERTEX
8
0
10
7822.961513
20
2573.295051
0
VERTEX
8
0
10
7818.233599
20
2559.110938
0
VERTEX
8
0
10
7808.777770
20
2549.654862
0
VERTEX
8
0
10
7794.594026
20
2544.926825
0
VERTEX
8
0
10
7780.410283
20
2544.926825
0
VERTEX
8
0
10
7766.226539
20
2549.654862
0
VERTEX
8
0
10
7761.498625
20
2554.382900
0
VERTEX
8
0
10
7756.770711
20
2563.838976
0
SEQEND
0
POLYLINE
8
0
62
10
6
CONTINUOUS
70
0
66
1
40
4.000000
41
4.000000
10
0
20
0
30
0
0
VERTEX
8
0
10
7841.873171
20
2554.382900
0
VERTEX
8
0
10
7837.145256
20
2549.654862
0
VERTEX
8
0
10
7841.873171
20
2544.926825
0
VERTEX
8
0
10
7846.601085
20
2549.654862
0
VERTEX
8
0
10
7841.873171
20
2554.382900
0
SEQEND
0
POLYLINE
8
0
62
10
6
CONTINUOUS
70
0
66
1
40
4.000000
41
4.000000
10
0
20
0
30
0
0
VERTEX
8
0
10
7926.975631
20
2611.119354
0
VERTEX
8
0
10
7922.247717
20
2596.935241
0
VERTEX
8
0
10
7912.791888
20
2587.479165
0
VERTEX
8
0
10
7898.608144
20
2582.751127
0
VERTEX
8
0
10
7893.880230
20
2582.751127
0
VERTEX
8
0
10
7879.696487
20
2587.479165
0
VERTEX
8
0
10
7870.240658
20
2596.935241
0
VERTEX
8
0
10
7865.512743
20
2611.119354
0
VERTEX
8
0
10
7865.512743
20
2615.847392
0
VERTEX
8
0
10
7870.240658
20
2630.031505
0
VERTEX
8
0
10
7879.696487
20
2639.487581
0
VERTEX
8
0
10
7893.880230
20
2644.215619
0
VERTEX
8
0
10
7898.608144
20
2644.215619
0
VERTEX
8
0
10
7912.791888
20
2639.487581
0
VERTEX
8
0
10
7922.247717
20
2630.031505
0
VERTEX
8
0
10
7926.975631
20
2611.119354
0
VERTEX
8
0
10
7926.975631
20
2587.479165
0
VERTEX
8
0
10
7922.247717
20
2563.838976
0
VERTEX
8
0
10
7912.791888
20
2549.654862
0
VERTEX
8
0
10
7898.608144
20
2544.926825
0
VERTEX
8
0
10
7889.152315
20
2544.926825
0
VERTEX
8
0
10
7874.968572
20
2549.654862
0
VERTEX
8
0
10
7870.240658
20
2559.110938
0
SEQEND
0
POLYLINE
8
0
62
96
6
CONTINUOUS
70
0
66
1
40
4.000000
41
4.000000
10
0
20
0
30
0
0
VERTEX
8
0
10
13260.103632
20
3640.593029
0
VERTEX
8
0
10
13397.999758
20
3879.444635
0
VERTEX
8
0
10
13535.895884
20
3640.593029
0
SEQEND
0
POLYLINE
8
0
62
96
6
CONTINUOUS
70
0
66
1
40
4.000000
41
4.000000
10
0
20
0
30
0
0
VERTEX
8
0
10
13191.157637
20
3640.593029
0
VERTEX
8
0
10
13604.841879
20
3640.593029
0
SEQEND
0
POLYLINE
8
0
62
96
6
CONTINUOUS
70
0
66
1
40
4.000000
41
4.000000
10
0
20
0
30
0
0
VERTEX
8
0
10
13273.896140
20
3640.593029
0
VERTEX
8
0
10
13191.157637
20
3557.852368
0
SEQEND
0
POLYLINE
8
0
62
96
6
CONTINUOUS
70
0
66
1
40
4.000000
41
4.000000
10
0
20
0
30
0
0
VERTEX
8
0
10
13356.634643
20
3640.593029
0
VERTEX
8
0
10
13273.896140
20
3557.852368
0
SEQEND
0
POLYLINE
8
0
62
96
6
CONTINUOUS
70
0
66
1
40
4.000000
41
4.000000
10
0
20
0
30
0
0
VERTEX
8
0
10
13439.373146
20
3640.593029
0
VERTEX
8
0
10
13356.634643
20
3557.852368
0
SEQEND
0
POLYLINE
8
0
62
96
6
CONTINUOUS
70
0
66
1
40
4.000000
41
4.000000
10
0
20
0
30
0
0
VERTEX
8
0
10
13522.111650
20
3640.593029
0
VERTEX
8
0
10
13439.373146
20
3557.852368
0
SEQEND
0
POLYLINE
8
0
62
96
6
CONTINUOUS
70
0
66
1
40
4.000000
41
4.000000
10
0
20
0
30
0
0
VERTEX
8
0
10
13604.850153
20
3640.593029
0
VERTEX
8
0
10
13522.111650
20
3557.852368
0
SEQEND
0
POLYLINE
8
0
62
96
6
CONTINUOUS
70
0
66
1
40
4.000000
41
4.000000
10
0
20
0
30
0
0
VERTEX
8
0
10
7834.467484
20
3640.593029
0
VERTEX
8
0
10
7972.363610
20
3879.444635
0
VERTEX
8
0
10
8110.259736
20
3640.593029
0
SEQEND
0
POLYLINE
8
0
62
96
6
CONTINUOUS
70
0
66
1
40
4.000000
41
4.000000
10
0
20
0
30
0
0
VERTEX
8
0
10
7765.521489
20
3640.593029
0
VERTEX
8
0
10
8179.205731
20
3640.593029
0
SEQEND
0
POLYLINE
8
0
62
96
6
CONTINUOUS
70
0
66
1
40
4.000000
41
4.000000
10
0
20
0
30
0
0
VERTEX
8
0
10
7848.259992
20
3640.593029
0
VERTEX
8
0
10
7765.521489
20
3557.852368
0
SEQEND
0
POLYLINE
8
0
62
96
6
CONTINUOUS
70
0
66
1
40
4.000000
41
4.000000
10
0
20
0
30
0
0
VERTEX
8
0
10
7930.998495
20
3640.593029
0
VERTEX
8
0
10
7848.259992
20
3557.852368
0
SEQEND
0
POLYLINE
8
0
62
96
6
CONTINUOUS
70
0
66
1
40
4.000000
41
4.000000
10
0
20
0
30
0
0
VERTEX
8
0
10
8013.736998
20
3640.593029
0
VERTEX
8
0
10
7930.998495
20
3557.852368
0
SEQEND
0
POLYLINE
8
0
62
96
6
CONTINUOUS
70
0
66
1
40
4.000000
41
4.000000
10
0
20
0
30
0
0
VERTEX
8
0
10
8096.475502
20
3640.593029
0
VERTEX
8
0
10
8013.736998
20
3557.852368
0
SEQEND
0
POLYLINE
8
0
62
96
6
CONTINUOUS
70
0
66
1
40
4.000000
41
4.000000
10
0
20
0
30
0
0
VERTEX
8
0
10
8179.214005
20
3640.593029
0
VERTEX
8
0
10
8096.475502
20
3557.852368
0
SEQEND
0
POLYLINE
8
0
62
96
6
CONTINUOUS
70
0
66
1
40
4.000000
41
4.000000
10
0
20
0
30
0
0
VERTEX
8
0
10
2408.831336
20
3640.593029
0
VERTEX
8
0
10
2546.727462
20
3879.444635
0
VERTEX
8
0
10
2684.623588
20
3640.593029
0
SEQEND
0
POLYLINE
8
0
62
96
6
CONTINUOUS
70
0
66
1
40
4.000000
41
4.000000
10
0
20
0
30
0
0
VERTEX
8
0
10
2339.885341
20
3640.593029
0
VERTEX
8
0
10
2753.569583
20
3640.593029
0
SEQEND
0
POLYLINE
8
0
62
96
6
CONTINUOUS
70
0
66
1
40
4.000000
41
4.000000
10
0
20
0
30
0
0
VERTEX
8
0
10
2422.623844
20
3640.593029
0
VERTEX
8
0
10
2339.885341
20
3557.852368
0
SEQEND
0
POLYLINE
8
0
62
96
6
CONTINUOUS
70
0
66
1
40
4.000000
41
4.000000
10
0
20
0
30
0
0
VERTEX
8
0
10
2505.362347
20
3640.593029
0
VERTEX
8
0
10
2422.623844
20
3557.852368
0
SEQEND
0
POLYLINE
8
0
62
96
6
CONTINUOUS
70
0
66
1
40
4.000000
41
4.000000
10
0
20
0
30
0
0
VERTEX
8
0
10
2588.100850
20
3640.593029
0
VERTEX
8
0
10
2505.362347
20
3557.852368
0
SEQEND
0
POLYLINE
8
0
62
96
6
CONTINUOUS
70
0
66
1
40
4.000000
41
4.000000
10
0
20
0
30
0
0
VERTEX
8
0
10
2670.839353
20
3640.593029
0
VERTEX
8
0
10
2588.100850
20
3557.852368
0
SEQEND
0
POLYLINE
8
0
62
96
6
CONTINUOUS
70
0
66
1
40
4.000000
41
4.000000
10
0
20
0
30
0
0
VERTEX
8
0
10
2753.577857
20
3640.593029
0
VERTEX
8
0
10
2670.839353
20
3557.852368
0
SEQEND
0
ENDSEC
0
EOF
