999
CD - A 2D Graphics Library, version 5.10
0
SECTION
2
HEADER
9
$ACADVER
1
AC1006
9
$LIMCHECK
70
1
9
$LIMMIN
10
0.000000
20
0.000000
9
$LIMMAX
10
14617.000000
20
7759.000000
9
$EXTMIN
10
0.000000
20
0.000000
9
$EXTMAX
10
14617.000000
20
7759.000000
9
$CLAYER
8
0
9
$LUNITS
70
2
9
$LUPREC
70
2
9
$AUNITS
70
0
9
$AUPREC
70
2
9
$TEXTSTYLE
7
STANDARD
0
ENDSEC
0
SECTION
2
TABLES
0
TABLE
2
LTYPE
70
11
0
LTYPE
2
BYBLOCK
70
0
3

72
65
73
0
40
0
0
LTYPE
2
BYLAYER
70
0
3

72
65
73
0
40
0
0
LTYPE
2
CONTINUOUS
70
0
3
Solid line
72
65
73
0
40
0
0
LTYPE
2
DASHED
70
0
3
Dashed line
72
65
73
2
40
15
49
10
49
-5
0
LTYPE
2
HIDDEN
70
0
3
Hidden line
72
65
73
2
40
10
49
5
49
-5
0
LTYPE
2
CENTER
70
0
3
Center line
72
65
73
4
40
35
49
20
49
-5
49
5
49
-5
0
LTYPE
2
PHANTOM
70
0
3
Phantom line
72
65
73
6
40
50
49
25
49
-5
49
5
49
-5
49
5
49
-5
0
LTYPE
2
DOT
70
0
3
Dot line
72
65
73
2
40
5
49
0
49
-5
0
LTYPE
2
DASHDOT
70
0
3
Dashdot line
72
65
73
4
40
20
49
10
49
-5
49
0
49
-5
0
LTYPE
2
BORDER
70
0
3
Border line
72
65
73
6
40
35
49
10
49
-5
49
10
49
-5
49
0
49
-5
0
LTYPE
2
DIVIDE
70
0
3
Divide Line
72
65
73
6
40
25
49
10
49
-5
49
0
49
-5
49
0
49
-5
0
ENDTAB
0
TABLE
2
STYLE
70
6
0
STYLE
2
ROMAN
70
0
3
romanc.shx
71
0
40
0
41
1
42
0
4

50
0
0
STYLE
2
ROMAN_BOLD
70
0
3
romant.shx
71
0
40
0
41
1
42
0
4

50
0
0
STYLE
2
ROMANTIC
70
0
3
rom_____.pfb
71
0
40
0
41
1
42
0
4

50
0
0
STYLE
2
ROMANTIC_BOLD
70
0
3
romb____.pfb
71
0
40
0
41
1
42
0
4

50
0
0
STYLE
2
SANSSERIF
70
0
3
sas_____.pfb
71
0
40
0
41
1
42
0
4

50
0
0
STYLE
2
SANSSERIF_BOLD
70
0
3
sasb____.pfb
71
0
40
0
41
1
42
0
4

50
0
0
ENDTAB
0
ENDSEC
0
SECTION
2
BLOCKS
0
ENDSEC
0
SECTION
2
ENTITIES
0
POLYLINE
8
0
62
56
6
CONTINUOUS
70
0
66
1
40
4.000000
41
4.000000
10
0
20
0
30
0
0
VERTEX
8
0
10
2546.727462
20
3879.444635
0
VERTEX
8
0
10
1218.000242
20
3879.444635
0
SEQEND
0
POLYLINE
8
0
62
170
6
CONTINUOUS
70
0
66
1
40
4.000000
41
4.000000
10
0
20
0
30
0
0
VERTEX
8
0
10
2546.727462
20
3623.509084
0
VERTEX
8
0
10
1218.000242
20
3879.444635
0
SEQEND
0
POLYLINE
8
0
62
170
6
CONTINUOUS
70
0
66
1
40
4.000000
41
4.000000
10
0
20
0
30
0
0
VERTEX
8
0
10
2546.727462
20
3879.444635
0
VERTEX
8
0
10
2546.727462
20
3623.509084
0
SEQEND
0
POLYLINE
8
0
62
10
6
CONTINUOUS
70
0
66
1
40
4.000000
41
4.000000
10
0
20
0
30
0
0
VERTEX
8
0
10
2231.848359
20
3520.437859
0
VERTEX
8
0
10
2316.950819
20
3520.437859
0
SEQEND
0
POLYLINE
8
0
62
10
6
CONTINUOUS
70
0
66
1
40
4.000000
41
4.000000
10
0
20
0
30
0
0
VERTEX
8
0
10
2392.597450
20
3562.990200
0
VERTEX
8
0
10
2387.869536
20
3572.446275
0
VERTEX
8
0
10
2373.685793
20
3577.174313
0
VERTEX
8
0
10
2364.229964
20
3577.174313
0
VERTEX
8
0
10
2350.046220
20
3572.446275
0
VERTEX
8
0
10
2340.590391
20
3558.262162
0
VERTEX
8
0
10
2335.862477
20
3534.621973
0
VERTEX
8
0
10
2335.862477
20
3510.981784
0
VERTEX
8
0
10
2340.590391
20
3492.069632
0
VERTEX
8
0
10
2350.046220
20
3482.613557
0
VERTEX
8
0
10
2364.229964
20
3477.885519
0
VERTEX
8
0
10
2368.957878
20
3477.885519
0
VERTEX
8
0
10
2383.141622
20
3482.613557
0
VERTEX
8
0
10
2392.597450
20
3492.069632
0
VERTEX
8
0
10
2397.325365
20
3506.253746
0
VERTEX
8
0
10
2397.325365
20
3510.981784
0
VERTEX
8
0
10
2392.597450
20
3525.165897
0
VERTEX
8
0
10
2383.141622
20
3534.621973
0
VERTEX
8
0
10
2368.957878
20
3539.350011
0
VERTEX
8
0
10
2364.229964
20
3539.350011
0
VERTEX
8
0
10
2350.046220
20
3534.621973
0
VERTEX
8
0
10
2340.590391
20
3525.165897
0
VERTEX
8
0
10
2335.862477
20
3510.981784
0
SEQEND
0
POLYLINE
8
0
62
10
6
CONTINUOUS
70
0
66
1
40
4.000000
41
4.000000
10
0
20
0
30
0
0
VERTEX
8
0
10
2416.237023
20
3487.341595
0
VERTEX
8
0
10
2411.509108
20
3482.613557
0
VERTEX
8
0
10
2416.237023
20
3477.885519
0
VERTEX
8
0
10
2420.964937
20
3482.613557
0
VERTEX
8
0
10
2416.237023
20
3487.341595
0
SEQEND
0
POLYLINE
8
0
62
10
6
CONTINUOUS
70
0
66
1
40
4.000000
41
4.000000
10
0
20
0
30
0
0
VERTEX
8
0
10
2463.516167
20
3577.174313
0
VERTEX
8
0
10
2449.332424
20
3572.446275
0
VERTEX
8
0
10
2444.604510
20
3562.990200
0
VERTEX
8
0
10
2444.604510
20
3553.534124
0
VERTEX
8
0
10
2449.332424
20
3544.078048
0
VERTEX
8
0
10
2458.788253
20
3539.350011
0
VERTEX
8
0
10
2477.699911
20
3534.621973
0
VERTEX
8
0
10
2491.883654
20
3529.893935
0
VERTEX
8
0
10
2501.339483
20
3520.437859
0
VERTEX
8
0
10
2506.067398
20
3510.981784
0
VERTEX
8
0
10
2506.067398
20
3496.797670
0
VERTEX
8
0
10
2501.339483
20
3487.341595
0
VERTEX
8
0
10
2496.611569
20
3482.613557
0
VERTEX
8
0
10
2482.427825
20
3477.885519
0
VERTEX
8
0
10
2463.516167
20
3477.885519
0
VERTEX
8
0
10
2449.332424
20
3482.613557
0
VERTEX
8
0
10
2444.604510
20
3487.341595
0
VERTEX
8
0
10
2439.876595
20
3496.797670
0
VERTEX
8
0
10
2439.876595
20
3510.981784
0
VERTEX
8
0
10
2444.604510
20
3520.437859
0
VERTEX
8
0
10
2454.060338
20
3529.893935
0
VERTEX
8
0
10
2468.244082
20
3534.621973
0
VERTEX
8
0
10
2487.155740
20
3539.350011
0
VERTEX
8
0
10
2496.611569
20
3544.078048
0
VERTEX
8
0
10
2501.339483
20
3553.534124
0
VERTEX
8
0
10
2501.339483
20
3562.990200
0
VERTEX
8
0
10
2496.611569
20
3572.446275
0
VERTEX
8
0
10
2482.427825
20
3577.174313
0
VERTEX
8
0
10
2463.516167
20
3577.174313
0
SEQEND
0
POLYLINE
8
0
62
170
6
CONTINUOUS
70
0
66
1
40
4.000000
41
4.000000
10
0
20
0
30
0
0
VERTEX
8
0
10
1218.000242
20
3879.444635
0
VERTEX
8
0
10
1218.000242
20
3879.444635
0
SEQEND
0
POLYLINE
8
0
62
56
6
CONTINUOUS
70
0
66
1
40
4.000000
41
4.000000
10
0
20
0
30
0
0
VERTEX
8
0
10
7972.363610
20
3879.444635
0
VERTEX
8
0
10
13397.999758
20
3879.444635
0
SEQEND
0
POLYLINE
8
0
62
170
6
CONTINUOUS
70
0
66
1
40
4.000000
41
4.000000
10
0
20
0
30
0
0
VERTEX
8
0
10
7972.363610
20
4643.273963
0
VERTEX
8
0
10
13397.999758
20
3505.719709
0
SEQEND
0
POLYLINE
8
0
62
170
6
CONTINUOUS
70
0
66
1
40
4.000000
41
4.000000
10
0
20
0
30
0
0
VERTEX
8
0
10
7972.363610
20
3879.444635
0
VERTEX
8
0
10
7972.363610
20
4643.273963
0
SEQEND
0
POLYLINE
8
0
62
10
6
CONTINUOUS
70
0
66
1
40
4.000000
41
4.000000
10
0
20
0
30
0
0
VERTEX
8
0
10
8003.567845
20
4765.257338
0
VERTEX
8
0
10
8003.567845
20
4769.985376
0
VERTEX
8
0
10
8008.295760
20
4779.441452
0
VERTEX
8
0
10
8013.023674
20
4784.169490
0
VERTEX
8
0
10
8022.479503
20
4788.897527
0
VERTEX
8
0
10
8041.391161
20
4788.897527
0
VERTEX
8
0
10
8050.846990
20
4784.169490
0
VERTEX
8
0
10
8055.574904
20
4779.441452
0
VERTEX
8
0
10
8060.302819
20
4769.985376
0
VERTEX
8
0
10
8060.302819
20
4760.529300
0
VERTEX
8
0
10
8055.574904
20
4751.073225
0
VERTEX
8
0
10
8046.119076
20
4736.889111
0
VERTEX
8
0
10
7998.839931
20
4689.608733
0
VERTEX
8
0
10
8065.030733
20
4689.608733
0
SEQEND
0
POLYLINE
8
0
62
10
6
CONTINUOUS
70
0
66
1
40
4.000000
41
4.000000
10
0
20
0
30
0
0
VERTEX
8
0
10
8107.581964
20
4788.897527
0
VERTEX
8
0
10
8093.398220
20
4784.169490
0
VERTEX
8
0
10
8083.942391
20
4769.985376
0
VERTEX
8
0
10
8079.214477
20
4746.345187
0
VERTEX
8
0
10
8079.214477
20
4732.161074
0
VERTEX
8
0
10
8083.942391
20
4708.520884
0
VERTEX
8
0
10
8093.398220
20
4694.336771
0
VERTEX
8
0
10
8107.581964
20
4689.608733
0
VERTEX
8
0
10
8117.037792
20
4689.608733
0
VERTEX
8
0
10
8131.221536
20
4694.336771
0
VERTEX
8
0
10
8140.677365
20
4708.520884
0
VERTEX
8
0
10
8145.405279
20
4732.161074
0
VERTEX
8
0
10
8145.405279
20
4746.345187
0
VERTEX
8
0
10
8140.677365
20
4769.985376
0
VERTEX
8
0
10
8131.221536
20
4784.169490
0
VERTEX
8
0
10
8117.037792
20
4788.897527
0
VERTEX
8
0
10
8107.581964
20
4788.897527
0
SEQEND
0
POLYLINE
8
0
62
10
6
CONTINUOUS
70
0
66
1
40
4.000000
41
4.000000
10
0
20
0
30
0
0
VERTEX
8
0
10
8164.316937
20
4699.064809
0
VERTEX
8
0
10
8159.589023
20
4694.336771
0
VERTEX
8
0
10
8164.316937
20
4689.608733
0
VERTEX
8
0
10
8169.044852
20
4694.336771
0
VERTEX
8
0
10
8164.316937
20
4699.064809
0
SEQEND
0
POLYLINE
8
0
62
10
6
CONTINUOUS
70
0
66
1
40
4.000000
41
4.000000
10
0
20
0
30
0
0
VERTEX
8
0
10
8192.684424
20
4765.257338
0
VERTEX
8
0
10
8192.684424
20
4769.985376
0
VERTEX
8
0
10
8197.412338
20
4779.441452
0
VERTEX
8
0
10
8202.140253
20
4784.169490
0
VERTEX
8
0
10
8211.596082
20
4788.897527
0
VERTEX
8
0
10
8230.507740
20
4788.897527
0
VERTEX
8
0
10
8239.963569
20
4784.169490
0
VERTEX
8
0
10
8244.691483
20
4779.441452
0
VERTEX
8
0
10
8249.419397
20
4769.985376
0
VERTEX
8
0
10
8249.419397
20
4760.529300
0
VERTEX
8
0
10
8244.691483
20
4751.073225
0
VERTEX
8
0
10
8235.235654
20
4736.889111
0
VERTEX
8
0
10
8187.956509
20
4689.608733
0
VERTEX
8
0
10
8254.147312
20
4689.608733
0
SEQEND
0
POLYLINE
8
0
62
170
6
CONTINUOUS
70
0
66
1
40
4.000000
41
4.000000
10
0
20
0
30
0
0
VERTEX
8
0
10
13397.999758
20
3879.444635
0
VERTEX
8
0
10
13397.999758
20
3505.719709
0
SEQEND
0
POLYLINE
8
0
62
10
6
CONTINUOUS
70
0
66
1
40
4.000000
41
4.000000
10
0
20
0
30
0
0
VERTEX
8
0
10
13078.392740
20
3402.648485
0
VERTEX
8
0
10
13163.495201
20
3402.648485
0
SEQEND
0
POLYLINE
8
0
62
10
6
CONTINUOUS
70
0
66
1
40
4.000000
41
4.000000
10
0
20
0
30
0
0
VERTEX
8
0
10
13243.869747
20
3426.288674
0
VERTEX
8
0
10
13239.141832
20
3412.104561
0
VERTEX
8
0
10
13229.686003
20
3402.648485
0
VERTEX
8
0
10
13215.502260
20
3397.920447
0
VERTEX
8
0
10
13210.774345
20
3397.920447
0
VERTEX
8
0
10
13196.590602
20
3402.648485
0
VERTEX
8
0
10
13187.134773
20
3412.104561
0
VERTEX
8
0
10
13182.406859
20
3426.288674
0
VERTEX
8
0
10
13182.406859
20
3431.016712
0
VERTEX
8
0
10
13187.134773
20
3445.200825
0
VERTEX
8
0
10
13196.590602
20
3454.656901
0
VERTEX
8
0
10
13210.774345
20
3459.384939
0
VERTEX
8
0
10
13215.502260
20
3459.384939
0
VERTEX
8
0
10
13229.686003
20
3454.656901
0
VERTEX
8
0
10
13239.141832
20
3445.200825
0
VERTEX
8
0
10
13243.869747
20
3426.288674
0
VERTEX
8
0
10
13243.869747
20
3402.648485
0
VERTEX
8
0
10
13239.141832
20
3379.008296
0
VERTEX
8
0
10
13229.686003
20
3364.824182
0
VERTEX
8
0
10
13215.502260
20
3360.096145
0
VERTEX
8
0
10
13206.046431
20
3360.096145
0
VERTEX
8
0
10
13191.862687
20
3364.824182
0
VERTEX
8
0
10
13187.134773
20
3374.280258
0
SEQEND
0
POLYLINE
8
0
62
10
6
CONTINUOUS
70
0
66
1
40
4.000000
41
4.000000
10
0
20
0
30
0
0
VERTEX
8
0
10
13267.509319
20
3369.552220
0
VERTEX
8
0
10
13262.781404
20
3364.824182
0
VERTEX
8
0
10
13267.509319
20
3360.096145
0
VERTEX
8
0
10
13272.237233
20
3364.824182
0
VERTEX
8
0
10
13267.509319
20
3369.552220
0
SEQEND
0
POLYLINE
8
0
62
10
6
CONTINUOUS
70
0
66
1
40
4.000000
41
4.000000
10
0
20
0
30
0
0
VERTEX
8
0
10
13352.611779
20
3426.288674
0
VERTEX
8
0
10
13347.883865
20
3412.104561
0
VERTEX
8
0
10
13338.428036
20
3402.648485
0
VERTEX
8
0
10
13324.244292
20
3397.920447
0
VERTEX
8
0
10
13319.516378
20
3397.920447
0
VERTEX
8
0
10
13305.332635
20
3402.648485
0
VERTEX
8
0
10
13295.876806
20
3412.104561
0
VERTEX
8
0
10
13291.148891
20
3426.288674
0
VERTEX
8
0
10
13291.148891
20
3431.016712
0
VERTEX
8
0
10
13295.876806
20
3445.200825
0
VERTEX
8
0
10
13305.332635
20
3454.656901
0
VERTEX
8
0
10
13319.516378
20
3459.384939
0
VERTEX
8
0
10
13324.244292
20
3459.384939
0
VERTEX
8
0
10
13338.428036
20
3454.656901
0
VERTEX
8
0
10
13347.883865
20
3445.200825
0
VERTEX
8
0
10
13352.611779
20
3426.288674
0
VERTEX
8
0
10
13352.611779
20
3402.648485
0
VERTEX
8
0
10
13347.883865
20
3379.008296
0
VERTEX
8
0
10
13338.428036
20
3364.824182
0
VERTEX
8
0
10
13324.244292
20
3360.096145
0
VERTEX
8
0
10
13314.788463
20
3360.096145
0
VERTEX
8
0
10
13300.604720
20
3364.824182
0
VERTEX
8
0
10
13295.876806
20
3374.280258
0
SEQEND
0
POLYLINE
8
0
62
56
6
CONTINUOUS
70
0
66
1
40
4.000000
41
4.000000
10
0
20
0
30
0
0
VERTEX
8
0
10
2546.727462
20
3879.444635
0
VERTEX
8
0
10
7972.363610
20
3879.444635
0
SEQEND
0
POLYLINE
8
0
62
170
6
CONTINUOUS
70
0
66
1
40
4.000000
41
4.000000
10
0
20
0
30
0
0
VERTEX
8
0
10
2546.727462
20
4770.050057
0
VERTEX
8
0
10
7972.363610
20
2661.412905
0
SEQEND
0
POLYLINE
8
0
62
170
6
CONTINUOUS
70
0
66
1
40
4.000000
41
4.000000
10
0
20
0
30
0
0
VERTEX
8
0
10
2546.727462
20
3879.444635
0
VERTEX
8
0
10
2546.727462
20
4770.050057
0
SEQEND
0
POLYLINE
8
0
62
10
6
CONTINUOUS
70
0
66
1
40
4.000000
41
4.000000
10
0
20
0
30
0
0
VERTEX
8
0
10
2577.931697
20
4892.033433
0
VERTEX
8
0
10
2577.931697
20
4896.761471
0
VERTEX
8
0
10
2582.659612
20
4906.217546
0
VERTEX
8
0
10
2587.387526
20
4910.945584
0
VERTEX
8
0
10
2596.843355
20
4915.673622
0
VERTEX
8
0
10
2615.755013
20
4915.673622
0
VERTEX
8
0
10
2625.210842
20
4910.945584
0
VERTEX
8
0
10
2629.938756
20
4906.217546
0
VERTEX
8
0
10
2634.666671
20
4896.761471
0
VERTEX
8
0
10
2634.666671
20
4887.305395
0
VERTEX
8
0
10
2629.938756
20
4877.849319
0
VERTEX
8
0
10
2620.482928
20
4863.665206
0
VERTEX
8
0
10
2573.203783
20
4816.384828
0
VERTEX
8
0
10
2639.394585
20
4816.384828
0
SEQEND
0
POLYLINE
8
0
62
10
6
CONTINUOUS
70
0
66
1
40
4.000000
41
4.000000
10
0
20
0
30
0
0
VERTEX
8
0
10
2663.034158
20
4915.673622
0
VERTEX
8
0
10
2715.041217
20
4915.673622
0
VERTEX
8
0
10
2686.673730
20
4877.849319
0
VERTEX
8
0
10
2700.857473
20
4877.849319
0
VERTEX
8
0
10
2710.313302
20
4873.121281
0
VERTEX
8
0
10
2715.041217
20
4868.393244
0
VERTEX
8
0
10
2719.769131
20
4854.209130
0
VERTEX
8
0
10
2719.769131
20
4844.753055
0
VERTEX
8
0
10
2715.041217
20
4830.568941
0
VERTEX
8
0
10
2705.585388
20
4821.112865
0
VERTEX
8
0
10
2691.401644
20
4816.384828
0
VERTEX
8
0
10
2677.217901
20
4816.384828
0
VERTEX
8
0
10
2663.034158
20
4821.112865
0
VERTEX
8
0
10
2658.306243
20
4825.840903
0
VERTEX
8
0
10
2653.578329
20
4835.296979
0
SEQEND
0
POLYLINE
8
0
62
10
6
CONTINUOUS
70
0
66
1
40
4.000000
41
4.000000
10
0
20
0
30
0
0
VERTEX
8
0
10
2738.680789
20
4825.840903
0
VERTEX
8
0
10
2733.952875
20
4821.112865
0
VERTEX
8
0
10
2738.680789
20
4816.384828
0
VERTEX
8
0
10
2743.408704
20
4821.112865
0
VERTEX
8
0
10
2738.680789
20
4825.840903
0
SEQEND
0
POLYLINE
8
0
62
10
6
CONTINUOUS
70
0
66
1
40
4.000000
41
4.000000
10
0
20
0
30
0
0
VERTEX
8
0
10
2819.055335
20
4901.489508
0
VERTEX
8
0
10
2814.327420
20
4910.945584
0
VERTEX
8
0
10
2800.143677
20
4915.673622
0
VERTEX
8
0
10
2790.687848
20
4915.673622
0
VERTEX
8
0
10
2776.504105
20
4910.945584
0
VERTEX
8
0
10
2767.048276
20
4896.761471
0
VERTEX
8
0
10
2762.320361
20
4873.121281
0
VERTEX
8
0
10
2762.320361
20
4849.481092
0
VERTEX
8
0
10
2767.048276
20
4830.568941
0
VERTEX
8
0
10
2776.504105
20
4821.112865
0
VERTEX
8
0
10
2790.687848
20
4816.384828
0
VERTEX
8
0
10
2795.415763
20
4816.384828
0
VERTEX
8
0
10
2809.599506
20
4821.112865
0
VERTEX
8
0
10
2819.055335
20
4830.568941
0
VERTEX
8
0
10
2823.783249
20
4844.753055
0
VERTEX
8
0
10
2823.783249
20
4849.481092
0
VERTEX
8
0
10
2819.055335
20
4863.665206
0
VERTEX
8
0
10
2809.599506
20
4873.121281
0
VERTEX
8
0
10
2795.415763
20
4877.849319
0
VERTEX
8
0
10
2790.687848
20
4877.849319
0
VERTEX
8
0
10
2776.504105
20
4873.121281
0
VERTEX
8
0
10
2767.048276
20
4863.665206
0
VERTEX
8
0
10
2762.320361
20
4849.481092
0
SEQEND
0
POLYLINE
8
0
62
170
6
CONTINUOUS
70
0
66
1
40
4.000000
41
4.000000
10
0
20
0
30
0
0
VERTEX
8
0
10
7972.363610
20
3879.444635
0
VERTEX
8
0
10
7972.363610
20
2661.412905
0
SEQEND
0
POLYLINE
8
0
62
10
6
CONTINUOUS
70
0
66
1
40
4.000000
41
4.000000
10
0
20
0
30
0
0
VERTEX
8
0
10
7572.382046
20
2558.341680
0
VERTEX
8
0
10
7657.484507
20
2558.341680
0
SEQEND
0
POLYLINE
8
0
62
10
6
CONTINUOUS
70
0
66
1
40
4.000000
41
4.000000
10
0
20
0
30
0
0
VERTEX
8
0
10
7685.851994
20
2615.078134
0
VERTEX
8
0
10
7737.859053
20
2615.078134
0
VERTEX
8
0
10
7709.491566
20
2577.253832
0
VERTEX
8
0
10
7723.675309
20
2577.253832
0
VERTEX
8
0
10
7733.131138
20
2572.525794
0
VERTEX
8
0
10
7737.859053
20
2567.797756
0
VERTEX
8
0
10
7742.586967
20
2553.613643
0
VERTEX
8
0
10
7742.586967
20
2544.157567
0
VERTEX
8
0
10
7737.859053
20
2529.973454
0
VERTEX
8
0
10
7728.403224
20
2520.517378
0
VERTEX
8
0
10
7714.219480
20
2515.789340
0
VERTEX
8
0
10
7700.035737
20
2515.789340
0
VERTEX
8
0
10
7685.851994
20
2520.517378
0
VERTEX
8
0
10
7681.124079
20
2525.245416
0
VERTEX
8
0
10
7676.396165
20
2534.701491
0
SEQEND
0
POLYLINE
8
0
62
10
6
CONTINUOUS
70
0
66
1
40
4.000000
41
4.000000
10
0
20
0
30
0
0
VERTEX
8
0
10
7761.498625
20
2591.437945
0
VERTEX
8
0
10
7761.498625
20
2596.165983
0
VERTEX
8
0
10
7766.226539
20
2605.622059
0
VERTEX
8
0
10
7770.954454
20
2610.350096
0
VERTEX
8
0
10
7780.410283
20
2615.078134
0
VERTEX
8
0
10
7799.321941
20
2615.078134
0
VERTEX
8
0
10
7808.777770
20
2610.350096
0
VERTEX
8
0
10
7813.505684
20
2605.622059
0
VERTEX
8
0
10
7818.233599
20
2596.165983
0
VERTEX
8
0
10
7818.233599
20
2586.709907
0
VERTEX
8
0
10
7813.505684
20
2577.253832
0
VERTEX
8
0
10
7804.049855
20
2563.069718
0
VERTEX
8
0
10
7756.770711
20
2515.789340
0
VERTEX
8
0
10
7822.961513
20
2515.789340
0
SEQEND
0
POLYLINE
8
0
62
10
6
CONTINUOUS
70
0
66
1
40
4.000000
41
4.000000
10
0
20
0
30
0
0
VERTEX
8
0
10
7841.873171
20
2525.245416
0
VERTEX
8
0
10
7837.145256
20
2520.517378
0
VERTEX
8
0
10
7841.873171
20
2515.789340
0
VERTEX
8
0
10
7846.601085
20
2520.517378
0
VERTEX
8
0
10
7841.873171
20
2525.245416
0
SEQEND
0
POLYLINE
8
0
62
10
6
CONTINUOUS
70
0
66
1
40
4.000000
41
4.000000
10
0
20
0
30
0
0
VERTEX
8
0
10
7874.968572
20
2615.078134
0
VERTEX
8
0
10
7926.975631
20
2615.078134
0
VERTEX
8
0
10
7898.608144
20
2577.253832
0
VERTEX
8
0
10
7912.791888
20
2577.253832
0
VERTEX
8
0
10
7922.247717
20
2572.525794
0
VERTEX
8
0
10
7926.975631
20
2567.797756
0
VERTEX
8
0
10
7931.703546
20
2553.613643
0
VERTEX
8
0
10
7931.703546
20
2544.157567
0
VERTEX
8
0
10
7926.975631
20
2529.973454
0
VERTEX
8
0
10
7917.519802
20
2520.517378
0
VERTEX
8
0
10
7903.336059
20
2515.789340
0
VERTEX
8
0
10
7889.152315
20
2515.789340
0
VERTEX
8
0
10
7874.968572
20
2520.517378
0
VERTEX
8
0
10
7870.240658
20
2525.245416
0
VERTEX
8
0
10
7865.512743
20
2534.701491
0
SEQEND
0
POLYLINE
8
0
62
96
6
CONTINUOUS
70
0
66
1
40
4.000000
41
4.000000
10
0
20
0
30
0
0
VERTEX
8
0
10
13260.103632
20
3640.593029
0
VERTEX
8
0
10
13397.999758
20
3879.444635
0
VERTEX
8
0
10
13535.895884
20
3640.593029
0
SEQEND
0
POLYLINE
8
0
62
96
6
CONTINUOUS
70
0
66
1
40
4.000000
41
4.000000
10
0
20
0
30
0
0
VERTEX
8
0
10
13191.157637
20
3640.593029
0
VERTEX
8
0
10
13604.841879
20
3640.593029
0
SEQEND
0
POLYLINE
8
0
62
96
6
CONTINUOUS
70
0
66
1
40
4.000000
41
4.000000
10
0
20
0
30
0
0
VERTEX
8
0
10
13273.896140
20
3640.593029
0
VERTEX
8
0
10
13191.157637
20
3557.852368
0
SEQEND
0
POLYLINE
8
0
62
96
6
CONTINUOUS
70
0
66
1
40
4.000000
41
4.000000
10
0
20
0
30
0
0
VERTEX
8
0
10
13356.634643
20
3640.593029
0
VERTEX
8
0
10
13273.896140
20
3557.852368
0
SEQEND
0
POLYLINE
8
0
62
96
6
CONTINUOUS
70
0
66
1
40
4.000000
41
4.000000
10
0
20
0
30
0
0
VERTEX
8
0
10
13439.373146
20
3640.593029
0
VERTEX
8
0
10
13356.634643
20
3557.852368
0
SEQEND
0
POLYLINE
8
0
62
96
6
CONTINUOUS
70
0
66
1
40
4.000000
41
4.000000
10
0
20
0
30
0
0
VERTEX
8
0
10
13522.111650
20
3640.593029
0
VERTEX
8
0
10
13439.373146
20
3557.852368
0
SEQEND
0
POLYLINE
8
0
62
96
6
CONTINUOUS
70
0
66
1
40
4.000000
41
4.000000
10
0
20
0
30
0
0
VERTEX
8
0
10
13604.850153
20
3640.593029
0
VERTEX
8
0
10
13522.111650
20
3557.852368
0
SEQEND
0
POLYLINE
8
0
62
96
6
CONTINUOUS
70
0
66
1
40
4.000000
41
4.000000
10
0
20
0
30
0
0
VERTEX
8
0
10
7834.467484
20
3640.593029
0
VERTEX
8
0
10
7972.363610
20
3879.444635
0
VERTEX
8
0
10
8110.259736
20
3640.593029
0
SEQEND
0
POLYLINE
8
0
62
96
6
CONTINUOUS
70
0
66
1
40
4.000000
41
4.000000
10
0
20
0
30
0
0
VERTEX
8
0
10
7765.521489
20
3640.593029
0
VERTEX
8
0
10
8179.205731
20
3640.593029
0
SEQEND
0
POLYLINE
8
0
62
96
6
CONTINUOUS
70
0
66
1
40
4.000000
41
4.000000
10
0
20
0
30
0
0
VERTEX
8
0
10
7848.259992
20
3640.593029
0
VERTEX
8
0
10
7765.521489
20
3557.852368
0
SEQEND
0
POLYLINE
8
0
62
96
6
CONTINUOUS
70
0
66
1
40
4.000000
41
4.000000
10
0
20
0
30
0
0
VERTEX
8
0
10
7930.998495
20
3640.593029
0
VERTEX
8
0
10
7848.259992
20
3557.852368
0
SEQEND
0
POLYLINE
8
0
62
96
6
CONTINUOUS
70
0
66
1
40
4.000000
41
4.000000
10
0
20
0
30
0
0
VERTEX
8
0
10
8013.736998
20
3640.593029
0
VERTEX
8
0
10
7930.998495
20
3557.852368
0
SEQEND
0
POLYLINE
8
0
62
96
6
CONTINUOUS
70
0
66
1
40
4.000000
41
4.000000
10
0
20
0
30
0
0
VERTEX
8
0
10
8096.475502
20
3640.593029
0
VERTEX
8
0
10
8013.736998
20
3557.852368
0
SEQEND
0
POLYLINE
8
0
62
96
6
CONTINUOUS
70
0
66
1
40
4.000000
41
4.000000
10
0
20
0
30
0
0
VERTEX
8
0
10
8179.214005
20
3640.593029
0
VERTEX
8
0
10
8096.475502
20
3557.852368
0
SEQEND
0
POLYLINE
8
0
62
96
6
CONTINUOUS
70
0
66
1
40
4.000000
41
4.000000
10
0
20
0
30
0
0
VERTEX
8
0
10
2408.831336
20
3640.593029
0
VERTEX
8
0
10
2546.727462
20
3879.444635
0
VERTEX
8
0
10
2684.623588
20
3640.593029
0
SEQEND
0
POLYLINE
8
0
62
96
6
CONTINUOUS
70
0
66
1
40
4.000000
41
4.000000
10
0
20
0
30
0
0
VERTEX
8
0
10
2339.885341
20
3640.593029
0
VERTEX
8
0
10
2753.569583
20
3640.593029
0
SEQEND
0
POLYLINE
8
0
62
96
6
CONTINUOUS
70
0
66
1
40
4.000000
41
4.000000
10
0
20
0
30
0
0
VERTEX
8
0
10
2422.623844
20
3640.593029
0
VERTEX
8
0
10
2339.885341
20
3557.852368
0
SEQEND
0
POLYLINE
8
0
62
96
6
CONTINUOUS
70
0
66
1
40
4.000000
41
4.000000
10
0
20
0
30
0
0
VERTEX
8
0
10
2505.362347
20
3640.593029
0
VERTEX
8
0
10
2422.623844
20
3557.852368
0
SEQEND
0
POLYLINE
8
0
62
96
6
CONTINUOUS
70
0
66
1
40
4.000000
41
4.000000
10
0
20
0
30
0
0
VERTEX
8
0
10
2588.100850
20
3640.593029
0
VERTEX
8
0
10
2505.362347
20
3557.852368
0
SEQEND
0
POLYLINE
8
0
62
96
6
CONTINUOUS
70
0
66
1
40
4.000000
41
4.000000
10
0
20
0
30
0
0
VERTEX
8
0
10
2670.839353
20
3640.593029
0
VERTEX
8
0
10
2588.100850
20
3557.852368
0
SEQEND
0
POLYLINE
8
0
62
96
6
CONTINUOUS
70
0
66
1
40
4.000000
41
4.000000
10
0
20
0
30
0
0
VERTEX
8
0
10
2753.577857
20
3640.593029
0
VERTEX
8
0
10
2670.839353
20
3557.852368
0
SEQEND
0
ENDSEC
0
EOF
