999
CD - A 2D Graphics Library, version 5.10
0
SECTION
2
HEADER
9
$ACADVER
1
AC1006
9
$LIMCHECK
70
1
9
$LIMMIN
10
0.000000
20
0.000000
9
$LIMMAX
10
14617.000000
20
7759.000000
9
$EXTMIN
10
0.000000
20
0.000000
9
$EXTMAX
10
14617.000000
20
7759.000000
9
$CLAYER
8
0
9
$LUNITS
70
2
9
$LUPREC
70
2
9
$AUNITS
70
0
9
$AUPREC
70
2
9
$TEXTSTYLE
7
STANDARD
0
ENDSEC
0
SECTION
2
TABLES
0
TABLE
2
LTYPE
70
11
0
LTYPE
2
BYBLOCK
70
0
3

72
65
73
0
40
0
0
LTYPE
2
BYLAYER
70
0
3

72
65
73
0
40
0
0
LTYPE
2
CONTINUOUS
70
0
3
Solid line
72
65
73
0
40
0
0
LTYPE
2
DASHED
70
0
3
Dashed line
72
65
73
2
40
15
49
10
49
-5
0
LTYPE
2
HIDDEN
70
0
3
Hidden line
72
65
73
2
40
10
49
5
49
-5
0
LTYPE
2
CENTER
70
0
3
Center line
72
65
73
4
40
35
49
20
49
-5
49
5
49
-5
0
LTYPE
2
PHANTOM
70
0
3
Phantom line
72
65
73
6
40
50
49
25
49
-5
49
5
49
-5
49
5
49
-5
0
LTYPE
2
DOT
70
0
3
Dot line
72
65
73
2
40
5
49
0
49
-5
0
LTYPE
2
DASHDOT
70
0
3
Dashdot line
72
65
73
4
40
20
49
10
49
-5
49
0
49
-5
0
LTYPE
2
BORDER
70
0
3
Border line
72
65
73
6
40
35
49
10
49
-5
49
10
49
-5
49
0
49
-5
0
LTYPE
2
DIVIDE
70
0
3
Divide Line
72
65
73
6
40
25
49
10
49
-5
49
0
49
-5
49
0
49
-5
0
ENDTAB
0
TABLE
2
STYLE
70
6
0
STYLE
2
ROMAN
70
0
3
romanc.shx
71
0
40
0
41
1
42
0
4

50
0
0
STYLE
2
ROMAN_BOLD
70
0
3
romant.shx
71
0
40
0
41
1
42
0
4

50
0
0
STYLE
2
ROMANTIC
70
0
3
rom_____.pfb
71
0
40
0
41
1
42
0
4

50
0
0
STYLE
2
ROMANTIC_BOLD
70
0
3
romb____.pfb
71
0
40
0
41
1
42
0
4

50
0
0
STYLE
2
SANSSERIF
70
0
3
sas_____.pfb
71
0
40
0
41
1
42
0
4

50
0
0
STYLE
2
SANSSERIF_BOLD
70
0
3
sasb____.pfb
71
0
40
0
41
1
42
0
4

50
0
0
ENDTAB
0
ENDSEC
0
SECTION
2
BLOCKS
0
ENDSEC
0
SECTION
2
ENTITIES
0
POLYLINE
8
0
62
176
6
CONTINUOUS
70
0
66
1
40
4.000000
41
4.000000
10
0
20
0
30
0
0
VERTEX
8
0
10
2596.370564
20
4039.409914
0
VERTEX
8
0
10
2546.727462
20
3989.765517
0
VERTEX
8
0
10
2497.084360
20
4039.409914
0
SEQEND
0
POLYLINE
8
0
62
176
6
CONTINUOUS
70
0
66
1
40
4.000000
41
4.000000
10
0
20
0
30
0
0
VERTEX
8
0
10
2546.727462
20
3989.765517
0
VERTEX
8
0
10
2546.727462
20
4153.795250
0
SEQEND
0
POLYLINE
8
0
62
176
6
CONTINUOUS
70
0
66
1
40
4.000000
41
4.000000
10
0
20
0
30
0
0
VERTEX
8
0
10
2430.279661
20
4039.409914
0
VERTEX
8
0
10
2380.636559
20
3989.765517
0
VERTEX
8
0
10
2330.993458
20
4039.409914
0
SEQEND
0
POLYLINE
8
0
62
176
6
CONTINUOUS
70
0
66
1
40
4.000000
41
4.000000
10
0
20
0
30
0
0
VERTEX
8
0
10
2380.636559
20
3989.765517
0
VERTEX
8
0
10
2380.636559
20
4153.795250
0
SEQEND
0
POLYLINE
8
0
62
176
6
CONTINUOUS
70
0
66
1
40
4.000000
41
4.000000
10
0
20
0
30
0
0
VERTEX
8
0
10
2264.188759
20
4039.409914
0
VERTEX
8
0
10
2214.545657
20
3989.765517
0
VERTEX
8
0
10
2164.902555
20
4039.409914
0
SEQEND
0
POLYLINE
8
0
62
176
6
CONTINUOUS
70
0
66
1
40
4.000000
41
4.000000
10
0
20
0
30
0
0
VERTEX
8
0
10
2214.545657
20
3989.765517
0
VERTEX
8
0
10
2214.545657
20
4153.795250
0
SEQEND
0
POLYLINE
8
0
62
176
6
CONTINUOUS
70
0
66
1
40
4.000000
41
4.000000
10
0
20
0
30
0
0
VERTEX
8
0
10
2098.097856
20
4039.409914
0
VERTEX
8
0
10
2048.454754
20
3989.765517
0
VERTEX
8
0
10
1998.811653
20
4039.409914
0
SEQEND
0
POLYLINE
8
0
62
176
6
CONTINUOUS
70
0
66
1
40
4.000000
41
4.000000
10
0
20
0
30
0
0
VERTEX
8
0
10
2048.454754
20
3989.765517
0
VERTEX
8
0
10
2048.454754
20
4153.795250
0
SEQEND
0
POLYLINE
8
0
62
176
6
CONTINUOUS
70
0
66
1
40
4.000000
41
4.000000
10
0
20
0
30
0
0
VERTEX
8
0
10
1932.006954
20
4039.409914
0
VERTEX
8
0
10
1882.363852
20
3989.765517
0
VERTEX
8
0
10
1832.720750
20
4039.409914
0
SEQEND
0
POLYLINE
8
0
62
176
6
CONTINUOUS
70
0
66
1
40
4.000000
41
4.000000
10
0
20
0
30
0
0
VERTEX
8
0
10
1882.363852
20
3989.765517
0
VERTEX
8
0
10
1882.363852
20
4153.795250
0
SEQEND
0
POLYLINE
8
0
62
176
6
CONTINUOUS
70
0
66
1
40
4.000000
41
4.000000
10
0
20
0
30
0
0
VERTEX
8
0
10
1765.916051
20
4039.409914
0
VERTEX
8
0
10
1716.272949
20
3989.765517
0
VERTEX
8
0
10
1666.629848
20
4039.409914
0
SEQEND
0
POLYLINE
8
0
62
176
6
CONTINUOUS
70
0
66
1
40
4.000000
41
4.000000
10
0
20
0
30
0
0
VERTEX
8
0
10
1716.272949
20
3989.765517
0
VERTEX
8
0
10
1716.272949
20
4153.795250
0
SEQEND
0
POLYLINE
8
0
62
176
6
CONTINUOUS
70
0
66
1
40
4.000000
41
4.000000
10
0
20
0
30
0
0
VERTEX
8
0
10
1599.825149
20
4039.409914
0
VERTEX
8
0
10
1550.182047
20
3989.765517
0
VERTEX
8
0
10
1500.538945
20
4039.409914
0
SEQEND
0
POLYLINE
8
0
62
176
6
CONTINUOUS
70
0
66
1
40
4.000000
41
4.000000
10
0
20
0
30
0
0
VERTEX
8
0
10
1550.182047
20
3989.765517
0
VERTEX
8
0
10
1550.182047
20
4153.795250
0
SEQEND
0
POLYLINE
8
0
62
176
6
CONTINUOUS
70
0
66
1
40
4.000000
41
4.000000
10
0
20
0
30
0
0
VERTEX
8
0
10
1433.734246
20
4039.409914
0
VERTEX
8
0
10
1384.091144
20
3989.765517
0
VERTEX
8
0
10
1334.448043
20
4039.409914
0
SEQEND
0
POLYLINE
8
0
62
176
6
CONTINUOUS
70
0
66
1
40
4.000000
41
4.000000
10
0
20
0
30
0
0
VERTEX
8
0
10
1384.091144
20
3989.765517
0
VERTEX
8
0
10
1384.091144
20
4153.795250
0
SEQEND
0
POLYLINE
8
0
62
176
6
CONTINUOUS
70
0
66
1
40
4.000000
41
4.000000
10
0
20
0
30
0
0
VERTEX
8
0
10
1267.643344
20
4039.409914
0
VERTEX
8
0
10
1218.000242
20
3989.765517
0
VERTEX
8
0
10
1168.357140
20
4039.409914
0
SEQEND
0
POLYLINE
8
0
62
176
6
CONTINUOUS
70
0
66
1
40
4.000000
41
4.000000
10
0
20
0
30
0
0
VERTEX
8
0
10
1218.000242
20
3989.765517
0
VERTEX
8
0
10
1218.000242
20
4153.795250
0
SEQEND
0
POLYLINE
8
0
62
176
6
CONTINUOUS
70
0
66
1
40
4.000000
41
4.000000
10
0
20
0
30
0
0
VERTEX
8
0
10
1610.508770
20
4319.276574
0
VERTEX
8
0
10
1563.229626
20
4319.276574
0
VERTEX
8
0
10
1558.501711
20
4276.724234
0
VERTEX
8
0
10
1563.229626
20
4281.452271
0
VERTEX
8
0
10
1577.413369
20
4286.180309
0
VERTEX
8
0
10
1591.597113
20
4286.180309
0
VERTEX
8
0
10
1605.780856
20
4281.452271
0
VERTEX
8
0
10
1615.236685
20
4271.996196
0
VERTEX
8
0
10
1619.964599
20
4257.812082
0
VERTEX
8
0
10
1619.964599
20
4248.356007
0
VERTEX
8
0
10
1615.236685
20
4234.171893
0
VERTEX
8
0
10
1605.780856
20
4224.715818
0
VERTEX
8
0
10
1591.597113
20
4219.987780
0
VERTEX
8
0
10
1577.413369
20
4219.987780
0
VERTEX
8
0
10
1563.229626
20
4224.715818
0
VERTEX
8
0
10
1558.501711
20
4229.443855
0
VERTEX
8
0
10
1553.773797
20
4238.899931
0
SEQEND
0
POLYLINE
8
0
62
176
6
CONTINUOUS
70
0
66
1
40
4.000000
41
4.000000
10
0
20
0
30
0
0
VERTEX
8
0
10
1638.876257
20
4229.443855
0
VERTEX
8
0
10
1634.148343
20
4224.715818
0
VERTEX
8
0
10
1638.876257
20
4219.987780
0
VERTEX
8
0
10
1643.604172
20
4224.715818
0
VERTEX
8
0
10
1638.876257
20
4229.443855
0
SEQEND
0
POLYLINE
8
0
62
176
6
CONTINUOUS
70
0
66
1
40
4.000000
41
4.000000
10
0
20
0
30
0
0
VERTEX
8
0
10
1719.250803
20
4305.092460
0
VERTEX
8
0
10
1714.522889
20
4314.548536
0
VERTEX
8
0
10
1700.339145
20
4319.276574
0
VERTEX
8
0
10
1690.883316
20
4319.276574
0
VERTEX
8
0
10
1676.699573
20
4314.548536
0
VERTEX
8
0
10
1667.243744
20
4300.364423
0
VERTEX
8
0
10
1662.515829
20
4276.724234
0
VERTEX
8
0
10
1662.515829
20
4253.084044
0
VERTEX
8
0
10
1667.243744
20
4234.171893
0
VERTEX
8
0
10
1676.699573
20
4224.715818
0
VERTEX
8
0
10
1690.883316
20
4219.987780
0
VERTEX
8
0
10
1695.611231
20
4219.987780
0
VERTEX
8
0
10
1709.794974
20
4224.715818
0
VERTEX
8
0
10
1719.250803
20
4234.171893
0
VERTEX
8
0
10
1723.978717
20
4248.356007
0
VERTEX
8
0
10
1723.978717
20
4253.084044
0
VERTEX
8
0
10
1719.250803
20
4267.268158
0
VERTEX
8
0
10
1709.794974
20
4276.724234
0
VERTEX
8
0
10
1695.611231
20
4281.452271
0
VERTEX
8
0
10
1690.883316
20
4281.452271
0
VERTEX
8
0
10
1676.699573
20
4276.724234
0
VERTEX
8
0
10
1667.243744
20
4267.268158
0
VERTEX
8
0
10
1662.515829
20
4253.084044
0
SEQEND
0
POLYLINE
8
0
62
176
6
CONTINUOUS
70
0
66
1
40
4.000000
41
4.000000
10
0
20
0
30
0
0
VERTEX
8
0
10
1794.897434
20
4319.276574
0
VERTEX
8
0
10
1747.618290
20
4319.276574
0
VERTEX
8
0
10
1742.890375
20
4276.724234
0
VERTEX
8
0
10
1747.618290
20
4281.452271
0
VERTEX
8
0
10
1761.802033
20
4286.180309
0
VERTEX
8
0
10
1775.985777
20
4286.180309
0
VERTEX
8
0
10
1790.169520
20
4281.452271
0
VERTEX
8
0
10
1799.625349
20
4271.996196
0
VERTEX
8
0
10
1804.353263
20
4257.812082
0
VERTEX
8
0
10
1804.353263
20
4248.356007
0
VERTEX
8
0
10
1799.625349
20
4234.171893
0
VERTEX
8
0
10
1790.169520
20
4224.715818
0
VERTEX
8
0
10
1775.985777
20
4219.987780
0
VERTEX
8
0
10
1761.802033
20
4219.987780
0
VERTEX
8
0
10
1747.618290
20
4224.715818
0
VERTEX
8
0
10
1742.890375
20
4229.443855
0
VERTEX
8
0
10
1738.162461
20
4238.899931
0
SEQEND
0
POLYLINE
8
0
62
176
6
CONTINUOUS
70
0
66
1
40
4.000000
41
4.000000
10
0
20
0
30
0
0
VERTEX
8
0
10
1875.271980
20
4319.276574
0
VERTEX
8
0
10
1875.271980
20
4219.987780
0
SEQEND
0
POLYLINE
8
0
62
176
6
CONTINUOUS
70
0
66
1
40
4.000000
41
4.000000
10
0
20
0
30
0
0
VERTEX
8
0
10
1922.551125
20
4286.180309
0
VERTEX
8
0
10
1875.271980
20
4238.899931
0
SEQEND
0
POLYLINE
8
0
62
176
6
CONTINUOUS
70
0
66
1
40
4.000000
41
4.000000
10
0
20
0
30
0
0
VERTEX
8
0
10
1894.183638
20
4257.812082
0
VERTEX
8
0
10
1927.279039
20
4219.987780
0
SEQEND
0
POLYLINE
8
0
62
176
6
CONTINUOUS
70
0
66
1
40
4.000000
41
4.000000
10
0
20
0
30
0
0
VERTEX
8
0
10
1936.734868
20
4319.276574
0
VERTEX
8
0
10
1936.734868
20
4219.987780
0
SEQEND
0
POLYLINE
8
0
62
176
6
CONTINUOUS
70
0
66
1
40
4.000000
41
4.000000
10
0
20
0
30
0
0
VERTEX
8
0
10
1936.734868
20
4319.276574
0
VERTEX
8
0
10
2002.925671
20
4219.987780
0
SEQEND
0
POLYLINE
8
0
62
176
6
CONTINUOUS
70
0
66
1
40
4.000000
41
4.000000
10
0
20
0
30
0
0
VERTEX
8
0
10
2002.925671
20
4319.276574
0
VERTEX
8
0
10
2002.925671
20
4219.987780
0
SEQEND
0
POLYLINE
8
0
62
176
6
CONTINUOUS
70
0
66
1
40
4.000000
41
4.000000
10
0
20
0
30
0
0
VERTEX
8
0
10
2021.837329
20
4205.803666
0
VERTEX
8
0
10
2088.028131
20
4319.276574
0
SEQEND
0
POLYLINE
8
0
62
176
6
CONTINUOUS
70
0
66
1
40
4.000000
41
4.000000
10
0
20
0
30
0
0
VERTEX
8
0
10
2088.028131
20
4286.180309
0
VERTEX
8
0
10
2088.028131
20
4219.987780
0
SEQEND
0
POLYLINE
8
0
62
176
6
CONTINUOUS
70
0
66
1
40
4.000000
41
4.000000
10
0
20
0
30
0
0
VERTEX
8
0
10
2088.028131
20
4267.268158
0
VERTEX
8
0
10
2102.211874
20
4281.452271
0
VERTEX
8
0
10
2111.667703
20
4286.180309
0
VERTEX
8
0
10
2125.851447
20
4286.180309
0
VERTEX
8
0
10
2135.307276
20
4281.452271
0
VERTEX
8
0
10
2140.035190
20
4267.268158
0
VERTEX
8
0
10
2140.035190
20
4219.987780
0
SEQEND
0
POLYLINE
8
0
62
176
6
CONTINUOUS
70
0
66
1
40
4.000000
41
4.000000
10
0
20
0
30
0
0
VERTEX
8
0
10
2140.035190
20
4267.268158
0
VERTEX
8
0
10
2154.218934
20
4281.452271
0
VERTEX
8
0
10
2163.674762
20
4286.180309
0
VERTEX
8
0
10
2177.858506
20
4286.180309
0
VERTEX
8
0
10
2187.314335
20
4281.452271
0
VERTEX
8
0
10
2192.042249
20
4267.268158
0
VERTEX
8
0
10
2192.042249
20
4219.987780
0
SEQEND
0
POLYLINE
8
0
62
176
6
CONTINUOUS
70
0
66
1
40
4.000000
41
4.000000
10
0
20
0
30
0
0
VERTEX
8
0
10
2546.727462
20
4153.795250
0
VERTEX
8
0
10
1218.000242
20
4153.795250
0
SEQEND
0
POLYLINE
8
0
62
56
6
CONTINUOUS
70
0
66
1
40
4.000000
41
4.000000
10
0
20
0
30
0
0
VERTEX
8
0
10
2546.727462
20
3879.444635
0
VERTEX
8
0
10
1218.000242
20
3879.444635
0
SEQEND
0
POLYLINE
8
0
62
176
6
CONTINUOUS
70
0
66
1
40
4.000000
41
4.000000
10
0
20
0
30
0
0
VERTEX
8
0
10
8022.006712
20
4039.409914
0
VERTEX
8
0
10
7972.363610
20
3989.765517
0
VERTEX
8
0
10
7922.720508
20
4039.409914
0
SEQEND
0
POLYLINE
8
0
62
176
6
CONTINUOUS
70
0
66
1
40
4.000000
41
4.000000
10
0
20
0
30
0
0
VERTEX
8
0
10
7972.363610
20
3989.765517
0
VERTEX
8
0
10
7972.363610
20
4168.311156
0
SEQEND
0
POLYLINE
8
0
62
176
6
CONTINUOUS
70
0
66
1
40
4.000000
41
4.000000
10
0
20
0
30
0
0
VERTEX
8
0
10
8191.557841
20
4039.409914
0
VERTEX
8
0
10
8141.914740
20
3989.765517
0
VERTEX
8
0
10
8092.271638
20
4039.409914
0
SEQEND
0
POLYLINE
8
0
62
176
6
CONTINUOUS
70
0
66
1
40
4.000000
41
4.000000
10
0
20
0
30
0
0
VERTEX
8
0
10
8141.914740
20
3989.765517
0
VERTEX
8
0
10
8141.914740
20
4168.311156
0
SEQEND
0
POLYLINE
8
0
62
176
6
CONTINUOUS
70
0
66
1
40
4.000000
41
4.000000
10
0
20
0
30
0
0
VERTEX
8
0
10
8361.108971
20
4039.409914
0
VERTEX
8
0
10
8311.465869
20
3989.765517
0
VERTEX
8
0
10
8261.822767
20
4039.409914
0
SEQEND
0
POLYLINE
8
0
62
176
6
CONTINUOUS
70
0
66
1
40
4.000000
41
4.000000
10
0
20
0
30
0
0
VERTEX
8
0
10
8311.465869
20
3989.765517
0
VERTEX
8
0
10
8311.465869
20
4168.311156
0
SEQEND
0
POLYLINE
8
0
62
176
6
CONTINUOUS
70
0
66
1
40
4.000000
41
4.000000
10
0
20
0
30
0
0
VERTEX
8
0
10
8530.660101
20
4039.409914
0
VERTEX
8
0
10
8481.016999
20
3989.765517
0
VERTEX
8
0
10
8431.373897
20
4039.409914
0
SEQEND
0
POLYLINE
8
0
62
176
6
CONTINUOUS
70
0
66
1
40
4.000000
41
4.000000
10
0
20
0
30
0
0
VERTEX
8
0
10
8481.016999
20
3989.765517
0
VERTEX
8
0
10
8481.016999
20
4168.311156
0
SEQEND
0
POLYLINE
8
0
62
176
6
CONTINUOUS
70
0
66
1
40
4.000000
41
4.000000
10
0
20
0
30
0
0
VERTEX
8
0
10
8700.211230
20
4039.409914
0
VERTEX
8
0
10
8650.568128
20
3989.765517
0
VERTEX
8
0
10
8600.925027
20
4039.409914
0
SEQEND
0
POLYLINE
8
0
62
176
6
CONTINUOUS
70
0
66
1
40
4.000000
41
4.000000
10
0
20
0
30
0
0
VERTEX
8
0
10
8650.568128
20
3989.765517
0
VERTEX
8
0
10
8650.568128
20
4168.311156
0
SEQEND
0
POLYLINE
8
0
62
176
6
CONTINUOUS
70
0
66
1
40
4.000000
41
4.000000
10
0
20
0
30
0
0
VERTEX
8
0
10
8869.762360
20
4039.409914
0
VERTEX
8
0
10
8820.119258
20
3989.765517
0
VERTEX
8
0
10
8770.476156
20
4039.409914
0
SEQEND
0
POLYLINE
8
0
62
176
6
CONTINUOUS
70
0
66
1
40
4.000000
41
4.000000
10
0
20
0
30
0
0
VERTEX
8
0
10
8820.119258
20
3989.765517
0
VERTEX
8
0
10
8820.119258
20
4168.311156
0
SEQEND
0
POLYLINE
8
0
62
176
6
CONTINUOUS
70
0
66
1
40
4.000000
41
4.000000
10
0
20
0
30
0
0
VERTEX
8
0
10
9039.313490
20
4039.409914
0
VERTEX
8
0
10
8989.670388
20
3989.765517
0
VERTEX
8
0
10
8940.027286
20
4039.409914
0
SEQEND
0
POLYLINE
8
0
62
176
6
CONTINUOUS
70
0
66
1
40
4.000000
41
4.000000
10
0
20
0
30
0
0
VERTEX
8
0
10
8989.670388
20
3989.765517
0
VERTEX
8
0
10
8989.670388
20
4168.311156
0
SEQEND
0
POLYLINE
8
0
62
176
6
CONTINUOUS
70
0
66
1
40
4.000000
41
4.000000
10
0
20
0
30
0
0
VERTEX
8
0
10
9208.864619
20
4039.409914
0
VERTEX
8
0
10
9159.221517
20
3989.765517
0
VERTEX
8
0
10
9109.578415
20
4039.409914
0
SEQEND
0
POLYLINE
8
0
62
176
6
CONTINUOUS
70
0
66
1
40
4.000000
41
4.000000
10
0
20
0
30
0
0
VERTEX
8
0
10
9159.221517
20
3989.765517
0
VERTEX
8
0
10
9159.221517
20
4168.311156
0
SEQEND
0
POLYLINE
8
0
62
176
6
CONTINUOUS
70
0
66
1
40
4.000000
41
4.000000
10
0
20
0
30
0
0
VERTEX
8
0
10
9378.415749
20
4039.409914
0
VERTEX
8
0
10
9328.772647
20
3989.765517
0
VERTEX
8
0
10
9279.129545
20
4039.409914
0
SEQEND
0
POLYLINE
8
0
62
176
6
CONTINUOUS
70
0
66
1
40
4.000000
41
4.000000
10
0
20
0
30
0
0
VERTEX
8
0
10
9328.772647
20
3989.765517
0
VERTEX
8
0
10
9328.772647
20
4168.311156
0
SEQEND
0
POLYLINE
8
0
62
176
6
CONTINUOUS
70
0
66
1
40
4.000000
41
4.000000
10
0
20
0
30
0
0
VERTEX
8
0
10
9547.966878
20
4039.409914
0
VERTEX
8
0
10
9498.323777
20
3989.765517
0
VERTEX
8
0
10
9448.680675
20
4039.409914
0
SEQEND
0
POLYLINE
8
0
62
176
6
CONTINUOUS
70
0
66
1
40
4.000000
41
4.000000
10
0
20
0
30
0
0
VERTEX
8
0
10
9498.323777
20
3989.765517
0
VERTEX
8
0
10
9498.323777
20
4168.311156
0
SEQEND
0
POLYLINE
8
0
62
176
6
CONTINUOUS
70
0
66
1
40
4.000000
41
4.000000
10
0
20
0
30
0
0
VERTEX
8
0
10
9717.518008
20
4039.409914
0
VERTEX
8
0
10
9667.874906
20
3989.765517
0
VERTEX
8
0
10
9618.231804
20
4039.409914
0
SEQEND
0
POLYLINE
8
0
62
176
6
CONTINUOUS
70
0
66
1
40
4.000000
41
4.000000
10
0
20
0
30
0
0
VERTEX
8
0
10
9667.874906
20
3989.765517
0
VERTEX
8
0
10
9667.874906
20
4168.311156
0
SEQEND
0
POLYLINE
8
0
62
176
6
CONTINUOUS
70
0
66
1
40
4.000000
41
4.000000
10
0
20
0
30
0
0
VERTEX
8
0
10
9887.069138
20
4039.409914
0
VERTEX
8
0
10
9837.426036
20
3989.765517
0
VERTEX
8
0
10
9787.782934
20
4039.409914
0
SEQEND
0
POLYLINE
8
0
62
176
6
CONTINUOUS
70
0
66
1
40
4.000000
41
4.000000
10
0
20
0
30
0
0
VERTEX
8
0
10
9837.426036
20
3989.765517
0
VERTEX
8
0
10
9837.426036
20
4168.311156
0
SEQEND
0
POLYLINE
8
0
62
176
6
CONTINUOUS
70
0
66
1
40
4.000000
41
4.000000
10
0
20
0
30
0
0
VERTEX
8
0
10
10056.620267
20
4039.409914
0
VERTEX
8
0
10
10006.977165
20
3989.765517
0
VERTEX
8
0
10
9957.334064
20
4039.409914
0
SEQEND
0
POLYLINE
8
0
62
176
6
CONTINUOUS
70
0
66
1
40
4.000000
41
4.000000
10
0
20
0
30
0
0
VERTEX
8
0
10
10006.977165
20
3989.765517
0
VERTEX
8
0
10
10006.977165
20
4168.311156
0
SEQEND
0
POLYLINE
8
0
62
176
6
CONTINUOUS
70
0
66
1
40
4.000000
41
4.000000
10
0
20
0
30
0
0
VERTEX
8
0
10
10226.171397
20
4039.409914
0
VERTEX
8
0
10
10176.528295
20
3989.765517
0
VERTEX
8
0
10
10126.885193
20
4039.409914
0
SEQEND
0
POLYLINE
8
0
62
176
6
CONTINUOUS
70
0
66
1
40
4.000000
41
4.000000
10
0
20
0
30
0
0
VERTEX
8
0
10
10176.528295
20
3989.765517
0
VERTEX
8
0
10
10176.528295
20
4168.311156
0
SEQEND
0
POLYLINE
8
0
62
176
6
CONTINUOUS
70
0
66
1
40
4.000000
41
4.000000
10
0
20
0
30
0
0
VERTEX
8
0
10
10395.722527
20
4039.409914
0
VERTEX
8
0
10
10346.079425
20
3989.765517
0
VERTEX
8
0
10
10296.436323
20
4039.409914
0
SEQEND
0
POLYLINE
8
0
62
176
6
CONTINUOUS
70
0
66
1
40
4.000000
41
4.000000
10
0
20
0
30
0
0
VERTEX
8
0
10
10346.079425
20
3989.765517
0
VERTEX
8
0
10
10346.079425
20
4168.311156
0
SEQEND
0
POLYLINE
8
0
62
176
6
CONTINUOUS
70
0
66
1
40
4.000000
41
4.000000
10
0
20
0
30
0
0
VERTEX
8
0
10
10565.273656
20
4039.409914
0
VERTEX
8
0
10
10515.630554
20
3989.765517
0
VERTEX
8
0
10
10465.987453
20
4039.409914
0
SEQEND
0
POLYLINE
8
0
62
176
6
CONTINUOUS
70
0
66
1
40
4.000000
41
4.000000
10
0
20
0
30
0
0
VERTEX
8
0
10
10515.630554
20
3989.765517
0
VERTEX
8
0
10
10515.630554
20
4168.311156
0
SEQEND
0
POLYLINE
8
0
62
176
6
CONTINUOUS
70
0
66
1
40
4.000000
41
4.000000
10
0
20
0
30
0
0
VERTEX
8
0
10
10734.824786
20
4039.409914
0
VERTEX
8
0
10
10685.181684
20
3989.765517
0
VERTEX
8
0
10
10635.538582
20
4039.409914
0
SEQEND
0
POLYLINE
8
0
62
176
6
CONTINUOUS
70
0
66
1
40
4.000000
41
4.000000
10
0
20
0
30
0
0
VERTEX
8
0
10
10685.181684
20
3989.765517
0
VERTEX
8
0
10
10685.181684
20
4168.311156
0
SEQEND
0
POLYLINE
8
0
62
176
6
CONTINUOUS
70
0
66
1
40
4.000000
41
4.000000
10
0
20
0
30
0
0
VERTEX
8
0
10
10904.375915
20
4039.409914
0
VERTEX
8
0
10
10854.732814
20
3989.765517
0
VERTEX
8
0
10
10805.089712
20
4039.409914
0
SEQEND
0
POLYLINE
8
0
62
176
6
CONTINUOUS
70
0
66
1
40
4.000000
41
4.000000
10
0
20
0
30
0
0
VERTEX
8
0
10
10854.732814
20
3989.765517
0
VERTEX
8
0
10
10854.732814
20
4168.311156
0
SEQEND
0
POLYLINE
8
0
62
176
6
CONTINUOUS
70
0
66
1
40
4.000000
41
4.000000
10
0
20
0
30
0
0
VERTEX
8
0
10
11073.927045
20
4039.409914
0
VERTEX
8
0
10
11024.283943
20
3989.765517
0
VERTEX
8
0
10
10974.640841
20
4039.409914
0
SEQEND
0
POLYLINE
8
0
62
176
6
CONTINUOUS
70
0
66
1
40
4.000000
41
4.000000
10
0
20
0
30
0
0
VERTEX
8
0
10
11024.283943
20
3989.765517
0
VERTEX
8
0
10
11024.283943
20
4168.311156
0
SEQEND
0
POLYLINE
8
0
62
176
6
CONTINUOUS
70
0
66
1
40
4.000000
41
4.000000
10
0
20
0
30
0
0
VERTEX
8
0
10
11243.478175
20
4039.409914
0
VERTEX
8
0
10
11193.835073
20
3989.765517
0
VERTEX
8
0
10
11144.191971
20
4039.409914
0
SEQEND
0
POLYLINE
8
0
62
176
6
CONTINUOUS
70
0
66
1
40
4.000000
41
4.000000
10
0
20
0
30
0
0
VERTEX
8
0
10
11193.835073
20
3989.765517
0
VERTEX
8
0
10
11193.835073
20
4168.311156
0
SEQEND
0
POLYLINE
8
0
62
176
6
CONTINUOUS
70
0
66
1
40
4.000000
41
4.000000
10
0
20
0
30
0
0
VERTEX
8
0
10
11413.029304
20
4039.409914
0
VERTEX
8
0
10
11363.386202
20
3989.765517
0
VERTEX
8
0
10
11313.743101
20
4039.409914
0
SEQEND
0
POLYLINE
8
0
62
176
6
CONTINUOUS
70
0
66
1
40
4.000000
41
4.000000
10
0
20
0
30
0
0
VERTEX
8
0
10
11363.386202
20
3989.765517
0
VERTEX
8
0
10
11363.386202
20
4168.311156
0
SEQEND
0
POLYLINE
8
0
62
176
6
CONTINUOUS
70
0
66
1
40
4.000000
41
4.000000
10
0
20
0
30
0
0
VERTEX
8
0
10
11582.580434
20
4039.409914
0
VERTEX
8
0
10
11532.937332
20
3989.765517
0
VERTEX
8
0
10
11483.294230
20
4039.409914
0
SEQEND
0
POLYLINE
8
0
62
176
6
CONTINUOUS
70
0
66
1
40
4.000000
41
4.000000
10
0
20
0
30
0
0
VERTEX
8
0
10
11532.937332
20
3989.765517
0
VERTEX
8
0
10
11532.937332
20
4168.311156
0
SEQEND
0
POLYLINE
8
0
62
176
6
CONTINUOUS
70
0
66
1
40
4.000000
41
4.000000
10
0
20
0
30
0
0
VERTEX
8
0
10
11752.131564
20
4039.409914
0
VERTEX
8
0
10
11702.488462
20
3989.765517
0
VERTEX
8
0
10
11652.845360
20
4039.409914
0
SEQEND
0
POLYLINE
8
0
62
176
6
CONTINUOUS
70
0
66
1
40
4.000000
41
4.000000
10
0
20
0
30
0
0
VERTEX
8
0
10
11702.488462
20
3989.765517
0
VERTEX
8
0
10
11702.488462
20
4168.311156
0
SEQEND
0
POLYLINE
8
0
62
176
6
CONTINUOUS
70
0
66
1
40
4.000000
41
4.000000
10
0
20
0
30
0
0
VERTEX
8
0
10
11921.682693
20
4039.409914
0
VERTEX
8
0
10
11872.039591
20
3989.765517
0
VERTEX
8
0
10
11822.396490
20
4039.409914
0
SEQEND
0
POLYLINE
8
0
62
176
6
CONTINUOUS
70
0
66
1
40
4.000000
41
4.000000
10
0
20
0
30
0
0
VERTEX
8
0
10
11872.039591
20
3989.765517
0
VERTEX
8
0
10
11872.039591
20
4168.311156
0
SEQEND
0
POLYLINE
8
0
62
176
6
CONTINUOUS
70
0
66
1
40
4.000000
41
4.000000
10
0
20
0
30
0
0
VERTEX
8
0
10
12091.233823
20
4039.409914
0
VERTEX
8
0
10
12041.590721
20
3989.765517
0
VERTEX
8
0
10
11991.947619
20
4039.409914
0
SEQEND
0
POLYLINE
8
0
62
176
6
CONTINUOUS
70
0
66
1
40
4.000000
41
4.000000
10
0
20
0
30
0
0
VERTEX
8
0
10
12041.590721
20
3989.765517
0
VERTEX
8
0
10
12041.590721
20
4168.311156
0
SEQEND
0
POLYLINE
8
0
62
176
6
CONTINUOUS
70
0
66
1
40
4.000000
41
4.000000
10
0
20
0
30
0
0
VERTEX
8
0
10
12260.784952
20
4039.409914
0
VERTEX
8
0
10
12211.141851
20
3989.765517
0
VERTEX
8
0
10
12161.498749
20
4039.409914
0
SEQEND
0
POLYLINE
8
0
62
176
6
CONTINUOUS
70
0
66
1
40
4.000000
41
4.000000
10
0
20
0
30
0
0
VERTEX
8
0
10
12211.141851
20
3989.765517
0
VERTEX
8
0
10
12211.141851
20
4168.311156
0
SEQEND
0
POLYLINE
8
0
62
176
6
CONTINUOUS
70
0
66
1
40
4.000000
41
4.000000
10
0
20
0
30
0
0
VERTEX
8
0
10
12430.336082
20
4039.409914
0
VERTEX
8
0
10
12380.692980
20
3989.765517
0
VERTEX
8
0
10
12331.049878
20
4039.409914
0
SEQEND
0
POLYLINE
8
0
62
176
6
CONTINUOUS
70
0
66
1
40
4.000000
41
4.000000
10
0
20
0
30
0
0
VERTEX
8
0
10
12380.692980
20
3989.765517
0
VERTEX
8
0
10
12380.692980
20
4168.311156
0
SEQEND
0
POLYLINE
8
0
62
176
6
CONTINUOUS
70
0
66
1
40
4.000000
41
4.000000
10
0
20
0
30
0
0
VERTEX
8
0
10
12599.887212
20
4039.409914
0
VERTEX
8
0
10
12550.244110
20
3989.765517
0
VERTEX
8
0
10
12500.601008
20
4039.409914
0
SEQEND
0
POLYLINE
8
0
62
176
6
CONTINUOUS
70
0
66
1
40
4.000000
41
4.000000
10
0
20
0
30
0
0
VERTEX
8
0
10
12550.244110
20
3989.765517
0
VERTEX
8
0
10
12550.244110
20
4168.311156
0
SEQEND
0
POLYLINE
8
0
62
176
6
CONTINUOUS
70
0
66
1
40
4.000000
41
4.000000
10
0
20
0
30
0
0
VERTEX
8
0
10
12769.438341
20
4039.409914
0
VERTEX
8
0
10
12719.795240
20
3989.765517
0
VERTEX
8
0
10
12670.152138
20
4039.409914
0
SEQEND
0
POLYLINE
8
0
62
176
6
CONTINUOUS
70
0
66
1
40
4.000000
41
4.000000
10
0
20
0
30
0
0
VERTEX
8
0
10
12719.795240
20
3989.765517
0
VERTEX
8
0
10
12719.795240
20
4168.311156
0
SEQEND
0
POLYLINE
8
0
62
176
6
CONTINUOUS
70
0
66
1
40
4.000000
41
4.000000
10
0
20
0
30
0
0
VERTEX
8
0
10
12938.989471
20
4039.409914
0
VERTEX
8
0
10
12889.346369
20
3989.765517
0
VERTEX
8
0
10
12839.703267
20
4039.409914
0
SEQEND
0
POLYLINE
8
0
62
176
6
CONTINUOUS
70
0
66
1
40
4.000000
41
4.000000
10
0
20
0
30
0
0
VERTEX
8
0
10
12889.346369
20
3989.765517
0
VERTEX
8
0
10
12889.346369
20
4168.311156
0
SEQEND
0
POLYLINE
8
0
62
176
6
CONTINUOUS
70
0
66
1
40
4.000000
41
4.000000
10
0
20
0
30
0
0
VERTEX
8
0
10
13108.540601
20
4039.409914
0
VERTEX
8
0
10
13058.897499
20
3989.765517
0
VERTEX
8
0
10
13009.254397
20
4039.409914
0
SEQEND
0
POLYLINE
8
0
62
176
6
CONTINUOUS
70
0
66
1
40
4.000000
41
4.000000
10
0
20
0
30
0
0
VERTEX
8
0
10
13058.897499
20
3989.765517
0
VERTEX
8
0
10
13058.897499
20
4168.311156
0
SEQEND
0
POLYLINE
8
0
62
176
6
CONTINUOUS
70
0
66
1
40
4.000000
41
4.000000
10
0
20
0
30
0
0
VERTEX
8
0
10
13278.091730
20
4039.409914
0
VERTEX
8
0
10
13228.448628
20
3989.765517
0
VERTEX
8
0
10
13178.805527
20
4039.409914
0
SEQEND
0
POLYLINE
8
0
62
176
6
CONTINUOUS
70
0
66
1
40
4.000000
41
4.000000
10
0
20
0
30
0
0
VERTEX
8
0
10
13228.448628
20
3989.765517
0
VERTEX
8
0
10
13228.448628
20
4168.311156
0
SEQEND
0
POLYLINE
8
0
62
176
6
CONTINUOUS
70
0
66
1
40
4.000000
41
4.000000
10
0
20
0
30
0
0
VERTEX
8
0
10
13447.642860
20
4039.409914
0
VERTEX
8
0
10
13397.999758
20
3989.765517
0
VERTEX
8
0
10
13348.356656
20
4039.409914
0
SEQEND
0
POLYLINE
8
0
62
176
6
CONTINUOUS
70
0
66
1
40
4.000000
41
4.000000
10
0
20
0
30
0
0
VERTEX
8
0
10
13397.999758
20
3989.765517
0
VERTEX
8
0
10
13397.999758
20
4168.311156
0
SEQEND
0
POLYLINE
8
0
62
176
6
CONTINUOUS
70
0
66
1
40
4.000000
41
4.000000
10
0
20
0
30
0
0
VERTEX
8
0
10
10420.418474
20
4319.608366
0
VERTEX
8
0
10
10415.690560
20
4329.064442
0
VERTEX
8
0
10
10401.506816
20
4333.792479
0
VERTEX
8
0
10
10392.050987
20
4333.792479
0
VERTEX
8
0
10
10377.867244
20
4329.064442
0
VERTEX
8
0
10
10368.411415
20
4314.880328
0
VERTEX
8
0
10
10363.683501
20
4291.240139
0
VERTEX
8
0
10
10363.683501
20
4267.599950
0
VERTEX
8
0
10
10368.411415
20
4248.687799
0
VERTEX
8
0
10
10377.867244
20
4239.231723
0
VERTEX
8
0
10
10392.050987
20
4234.503685
0
VERTEX
8
0
10
10396.778902
20
4234.503685
0
VERTEX
8
0
10
10410.962645
20
4239.231723
0
VERTEX
8
0
10
10420.418474
20
4248.687799
0
VERTEX
8
0
10
10425.146389
20
4262.871912
0
VERTEX
8
0
10
10425.146389
20
4267.599950
0
VERTEX
8
0
10
10420.418474
20
4281.784064
0
VERTEX
8
0
10
10410.962645
20
4291.240139
0
VERTEX
8
0
10
10396.778902
20
4295.968177
0
VERTEX
8
0
10
10392.050987
20
4295.968177
0
VERTEX
8
0
10
10377.867244
20
4291.240139
0
VERTEX
8
0
10
10368.411415
20
4281.784064
0
VERTEX
8
0
10
10363.683501
20
4267.599950
0
SEQEND
0
POLYLINE
8
0
62
176
6
CONTINUOUS
70
0
66
1
40
4.000000
41
4.000000
10
0
20
0
30
0
0
VERTEX
8
0
10
10444.058046
20
4243.959761
0
VERTEX
8
0
10
10439.330132
20
4239.231723
0
VERTEX
8
0
10
10444.058046
20
4234.503685
0
VERTEX
8
0
10
10448.785961
20
4239.231723
0
VERTEX
8
0
10
10444.058046
20
4243.959761
0
SEQEND
0
POLYLINE
8
0
62
176
6
CONTINUOUS
70
0
66
1
40
4.000000
41
4.000000
10
0
20
0
30
0
0
VERTEX
8
0
10
10467.697619
20
4314.880328
0
VERTEX
8
0
10
10477.153448
20
4319.608366
0
VERTEX
8
0
10
10491.337191
20
4333.792479
0
VERTEX
8
0
10
10491.337191
20
4234.503685
0
SEQEND
0
POLYLINE
8
0
62
176
6
CONTINUOUS
70
0
66
1
40
4.000000
41
4.000000
10
0
20
0
30
0
0
VERTEX
8
0
10
10590.623395
20
4333.792479
0
VERTEX
8
0
10
10543.344250
20
4333.792479
0
VERTEX
8
0
10
10538.616336
20
4291.240139
0
VERTEX
8
0
10
10543.344250
20
4295.968177
0
VERTEX
8
0
10
10557.527994
20
4300.696215
0
VERTEX
8
0
10
10571.711737
20
4300.696215
0
VERTEX
8
0
10
10585.895480
20
4295.968177
0
VERTEX
8
0
10
10595.351309
20
4286.512101
0
VERTEX
8
0
10
10600.079224
20
4272.327988
0
VERTEX
8
0
10
10600.079224
20
4262.871912
0
VERTEX
8
0
10
10595.351309
20
4248.687799
0
VERTEX
8
0
10
10585.895480
20
4239.231723
0
VERTEX
8
0
10
10571.711737
20
4234.503685
0
VERTEX
8
0
10
10557.527994
20
4234.503685
0
VERTEX
8
0
10
10543.344250
20
4239.231723
0
VERTEX
8
0
10
10538.616336
20
4243.959761
0
VERTEX
8
0
10
10533.888421
20
4253.415837
0
SEQEND
0
POLYLINE
8
0
62
176
6
CONTINUOUS
70
0
66
1
40
4.000000
41
4.000000
10
0
20
0
30
0
0
VERTEX
8
0
10
10670.997941
20
4333.792479
0
VERTEX
8
0
10
10670.997941
20
4234.503685
0
SEQEND
0
POLYLINE
8
0
62
176
6
CONTINUOUS
70
0
66
1
40
4.000000
41
4.000000
10
0
20
0
30
0
0
VERTEX
8
0
10
10718.277085
20
4300.696215
0
VERTEX
8
0
10
10670.997941
20
4253.415837
0
SEQEND
0
POLYLINE
8
0
62
176
6
CONTINUOUS
70
0
66
1
40
4.000000
41
4.000000
10
0
20
0
30
0
0
VERTEX
8
0
10
10689.909598
20
4272.327988
0
VERTEX
8
0
10
10723.005000
20
4234.503685
0
SEQEND
0
POLYLINE
8
0
62
176
6
CONTINUOUS
70
0
66
1
40
4.000000
41
4.000000
10
0
20
0
30
0
0
VERTEX
8
0
10
10732.460829
20
4333.792479
0
VERTEX
8
0
10
10732.460829
20
4234.503685
0
SEQEND
0
POLYLINE
8
0
62
176
6
CONTINUOUS
70
0
66
1
40
4.000000
41
4.000000
10
0
20
0
30
0
0
VERTEX
8
0
10
10732.460829
20
4333.792479
0
VERTEX
8
0
10
10798.651631
20
4234.503685
0
SEQEND
0
POLYLINE
8
0
62
176
6
CONTINUOUS
70
0
66
1
40
4.000000
41
4.000000
10
0
20
0
30
0
0
VERTEX
8
0
10
10798.651631
20
4333.792479
0
VERTEX
8
0
10
10798.651631
20
4234.503685
0
SEQEND
0
POLYLINE
8
0
62
176
6
CONTINUOUS
70
0
66
1
40
4.000000
41
4.000000
10
0
20
0
30
0
0
VERTEX
8
0
10
10817.563289
20
4220.319572
0
VERTEX
8
0
10
10883.754091
20
4333.792479
0
SEQEND
0
POLYLINE
8
0
62
176
6
CONTINUOUS
70
0
66
1
40
4.000000
41
4.000000
10
0
20
0
30
0
0
VERTEX
8
0
10
10883.754091
20
4300.696215
0
VERTEX
8
0
10
10883.754091
20
4234.503685
0
SEQEND
0
POLYLINE
8
0
62
176
6
CONTINUOUS
70
0
66
1
40
4.000000
41
4.000000
10
0
20
0
30
0
0
VERTEX
8
0
10
10883.754091
20
4281.784064
0
VERTEX
8
0
10
10897.937835
20
4295.968177
0
VERTEX
8
0
10
10907.393664
20
4300.696215
0
VERTEX
8
0
10
10921.577407
20
4300.696215
0
VERTEX
8
0
10
10931.033236
20
4295.968177
0
VERTEX
8
0
10
10935.761150
20
4281.784064
0
VERTEX
8
0
10
10935.761150
20
4234.503685
0
SEQEND
0
POLYLINE
8
0
62
176
6
CONTINUOUS
70
0
66
1
40
4.000000
41
4.000000
10
0
20
0
30
0
0
VERTEX
8
0
10
10935.761150
20
4281.784064
0
VERTEX
8
0
10
10949.944894
20
4295.968177
0
VERTEX
8
0
10
10959.400723
20
4300.696215
0
VERTEX
8
0
10
10973.584466
20
4300.696215
0
VERTEX
8
0
10
10983.040295
20
4295.968177
0
VERTEX
8
0
10
10987.768210
20
4281.784064
0
VERTEX
8
0
10
10987.768210
20
4234.503685
0
SEQEND
0
POLYLINE
8
0
62
176
6
CONTINUOUS
70
0
66
1
40
4.000000
41
4.000000
10
0
20
0
30
0
0
VERTEX
8
0
10
7972.363610
20
4168.311156
0
VERTEX
8
0
10
13397.999758
20
4168.311156
0
SEQEND
0
POLYLINE
8
0
62
56
6
CONTINUOUS
70
0
66
1
40
4.000000
41
4.000000
10
0
20
0
30
0
0
VERTEX
8
0
10
7972.363610
20
3879.444635
0
VERTEX
8
0
10
13397.999758
20
3879.444635
0
SEQEND
0
POLYLINE
8
0
62
176
6
CONTINUOUS
70
0
66
1
40
4.000000
41
4.000000
10
0
20
0
30
0
0
VERTEX
8
0
10
2596.370564
20
4039.409914
0
VERTEX
8
0
10
2546.727462
20
3989.765517
0
VERTEX
8
0
10
2497.084360
20
4039.409914
0
SEQEND
0
POLYLINE
8
0
62
176
6
CONTINUOUS
70
0
66
1
40
4.000000
41
4.000000
10
0
20
0
30
0
0
VERTEX
8
0
10
2546.727462
20
3989.765517
0
VERTEX
8
0
10
2546.727462
20
4320.728164
0
SEQEND
0
POLYLINE
8
0
62
176
6
CONTINUOUS
70
0
66
1
40
4.000000
41
4.000000
10
0
20
0
30
0
0
VERTEX
8
0
10
2765.921693
20
4039.409914
0
VERTEX
8
0
10
2716.278592
20
3989.765517
0
VERTEX
8
0
10
2666.635490
20
4039.409914
0
SEQEND
0
POLYLINE
8
0
62
176
6
CONTINUOUS
70
0
66
1
40
4.000000
41
4.000000
10
0
20
0
30
0
0
VERTEX
8
0
10
2716.278592
20
3989.765517
0
VERTEX
8
0
10
2716.278592
20
4320.728164
0
SEQEND
0
POLYLINE
8
0
62
176
6
CONTINUOUS
70
0
66
1
40
4.000000
41
4.000000
10
0
20
0
30
0
0
VERTEX
8
0
10
2935.472823
20
4039.409914
0
VERTEX
8
0
10
2885.829721
20
3989.765517
0
VERTEX
8
0
10
2836.186619
20
4039.409914
0
SEQEND
0
POLYLINE
8
0
62
176
6
CONTINUOUS
70
0
66
1
40
4.000000
41
4.000000
10
0
20
0
30
0
0
VERTEX
8
0
10
2885.829721
20
3989.765517
0
VERTEX
8
0
10
2885.829721
20
4320.728164
0
SEQEND
0
POLYLINE
8
0
62
176
6
CONTINUOUS
70
0
66
1
40
4.000000
41
4.000000
10
0
20
0
30
0
0
VERTEX
8
0
10
3105.023953
20
4039.409914
0
VERTEX
8
0
10
3055.380851
20
3989.765517
0
VERTEX
8
0
10
3005.737749
20
4039.409914
0
SEQEND
0
POLYLINE
8
0
62
176
6
CONTINUOUS
70
0
66
1
40
4.000000
41
4.000000
10
0
20
0
30
0
0
VERTEX
8
0
10
3055.380851
20
3989.765517
0
VERTEX
8
0
10
3055.380851
20
4320.728164
0
SEQEND
0
POLYLINE
8
0
62
176
6
CONTINUOUS
70
0
66
1
40
4.000000
41
4.000000
10
0
20
0
30
0
0
VERTEX
8
0
10
3274.575082
20
4039.409914
0
VERTEX
8
0
10
3224.931980
20
3989.765517
0
VERTEX
8
0
10
3175.288879
20
4039.409914
0
SEQEND
0
POLYLINE
8
0
62
176
6
CONTINUOUS
70
0
66
1
40
4.000000
41
4.000000
10
0
20
0
30
0
0
VERTEX
8
0
10
3224.931980
20
3989.765517
0
VERTEX
8
0
10
3224.931980
20
4320.728164
0
SEQEND
0
POLYLINE
8
0
62
176
6
CONTINUOUS
70
0
66
1
40
4.000000
41
4.000000
10
0
20
0
30
0
0
VERTEX
8
0
10
3444.126212
20
4039.409914
0
VERTEX
8
0
10
3394.483110
20
3989.765517
0
VERTEX
8
0
10
3344.840008
20
4039.409914
0
SEQEND
0
POLYLINE
8
0
62
176
6
CONTINUOUS
70
0
66
1
40
4.000000
41
4.000000
10
0
20
0
30
0
0
VERTEX
8
0
10
3394.483110
20
3989.765517
0
VERTEX
8
0
10
3394.483110
20
4320.728164
0
SEQEND
0
POLYLINE
8
0
62
176
6
CONTINUOUS
70
0
66
1
40
4.000000
41
4.000000
10
0
20
0
30
0
0
VERTEX
8
0
10
3613.677342
20
4039.409914
0
VERTEX
8
0
10
3564.034240
20
3989.765517
0
VERTEX
8
0
10
3514.391138
20
4039.409914
0
SEQEND
0
POLYLINE
8
0
62
176
6
CONTINUOUS
70
0
66
1
40
4.000000
41
4.000000
10
0
20
0
30
0
0
VERTEX
8
0
10
3564.034240
20
3989.765517
0
VERTEX
8
0
10
3564.034240
20
4320.728164
0
SEQEND
0
POLYLINE
8
0
62
176
6
CONTINUOUS
70
0
66
1
40
4.000000
41
4.000000
10
0
20
0
30
0
0
VERTEX
8
0
10
3783.228471
20
4039.409914
0
VERTEX
8
0
10
3733.585369
20
3989.765517
0
VERTEX
8
0
10
3683.942267
20
4039.409914
0
SEQEND
0
POLYLINE
8
0
62
176
6
CONTINUOUS
70
0
66
1
40
4.000000
41
4.000000
10
0
20
0
30
0
0
VERTEX
8
0
10
3733.585369
20
3989.765517
0
VERTEX
8
0
10
3733.585369
20
4320.728164
0
SEQEND
0
POLYLINE
8
0
62
176
6
CONTINUOUS
70
0
66
1
40
4.000000
41
4.000000
10
0
20
0
30
0
0
VERTEX
8
0
10
3952.779601
20
4039.409914
0
VERTEX
8
0
10
3903.136499
20
3989.765517
0
VERTEX
8
0
10
3853.493397
20
4039.409914
0
SEQEND
0
POLYLINE
8
0
62
176
6
CONTINUOUS
70
0
66
1
40
4.000000
41
4.000000
10
0
20
0
30
0
0
VERTEX
8
0
10
3903.136499
20
3989.765517
0
VERTEX
8
0
10
3903.136499
20
4320.728164
0
SEQEND
0
POLYLINE
8
0
62
176
6
CONTINUOUS
70
0
66
1
40
4.000000
41
4.000000
10
0
20
0
30
0
0
VERTEX
8
0
10
4122.330730
20
4039.409914
0
VERTEX
8
0
10
4072.687629
20
3989.765517
0
VERTEX
8
0
10
4023.044527
20
4039.409914
0
SEQEND
0
POLYLINE
8
0
62
176
6
CONTINUOUS
70
0
66
1
40
4.000000
41
4.000000
10
0
20
0
30
0
0
VERTEX
8
0
10
4072.687629
20
3989.765517
0
VERTEX
8
0
10
4072.687629
20
4320.728164
0
SEQEND
0
POLYLINE
8
0
62
176
6
CONTINUOUS
70
0
66
1
40
4.000000
41
4.000000
10
0
20
0
30
0
0
VERTEX
8
0
10
4291.881860
20
4039.409914
0
VERTEX
8
0
10
4242.238758
20
3989.765517
0
VERTEX
8
0
10
4192.595656
20
4039.409914
0
SEQEND
0
POLYLINE
8
0
62
176
6
CONTINUOUS
70
0
66
1
40
4.000000
41
4.000000
10
0
20
0
30
0
0
VERTEX
8
0
10
4242.238758
20
3989.765517
0
VERTEX
8
0
10
4242.238758
20
4320.728164
0
SEQEND
0
POLYLINE
8
0
62
176
6
CONTINUOUS
70
0
66
1
40
4.000000
41
4.000000
10
0
20
0
30
0
0
VERTEX
8
0
10
4461.432990
20
4039.409914
0
VERTEX
8
0
10
4411.789888
20
3989.765517
0
VERTEX
8
0
10
4362.146786
20
4039.409914
0
SEQEND
0
POLYLINE
8
0
62
176
6
CONTINUOUS
70
0
66
1
40
4.000000
41
4.000000
10
0
20
0
30
0
0
VERTEX
8
0
10
4411.789888
20
3989.765517
0
VERTEX
8
0
10
4411.789888
20
4320.728164
0
SEQEND
0
POLYLINE
8
0
62
176
6
CONTINUOUS
70
0
66
1
40
4.000000
41
4.000000
10
0
20
0
30
0
0
VERTEX
8
0
10
4630.984119
20
4039.409914
0
VERTEX
8
0
10
4581.341017
20
3989.765517
0
VERTEX
8
0
10
4531.697916
20
4039.409914
0
SEQEND
0
POLYLINE
8
0
62
176
6
CONTINUOUS
70
0
66
1
40
4.000000
41
4.000000
10
0
20
0
30
0
0
VERTEX
8
0
10
4581.341017
20
3989.765517
0
VERTEX
8
0
10
4581.341017
20
4320.728164
0
SEQEND
0
POLYLINE
8
0
62
176
6
CONTINUOUS
70
0
66
1
40
4.000000
41
4.000000
10
0
20
0
30
0
0
VERTEX
8
0
10
4800.535249
20
4039.409914
0
VERTEX
8
0
10
4750.892147
20
3989.765517
0
VERTEX
8
0
10
4701.249045
20
4039.409914
0
SEQEND
0
POLYLINE
8
0
62
176
6
CONTINUOUS
70
0
66
1
40
4.000000
41
4.000000
10
0
20
0
30
0
0
VERTEX
8
0
10
4750.892147
20
3989.765517
0
VERTEX
8
0
10
4750.892147
20
4320.728164
0
SEQEND
0
POLYLINE
8
0
62
176
6
CONTINUOUS
70
0
66
1
40
4.000000
41
4.000000
10
0
20
0
30
0
0
VERTEX
8
0
10
4970.086379
20
4039.409914
0
VERTEX
8
0
10
4920.443277
20
3989.765517
0
VERTEX
8
0
10
4870.800175
20
4039.409914
0
SEQEND
0
POLYLINE
8
0
62
176
6
CONTINUOUS
70
0
66
1
40
4.000000
41
4.000000
10
0
20
0
30
0
0
VERTEX
8
0
10
4920.443277
20
3989.765517
0
VERTEX
8
0
10
4920.443277
20
4320.728164
0
SEQEND
0
POLYLINE
8
0
62
176
6
CONTINUOUS
70
0
66
1
40
4.000000
41
4.000000
10
0
20
0
30
0
0
VERTEX
8
0
10
5139.637508
20
4039.409914
0
VERTEX
8
0
10
5089.994406
20
3989.765517
0
VERTEX
8
0
10
5040.351304
20
4039.409914
0
SEQEND
0
POLYLINE
8
0
62
176
6
CONTINUOUS
70
0
66
1
40
4.000000
41
4.000000
10
0
20
0
30
0
0
VERTEX
8
0
10
5089.994406
20
3989.765517
0
VERTEX
8
0
10
5089.994406
20
4320.728164
0
SEQEND
0
POLYLINE
8
0
62
176
6
CONTINUOUS
70
0
66
1
40
4.000000
41
4.000000
10
0
20
0
30
0
0
VERTEX
8
0
10
5309.188638
20
4039.409914
0
VERTEX
8
0
10
5259.545536
20
3989.765517
0
VERTEX
8
0
10
5209.902434
20
4039.409914
0
SEQEND
0
POLYLINE
8
0
62
176
6
CONTINUOUS
70
0
66
1
40
4.000000
41
4.000000
10
0
20
0
30
0
0
VERTEX
8
0
10
5259.545536
20
3989.765517
0
VERTEX
8
0
10
5259.545536
20
4320.728164
0
SEQEND
0
POLYLINE
8
0
62
176
6
CONTINUOUS
70
0
66
1
40
4.000000
41
4.000000
10
0
20
0
30
0
0
VERTEX
8
0
10
5478.739767
20
4039.409914
0
VERTEX
8
0
10
5429.096666
20
3989.765517
0
VERTEX
8
0
10
5379.453564
20
4039.409914
0
SEQEND
0
POLYLINE
8
0
62
176
6
CONTINUOUS
70
0
66
1
40
4.000000
41
4.000000
10
0
20
0
30
0
0
VERTEX
8
0
10
5429.096666
20
3989.765517
0
VERTEX
8
0
10
5429.096666
20
4320.728164
0
SEQEND
0
POLYLINE
8
0
62
176
6
CONTINUOUS
70
0
66
1
40
4.000000
41
4.000000
10
0
20
0
30
0
0
VERTEX
8
0
10
5648.290897
20
4039.409914
0
VERTEX
8
0
10
5598.647795
20
3989.765517
0
VERTEX
8
0
10
5549.004693
20
4039.409914
0
SEQEND
0
POLYLINE
8
0
62
176
6
CONTINUOUS
70
0
66
1
40
4.000000
41
4.000000
10
0
20
0
30
0
0
VERTEX
8
0
10
5598.647795
20
3989.765517
0
VERTEX
8
0
10
5598.647795
20
4320.728164
0
SEQEND
0
POLYLINE
8
0
62
176
6
CONTINUOUS
70
0
66
1
40
4.000000
41
4.000000
10
0
20
0
30
0
0
VERTEX
8
0
10
5817.842027
20
4039.409914
0
VERTEX
8
0
10
5768.198925
20
3989.765517
0
VERTEX
8
0
10
5718.555823
20
4039.409914
0
SEQEND
0
POLYLINE
8
0
62
176
6
CONTINUOUS
70
0
66
1
40
4.000000
41
4.000000
10
0
20
0
30
0
0
VERTEX
8
0
10
5768.198925
20
3989.765517
0
VERTEX
8
0
10
5768.198925
20
4320.728164
0
SEQEND
0
POLYLINE
8
0
62
176
6
CONTINUOUS
70
0
66
1
40
4.000000
41
4.000000
10
0
20
0
30
0
0
VERTEX
8
0
10
5987.393156
20
4039.409914
0
VERTEX
8
0
10
5937.750054
20
3989.765517
0
VERTEX
8
0
10
5888.106953
20
4039.409914
0
SEQEND
0
POLYLINE
8
0
62
176
6
CONTINUOUS
70
0
66
1
40
4.000000
41
4.000000
10
0
20
0
30
0
0
VERTEX
8
0
10
5937.750054
20
3989.765517
0
VERTEX
8
0
10
5937.750054
20
4320.728164
0
SEQEND
0
POLYLINE
8
0
62
176
6
CONTINUOUS
70
0
66
1
40
4.000000
41
4.000000
10
0
20
0
30
0
0
VERTEX
8
0
10
6156.944286
20
4039.409914
0
VERTEX
8
0
10
6107.301184
20
3989.765517
0
VERTEX
8
0
10
6057.658082
20
4039.409914
0
SEQEND
0
POLYLINE
8
0
62
176
6
CONTINUOUS
70
0
66
1
40
4.000000
41
4.000000
10
0
20
0
30
0
0
VERTEX
8
0
10
6107.301184
20
3989.765517
0
VERTEX
8
0
10
6107.301184
20
4320.728164
0
SEQEND
0
POLYLINE
8
0
62
176
6
CONTINUOUS
70
0
66
1
40
4.000000
41
4.000000
10
0
20
0
30
0
0
VERTEX
8
0
10
6326.495416
20
4039.409914
0
VERTEX
8
0
10
6276.852314
20
3989.765517
0
VERTEX
8
0
10
6227.209212
20
4039.409914
0
SEQEND
0
POLYLINE
8
0
62
176
6
CONTINUOUS
70
0
66
1
40
4.000000
41
4.000000
10
0
20
0
30
0
0
VERTEX
8
0
10
6276.852314
20
3989.765517
0
VERTEX
8
0
10
6276.852314
20
4320.728164
0
SEQEND
0
POLYLINE
8
0
62
176
6
CONTINUOUS
70
0
66
1
40
4.000000
41
4.000000
10
0
20
0
30
0
0
VERTEX
8
0
10
6496.046545
20
4039.409914
0
VERTEX
8
0
10
6446.403443
20
3989.765517
0
VERTEX
8
0
10
6396.760341
20
4039.409914
0
SEQEND
0
POLYLINE
8
0
62
176
6
CONTINUOUS
70
0
66
1
40
4.000000
41
4.000000
10
0
20
0
30
0
0
VERTEX
8
0
10
6446.403443
20
3989.765517
0
VERTEX
8
0
10
6446.403443
20
4320.728164
0
SEQEND
0
POLYLINE
8
0
62
176
6
CONTINUOUS
70
0
66
1
40
4.000000
41
4.000000
10
0
20
0
30
0
0
VERTEX
8
0
10
6665.597675
20
4039.409914
0
VERTEX
8
0
10
6615.954573
20
3989.765517
0
VERTEX
8
0
10
6566.311471
20
4039.409914
0
SEQEND
0
POLYLINE
8
0
62
176
6
CONTINUOUS
70
0
66
1
40
4.000000
41
4.000000
10
0
20
0
30
0
0
VERTEX
8
0
10
6615.954573
20
3989.765517
0
VERTEX
8
0
10
6615.954573
20
4320.728164
0
SEQEND
0
POLYLINE
8
0
62
176
6
CONTINUOUS
70
0
66
1
40
4.000000
41
4.000000
10
0
20
0
30
0
0
VERTEX
8
0
10
6835.148804
20
4039.409914
0
VERTEX
8
0
10
6785.505703
20
3989.765517
0
VERTEX
8
0
10
6735.862601
20
4039.409914
0
SEQEND
0
POLYLINE
8
0
62
176
6
CONTINUOUS
70
0
66
1
40
4.000000
41
4.000000
10
0
20
0
30
0
0
VERTEX
8
0
10
6785.505703
20
3989.765517
0
VERTEX
8
0
10
6785.505703
20
4320.728164
0
SEQEND
0
POLYLINE
8
0
62
176
6
CONTINUOUS
70
0
66
1
40
4.000000
41
4.000000
10
0
20
0
30
0
0
VERTEX
8
0
10
7004.699934
20
4039.409914
0
VERTEX
8
0
10
6955.056832
20
3989.765517
0
VERTEX
8
0
10
6905.413730
20
4039.409914
0
SEQEND
0
POLYLINE
8
0
62
176
6
CONTINUOUS
70
0
66
1
40
4.000000
41
4.000000
10
0
20
0
30
0
0
VERTEX
8
0
10
6955.056832
20
3989.765517
0
VERTEX
8
0
10
6955.056832
20
4320.728164
0
SEQEND
0
POLYLINE
8
0
62
176
6
CONTINUOUS
70
0
66
1
40
4.000000
41
4.000000
10
0
20
0
30
0
0
VERTEX
8
0
10
7174.251064
20
4039.409914
0
VERTEX
8
0
10
7124.607962
20
3989.765517
0
VERTEX
8
0
10
7074.964860
20
4039.409914
0
SEQEND
0
POLYLINE
8
0
62
176
6
CONTINUOUS
70
0
66
1
40
4.000000
41
4.000000
10
0
20
0
30
0
0
VERTEX
8
0
10
7124.607962
20
3989.765517
0
VERTEX
8
0
10
7124.607962
20
4320.728164
0
SEQEND
0
POLYLINE
8
0
62
176
6
CONTINUOUS
70
0
66
1
40
4.000000
41
4.000000
10
0
20
0
30
0
0
VERTEX
8
0
10
7343.802193
20
4039.409914
0
VERTEX
8
0
10
7294.159091
20
3989.765517
0
VERTEX
8
0
10
7244.515990
20
4039.409914
0
SEQEND
0
POLYLINE
8
0
62
176
6
CONTINUOUS
70
0
66
1
40
4.000000
41
4.000000
10
0
20
0
30
0
0
VERTEX
8
0
10
7294.159091
20
3989.765517
0
VERTEX
8
0
10
7294.159091
20
4320.728164
0
SEQEND
0
POLYLINE
8
0
62
176
6
CONTINUOUS
70
0
66
1
40
4.000000
41
4.000000
10
0
20
0
30
0
0
VERTEX
8
0
10
7513.353323
20
4039.409914
0
VERTEX
8
0
10
7463.710221
20
3989.765517
0
VERTEX
8
0
10
7414.067119
20
4039.409914
0
SEQEND
0
POLYLINE
8
0
62
176
6
CONTINUOUS
70
0
66
1
40
4.000000
41
4.000000
10
0
20
0
30
0
0
VERTEX
8
0
10
7463.710221
20
3989.765517
0
VERTEX
8
0
10
7463.710221
20
4320.728164
0
SEQEND
0
POLYLINE
8
0
62
176
6
CONTINUOUS
70
0
66
1
40
4.000000
41
4.000000
10
0
20
0
30
0
0
VERTEX
8
0
10
7682.904453
20
4039.409914
0
VERTEX
8
0
10
7633.261351
20
3989.765517
0
VERTEX
8
0
10
7583.618249
20
4039.409914
0
SEQEND
0
POLYLINE
8
0
62
176
6
CONTINUOUS
70
0
66
1
40
4.000000
41
4.000000
10
0
20
0
30
0
0
VERTEX
8
0
10
7633.261351
20
3989.765517
0
VERTEX
8
0
10
7633.261351
20
4320.728164
0
SEQEND
0
POLYLINE
8
0
62
176
6
CONTINUOUS
70
0
66
1
40
4.000000
41
4.000000
10
0
20
0
30
0
0
VERTEX
8
0
10
7852.455582
20
4039.409914
0
VERTEX
8
0
10
7802.812480
20
3989.765517
0
VERTEX
8
0
10
7753.169378
20
4039.409914
0
SEQEND
0
POLYLINE
8
0
62
176
6
CONTINUOUS
70
0
66
1
40
4.000000
41
4.000000
10
0
20
0
30
0
0
VERTEX
8
0
10
7802.812480
20
3989.765517
0
VERTEX
8
0
10
7802.812480
20
4320.728164
0
SEQEND
0
POLYLINE
8
0
62
176
6
CONTINUOUS
70
0
66
1
40
4.000000
41
4.000000
10
0
20
0
30
0
0
VERTEX
8
0
10
8022.006712
20
4039.409914
0
VERTEX
8
0
10
7972.363610
20
3989.765517
0
VERTEX
8
0
10
7922.720508
20
4039.409914
0
SEQEND
0
POLYLINE
8
0
62
176
6
CONTINUOUS
70
0
66
1
40
4.000000
41
4.000000
10
0
20
0
30
0
0
VERTEX
8
0
10
7972.363610
20
3989.765517
0
VERTEX
8
0
10
7972.363610
20
4320.728164
0
SEQEND
0
POLYLINE
8
0
62
176
6
CONTINUOUS
70
0
66
1
40
4.000000
41
4.000000
10
0
20
0
30
0
0
VERTEX
8
0
10
4902.587994
20
4467.297337
0
VERTEX
8
0
10
4912.043823
20
4472.025375
0
VERTEX
8
0
10
4926.227566
20
4486.209488
0
VERTEX
8
0
10
4926.227566
20
4386.920694
0
SEQEND
0
POLYLINE
8
0
62
176
6
CONTINUOUS
70
0
66
1
40
4.000000
41
4.000000
10
0
20
0
30
0
0
VERTEX
8
0
10
4968.778797
20
4467.297337
0
VERTEX
8
0
10
4978.234625
20
4472.025375
0
VERTEX
8
0
10
4992.418369
20
4486.209488
0
VERTEX
8
0
10
4992.418369
20
4386.920694
0
SEQEND
0
POLYLINE
8
0
62
176
6
CONTINUOUS
70
0
66
1
40
4.000000
41
4.000000
10
0
20
0
30
0
0
VERTEX
8
0
10
5039.697513
20
4396.376770
0
VERTEX
8
0
10
5034.969599
20
4391.648732
0
VERTEX
8
0
10
5039.697513
20
4386.920694
0
VERTEX
8
0
10
5044.425428
20
4391.648732
0
VERTEX
8
0
10
5039.697513
20
4396.376770
0
SEQEND
0
POLYLINE
8
0
62
176
6
CONTINUOUS
70
0
66
1
40
4.000000
41
4.000000
10
0
20
0
30
0
0
VERTEX
8
0
10
5110.616230
20
4486.209488
0
VERTEX
8
0
10
5063.337086
20
4420.016959
0
VERTEX
8
0
10
5134.255803
20
4420.016959
0
SEQEND
0
POLYLINE
8
0
62
176
6
CONTINUOUS
70
0
66
1
40
4.000000
41
4.000000
10
0
20
0
30
0
0
VERTEX
8
0
10
5110.616230
20
4486.209488
0
VERTEX
8
0
10
5110.616230
20
4386.920694
0
SEQEND
0
POLYLINE
8
0
62
176
6
CONTINUOUS
70
0
66
1
40
4.000000
41
4.000000
10
0
20
0
30
0
0
VERTEX
8
0
10
5172.079118
20
4486.209488
0
VERTEX
8
0
10
5157.895375
20
4481.481450
0
VERTEX
8
0
10
5148.439546
20
4467.297337
0
VERTEX
8
0
10
5143.711632
20
4443.657148
0
VERTEX
8
0
10
5143.711632
20
4429.473034
0
VERTEX
8
0
10
5148.439546
20
4405.832845
0
VERTEX
8
0
10
5157.895375
20
4391.648732
0
VERTEX
8
0
10
5172.079118
20
4386.920694
0
VERTEX
8
0
10
5181.534947
20
4386.920694
0
VERTEX
8
0
10
5195.718691
20
4391.648732
0
VERTEX
8
0
10
5205.174520
20
4405.832845
0
VERTEX
8
0
10
5209.902434
20
4429.473034
0
VERTEX
8
0
10
5209.902434
20
4443.657148
0
VERTEX
8
0
10
5205.174520
20
4467.297337
0
VERTEX
8
0
10
5195.718691
20
4481.481450
0
VERTEX
8
0
10
5181.534947
20
4486.209488
0
VERTEX
8
0
10
5172.079118
20
4486.209488
0
SEQEND
0
POLYLINE
8
0
62
176
6
CONTINUOUS
70
0
66
1
40
4.000000
41
4.000000
10
0
20
0
30
0
0
VERTEX
8
0
10
5280.821151
20
4486.209488
0
VERTEX
8
0
10
5280.821151
20
4386.920694
0
SEQEND
0
POLYLINE
8
0
62
176
6
CONTINUOUS
70
0
66
1
40
4.000000
41
4.000000
10
0
20
0
30
0
0
VERTEX
8
0
10
5328.100296
20
4453.113223
0
VERTEX
8
0
10
5280.821151
20
4405.832845
0
SEQEND
0
POLYLINE
8
0
62
176
6
CONTINUOUS
70
0
66
1
40
4.000000
41
4.000000
10
0
20
0
30
0
0
VERTEX
8
0
10
5299.732809
20
4424.744996
0
VERTEX
8
0
10
5332.828210
20
4386.920694
0
SEQEND
0
POLYLINE
8
0
62
176
6
CONTINUOUS
70
0
66
1
40
4.000000
41
4.000000
10
0
20
0
30
0
0
VERTEX
8
0
10
5342.284039
20
4486.209488
0
VERTEX
8
0
10
5342.284039
20
4386.920694
0
SEQEND
0
POLYLINE
8
0
62
176
6
CONTINUOUS
70
0
66
1
40
4.000000
41
4.000000
10
0
20
0
30
0
0
VERTEX
8
0
10
5342.284039
20
4486.209488
0
VERTEX
8
0
10
5408.474841
20
4386.920694
0
SEQEND
0
POLYLINE
8
0
62
176
6
CONTINUOUS
70
0
66
1
40
4.000000
41
4.000000
10
0
20
0
30
0
0
VERTEX
8
0
10
5408.474841
20
4486.209488
0
VERTEX
8
0
10
5408.474841
20
4386.920694
0
SEQEND
0
POLYLINE
8
0
62
176
6
CONTINUOUS
70
0
66
1
40
4.000000
41
4.000000
10
0
20
0
30
0
0
VERTEX
8
0
10
5427.386499
20
4372.736580
0
VERTEX
8
0
10
5493.577302
20
4486.209488
0
SEQEND
0
POLYLINE
8
0
62
176
6
CONTINUOUS
70
0
66
1
40
4.000000
41
4.000000
10
0
20
0
30
0
0
VERTEX
8
0
10
5493.577302
20
4453.113223
0
VERTEX
8
0
10
5493.577302
20
4386.920694
0
SEQEND
0
POLYLINE
8
0
62
176
6
CONTINUOUS
70
0
66
1
40
4.000000
41
4.000000
10
0
20
0
30
0
0
VERTEX
8
0
10
5493.577302
20
4434.201072
0
VERTEX
8
0
10
5507.761045
20
4448.385186
0
VERTEX
8
0
10
5517.216874
20
4453.113223
0
VERTEX
8
0
10
5531.400617
20
4453.113223
0
VERTEX
8
0
10
5540.856446
20
4448.385186
0
VERTEX
8
0
10
5545.584361
20
4434.201072
0
VERTEX
8
0
10
5545.584361
20
4386.920694
0
SEQEND
0
POLYLINE
8
0
62
176
6
CONTINUOUS
70
0
66
1
40
4.000000
41
4.000000
10
0
20
0
30
0
0
VERTEX
8
0
10
5545.584361
20
4434.201072
0
VERTEX
8
0
10
5559.768104
20
4448.385186
0
VERTEX
8
0
10
5569.223933
20
4453.113223
0
VERTEX
8
0
10
5583.407677
20
4453.113223
0
VERTEX
8
0
10
5592.863506
20
4448.385186
0
VERTEX
8
0
10
5597.591420
20
4434.201072
0
VERTEX
8
0
10
5597.591420
20
4386.920694
0
SEQEND
0
POLYLINE
8
0
62
176
6
CONTINUOUS
70
0
66
1
40
4.000000
41
4.000000
10
0
20
0
30
0
0
VERTEX
8
0
10
2546.727462
20
4320.728164
0
VERTEX
8
0
10
7972.363610
20
4320.728164
0
SEQEND
0
POLYLINE
8
0
62
56
6
CONTINUOUS
70
0
66
1
40
4.000000
41
4.000000
10
0
20
0
30
0
0
VERTEX
8
0
10
2546.727462
20
3879.444635
0
VERTEX
8
0
10
7972.363610
20
3879.444635
0
SEQEND
0
POLYLINE
8
0
62
96
6
CONTINUOUS
70
0
66
1
40
4.000000
41
4.000000
10
0
20
0
30
0
0
VERTEX
8
0
10
13260.103632
20
3640.593029
0
VERTEX
8
0
10
13397.999758
20
3879.444635
0
VERTEX
8
0
10
13535.895884
20
3640.593029
0
SEQEND
0
POLYLINE
8
0
62
96
6
CONTINUOUS
70
0
66
1
40
4.000000
41
4.000000
10
0
20
0
30
0
0
VERTEX
8
0
10
13191.157637
20
3640.593029
0
VERTEX
8
0
10
13604.841879
20
3640.593029
0
SEQEND
0
POLYLINE
8
0
62
96
6
CONTINUOUS
70
0
66
1
40
4.000000
41
4.000000
10
0
20
0
30
0
0
VERTEX
8
0
10
13273.896140
20
3640.593029
0
VERTEX
8
0
10
13191.157637
20
3557.852368
0
SEQEND
0
POLYLINE
8
0
62
96
6
CONTINUOUS
70
0
66
1
40
4.000000
41
4.000000
10
0
20
0
30
0
0
VERTEX
8
0
10
13356.634643
20
3640.593029
0
VERTEX
8
0
10
13273.896140
20
3557.852368
0
SEQEND
0
POLYLINE
8
0
62
96
6
CONTINUOUS
70
0
66
1
40
4.000000
41
4.000000
10
0
20
0
30
0
0
VERTEX
8
0
10
13439.373146
20
3640.593029
0
VERTEX
8
0
10
13356.634643
20
3557.852368
0
SEQEND
0
POLYLINE
8
0
62
96
6
CONTINUOUS
70
0
66
1
40
4.000000
41
4.000000
10
0
20
0
30
0
0
VERTEX
8
0
10
13522.111650
20
3640.593029
0
VERTEX
8
0
10
13439.373146
20
3557.852368
0
SEQEND
0
POLYLINE
8
0
62
96
6
CONTINUOUS
70
0
66
1
40
4.000000
41
4.000000
10
0
20
0
30
0
0
VERTEX
8
0
10
13604.850153
20
3640.593029
0
VERTEX
8
0
10
13522.111650
20
3557.852368
0
SEQEND
0
POLYLINE
8
0
62
96
6
CONTINUOUS
70
0
66
1
40
4.000000
41
4.000000
10
0
20
0
30
0
0
VERTEX
8
0
10
7834.467484
20
3640.593029
0
VERTEX
8
0
10
7972.363610
20
3879.444635
0
VERTEX
8
0
10
8110.259736
20
3640.593029
0
SEQEND
0
POLYLINE
8
0
62
96
6
CONTINUOUS
70
0
66
1
40
4.000000
41
4.000000
10
0
20
0
30
0
0
VERTEX
8
0
10
7765.521489
20
3640.593029
0
VERTEX
8
0
10
8179.205731
20
3640.593029
0
SEQEND
0
POLYLINE
8
0
62
96
6
CONTINUOUS
70
0
66
1
40
4.000000
41
4.000000
10
0
20
0
30
0
0
VERTEX
8
0
10
7848.259992
20
3640.593029
0
VERTEX
8
0
10
7765.521489
20
3557.852368
0
SEQEND
0
POLYLINE
8
0
62
96
6
CONTINUOUS
70
0
66
1
40
4.000000
41
4.000000
10
0
20
0
30
0
0
VERTEX
8
0
10
7930.998495
20
3640.593029
0
VERTEX
8
0
10
7848.259992
20
3557.852368
0
SEQEND
0
POLYLINE
8
0
62
96
6
CONTINUOUS
70
0
66
1
40
4.000000
41
4.000000
10
0
20
0
30
0
0
VERTEX
8
0
10
8013.736998
20
3640.593029
0
VERTEX
8
0
10
7930.998495
20
3557.852368
0
SEQEND
0
POLYLINE
8
0
62
96
6
CONTINUOUS
70
0
66
1
40
4.000000
41
4.000000
10
0
20
0
30
0
0
VERTEX
8
0
10
8096.475502
20
3640.593029
0
VERTEX
8
0
10
8013.736998
20
3557.852368
0
SEQEND
0
POLYLINE
8
0
62
96
6
CONTINUOUS
70
0
66
1
40
4.000000
41
4.000000
10
0
20
0
30
0
0
VERTEX
8
0
10
8179.214005
20
3640.593029
0
VERTEX
8
0
10
8096.475502
20
3557.852368
0
SEQEND
0
POLYLINE
8
0
62
96
6
CONTINUOUS
70
0
66
1
40
4.000000
41
4.000000
10
0
20
0
30
0
0
VERTEX
8
0
10
2408.831336
20
3640.593029
0
VERTEX
8
0
10
2546.727462
20
3879.444635
0
VERTEX
8
0
10
2684.623588
20
3640.593029
0
SEQEND
0
POLYLINE
8
0
62
96
6
CONTINUOUS
70
0
66
1
40
4.000000
41
4.000000
10
0
20
0
30
0
0
VERTEX
8
0
10
2339.885341
20
3640.593029
0
VERTEX
8
0
10
2753.569583
20
3640.593029
0
SEQEND
0
POLYLINE
8
0
62
96
6
CONTINUOUS
70
0
66
1
40
4.000000
41
4.000000
10
0
20
0
30
0
0
VERTEX
8
0
10
2422.623844
20
3640.593029
0
VERTEX
8
0
10
2339.885341
20
3557.852368
0
SEQEND
0
POLYLINE
8
0
62
96
6
CONTINUOUS
70
0
66
1
40
4.000000
41
4.000000
10
0
20
0
30
0
0
VERTEX
8
0
10
2505.362347
20
3640.593029
0
VERTEX
8
0
10
2422.623844
20
3557.852368
0
SEQEND
0
POLYLINE
8
0
62
96
6
CONTINUOUS
70
0
66
1
40
4.000000
41
4.000000
10
0
20
0
30
0
0
VERTEX
8
0
10
2588.100850
20
3640.593029
0
VERTEX
8
0
10
2505.362347
20
3557.852368
0
SEQEND
0
POLYLINE
8
0
62
96
6
CONTINUOUS
70
0
66
1
40
4.000000
41
4.000000
10
0
20
0
30
0
0
VERTEX
8
0
10
2670.839353
20
3640.593029
0
VERTEX
8
0
10
2588.100850
20
3557.852368
0
SEQEND
0
POLYLINE
8
0
62
96
6
CONTINUOUS
70
0
66
1
40
4.000000
41
4.000000
10
0
20
0
30
0
0
VERTEX
8
0
10
2753.577857
20
3640.593029
0
VERTEX
8
0
10
2670.839353
20
3557.852368
0
SEQEND
0
ENDSEC
0
EOF
