<?xml version="1.0" encoding="utf-8"?>
<!-- Generator: Adobe Illustrator 28.4.1, SVG Export Plug-In . SVG Version: 6.00 Build 0)  -->
<svg version="1.1"
	 id="svg1" xmlns:inkscape="http://www.inkscape.org/namespaces/inkscape" xmlns:svg="http://www.w3.org/2000/svg" xmlns:sodipodi="http://sodipodi.sourceforge.net/DTD/sodipodi-0.dtd" inkscape:export-xdpi="96" inkscape:export-ydpi="96" inkscape:version="1.3.2 (091e20e, 2023-11-25, custom)"
	 xmlns="http://www.w3.org/2000/svg" xmlns:xlink="http://www.w3.org/1999/xlink" x="0px" y="0px" viewBox="0 0 802.2 140.4"
	 style="enable-background:new 0 0 802.2 140.4;" xml:space="preserve">
<style type="text/css">
	.st0{fill:none;stroke:#000000;stroke-width:2;stroke-miterlimit:10;}
	.st1{opacity:0.5;fill:#00BAEB;enable-background:new    ;}
	.st2{opacity:0.56;fill:#00AC5F;enable-background:new    ;}
	.st3{opacity:0.56;fill:#F54782;enable-background:new    ;}
	.st4{font-family:'TeXGyreBonumMath-Regular';}
	.st5{font-size:28px;}
	.st6{letter-spacing:2;}
</style>
<line class="st0" x1="579.1" y1="-184.5" x2="579.1" y2="-49.4"/>
<line class="st0" x1="410.5" y1="-184.5" x2="410.5" y2="-49.4"/>
<text transform="matrix(1 0 0 1 358.5449 -118.3588)" class="st5" style="font-family:'CambriaMath';">A=</text>
<text transform="matrix(1 0 0 1 419.4057 -156.7744)" class="st5 st6" style="font-family:'Dutch801BT-ExtraBold';">1</text>
<text transform="matrix(1 0 0 1 419.4057 -123.1744)" class="st5 st6" style="font-family:'Dutch801BT-ExtraBold';">1</text>
<text transform="matrix(1 0 0 1 419.4057 -89.5744)" class="st5 st6" style="font-family:'Dutch801BT-ExtraBold';">1</text>
<text transform="matrix(1 0 0 1 419.4057 -55.9744)" class="st5 st6" style="font-family:'Dutch801BT-ExtraBold';">2</text>
<text transform="matrix(1 0 0 1 463.6538 -156.7737)" class="st5 st6" style="font-family:'Dutch801BT-ExtraBold';">0</text>
<text transform="matrix(1 0 0 1 463.6538 -123.1737)" class="st5 st6" style="font-family:'Dutch801BT-ExtraBold';">3</text>
<text transform="matrix(1 0 0 1 450.8538 -89.5737)" class="st5 st6" style="font-family:'Dutch801BT-ExtraBold';">-3</text>
<text transform="matrix(1 0 0 1 463.6538 -55.9737)" class="st5 st6" style="font-family:'Dutch801BT-ExtraBold';">3</text>
<text transform="matrix(1 0 0 1 507.9024 -156.7737)" class="st5 st6" style="font-family:'Dutch801BT-ExtraBold';">1</text>
<text transform="matrix(1 0 0 1 507.9024 -123.1737)" class="st5 st6" style="font-family:'Dutch801BT-ExtraBold';">0</text>
<text transform="matrix(1 0 0 1 507.9024 -89.5737)" class="st5 st6" style="font-family:'Dutch801BT-ExtraBold';">2</text>
<text transform="matrix(1 0 0 1 507.9024 -55.9737)" class="st5 st6" style="font-family:'Dutch801BT-ExtraBold';">1</text>
<text transform="matrix(1 0 0 1 552.1509 -156.7734)" class="st5 st6" style="font-family:'Dutch801BT-ExtraBold';">2</text>
<text transform="matrix(1 0 0 1 552.1509 -123.1734)" class="st5 st6" style="font-family:'Dutch801BT-ExtraBold';">0</text>
<text transform="matrix(1 0 0 1 552.1509 -89.5734)" class="st5 st6" style="font-family:'Dutch801BT-ExtraBold';">4</text>
<text transform="matrix(1 0 0 1 552.1509 -55.9734)" class="st5 st6" style="font-family:'Dutch801BT-ExtraBold';">2</text>
<path class="st1" d="M474.4-119.7h-48c-3.6,0-6.5-2.9-6.5-6.5v-48c0-3.6,2.9-6.5,6.5-6.5h48c3.6,0,6.5,2.9,6.5,6.5v48
	C480.9-122.6,478-119.7,474.4-119.7z"/>
<path class="st2" d="M474.4-84.7h-48c-3.6,0-6.5-2.9-6.5-6.5v-16.2c0-3.6,2.9-6.5,6.5-6.5h48c3.6,0,6.5,2.9,6.5,6.5v16.2
	C480.9-87.6,478-84.7,474.4-84.7z"/>
<path class="st3" d="M525.5-84.7h-20.4c-3.6,0-6.5-2.9-6.5-6.5v-16.2c0-3.6,2.9-6.5,6.5-6.5h20.4c3.6,0,6.5,2.9,6.5,6.5v16.2
	C532-87.6,529.1-84.7,525.5-84.7z"/>
<path class="st2" d="M525.5-119.7h-20.4c-3.6,0-6.5-2.9-6.5-6.5v-48c0-3.6,2.9-6.5,6.5-6.5h20.4c3.6,0,6.5,2.9,6.5,6.5v48
	C532-122.6,529.1-119.7,525.5-119.7z"/>
<line class="st0" x1="395.9" y1="2.6" x2="395.9" y2="137.7"/>
<line class="st0" x1="227.3" y1="2.6" x2="227.3" y2="137.7"/>
<text transform="matrix(1 0 0 1 175.3746 68.7618)" class="st4 st5">A=</text>
<text transform="matrix(1 0 0 1 236.2356 30.3462)" class="st4 st5 st6">1</text>
<text transform="matrix(1 0 0 1 236.2356 63.9462)" class="st4 st5 st6">1</text>
<text transform="matrix(1 0 0 1 236.2356 97.5462)" class="st4 st5 st6">1</text>
<text transform="matrix(1 0 0 1 236.2356 131.1462)" class="st4 st5 st6">2</text>
<text transform="matrix(1 0 0 1 280.4836 30.3469)" class="st4 st5 st6">0</text>
<text transform="matrix(1 0 0 1 280.4836 63.9469)" class="st4 st5 st6">3</text>
<text transform="matrix(1 0 0 1 267.6837 97.5469)" class="st4 st5 st6">-3</text>
<text transform="matrix(1 0 0 1 280.4836 131.1469)" class="st4 st5 st6">3</text>
<g>
	<text transform="matrix(1 0 0 1 324.7321 30.3468)" class="st4 st5 st6">1</text>
	<text transform="matrix(1 0 0 1 324.7321 63.9468)" class="st4 st5 st6">0</text>
	<text transform="matrix(1 0 0 1 324.7321 97.5468)" class="st4 st5 st6">2</text>
	<text transform="matrix(1 0 0 1 324.7321 131.1468)" class="st4 st5 st6">1</text>
</g>
<text transform="matrix(1 0 0 1 368.9807 30.3472)" class="st4 st5 st6">2</text>
<text transform="matrix(1 0 0 1 368.9807 63.9472)" class="st4 st5 st6">0</text>
<text transform="matrix(1 0 0 1 368.9807 97.5472)" class="st4 st5 st6">4</text>
<text transform="matrix(1 0 0 1 368.9807 131.1472)" class="st4 st5 st6">2</text>
<path class="st1" d="M292.7,67.4h-48c-3.6,0-6.5-2.9-6.5-6.5v-48c0-3.6,2.9-6.5,6.5-6.5h48c3.6,0,6.5,2.9,6.5,6.5v48
	C299.2,64.5,296.3,67.4,292.7,67.4z"/>
<path class="st2" d="M291.2,136.9h-48c-3.6,0-6.5-2.9-6.5-6.5v-16.2c0-3.6,2.9-6.5,6.5-6.5h48c3.6,0,6.5,2.9,6.5,6.5v16.2
	C297.7,134,294.8,136.9,291.2,136.9z"/>
<path class="st3" d="M344.3,136.9h-20.4c-3.6,0-6.5-2.9-6.5-6.5v-16.2c0-3.6,2.9-6.5,6.5-6.5h20.4c3.6,0,6.5,2.9,6.5,6.5v16.2
	C350.8,134,347.9,136.9,344.3,136.9z"/>
<path class="st2" d="M344.3,67.4h-20.4c-3.6,0-6.5-2.9-6.5-6.5v-48c0-3.6,2.9-6.5,6.5-6.5h20.4c3.6,0,6.5,2.9,6.5,6.5v48
	C350.8,64.5,347.9,67.4,344.3,67.4z"/>
<text transform="matrix(1 0 0 1 407.033 68.7616)" class="st4 st5">=</text>
<text transform="matrix(1 0 0 1 574.957 68.7616)" class="st4 st5">=</text>
<text transform="matrix(1 0 0 1 610.5013 68.7616)" class="st4 st5">0</text>
<line class="st0" x1="441.7" y1="2.6" x2="441.7" y2="137.7"/>
<line class="st0" x1="566.1" y1="2.6" x2="566.1" y2="137.7"/>
<text transform="matrix(1 0 0 1 452.2581 45.044)" class="st4 st5 st6">1</text>
<text transform="matrix(1 0 0 1 452.2581 78.644)" class="st4 st5 st6">1</text>
<text transform="matrix(1 0 0 1 452.2581 112.244)" class="st4 st5 st6">2</text>
<text transform="matrix(1 0 0 1 496.5062 45.0442)" class="st4 st5 st6">0</text>
<text transform="matrix(1 0 0 1 496.5062 78.6442)" class="st4 st5 st6">3</text>
<text transform="matrix(1 0 0 1 497.4836 112.244)" class="st4 st5 st6">3</text>
<text transform="matrix(1 0 0 1 540.7548 45.0441)" class="st4 st5 st6">1</text>
<text transform="matrix(1 0 0 1 540.7548 78.6441)" class="st4 st5 st6">0</text>
<text transform="matrix(1 0 0 1 540.7548 112.2441)" class="st4 st5 st6">1</text>
</svg>
