<?xml version="1.0" encoding="UTF-8" standalone="no"?>
<!-- Created with Inkscape (http://www.inkscape.org/) -->

<svg
   version="1.1"
   id="svg1"
   width="1158.4435"
   height="611.24677"
   viewBox="0 0 1158.4435 611.24677"
   xmlns="http://www.w3.org/2000/svg"
   xmlns:svg="http://www.w3.org/2000/svg">
  <defs
     id="defs1" />
  <g
     id="g1"
     transform="translate(-27.288741,-32.178512)">
    <path
       style="fill:#000000"
       d="m 166.13068,642.0467 c -6.75333,-3.52798 -10.35161,-10.6511 -10.42238,-20.63205 -0.0481,-6.78794 0.97101,-10.7054 4.04685,-15.55549 2.10313,-3.31629 6.00082,-6.19428 8.65694,-6.39215 2.04285,-0.15218 2.92206,1.26218 1.16988,1.88194 -4.65547,1.6467 -8.0809,6.98522 -9.22869,14.38292 -1.66054,10.7024 1.88975,21.59406 7.98109,24.48459 2.42308,1.14982 2.62734,1.4741 1.77481,2.81759 -0.40132,0.63245 -1.30908,0.40717 -3.9785,-0.98735 z m 34.29589,0.62361 c -0.22609,-0.58919 -0.12526,-1.16652 0.22406,-1.28296 2.20625,-0.73541 6.03369,-4.40119 7.39011,-7.07797 4.2796,-8.44536 3.47779,-22.91039 -1.61221,-29.08545 -0.99846,-1.2113 -2.83338,-2.68544 -4.07758,-3.27586 -2.45566,-1.16528 -2.86685,-2.10157 -1.20329,-2.73994 1.54884,-0.59435 6.37772,2.19871 8.90406,5.15018 3.71335,4.33822 4.98816,8.61547 4.98816,16.73634 0,5.72782 -0.26107,7.70555 -1.40068,10.61078 -2.2306,5.68649 -5.88841,9.40776 -11.25166,11.44686 -1.2174,0.46286 -1.63807,0.35946 -1.96097,-0.48198 z m 605.06414,-0.62361 c -6.75333,-3.52798 -10.35161,-10.6511 -10.42238,-20.63205 -0.0481,-6.78794 0.97101,-10.7054 4.04685,-15.55549 2.10313,-3.31629 6.00082,-6.19428 8.65694,-6.39215 2.04285,-0.15218 2.92206,1.26218 1.16988,1.88194 -4.65547,1.6467 -8.0809,6.98522 -9.22869,14.38292 -1.66054,10.7024 1.88975,21.59406 7.98109,24.48459 2.42308,1.14982 2.62734,1.4741 1.77481,2.81759 -0.40132,0.63245 -1.30908,0.40717 -3.9785,-0.98735 z m 33.01589,0.62361 c -0.22609,-0.58919 -0.12526,-1.16652 0.22406,-1.28296 2.20625,-0.73541 6.03369,-4.40119 7.39011,-7.07797 4.2796,-8.44536 3.4778,-22.91039 -1.61221,-29.08545 -0.99846,-1.2113 -2.83337,-2.68544 -4.07758,-3.27586 -2.45566,-1.16528 -2.86685,-2.10157 -1.20329,-2.73994 1.54884,-0.59435 6.37772,2.19871 8.90406,5.15018 3.71335,4.33822 4.98816,8.61547 4.98816,16.73634 0,5.72782 -0.26107,7.70555 -1.40068,10.61078 -2.2306,5.68649 -5.88841,9.40776 -11.25166,11.44686 -1.2174,0.46286 -1.63807,0.35946 -1.96097,-0.48198 z M 177.8615,633.0773 c -2.58603,-0.41372 -4.01275,-3.07799 -4.01275,-7.49346 0,-9.17343 5.04127,-15.68919 12.1388,-15.68919 1.46594,0 3.25333,0.31468 3.97198,0.69929 0.94495,0.50572 1.50021,0.50572 2.00593,0 1.00478,-1.00478 3.00329,-0.86195 3.00329,0.21463 0,0.50267 -0.87634,4.70629 -1.94742,9.34139 -1.49863,6.48537 -1.77702,8.63278 -1.20801,9.31839 0.6226,0.75018 1.03915,0.6775 2.63673,-0.46008 1.47517,-1.05041 2.06434,-1.17939 2.64801,-0.57968 0.57832,0.59423 0.25927,1.18561 -1.38956,2.5756 -1.17714,0.99235 -2.90514,1.95558 -3.84,2.14052 -2.35563,0.466 -4.57975,-1.10281 -4.57975,-3.23037 v -1.71079 l -2.1215,2.05624 c -2.23209,2.16343 -4.91844,3.19943 -7.30575,2.81751 z m 7.10264,-5.97727 c 4.03949,-4.71923 5.73016,-13.16531 2.9348,-14.66134 -2.04535,-1.09464 -5.72431,1.02024 -7.53604,4.33214 -1.57921,2.88686 -2.4751,8.5598 -1.78562,11.30691 0.68243,2.71901 3.60564,2.27152 6.38686,-0.97771 z m 628.37042,5.91235 c -0.56874,-0.3515 0.0564,-4.05317 2.43449,-14.4154 3.6274,-15.806 3.75635,-16.99661 1.89356,-17.48374 -2.45262,-0.64137 -0.83907,-1.77826 2.79673,-1.97053 4.33798,-0.22941 4.27543,-0.4819 2.02944,8.19194 -0.86589,3.344 -1.58012,6.32951 -1.58717,6.63447 -0.007,0.30496 1.15735,-0.50271 2.58756,-1.79483 2.23776,-2.02168 2.96515,-2.32213 5.21602,-2.15447 3.87502,0.28863 5.31744,2.51874 5.25762,8.12876 -0.0537,5.03417 -1.64151,8.89914 -4.9889,12.14356 -2.60751,2.52729 -5.75008,3.35235 -9.62275,2.52639 -1.86752,-0.3983 -3.27938,-0.38856 -4.0577,0.028 -0.65651,0.35135 -1.53801,0.426 -1.9589,0.16587 z m 11.54673,-3.26033 c 2.08541,-1.64039 3.59482,-4.88819 4.40234,-9.47256 1.9227,-10.91536 -6.58398,-8.88257 -9.92336,2.37132 -1.29434,4.36197 -1.30037,6.08353 -0.0258,7.35812 1.36796,1.36796 3.61335,1.26398 5.5468,-0.25688 z m 1.76749,-60.8174 c 0,-1.06279 0.42667,-1.28 2.51429,-1.28 4.25275,0 4.52571,-0.69756 4.52571,-11.56572 0,-9.03392 -0.0677,-9.55428 -1.24342,-9.55428 -0.68388,0 -2.24861,0.59307 -3.47717,1.31794 -2.2255,1.31308 -2.23628,1.31324 -2.91592,0.0433 -0.61955,-1.15763 -0.12043,-1.57834 5.43806,-4.58373 3.36612,-1.82001 6.25365,-3.17567 6.41673,-3.01259 0.16308,0.16308 0.36068,6.10739 0.43912,13.20956 0.15822,14.32715 0.0921,14.11785 4.4626,14.1357 1.97007,0.008 2.4,0.23909 2.4,1.2898 0,1.22115 -0.42667,1.28 -9.28,1.28 -8.85333,0 -9.28,-0.0589 -9.28,-1.28 z m -23.68,-11.89071 c 0,-0.20389 1.16704,-5.43027 2.59342,-11.61419 1.42638,-6.18392 2.50638,-11.99064 2.4,-12.90382 -0.27503,-2.36087 -1.81808,-2.35532 -4.24277,0.0153 -1.92666,1.88367 -2.17452,1.96387 -3.12662,1.01177 -1.24894,-1.24893 -0.62133,-2.21662 3.27199,-5.04502 4.62087,-3.35694 9.34398,-1.80824 9.34398,3.06388 v 2.31717 l 2.61211,-2.6916 c 3.12261,-3.21764 5.93309,-4.50274 9.84733,-4.50274 3.21707,0 3.17831,-0.0781 2.20753,4.44849 -0.62318,2.90576 -0.86594,3.23151 -2.40824,3.23151 -1.16488,0 -1.91791,-0.46203 -2.34697,-1.44 -1.08595,-2.47526 -3.02762,-2.10838 -6.01946,1.13738 -3.40662,3.69575 -4.75298,6.71405 -6.42306,14.39937 -0.72467,3.33478 -1.4652,6.71125 -1.64561,7.50325 -0.28025,1.23029 -0.74566,1.44 -3.19582,1.44 -1.5773,0 -2.86781,-0.16682 -2.86781,-0.37071 z M 193.68875,541.41465 c 0,-1.06279 0.42667,-1.28 2.51429,-1.28 4.25275,0 4.52571,-0.69756 4.52571,-11.56572 0,-9.03392 -0.0677,-9.55428 -1.24342,-9.55428 -0.68388,0 -2.24861,0.59307 -3.47717,1.31794 -2.2255,1.31308 -2.23628,1.31324 -2.91592,0.0433 -0.61955,-1.15763 -0.12043,-1.57834 5.43806,-4.58373 3.36612,-1.82001 6.25365,-3.17567 6.41673,-3.01259 0.16308,0.16308 0.36068,6.10739 0.43912,13.20956 0.15822,14.32715 0.0921,14.11785 4.4626,14.1357 1.97007,0.008 2.4,0.23909 2.4,1.2898 0,1.22115 -0.42667,1.28 -9.28,1.28 -8.85333,0 -9.28,-0.0589 -9.28,-1.28 z m -23.68,-11.89071 c 0,-0.20389 1.16704,-5.43027 2.59342,-11.61419 1.42638,-6.18391 2.50638,-11.99063 2.4,-12.90382 -0.27503,-2.36087 -1.81808,-2.35532 -4.24277,0.0153 -1.92666,1.88367 -2.17452,1.96387 -3.12662,1.01177 -1.24894,-1.24893 -0.62133,-2.21662 3.27199,-5.04502 4.62087,-3.35694 9.34398,-1.80824 9.34398,3.06388 v 2.31717 l 2.61211,-2.6916 c 3.12261,-3.21768 5.93309,-4.50278 9.84733,-4.50278 3.21707,0 3.17831,-0.0781 2.20753,4.44849 -0.62318,2.90576 -0.86594,3.23151 -2.40824,3.23151 -1.16488,0 -1.91791,-0.46203 -2.34697,-1.44 -1.08595,-2.47526 -3.02762,-2.10838 -6.01946,1.13738 -3.40662,3.69575 -4.75298,6.71405 -6.42306,14.39937 -0.72467,3.33478 -1.4652,6.71125 -1.64561,7.50325 -0.28025,1.23029 -0.74566,1.44 -3.19582,1.44 -1.5773,0 -2.86781,-0.16682 -2.86781,-0.37071 z m 766.40641,-9.06929 c 0.23016,-2.024 0.55024,-4.15863 0.71128,-4.74361 0.20857,-0.75761 -0.2208,-1.16775 -1.49243,-1.4256 -1.48257,-0.30062 -246.68344,-33.03079 -247.45301,-33.03079 -0.13728,0 -0.19546,-1.28496 -0.12929,-2.85547 l 0.12033,-2.85546 228.43838,-158.16479 C 1042.2516,230.38829 1145.2658,159.0099 1145.531,158.76028 c 0.2651,-0.24962 -1.5648,-3.40857 -4.0666,-7.01989 -2.5017,-3.61131 -4.4467,-6.65649 -4.3221,-6.76705 0.1246,-0.11056 10.2341,-1.62518 22.4654,-3.36582 l 22.2389,-3.16479 -0.9736,1.48596 c -1.261,1.92447 -0.5409,1.87982 2.449,-0.15185 l 2.4102,-1.6378 -0.3114,1.4778 c -0.1713,0.8128 -0.6573,6.94981 -1.0799,13.63781 -0.4226,6.688 -0.8365,12.2483 -0.9197,12.35622 -0.083,0.10792 -2.0503,-0.96601 -4.3711,-2.38651 l -4.2197,-2.58273 -15.93,26.70651 c -8.7614,14.68858 -56.6042,94.96251 -106.3173,178.38651 -49.7131,83.424 -90.47345,151.77195 -90.57856,151.88434 -0.10511,0.11239 -0.72315,-0.1243 -1.37343,-0.52598 -0.96171,-0.59405 -3.3199,-0.005 -12.63832,3.15566 -6.30079,2.13729 -11.57752,3.88598 -11.72605,3.88598 -0.14853,0 -0.0817,-1.656 0.14842,-3.68 z m 123.01574,-174.9616 99.982,-167.75913 -4.302,-6.31075 c -2.6186,-3.84124 -4.6279,-6.19198 -5.1346,-6.00722 -0.458,0.16695 -102.2381,70.50275 -226.17808,156.30178 -218.96875,151.58393 -225.28375,156.01182 -223.16741,156.47823 1.19788,0.26399 54.30597,7.40257 118.01797,15.8635 63.712,8.46094 116.60721,15.53858 117.54491,15.7281 1.67249,0.33804 1.71328,0.2665 2.14457,-3.76086 0.24181,-2.258 0.65302,-4.45067 0.91379,-4.87261 0.32611,-0.52765 3.43868,1.24143 9.97015,5.6667 5.22282,3.53862 9.66041,6.4333 9.86131,6.43262 0.2009,-6.8e-4 45.35729,-75.49284 100.34739,-167.76036 z m -238.60992,175.6799 c -0.75208,-0.9062 -0.57811,-1.28081 1.33746,-2.88 l 2.20199,-1.8383 h -9.09583 -9.09582 v -1.92 -1.92 h 9.09582 9.09583 l -2.21583,-1.87156 c -2.08509,-1.76114 -2.15207,-1.93682 -1.13537,-2.97759 1.02076,-1.04494 1.29475,-0.92038 4.96,2.25488 2.13375,1.8485 3.87955,3.87992 3.87955,4.51427 0,0.96379 -6.8636,7.68 -7.84854,7.68 -0.1731,0 -0.70377,-0.46877 -1.17926,-1.0417 z m -154.49221,-15.5637 c -4.8141,-1.13965 -6.72,-4.09356 -6.72,-10.41517 0,-9.43374 4.86994,-18.61332 11.30005,-21.29999 2.91755,-1.21903 7.29812,-1.22808 10.18693,-0.0211 8.30825,3.47141 4.83513,24.38243 -4.97999,29.98366 -3.0693,1.75157 -6.89631,2.43687 -9.78699,1.75256 z m 7.35362,-3.87006 c 5.4198,-3.85924 9.20804,-20.12383 5.71993,-24.55823 -1.90746,-2.42495 -4.97372,-2.29678 -7.96898,0.33309 -3.66124,3.21461 -6.25266,9.27853 -7.07738,16.56108 -0.89534,7.90605 3.69226,11.67594 9.32643,7.66406 z m -369.58726,-8.80454 c 0.23016,-2.024 0.55829,-4.184 0.72918,-4.8 0.17088,-0.616 0.21929,-1.13385 0.10757,-1.15078 -0.11172,-0.0169 -56.68692,-7.57801 -125.72267,-16.8024 l -125.519553,-16.77161 -0.343959,4.48239 c -0.918078,11.9642 -7.582932,20.24907 -16.356066,20.33171 -6.804471,0.0641 -9.70089,-3.08581 -9.70089,-10.54988 0,-9.43374 4.869942,-18.61332 11.300051,-21.29999 4.396581,-1.83701 11.359149,-0.74986 12.906588,2.01526 0.361547,0.64605 0.795043,1.03303 0.963324,0.85997 0.168282,-0.17307 47.845105,-80.08398 105.948505,-177.5798 l 105.64254,-177.265133 -3.3405,-2.04983 c -1.83727,-1.12741 -3.75031,-2.30349 -4.25119,-2.61352 -0.66832,-0.41366 2.26648,-2.59739 11.02708,-8.20504 7.96804,-5.10032 11.94207,-8.01379 11.95069,-8.76135 0.007,-0.616 0.16184,-1.12 0.34384,-1.12 0.78951,0 245.91781,32.702883 247.45401,33.013153 1.67245,0.3378 1.71328,0.26619 2.14456,-3.7611 0.24181,-2.257993 0.65198,-4.448993 0.91148,-4.868883 0.32231,-0.52149 3.96447,1.59737 11.4932,6.686303 10.27851,6.94758 10.99971,7.56432 10.70004,9.15012 -0.17673,0.93523 -0.66988,7.17241 -1.0959,13.86041 -0.42601,6.688 -0.84271,12.2483 -0.92598,12.35622 -0.0833,0.10792 -2.05027,-0.96601 -4.37109,-2.38651 l -4.21968,-2.58273 -15.92996,26.70651 c -8.76147,14.68858 -56.60428,94.96251 -106.31734,178.38651 -49.71306,83.424 -90.49447,151.79304 -90.62535,151.9312 -0.13089,0.13816 -0.64111,-0.0834 -1.13383,-0.4923 -0.70083,-0.58164 -3.37239,0.0952 -12.27146,3.1088 -6.25658,2.11876 -11.49713,3.8523 -11.64566,3.8523 -0.14853,0 -0.0817,-1.656 0.14842,-3.68 z m 122.71591,-175.52 c 54.00881,-90.64 98.5601,-165.4838 99.00287,-166.31956 0.73705,-1.39121 0.46169,-2.02594 -3.26005,-7.51476 -2.47794,-3.65447 -4.39017,-5.87527 -4.89769,-5.68802 -0.45793,0.16895 -102.23802,70.50639 -226.17798,156.30542 C 72.50944,445.78167 66.194441,450.20955 68.310777,450.67596 c 1.197882,0.26399 54.305973,7.40257 118.017973,15.8635 63.712,8.46094 116.60721,15.53858 117.54491,15.7281 1.67249,0.33804 1.71328,0.2665 2.14457,-3.76086 0.24181,-2.258 0.65302,-4.45067 0.91379,-4.87261 0.3261,-0.52765 3.44151,1.24335 9.97888,5.67261 l 9.50475,6.43977 1.09878,-1.76591 c 0.60433,-0.97125 45.28781,-75.92591 99.29661,-166.56591 z M 41.362356,474.21919 c 5.419803,-3.85924 9.20804,-20.12383 5.719935,-24.55823 -1.907461,-2.42495 -4.973724,-2.29678 -7.968984,0.33309 -3.661242,3.21461 -6.252658,9.27853 -7.077381,16.56108 -0.895333,7.90605 3.692267,11.67594 9.32643,7.66406 z M 287.68228,287.51088 c 123.77557,-85.69954 225.26344,-156.02144 225.5286,-156.2709 0.26516,-0.24945 -1.53484,-3.36506 -4,-6.92356 -2.46517,-3.5585 -4.48212,-6.59898 -4.48212,-6.75663 0,-0.15765 4.90009,-0.96032 10.88907,-1.78372 5.98899,-0.8234 11.12771,-1.65556 11.41937,-1.84926 0.29166,-0.19369 0.70829,-1.26776 0.92586,-2.38682 0.35606,-1.83146 0.22231,-2.0697 -1.33936,-2.38559 -1.83748,-0.37169 -246.75888,-33.019753 -247.70976,-33.019753 -0.30616,0 -0.93664,5.76 -1.40105,12.8 -0.46442,7.04 -0.93376,12.800003 -1.04299,12.800003 -0.10923,0 -2.06487,-1.14228 -4.34587,-2.538413 l -4.14728,-2.53841 -7.94521,13.258413 C 232.58788,155.71228 61.208743,443.55068 61.208743,443.84742 c 0,0.50894 -19.359219,13.87277 226.473537,-156.33654 z m -30.34353,-13.46054 c -5.99787,-17.13902 -6.97721,-19.05636 -8.91306,-17.44975 -0.51869,0.43047 -1.12674,1.76174 -1.35123,2.95837 -0.32889,1.75312 -0.70508,2.17569 -1.93693,2.17569 -1.80326,0 -1.81438,-0.086 -0.55825,-4.31581 2.05766,-6.92887 8.28123,-8.82272 10.60998,-3.22865 l 0.87607,2.10446 0.44035,-3.05184 c 0.61057,-4.23157 2.696,-8.20852 5.17358,-9.86611 3.26628,-2.18525 3.66679,-2.0735 5.01014,1.39795 1.51538,3.916 1.51865,3.67768 -0.0639,4.66602 -1.07167,0.66927 -1.53971,0.64834 -2.63348,-0.11777 -2.92906,-2.05159 -5.02323,1.22444 -5.02323,7.85815 0,3.6604 0.51544,5.92295 2.84593,12.49247 l 2.84593,8.02249 -1.72593,1.19438 c -0.94926,0.65691 -2.05529,1.38366 -2.45784,1.61501 -0.48026,0.27601 -1.55921,-1.94339 -3.13809,-6.45506 z m 23.4283,5.0181 c -1.54855,-2.17475 -1.62611,-2.8416 -0.44454,-3.82222 0.6591,-0.547 1.32733,-0.48967 2.72,0.23338 2.10255,1.09161 3.77136,0.76903 5.84624,-1.13007 1.61857,-1.48145 1.88327,-3.77027 0.56277,-4.86619 -0.5616,-0.46609 -3.22795,-0.66699 -7.41063,-0.55837 -6.19351,0.16085 -6.59736,0.0911 -7.76277,-1.34122 -2.89507,-3.55807 -0.87312,-8.61589 4.75809,-11.9022 5.29725,-3.09142 5.81997,-3.11485 7.38453,-0.33109 l 1.39152,2.47587 -1.37046,0.73345 c -0.99111,0.53042 -1.56404,0.53988 -2.06976,0.0342 -1.17368,-1.17368 -4.1155,-0.78222 -5.94451,0.79103 -1.3573,1.1675 -1.64349,1.84535 -1.32121,3.1294 0.56608,2.25544 1.66049,2.51393 7.17258,1.69411 5.62207,-0.83618 8.13518,-0.12819 9.60004,2.70453 2.5496,4.93039 -0.6563,9.35609 -9.43189,13.02061 -2.34153,0.97778 -2.37295,0.97039 -3.68,-0.86518 z m 20.19727,-14.97423 c -1.09756,-1.16625 -3.11972,-3.97425 -4.49368,-6.24 -3.30716,-5.45374 -4.14515,-6.35956 -5.88331,-6.35956 -2.6144,0 -2.31008,-1.22479 0.79333,-3.19292 1.67128,-1.05989 3.24126,-1.92708 3.48884,-1.92708 0.24759,0 2.0943,2.664 4.10381,5.92 4.09194,6.63014 6.47323,9.4498 7.95518,9.41964 2.16427,-0.044 4.52196,-3.10058 4.51829,-5.85757 -10e-4,-0.81514 -1.51308,-3.78607 -3.36,-6.60207 -2.50402,-3.8179 -3.76493,-5.17447 -4.95803,-5.33419 -2.89767,-0.38792 -2.79868,-1.26263 0.37031,-3.27235 1.70731,-1.08274 3.31892,-1.89321 3.58134,-1.80104 0.26242,0.0922 2.75027,3.76758 5.52856,8.16758 4.54428,7.19684 5.23715,8.00234 6.90133,8.02329 2.8852,0.0363 2.55109,1.67643 -0.76672,3.76384 l -2.9677,1.86712 -1.18932,-1.54712 c -0.67253,-0.87485 -1.19552,-1.17201 -1.20356,-0.68385 -0.0311,1.88406 -2.25798,5.43259 -4.12301,6.56988 -3.10759,1.89501 -5.94671,1.58233 -8.29566,-0.9136 z m 24.25906,-10.6559 c -0.2166,-0.35046 -0.0699,-1.24251 0.32606,-1.98232 0.61913,-1.15685 0.20586,-2.16642 -2.95277,-7.21323 -4.8075,-7.68134 -5.69094,-8.63503 -7.65181,-8.26018 -2.58651,0.49444 -1.89119,-1.32467 1.41343,-3.69787 l 2.98954,-2.14692 0.96102,1.44736 c 0.95919,1.44463 0.96354,1.44219 2.29046,-1.28293 2.12971,-4.37383 5.40241,-6.09435 9.15873,-4.81494 1.24398,0.42371 1.56428,0.14946 2.47045,-2.11529 1.43034,-3.57479 4.21208,-5.79734 7.25592,-5.79734 3.12846,0 4.5307,1.33681 9.23065,8.8 3.31047,5.25678 3.93682,5.92 5.59092,5.92 2.96806,0 2.18188,1.39672 -2.28196,4.05411 -4.43319,2.63916 -5.86855,2.67318 -4.70133,0.11141 0.61064,-1.3402 0.3491,-2.14895 -1.94212,-6.00565 -5.10991,-8.60125 -7.54846,-10.19296 -10.28536,-6.71356 -2.14645,2.72876 -1.69553,5.09917 2.05328,10.79369 2.50258,3.80148 3.73403,5.12475 4.7819,5.13847 0.77621,0.0102 1.7207,0.32786 2.09885,0.70601 0.49007,0.49007 -0.57409,1.44985 -3.70494,3.34154 -2.41587,1.45969 -4.60423,2.65398 -4.86302,2.65398 -0.25879,0 -0.28406,-0.99392 -0.0562,-2.2087 0.34514,-1.83977 0.0115,-2.87188 -1.99748,-6.179 -4.99284,-8.2191 -7.79173,-9.97394 -10.47242,-6.56599 -2.04532,2.6002 -1.6415,4.61068 2.11098,10.50982 2.96871,4.667 3.68105,5.40387 5.22399,5.40387 0.98261,0 1.89235,0.31376 2.02165,0.69725 0.18166,0.53877 -4.44321,3.80175 -8.23885,5.81275 -0.23968,0.12698 -0.613,-0.0559 -0.8296,-0.40634 z m -86.06051,-10.8399 c -0.57652,-1.07724 0.19008,-1.74439 6.70752,-5.83735 4.04713,-2.5416 7.51491,-4.8743 7.70616,-5.18376 0.19126,-0.30946 -0.60525,-0.56706 -1.77003,-0.57245 -2.69254,-0.0125 -3.87338,-0.76 -3.35097,-2.12137 0.48647,-1.26772 0.92769,-1.28995 6.69582,-0.33737 3.0535,0.50428 4.53059,1.05097 4.75567,1.76014 0.17957,0.56577 -0.33673,3.18861 -1.14734,5.82854 -1.23389,4.01839 -1.67549,4.7639 -2.71239,4.57901 -1.74886,-0.31183 -1.77301,-0.39014 -0.91856,-2.97915 0.42217,-1.27917 0.6456,-2.44774 0.49651,-2.59683 -0.14908,-0.14908 -3.41779,1.73582 -7.26379,4.18867 -3.84599,2.45284 -7.34259,4.46612 -7.7702,4.47394 -0.42762,0.008 -1.07039,-0.53309 -1.4284,-1.20202 z m 311.6459,-130.62376 c 0.88,-0.68835 1.2719,-1.25794 0.8709,-1.26577 -0.40101,-0.008 -1.40901,0.55219 -2.24,1.24448 -1.96617,1.63798 -0.72245,1.65732 1.3691,0.0213 z m -362.94782,381.6783 c -0.75208,-0.9062 -0.57811,-1.28081 1.33746,-2.88 l 2.20199,-1.8383 h -9.09583 -9.09582 v -1.92 -1.92 h 9.09582 9.09583 l -2.21583,-1.87156 c -2.08509,-1.76114 -2.15207,-1.93682 -1.13537,-2.97759 1.02076,-1.04494 1.29475,-0.92038 4.96,2.25488 2.13375,1.8485 3.87955,3.87992 3.87955,4.51427 0,0.96379 -6.8636,7.68 -7.84854,7.68 -0.1731,0 -0.70377,-0.46877 -1.17926,-1.0417 z m 228.75442,-87.79702 c -6.75037,-4.1147 -12.4514,-7.66231 -12.66896,-7.88358 -0.65623,-0.66738 7.19361,-13.09451 9.61353,-15.21923 3.66378,-3.21684 9.08038,-2.40522 12.70627,1.9039 2.67178,3.17523 2.17972,7.60244 -1.55434,13.98484 -3.1808,5.43675 -3.54427,4.54988 3.71486,9.06425 l 4.01797,2.49873 -1.05158,1.6049 c -0.57836,0.8827 -1.37845,1.58749 -1.77797,1.56619 -0.39951,-0.0213 -6.24942,-3.40529 -12.99978,-7.52 z m 4.54006,-9.33614 c 3.02677,-5.22147 3.21732,-7.65644 0.76431,-9.76643 -2.01152,-1.73024 -4.00218,-1.90775 -5.96629,-0.53204 -1.34664,0.94322 -5.62957,7.445 -6.05247,9.18805 -0.2214,0.91254 6.96941,5.87223 8.10778,5.59214 0.352,-0.0866 1.768,-2.10338 3.14667,-4.48172 z m 684.53347,9.50307 c 0,-1.89498 2.0114,-4.85811 6.8414,-10.07833 2.6716,-2.88744 5.3922,-6.11388 6.0456,-7.16988 1.4974,-2.41967 1.5262,-5.52668 0.068,-7.3275 -1.9504,-2.40862 -6.9136,-1.67016 -8.4829,1.26216 -0.3934,0.73505 -1.3383,1.26534 -2.2547,1.26534 -1.3731,0 -1.5774,-0.28728 -1.5774,-2.21749 0,-2.5359 0.6156,-2.99215 5.6226,-4.16721 7.4303,-1.74375 12.9397,1.02284 12.935,6.49547 0,3.53621 -1.0924,5.25382 -7.9052,12.46534 -3.0429,3.22087 -5.5324,6.06035 -5.5324,6.30996 0,0.24961 2.1912,0.34318 4.8694,0.20793 4.0896,-0.20651 5.0542,-0.47397 6.0226,-1.66995 1.8598,-2.29671 3.188,-1.84526 3.188,1.0836 0,4.66035 0.2911,4.53235 -10.3085,4.53235 -8.1816,0 -9.5315,-0.14047 -9.5315,-0.99179 z m -23.04,-12.17892 c 0,-0.20389 1.167,-5.43027 2.5934,-11.61419 1.4264,-6.18391 2.5064,-11.99063 2.4,-12.90382 -0.2751,-2.36087 -1.8181,-2.35532 -4.2428,0.0153 -1.9267,1.88367 -2.1745,1.96388 -3.1266,1.01177 -1.249,-1.24893 -0.6214,-2.21662 3.272,-5.04502 4.6208,-3.35694 9.344,-1.80824 9.344,3.06388 v 2.31717 l 2.6121,-2.6916 c 3.1226,-3.21764 5.9331,-4.50274 9.8473,-4.50274 3.2171,0 3.1783,-0.0781 2.2075,4.4485 -0.6232,2.90575 -0.8659,3.2315 -2.4082,3.2315 -1.1649,0 -1.9179,-0.46203 -2.347,-1.44 -1.0859,-2.47526 -3.0276,-2.10838 -6.0194,1.13738 -3.4067,3.69575 -4.753,6.71406 -6.4231,14.39937 -0.7247,3.33479 -1.4652,6.71125 -1.6456,7.50325 -0.2803,1.23029 -0.7457,1.44 -3.1958,1.44 -1.5773,0 -2.8678,-0.16682 -2.8678,-0.37071 z m -644.55178,-6.34906 c -3.54483,-1.92658 -3.76789,-5.41732 -0.81475,-12.75057 1.8567,-4.61058 1.85721,-4.62758 0.16544,-5.53299 -1.98865,-1.06429 -4.09102,0.13054 -5.66769,3.22107 -1.22618,2.40349 -1.24984,2.72611 -0.33038,4.50416 0.90544,1.75091 0.89595,2.05938 -0.11053,3.59548 l -1.10094,1.68024 -1.47476,-1.7145 c -2.7968,-3.25147 -1.38572,-10.03305 2.93175,-14.08976 3.04134,-2.85766 5.24726,-2.49634 13.08692,2.14356 3.62709,2.14669 7.22289,3.90308 7.99065,3.90308 1.66998,0 1.70431,0.21439 0.36233,2.26251 -0.56849,0.86762 -1.57649,1.57749 -2.24,1.57749 -0.82336,0 -1.20753,0.45721 -1.20997,1.44 -0.0129,5.20985 -4.02048,10.73855 -7.752,10.69437 -1.19043,-0.0141 -2.91667,-0.43446 -3.83607,-0.93414 z m 5.48297,-3.91779 c 1.4314,-0.54928 2.90867,-3.61379 2.90867,-6.03389 0,-1.43559 -0.58052,-2.5573 -2.01887,-3.90091 -1.11037,-1.03725 -2.20683,-1.6568 -2.43657,-1.37677 -0.22973,0.28002 -1.07232,2.42895 -1.87241,4.77539 -1.15018,3.37317 -1.30528,4.54546 -0.74091,5.6 0.71609,1.33802 2.22691,1.67801 4.16009,0.93618 z m 3.31381,-19.73427 c -4.88118,-2.94905 -9.12651,-5.61354 -9.43407,-5.9211 -0.86549,-0.86549 1.20353,-3.40269 2.4003,-2.94345 0.80979,0.31074 0.92449,0.10061 0.56438,-1.03399 -0.57475,-1.8109 0.5802,-4.63438 2.34708,-5.73782 1.21046,-0.75594 1.4911,-0.68605 2.47312,0.61585 1.05778,1.40233 1.04938,1.54748 -0.18641,3.21897 -2.57433,3.48197 -1.29013,4.87292 12.11446,13.12144 1.03245,0.63532 1.05764,0.88194 0.2452,2.4 -0.49802,0.93056 -1.07283,1.68069 -1.27734,1.66696 -0.20452,-0.0137 -4.36555,-2.43782 -9.24672,-5.38686 z m 653.6072,-5.86987 c -0.7521,-0.9062 -0.5782,-1.28081 1.3374,-2.88 l 2.202,-1.8383 h -9.0958 -9.0958 v -1.92 -1.92 h 9.0958 9.0958 l -2.2158,-1.87156 c -2.0851,-1.76114 -2.1521,-1.93682 -1.1354,-2.97759 1.0208,-1.04494 1.2948,-0.92038 4.96,2.25488 2.1338,1.8485 3.8796,3.87992 3.8796,4.51427 0,0.96379 -6.8636,7.68 -7.8486,7.68 -0.1731,0 -0.7038,-0.46877 -1.1792,-1.0417 z m -641.00313,-1.97142 c -0.76493,-0.14465 -2.13293,-1.00515 -3.04,-1.91222 -2.19259,-2.19259 -2.20051,-5.95157 -0.0229,-10.87549 2.00604,-4.53602 1.87864,-6.20719 -0.49405,-6.4805 -3.57703,-0.41205 -6.73069,4.93086 -4.84736,8.21237 0.87648,1.52718 0.86148,1.81193 -0.16208,3.07597 -1.47158,1.81733 -1.66897,1.77455 -3.16981,-0.68701 -2.2363,-3.6678 -1.2166,-8.1405 2.81521,-12.34832 3.7756,-3.94043 5.18901,-3.83578 13.34839,0.98832 3.57219,2.112 6.79831,3.84441 7.16915,3.8498 0.37085,0.005 1.06464,0.25716 1.54177,0.55949 1.35185,0.85659 -0.95055,4.07217 -2.55184,3.56394 -1.02361,-0.32488 -1.19769,-0.0279 -1.20972,2.06364 -0.0351,6.09382 -4.54901,10.903 -9.37674,9.99001 z m 3.59591,-4.64821 c 1.88428,-1.00844 3.32102,-5.34056 2.52679,-7.6189 -0.5823,-1.6704 -3.51149,-4.39903 -4.09102,-3.81091 -0.60208,0.61102 -2.88029,7.44857 -2.88057,8.64542 -3.3e-4,1.44005 1.5277,3.40572 2.64747,3.40572 0.35,0 1.1588,-0.2796 1.79733,-0.62133 z m -0.73491,-22.26251 -13.24978,-8.01658 0.95704,-1.85071 c 0.52637,-1.0179 1.16078,-1.73871 1.40979,-1.60181 0.24901,0.1369 6.28199,3.77039 13.40663,8.07442 13.50821,8.16037 13.18356,7.85141 11.22754,10.68489 -0.33863,0.49055 -4.80308,-1.87627 -13.75122,-7.29021 z m 6.49832,-7.26654 c -16.5644,-9.91714 -14.87661,-8.58947 -13.73231,-10.80231 l 0.96937,-1.87456 12.95721,7.74663 c 7.12646,4.26065 13.16471,7.92669 13.41834,8.14676 0.25362,0.22007 -0.0485,1.17708 -0.67148,2.1267 l -1.13261,1.72656 z m 7.85215,-5.41938 c -3.95159,-1.96917 -6.26102,-4.53489 -7.19119,-7.98927 -1.67621,-6.22498 3.32237,-12.78879 9.70724,-12.74692 2.25418,0.0148 7.58477,2.12044 7.58117,2.99466 -0.001,0.28121 -1.85406,3.5301 -4.11756,7.21975 -4.43748,7.23339 -4.44596,7.66455 -0.15111,7.68174 1.88096,0.008 2.89903,-0.44 4.38785,-1.92882 1.96253,-1.96252 2.13126,-3.33135 0.90495,-7.34138 -0.23977,-0.78406 0.0811,-1.88533 0.82829,-2.84232 l 1.21972,-1.56232 1.34259,2.20232 c 3.86773,6.34444 -1.48948,15.91736 -8.92697,15.95179 -1.25088,0.006 -3.76412,-0.73186 -5.58498,-1.63923 z m 2.08311,-10.90519 c 1.62781,-2.68122 2.85238,-4.98222 2.72127,-5.11333 -0.13112,-0.13111 -1.14739,-0.42019 -2.25839,-0.64239 -1.72723,-0.34545 -2.34659,-0.0774 -4.27333,1.84933 -2.60049,2.60049 -2.86566,4.63028 -0.92689,7.09503 0.72955,0.92747 1.42798,1.68631 1.55207,1.68631 0.12409,0 1.55746,-2.19373 3.18527,-4.87495 z m 434.17697,-0.0533 c -1.35279,-2.18886 -1.36458,-2.32912 -0.26363,-3.13415 0.96021,-0.70213 1.45735,-0.68512 2.97932,0.10192 3.71461,1.9209 8.78893,-2.06882 6.96521,-5.47646 -0.74561,-1.39318 -0.97108,-1.4246 -7.10392,-0.9898 l -6.33387,0.44905 -1.92192,-1.92193 c -4.16601,-4.16601 -1.04983,-9.93633 7.29851,-13.51485 l 2.87926,-1.23419 1.41786,2.29415 c 1.32545,2.14461 1.34628,2.3465 0.31962,3.09721 -0.82056,0.60001 -1.55597,0.63029 -2.90855,0.11975 -3.26287,-1.2316 -7.71655,1.63653 -6.69104,4.30896 0.73721,1.92114 2.54254,2.33467 7.04935,1.6147 5.21142,-0.83253 7.49673,-0.39729 9.18527,1.74934 3.67323,4.66975 -0.27468,10.88294 -8.83399,13.90284 l -2.62132,0.92485 z m -23.30072,-5.15175 c -4.87016,-13.96563 -6.28152,-17.12 -7.66002,-17.12 -0.93355,0 -1.53682,0.74296 -2.22888,2.745 -0.74273,2.14864 -1.22938,2.70481 -2.24,2.56 -1.62174,-0.23238 -1.46082,-2.20947 0.50977,-6.26296 2.54515,-5.23535 7.22842,-5.9247 9.49655,-1.39783 l 1.05743,2.11049 0.45417,-2.75735 c 0.91121,-5.53214 3.20157,-9.24567 6.88381,-11.16124 1.76501,-0.91819 1.77846,-0.90919 3.04,2.03387 1.59144,3.71267 1.58772,4.55342 -0.024,5.41598 -0.98285,0.52601 -1.61775,0.46224 -2.65895,-0.26704 -1.88805,-1.32244 -3.50641,-0.32695 -4.33833,2.66861 -1.31376,4.73053 -0.81068,8.6367 2.20842,17.14738 1.584,4.4652 2.88,8.30992 2.88,8.54383 0,0.52386 -3.47994,2.62126 -4.34912,2.62126 -0.3474,0 -1.71128,-3.096 -3.03086,-6.88 z m -405.13362,-7.9024 c -7.02153,-4.25831 -12.86175,-7.83365 -12.97827,-7.94518 -0.18778,-0.17975 0.99758,-2.79146 1.5628,-3.44334 0.41313,-0.47648 26.489,15.45593 26.4687,16.17242 -0.0213,0.75257 -1.51539,2.9585 -2.00379,2.9585 -0.15566,0 -6.02791,-3.48408 -13.04944,-7.7424 z m 449.18835,-1.12132 c -1.00305,-1.00304 -3.35152,-4.31504 -5.21883,-7.36 -3.01574,-4.91766 -3.6041,-5.53628 -5.26551,-5.53628 -1.07027,0 -1.86992,-0.34223 -1.86926,-0.8 0.001,-1.02361 5.52449,-4.54039 6.3395,-4.03668 0.33783,0.20878 2.07876,2.76778 3.86875,5.68664 4.91581,8.01604 6.4677,9.68012 8.54197,9.15951 2.05319,-0.51532 3.86489,-3.06296 3.85426,-5.41993 -0.004,-0.9556 -1.49087,-4.03813 -3.37073,-6.98954 -2.94669,-4.62638 -3.59276,-5.28 -5.21895,-5.28 -1.0587,0 -1.85545,-0.34365 -1.8548,-0.8 10e-4,-0.95308 5.49722,-4.55724 6.24471,-4.09527 0.28569,0.17657 2.79933,3.96662 5.58588,8.42233 4.76349,7.61689 5.17006,8.08058 6.79946,7.7547 2.88838,-0.57768 2.69034,1.15652 -0.3842,3.36449 -3.12024,2.24079 -3.86783,2.41649 -4.39844,1.03375 -0.59931,-1.56178 -1.30239,-1.10454 -2.42978,1.58017 -2.08385,4.9624 -7.86864,6.6715 -11.22403,3.31611 z m 23.77079,-11.03205 c -0.2365,-0.38267 -0.1095,-1.01627 0.28223,-1.408 0.39173,-0.39173 0.71224,-1.08981 0.71224,-1.5513 0,-1.23579 -8.35477,-14.2533 -9.19905,-14.33296 -0.39652,-0.0374 -1.27169,-0.10942 -1.94482,-0.16 -2.21314,-0.16631 -1.70224,-1.33872 1.54907,-3.55477 1.76139,-1.20054 3.30231,-2.06454 3.42427,-1.92 0.12197,0.14454 0.51797,0.81378 0.88001,1.4872 0.58528,1.08867 0.80196,0.89954 1.95452,-1.70602 1.9291,-4.36105 5.50606,-6.1616 9.47169,-4.76779 1.14268,0.40161 1.44169,0.11565 2.06924,-1.9789 1.01146,-3.37597 3.28833,-5.33377 6.64275,-5.71186 3.60552,-0.4064 4.61531,0.44515 9.65241,8.14017 3.0347,4.6361 4.3599,6.13087 5.5799,6.29419 2.9809,0.39905 2.6574,1.20958 -1.541,3.8611 -5.3093,3.3531 -6.6273,3.38875 -4.8844,0.13208 1.1166,-2.08636 -7.08563,-14.12737 -9.62343,-14.12737 -1.83579,0 -3.8121,2.12215 -4.17211,4.48 -0.29169,1.91043 0.16467,3.04038 3.10172,7.68 2.92994,4.62837 3.69758,5.43642 5.14521,5.41603 3.09621,-0.0436 2.40641,1.48878 -1.89225,4.20362 -4.31118,2.72276 -6.2899,2.77405 -4.63247,0.12008 0.71236,-1.14067 0.36412,-1.98136 -2.98746,-7.21209 -2.08659,-3.2565 -4.25323,-6.20783 -4.81475,-6.55852 -1.79146,-1.11882 -4.36859,0.0416 -5.53786,2.49362 -1.06118,2.22531 -1.04817,2.33315 0.6737,5.5832 3.03405,5.72678 6.047,9.39648 7.57522,9.2264 2.75418,-0.30653 1.78436,1.36167 -2.28617,3.93244 -4.63787,2.92908 -4.59636,2.91359 -5.19841,1.93945 z m -451.18063,-0.55002 c -0.71229,-0.28915 -3.98588,-2.15738 -7.27466,-4.1516 -5.35289,-3.24586 -6.08918,-3.52668 -7.02533,-2.67948 -1.46561,1.32636 -3.41361,0.19439 -2.95478,-1.717 0.26228,-1.09263 -0.16497,-1.7285 -1.91631,-2.85202 -1.7051,-1.09385 -2.25385,-1.88594 -2.25385,-3.25333 0,-0.9941 0.17392,-1.98136 0.38647,-2.19392 0.21256,-0.21256 1.72456,0.45654 3.36,1.48688 l 2.97353,1.87336 1.28,-1.54997 c 1.14634,-1.38812 1.40867,-1.45505 2.51214,-0.641 1.09297,0.8063 1.13502,1.09042 0.37237,2.51545 -0.47287,0.88357 -0.73933,1.70619 -0.59214,1.82805 0.1472,0.12186 2.99399,1.84191 6.32621,3.82234 l 6.05857,3.60079 1.40698,-1.32179 c 1.47023,-1.38121 4.07817,-1.20057 4.07348,0.28216 -0.003,1.10323 -2.43573,4.91687 -3.13585,4.91687 -0.32839,0 -0.98062,0.12599 -1.44941,0.27998 -0.46879,0.15399 -1.43513,0.0434 -2.14742,-0.24577 z m 365.71451,-9.74741 c -0.91726,-1.71392 -0.48927,-2.10419 8.08122,-7.3688 3.329,-2.0449 6.05421,-3.934 6.05604,-4.198 0.002,-0.264 -0.69312,-0.48 -1.54433,-0.48 -2.41514,0 -3.57235,-0.66449 -3.57235,-2.05131 0,-1.18222 0.28126,-1.24173 3.88948,-0.82295 8.2603,0.95871 8.46966,1.24244 6.19907,8.40136 -1.34526,4.24146 -1.54989,4.52864 -2.86987,4.02754 -1.36644,-0.51874 -1.38607,-0.6395 -0.50839,-3.12711 0.50211,-1.42314 0.74083,-2.58753 0.53048,-2.58753 -0.35345,0 -3.74206,2.08016 -12.17615,7.47455 l -3.33539,2.13329 z m -365.70409,-1.99613 c -5.69392,-2.71462 -8.76319,-7.65775 -7.7158,-12.42648 1.73632,-7.9054 9.57687,-10.86329 17.02877,-6.42419 6.17973,3.68127 7.90421,9.90146 4.23795,15.28625 -3.32892,4.8893 -8.12556,6.15101 -13.55092,3.56442 z m 9.97389,-4.88144 c 2.77126,-2.77126 2.56067,-5.35113 -0.68915,-8.44261 -3.26832,-3.10908 -6.8356,-4.27171 -9.59712,-3.12785 -1.9663,0.81447 -3.84297,3.47163 -3.84297,5.44123 0,3.59082 5.38959,7.98302 9.80924,7.99394 1.85857,0.005 2.90038,-0.4451 4.32,-1.86471 z M 150.16875,240.26287 c 0,-1.89499 2.01146,-4.85812 6.84148,-10.07834 2.67161,-2.88744 5.39213,-6.11388 6.0456,-7.16988 1.49734,-2.41967 1.52614,-5.52668 0.0679,-7.3275 -1.95038,-2.40862 -6.91353,-1.67016 -8.48286,1.26217 -0.39339,0.73504 -1.33829,1.26533 -2.25467,1.26533 -1.37312,0 -1.57748,-0.28728 -1.57748,-2.21748 0,-2.53591 0.6156,-2.99216 5.62266,-4.16722 7.43033,-1.74375 12.93967,1.02284 12.93495,6.49547 -0.003,3.53621 -1.09232,5.25382 -7.90521,12.46535 -3.04282,3.22086 -5.5324,6.06034 -5.5324,6.30995 0,0.24961 2.19125,0.34318 4.86946,0.20794 4.08955,-0.20652 5.05414,-0.47398 6.02258,-1.66996 1.85977,-2.29671 3.18796,-1.84526 3.18796,1.0836 0,4.66035 0.29112,4.53235 -10.30847,4.53235 -8.18156,0 -9.53153,-0.14047 -9.53153,-0.99178 z m 377.06395,-4.82651 c -3.28683,-3.17405 -6.31083,-5.65664 -6.72,-5.51686 -0.40916,0.13978 -0.74393,1.13839 -0.74393,2.21913 0,1.08074 -0.23166,2.19763 -0.5148,2.48197 -0.83813,0.84168 -1.70488,-1.17273 -1.7154,-3.98676 -0.0132,-3.52745 1.80738,-5.3002 4.42753,-4.3112 l 1.81321,0.68441 -0.61985,-2.24493 c -0.7116,-2.5772 -0.25272,-5.66916 1.10837,-7.46827 0.91536,-1.20994 0.9853,-1.19618 2.81154,0.55348 2.10494,2.01665 1.95754,3.56732 -0.33908,3.56732 -1.538,0 -1.84722,0.70754 -1.53835,3.52 0.27028,2.46108 2.14707,5.15063 6.31519,9.05002 3.98177,3.72506 4.16118,4.01712 3.43997,5.6 -0.41849,0.91849 -0.98307,1.65934 -1.25461,1.64634 -0.27155,-0.013 -3.18295,-2.6206 -6.46979,-5.79465 z m 20.94609,-3.54603 c -0.47026,-0.56662 -1.7415,-3.78328 -2.82499,-7.14813 -1.44558,-4.48938 -2.42007,-6.45394 -3.66087,-7.38033 -1.62534,-1.21349 -1.75737,-1.21888 -3.4055,-0.13899 -1.54951,1.01528 -1.67783,1.39172 -1.33269,3.90976 0.411,2.99855 -0.31232,4.09823 -1.85401,2.81874 -1.24912,-1.03668 -1.15358,-2.94671 0.30846,-6.16684 2.11221,-4.65211 5.90551,-5.86396 8.91983,-2.84963 0.64224,0.64223 1.81379,3.58691 2.60344,6.54372 0.78966,2.95681 1.6576,5.61035 1.92877,5.89676 0.75875,0.80141 3.31962,-4.01987 3.10109,-5.83836 -0.24821,-2.06554 0.81192,-2.40897 2.70479,-0.87622 l 1.49212,1.20824 -3.05589,5.21252 c -1.68074,2.86688 -3.28396,5.35347 -3.56272,5.52575 -0.27875,0.17228 -0.89158,-0.15037 -1.36183,-0.71699 z m -421.05004,-3.80639 c 0,-0.20388 1.16704,-5.43027 2.59342,-11.61419 1.42638,-6.18391 2.50638,-11.99063 2.4,-12.90382 -0.27503,-2.36087 -1.81808,-2.35532 -4.24277,0.0153 -1.92666,1.88367 -2.17452,1.96388 -3.12662,1.01178 -1.24894,-1.24894 -0.62134,-2.21662 3.27199,-5.04502 4.62087,-3.35694 9.34398,-1.80824 9.34398,3.06387 v 2.31717 l 2.61211,-2.6916 c 3.12261,-3.21764 5.93309,-4.50274 9.84733,-4.50274 3.21707,0 3.17831,-0.0781 2.20752,4.4485 -0.62317,2.90575 -0.86593,3.2315 -2.40823,3.2315 -1.16488,0 -1.91791,-0.46203 -2.34697,-1.44 -1.08595,-2.47526 -3.02762,-2.10837 -6.01946,1.13738 -3.40662,3.69575 -4.75298,6.71406 -6.42306,14.39937 -0.72467,3.33479 -1.4652,6.71125 -1.64561,7.50325 -0.28025,1.23029 -0.74566,1.44 -3.19583,1.44 -1.57729,0 -2.8678,-0.16682 -2.8678,-0.37071 z m 383.52001,-3.30377 c -1.26972,-0.43201 -0.98385,-1.30058 2.09973,-6.37965 l 2.89972,-4.77624 -1.85858,0.40821 c -1.33022,0.29217 -1.96176,0.13932 -2.22154,-0.53766 -0.26127,-0.68086 0.46521,-1.22807 2.59286,-1.95303 1.62571,-0.55393 3.34366,-1.00715 3.81766,-1.00715 0.97781,0 1.74999,1.77589 2.29583,5.28 0.31953,2.05127 0.19989,2.4 -0.8234,2.4 -0.83034,0 -1.25932,-0.53938 -1.39976,-1.76 -0.18605,-1.61691 -0.40667,-1.42178 -2.71361,2.4 -3.60884,5.97857 -3.80488,6.22631 -4.68891,5.92552 z M 144.98095,192.21295 c -0.75208,-0.9062 -0.57811,-1.28081 1.33746,-2.88 l 2.20199,-1.8383 h -9.09583 -9.09582 v -1.92 -1.92 h 9.09582 9.09583 l -2.21583,-1.87156 c -2.08509,-1.76114 -2.15208,-1.93682 -1.13538,-2.97759 1.02077,-1.04493 1.29476,-0.92038 4.96,2.25488 2.13376,1.84851 3.87956,3.87993 3.87956,4.51427 0,0.96379 -6.8636,7.68 -7.84854,7.68 -0.1731,0 -0.70377,-0.46876 -1.17926,-1.0417 z m 400.22782,-91.25573 c -2.72911,-0.41914 -4,-0.90158 -4,-1.518453 0,-0.60567 0.73539,-0.90412 2.2278,-0.90412 2.516,0 2.40851,0.23809 3.56392,-7.89459 0.39184,-2.75803 0.534,-5.19302 0.31593,-5.41109 -0.21808,-0.21808 -1.24827,-0.075 -2.28931,0.31795 -1.83366,0.69213 -3.00364,0.17836 -2.27577,-0.99935 0.45084,-0.72947 8.07356,-3.49011 8.48923,-3.07445 0.17922,0.17922 -0.16224,3.95048 -0.75881,8.38057 -0.59656,4.43009 -0.92865,8.46128 -0.73796,8.95819 0.19068,0.49692 0.98975,0.99783 1.7757,1.11313 0.78595,0.115303 1.54757,0.569643 1.69247,1.009643 0.30858,0.93699 -2.00675,0.94352 -8.0032,0.0226 z M 527.01052,89.243067 c -0.18237,-0.18237 0.96341,-3.75379 2.54617,-7.9365 3.13314,-8.27982 3.25647,-10.58828 0.46807,-8.76125 -1.95603,1.28164 -2.89599,1.30893 -2.89599,0.0841 0,-1.18819 2.34855,-2.75647 4.88869,-3.26449 2.33236,-0.46648 4.07131,0.955 4.07131,3.32802 v 1.58685 l 2.25483,-1.71984 c 1.58008,-1.20519 3.02226,-1.71984 4.81939,-1.71984 3.21469,0 3.49881,0.29683 2.76014,2.8836 -0.716,2.50738 -3.06201,3.26395 -3.61102,1.16452 -1.04318,-3.9891 -6.46106,1.22547 -9.4407,9.08642 -1.93523,5.10557 -2.27303,5.6 -3.82598,5.6 -0.93683,0 -1.85254,-0.14921 -2.03491,-0.33158 z m -28.26243,-3.16195 c -5.07287,-1.80873 -7.24554,-5.63194 -6.62382,-11.65584 0.73468,-7.11831 3.82092,-10.53341 9.87589,-10.92821 4.40095,-0.28696 7.37816,1.0624 9.66976,4.38261 1.33046,1.92765 1.47044,2.72885 1.231,7.04578 -0.33594,6.0569 -1.71538,8.67898 -5.60241,10.64919 -3.24215,1.64335 -5.05988,1.75102 -8.55042,0.50647 z m 7.02577,-4.0407 c 4.62701,-3.74802 4.20418,-12.52743 -0.70206,-14.57739 -4.77971,-1.99709 -8.66304,1.88379 -8.66304,8.65758 0,2.80786 0.28501,3.59751 1.87077,5.18327 2.17838,2.17838 5.33176,2.48829 7.49433,0.73654 z m -23.15419,0.84332 c -1.83502,-1.83502 -1.80828,-1.41893 -0.61876,-9.62909 1.25695,-8.67547 1.23661,-9.28 -0.31215,-9.28 -0.704,0 -1.28,-0.26444 -1.28,-0.58765 0,-1.44381 0.87263,-2.61235 1.95081,-2.61235 0.86709,0 1.31227,-0.69987 1.70346,-2.67797 0.43681,-2.20878 0.89781,-2.82823 2.6312,-3.53552 l 2.10161,-0.85755 -0.43258,3.82349 c -0.42326,3.74109 -0.3964,3.83257 1.24646,4.2449 1.22655,0.30784 1.67904,0.83391 1.67904,1.95203 0,1.26621 -0.32423,1.53062 -1.87687,1.53062 -2.2062,0 -2.25364,0.11871 -3.25185,8.13789 -0.78519,6.30785 -0.61727,7.22211 1.32649,7.22211 0.95359,0 1.24223,0.44613 1.24223,1.92 0,1.77231 -0.17454,1.92 -2.26909,1.92 -1.55582,0 -2.76289,-0.4938 -3.84,-1.57091 z m -21.89091,-2.08076 c -1.82234,-0.351 -1.82131,-0.45683 0.14679,-15.01263 2.31388,-17.11319 1.99203,-15.8957 4.20221,-15.8957 2.38049,0 2.38159,-0.63467 -0.029,16.64 -1.056,7.56747 -1.92,13.97525 -1.92,14.23952 0,0.26426 -0.216,0.44126 -0.48,0.39333 -0.264,-0.0479 -1.128,-0.21197 -1.92,-0.36452 z m -18.30068,-2.40186 c -5.0523,-1.8014 -7.24509,-5.63621 -6.6301,-11.59491 0.73345,-7.10648 3.91499,-10.60252 10.00893,-10.99831 6.54739,-0.42525 10.92185,3.92538 10.92185,10.86236 0,3.56149 0.72171,3.39431 -8.88651,2.05853 -3.97931,-0.55322 -7.38631,-0.85465 -7.57112,-0.66984 -0.67356,0.67356 0.5151,4.72933 1.70047,5.80208 0.6698,0.60615 2.38597,1.25878 3.81372,1.45028 2.27245,0.3048 2.81693,0.11388 4.36967,-1.53217 1.34533,-1.42617 2.14878,-1.78964 3.32632,-1.50477 2.18607,0.52885 2.27497,1.47661 0.35279,3.76099 -2.58769,3.0753 -6.90469,3.9707 -11.40602,2.36576 z m 9.82068,-13.82854 c 0,-2.03183 -1.12483,-3.68482 -3.25816,-4.788 -2.56807,-1.328 -5.64955,-0.35468 -7.20304,2.27516 -0.62214,1.0532 -1.04288,1.95115 -0.93498,1.99545 0.1079,0.0443 2.50018,0.43583 5.31618,0.87009 2.816,0.43427 5.336,0.83003 5.6,0.87947 0.264,0.0494 0.48,-0.50503 0.48,-1.23217 z m -24.48,11.70077 c -0.968,-0.12304 -1.75994,-0.42059 -1.75986,-0.66121 8e-5,-0.24062 0.86408,-6.72672 1.92,-14.41356 1.05592,-7.68684 1.91986,-14.38284 1.91986,-14.88 0,-0.61233 0.74841,-0.90393 2.32,-0.90393 2.18636,0 2.30049,0.10138 1.98126,1.76 -0.1863,0.968 -1.13404,7.808 -2.10609,15.2 -0.97204,7.392 -1.93561,13.59355 -2.14126,13.78121 -0.20565,0.18767 -1.16591,0.24054 -2.13391,0.11749 z m -11.18253,-3.1787 c 0.18561,-0.968 1.14456,-7.88 2.13101,-15.36 l 1.79354,-13.6 h 2.19273 c 2.11559,0 2.181,0.0732 1.85923,2.08 -0.18343,1.144 -1.14008,8.056 -2.12591,15.36 l -1.7924,13.28 h -2.19784 c -2.05278,0 -2.17556,-0.11616 -1.86036,-1.76 z m -7.05747,0.66833 c -0.90026,-0.17339 -1.44,-0.74044 -1.44,-1.51284 0,-1.48386 -0.0142,-1.48557 -2.32684,-0.27943 -3.43814,1.79311 -8.65065,1.00616 -11.59316,-1.75025 -1.59154,-1.49088 -1.96956,-5.34046 -0.74849,-7.62206 1.0494,-1.96082 4.53869,-3.10375 9.47559,-3.10375 5.22543,0 6.4729,-0.36956 6.4729,-1.91757 0,-1.99071 -2.11069,-3.79413 -4.94853,-4.22813 -2.43692,-0.37269 -2.88617,-0.22426 -4.48,1.48012 -1.52616,1.63202 -2.01519,1.81296 -3.53147,1.30663 -2.21468,-0.73954 -2.20339,-1.24461 0.085,-3.80579 1.68509,-1.88594 2.23299,-2.08686 6.32055,-2.31783 3.36685,-0.19025 5.06914,0.0288 6.87187,0.88425 3.64755,1.73088 4.10892,3.48266 3.07201,11.66417 -0.47778,3.76979 -0.71245,7.93415 -0.52151,9.25415 0.36172,2.50046 0.31883,2.53132 -2.70794,1.94833 z m -3.23281,-5.79107 c 0.64004,-0.64004 1.43984,-2.12653 1.77734,-3.30331 l 0.61362,-2.13959 -4.75589,0.30521 c -5.31129,0.34086 -6.87925,1.20414 -6.59462,3.63082 0.37686,3.21289 6.26348,4.20293 8.95955,1.50687 z m -25.24719,1.88023 c -2.12769,-0.24482 -2.10965,0.33213 -0.38712,-12.38319 l 1.37288,-10.1343 h 1.82712 c 1.44425,0 1.82712,0.28901 1.82712,1.37919 0,1.2956 0.0709,1.315 1.17039,0.32 1.36021,-1.23097 5.26372,-1.40908 6.38161,-0.29119 0.99334,0.99335 0.97073,1.91011 -0.0827,3.35071 -0.69482,0.95023 -1.09751,1.03125 -2.19809,0.44223 -0.91128,-0.4877 -1.87073,-0.52216 -2.96406,-0.10648 -1.87313,0.71216 -3.25549,4.73057 -3.97175,11.54554 -0.58549,5.57078 -0.86377,6.12047 -2.97543,5.87749 z m -8.60974,-1.20519 c -0.77536,-0.15037 -1.58038,-0.81101 -1.78893,-1.4681 -0.35628,-1.12254 -0.52182,-1.13511 -2.74048,-0.2081 -2.78397,1.16322 -7.5973,0.79923 -9.96744,-0.75375 -3.38815,-2.22 -3.71196,-7.12415 -0.65971,-9.99158 1.34926,-1.26757 2.39709,-1.54151 6.5268,-1.70635 6.93554,-0.27684 7.7995,-0.53132 7.7995,-2.29742 0,-2.0358 -1.96898,-3.64953 -4.939,-4.04789 -2.07618,-0.27847 -2.73333,-0.0638 -4.04968,1.32318 -2.7319,2.87842 -6.09486,1.8687 -4.38944,-1.31791 1.22336,-2.28587 3.82775,-3.40438 7.92689,-3.40438 4.35742,0 7.53863,1.24376 9.03932,3.53411 1.02348,1.56201 1.05707,2.2913 0.36361,7.89346 -0.42023,3.39484 -0.76127,7.68443 -0.75788,9.53243 0.003,1.848 -0.20982,3.32078 -0.47382,3.27285 -0.264,-0.0479 -1.11439,-0.21019 -1.88974,-0.36055 z m -5.38632,-4.74169 c 1.98555,-0.69216 3.91606,-3.32406 3.91606,-5.33883 0,-0.77214 -0.75839,-0.99178 -3.4245,-0.99178 -5.84979,0 -8.68002,1.63011 -7.77593,4.47865 0.36974,1.16495 2.51902,2.44591 4.22492,2.51804 0.56348,0.0238 1.94023,-0.27591 3.05945,-0.66608 z m 175.05201,3.16574 c -0.25895,-0.41899 0.1492,-1.23662 0.9349,-1.87285 1.65339,-1.33883 1.29502,-1.51704 -4.39084,-2.1835 -4.85631,-0.56922 -5.76,-0.89108 -5.76,-2.05151 0,-0.85474 0.62565,-0.94115 4.17869,-0.57713 2.29829,0.23547 5.10629,0.60721 6.24,0.82609 2.01364,0.38877 2.03541,0.36865 0.94131,-0.87013 -1.34809,-1.52635 -1.44957,-2.76732 -0.2263,-2.76732 1.10794,0 4.8663,4.1949 4.8663,5.43153 0,0.49884 -1.27589,1.78482 -2.83532,2.85773 -3.19779,2.20014 -3.3132,2.23542 -3.94874,1.20709 z m -212.63407,-4.26123 c -1.83034,-0.17539 -2.09112,-0.40571 -1.8116,-1.6 0.17958,-0.76732 1.11747,-7.44312 2.0842,-14.83512 0.96673,-7.392 1.98866,-13.7043 2.27094,-14.02734 0.65542,-0.75002 14.40941,1.16867 17.43267,2.43188 4.21982,1.76315 5.85746,6.61636 3.93298,11.65554 -1.53648,4.02321 -3.90728,5.38566 -9.29107,5.33938 -2.288,-0.0197 -5.52331,-0.26022 -7.18958,-0.53456 -3.48351,-0.57355 -3.352,-0.7587 -4.04503,5.6951 -0.61428,5.72054 -0.84348,6.11852 -3.38351,5.87512 z m 18.23043,-16.35218 c 2.28121,-1.96221 2.47463,-5.75217 0.38012,-7.4482 -1.81785,-1.47201 -11.65031,-2.98608 -12.32303,-1.89759 -0.55344,0.89547 -1.44722,8.97837 -1.03804,9.38754 0.41291,0.41292 6.10076,1.31241 8.85295,1.40004 1.64185,0.0523 2.90324,-0.3883 4.128,-1.44179 z"
       id="path1" />
  </g>
</svg>
