<?xml version="1.0" encoding="UTF-8" standalone="no"?>
<!-- Created with Inkscape (http://www.inkscape.org/) -->

<svg
   width="907"
   height="170"
   viewBox="0 0 907 170"
   version="1.1"
   id="svg1"
   xml:space="preserve"
   inkscape:export-filename="..\..\..\..\..\Desktop\somma vettori.pdf"
   inkscape:export-xdpi="96"
   inkscape:export-ydpi="96"
   inkscape:version="1.3 (0e150ed6c4, 2023-07-21)"
   sodipodi:docname="disegno.svg"
   xmlns:inkscape="http://www.inkscape.org/namespaces/inkscape"
   xmlns:sodipodi="http://sodipodi.sourceforge.net/DTD/sodipodi-0.dtd"
   xmlns="http://www.w3.org/2000/svg"
   xmlns:svg="http://www.w3.org/2000/svg"><sodipodi:namedview
     id="namedview1"
     pagecolor="#ffffff"
     bordercolor="#cccccc"
     borderopacity="1"
     inkscape:showpageshadow="false"
     inkscape:pageopacity="1"
     inkscape:pagecheckerboard="false"
     inkscape:deskcolor="#d1d1d1"
     inkscape:document-units="mm"
     inkscape:export-bgcolor="#ffffffff"
     inkscape:zoom="1.4778115"
     inkscape:cx="479.76349"
     inkscape:cy="-56.50247"
     inkscape:window-width="2560"
     inkscape:window-height="1369"
     inkscape:window-x="3832"
     inkscape:window-y="69"
     inkscape:window-maximized="1"
     inkscape:current-layer="layer1" /><defs
     id="defs1"><rect
       x="261.19705"
       y="167.81572"
       width="29.09708"
       height="45.337311"
       id="rect13" /><marker
       markerUnits="strokeWidth"
       refX="0"
       refY="5"
       markerWidth="4"
       markerHeight="3"
       orient="auto"
       viewBox="0 0 10 10"
       id="ArrowEnd"><path
         d="M 0,0 10,5 0,10 Z"
         id="path7" /></marker><marker
       markerUnits="strokeWidth"
       refX="10"
       refY="5"
       markerWidth="4"
       markerHeight="3"
       orient="auto"
       viewBox="0 0 10 10"
       id="ArrowStart"><path
         d="M 10,0 0,5 10,10 Z"
         id="path10" /></marker></defs><g
     inkscape:label="Livello 1"
     inkscape:groupmode="layer"
     id="layer1"><path
       style="fill:#000000;fill-opacity:1;stroke:#000000;stroke-width:0.841777;stroke-opacity:1"
       d="m 310.65065,145.15979 26.161,-52.961824"
       id="path8" /><path
       style="fill:#000000;stroke-width:1.77241"
       d="m 306.10194,145.50056 h -4.19295 l -0.0972,0.78155 -0.0976,0.78153 -0.0439,-0.78153 -0.0439,-0.78155 h -4.31342 -4.31329 l -0.0976,0.78155 -0.0972,0.78153 -0.0439,-0.78153 -0.0435,-0.78155 h -4.20868 -4.20839 v 0.72148 0.72149 h -0.24008 -0.24007 v -0.72187 -0.72148 h -4.20831 -4.20823 v 0.72148 0.72148 h -0.24006 -0.2401 v -0.72148 -0.72148 h -4.08811 -4.08792 v 1.68332 1.68332 h -0.36085 -0.36008 v -1.68332 -1.68332 h -4.08814 -4.08799 v 0.72148 0.72148 h -0.24007 -0.2401 v -0.72148 -0.72148 h -4.19655 -4.20824 v 0.72148 0.72148 h -0.24081 -0.24081 v -0.72148 -0.72148 h -4.19297 -4.19309 l -0.0966,0.78155 -0.0967,0.78153 -0.0363,-0.78153 -0.0363,-0.78155 h -4.19905 -4.20831 v 0.72148 0.72148 h -0.2408 -0.24081 v -0.72148 -0.72148 h -4.08805 -4.08804 v 1.68332 1.68332 h -0.36084 -0.36086 v -1.68332 -1.68332 h -4.19271 -4.19305 l -0.0967,0.78155 -0.0966,0.78153 -0.0363,-0.78153 -0.0363,-0.78155 h -4.20831 -4.20823 v 0.72148 0.72148 h -0.24081 -0.2408 v -0.72148 -0.72148 h -4.2083 -4.20823 v 0.72148 0.72148 h -0.24099 -0.24081 v -0.72148 -0.72148 h -2.88569 -2.88567 v -0.36068 -0.3607 h 2.88567 2.88569 v -0.72158 -0.72147 h 0.24081 0.24082 v 0.72147 0.72147 h 4.20823 4.2083 v -0.72147 -0.72147 h 0.2408 0.24081 v 0.72147 0.72147 h 4.19301 4.19308 l 0.0966,-0.78153 0.0966,-0.78154 0.0363,0.78154 0.0363,0.78153 h 4.20828 4.20833 v -1.68331 -1.6833 h 0.36083 0.36084 v 1.6833 1.68331 h 4.08805 4.08806 v -0.72147 -0.72147 h 0.24079 0.24079 v 0.72147 0.72147 h 4.19304 4.193 l 0.0966,-0.78153 0.0968,-0.78154 0.0363,0.78154 0.0363,0.78153 h 4.20832 4.2083 v -0.72147 -0.72147 h 0.2408 0.24007 v 0.72147 0.72147 h 4.20828 4.20827 v -0.72147 -0.72147 h 0.24007 0.24009 v 0.72147 0.72147 h 4.08805 4.08805 v -1.68331 -1.6833 h 0.36083 0.36014 v 1.6833 1.68331 h 4.08797 4.0881 v -0.72147 -0.72147 h 0.2401 0.24008 v 0.72147 0.72147 h 4.20822 4.20824 v -0.72147 -0.72147 h 0.24008 0.24006 v 0.72147 0.72147 h 4.19302 4.19319 l 0.0976,-0.78153 0.0976,-0.78154 0.0439,0.78154 0.0439,0.78153 h 4.31329 4.31337 l 0.0976,-0.78153 0.0974,-0.78154 0.0439,0.78154 0.0439,0.78153 h 4.20845 4.20824 v -4.08804 -4.08805 h -0.70714 -0.70715 l -0.14848,-0.2405 -0.14863,-0.24053 h 0.8559 0.85586 v -4.20827 -4.2083 h -0.84166 -0.84162 v -0.24051 -0.24051 h 0.84162 0.84166 v -4.20837 -4.20828 l -0.90174,-0.032 -0.90184,-0.032 0.8417,-0.14871 0.84166,-0.14871 0.0656,-4.14817 0.0656,-4.14816 h -0.71296 -0.71296 l -0.14922,-0.24052 -0.14848,-0.24051 h 0.86142 0.86161 l -0.0656,-4.14817 -0.0656,-4.14817 v -0.72119 l 0.0656,-4.148162 0.0656,-4.14816 h -0.86089 -0.8615 l 0.14847,-0.24052 0.14924,-0.240513 h 0.71299 0.71293 l -0.0656,-4.148171 -0.0656,-4.148152 -0.84158,-0.148721 -0.84176,-0.148655 0.90184,-0.03183 0.90174,-0.03183 V 79.00828 74.800004 h -0.84157 -0.84172 v -0.24094 -0.240483 h 0.84172 0.84157 v -4.208465 -4.208294 h -0.85584 -0.85586 l 0.14924,-0.240484 0.14848,-0.240489 h 0.70713 0.70715 v -4.08804 -4.088047 h -1.80357 -1.80352 v -0.360685 -0.360731 h 1.80286 1.80352 V 52.4353 48.34725 h -0.84161 -0.84164 v -0.240488 -0.240481 h 0.84164 0.84161 v -4.208245 -4.208278 h -0.84161 -0.84164 V 39.20927 38.968781 h 0.84164 0.84161 v -4.193773 -4.193763 l -0.9017,-0.09433 -0.90182,-0.0943 0.90182,-0.04009 0.9017,-0.04009 -0.006,-2.70534 -0.006,-2.705314 -2.05149,2.164262 -2.0516,2.164253 0.0735,-0.264517 0.0735,-0.264518 2.0299,-5.687215 2.03002,-5.687222 h 0.15718 0.15723 l 1.95178,5.486782 1.95174,5.486774 0.15074,0.464949 0.15059,0.46495 -1.9362,-2.044026 -1.93621,-2.044026 -0.006,2.569858 -0.006,2.569849 0.78146,0.09705 0.78148,0.09702 -0.78148,0.03841 -0.78146,0.03841 v 4.208288 4.208279 h 0.72167 0.72168 v 0.240496 0.24048 h -0.72168 -0.72167 v 4.208279 4.208295 h 0.72167 0.72168 v 0.240489 0.240488 h -0.72168 -0.72167 v 4.088041 4.088047 h 1.68331 1.68333 v 0.360731 0.360731 h -1.68333 -1.68331 v 4.088047 4.08804 h 0.72167 0.72168 v 0.24049 0.240489 h -0.72168 -0.72167 v 4.208343 4.208288 h 0.72167 0.72168 v 0.240483 0.24049 h -0.72168 -0.72167 v 4.193056 4.193032 l 0.78146,0.09703 0.78148,0.09702 -0.78148,0.0384 -0.78146,0.03846 v 4.208289 4.208276 h 0.58708 0.58709 l 0.14847,0.240519 0.14924,0.240514 h -0.73568 -0.73575 v 4.208284 4.208302 0.48096 4.20828 4.20828 h 0.73575 0.73568 l -0.14924,0.24051 -0.14847,0.24053 h -0.58709 -0.58708 v 4.19306 4.19304 l 0.78146,0.097 0.78148,0.097 -0.78148,0.0386 -0.78146,0.0386 v 4.20829 4.20827 h 0.72167 0.72168 v 0.24052 0.2405 h -0.72168 -0.72167 v 4.20822 4.2083 h 0.73571 0.73567 l -0.14923,0.24051 -0.14847,0.24052 h -0.5871 -0.58709 v 4.08805 4.08805 h 4.08807 4.08798 v -0.72147 -0.72142 h 0.24012 0.24006 v 0.72142 0.72147 h 4.19301 4.19314 l 0.0976,-0.78154 0.0972,-0.78155 0.0439,0.78155 0.0439,0.78154 h 4.2084 4.20822 v -1.20294 h 0.48015 v 1.20238 h 4.20828 4.20827 v -0.7215 -0.7214 h 0.24007 0.24007 v 0.7214 0.72147 h 4.08799 4.08811 v -1.68331 -1.6833 h 0.3601 0.36014 v 1.6833 1.68331 h 4.08798 4.0881 v -0.72147 -0.7214 h 0.2401 0.24006 v 0.7214 0.72147 h 4.20833 4.20828 v -0.72147 -0.7214 h 0.24009 0.24008 v 0.7214 0.72147 h 4.19301 4.19303 l 0.0976,-0.78152 0.0972,-0.78155 0.044,0.78155 0.0435,0.78152 h 4.20825 4.2084 v -0.72147 -0.7214 h 0.24006 0.24008 v 0.7214 0.72147 h 4.08803 4.08802 v -1.68331 -1.6833 h 0.36008 0.36012 v 1.6833 1.68331 h 4.19306 4.19313 l 0.0976,-0.78152 0.0976,-0.78155 0.0439,0.78155 0.0435,0.78152 h 4.31329 4.31327 l 0.0976,-0.78152 0.0974,-0.78155 0.0439,0.78155 0.0439,0.78152 h 4.20821 4.20832 v -0.72147 -0.7214 h 0.24007 0.24007 v 0.7214 0.72147 l 2.58512,-0.008 2.5851,-0.008 -2.04404,-1.90688 -2.04398,-1.90689 0.24008,-0.008 0.24007,-0.008 5.41056,1.92997 5.41074,1.92994 0.36008,0.12996 0.36085,0.13001 -0.36085,0.19876 -0.36008,0.19869 -5.47926,1.94939 -5.4791,1.94938 -0.17186,-0.0116 -0.17167,-0.0116 2.04406,-1.90781 2.04398,-1.90778 -2.58504,-0.006 -2.5851,-0.006 v 0.72147 0.72146 h -0.24005 -0.2401 v -0.72137 -0.72149 h -4.19304 -4.19301 l -0.0972,0.78154 -0.0976,0.78155 -0.044,-0.78155 -0.0439,-0.78154 h -4.3133 -4.31329 l -0.0974,0.78154 -0.0976,0.78155 -0.044,-0.78155 -0.0439,-0.78154 H 403.28 399.07172 v 1.68332 1.68331 h -0.35941 -0.36083 v -1.68331 -1.68332 h -4.08828 -4.08814 v 0.72149 0.72147 h -0.24006 -0.24005 v -0.72147 -0.72149 h -4.19314 -4.19301 l -0.0972,0.78154 -0.0976,0.78155 -0.0439,-0.78155 -0.044,-0.78154 h -4.20822 -4.20823 v 0.72149 0.72147 h -0.24008 -0.24009 v -0.72147 -0.72149 h -4.20831 -4.20822 v 0.72149 0.72147 h -0.24012 -0.24004 v -0.72147 -0.72149 h -4.08816 -4.08799 v 1.68332 1.68331 h -0.36016 -0.36012 v -1.68331 -1.68332 h -4.08803 -4.08804 v 0.72149 0.72147 h -0.24008 -0.24008 v -0.72147 -0.72149 h -4.20824 -4.20823 v 0.72149 0.72147 h -0.24012 -0.24005 v -0.72147 -0.72149 h -4.19288 -4.19318 l -0.0976,0.78154 -0.0972,0.78155 -0.0438,-0.78155 -0.0435,-0.78154 h -4.20832 -4.20822 v 0.72149 0.72147 h -0.24007 -0.2401 v -0.72147 -0.72149 h -4.13309 z m -78.11175,15.3901 -0.60894,-0.47914 -0.291,-1.21433 -0.29099,-1.21431 0.16955,-1.35332 0.16873,-1.35331 0.68022,-0.68051 0.68021,-0.68052 h 0.75848 0.75832 l 0.6824,0.68235 0.68245,0.68232 0.17751,1.18134 0.17751,1.18134 -0.27281,1.3226 -0.27284,1.32261 -0.6191,0.54104 -0.61911,0.54106 h -0.67587 -0.67588 z m 2.189,-0.61425 0.27938,-0.61248 v -2.16874 -2.16877 l -0.24882,-0.46509 -0.24879,-0.4651 h -0.70424 -0.70426 l -0.24879,0.4651 -0.24881,0.46509 v 2.31613 2.31609 l 0.24881,0.46512 0.24879,0.46508 h 0.6744 0.67445 z m 38.84869,0.48765 -0.60603,-0.60579 0.0735,-0.6547 0.0735,-0.6547 0.42195,-0.0802 0.42198,-0.0801 0.15867,0.41331 0.15868,0.41329 -0.41324,0.3025 -0.41395,0.30251 0.54853,0.38413 0.54859,0.38412 h 0.38992 0.38995 l 0.39795,-0.43979 0.39793,-0.43977 v -1.22625 -1.2264 l -0.37753,-0.37786 -0.37759,-0.37788 h -0.34337 -0.34338 l -0.48089,0.48096 -0.48088,0.48094 h -0.12013 -0.12013 v -1.86364 -1.86368 h 1.68325 1.68331 v 0.17485 0.17483 l -0.59581,0.39031 -0.59583,0.39032 h -0.8472 -0.84718 v 0.75921 0.7592 l 1.04306,-0.0829 1.04301,-0.083 0.64021,0.76092 0.64019,0.76095 v 0.69164 0.69167 l -0.28809,0.63052 -0.28736,0.63053 -0.66276,0.34267 -0.66274,0.34265 h -0.62349 -0.62423 z m 84.18114,0.0153 -0.59,-0.59023 v -0.74904 -0.74908 l 0.52232,0.0767 0.52236,0.0767 0.0902,0.27267 0.0903,0.27266 -0.3732,0.37358 -0.37319,0.37358 0.53615,0.37577 0.53618,0.37576 h 0.38997 0.38993 l 0.39793,-0.43978 0.39795,-0.43979 v -1.22638 -1.22636 l -0.37758,-0.37787 -0.37759,-0.37787 h -0.31136 -0.31137 l -0.63367,0.4984 -0.63364,0.49836 v -1.88108 -1.88113 h 1.68338 1.68323 v 0.16677 0.16674 l -0.53473,0.37438 -0.53472,0.37439 h -0.90833 -0.90832 v 0.78325 0.78325 l 1.04294,-0.083 1.04305,-0.083 0.64021,0.76094 0.64021,0.76094 v 0.69166 0.69165 l -0.28809,0.63054 -0.28663,0.63052 -0.66278,0.34266 -0.66276,0.34266 h -0.62421 -0.62347 z m 46.91213,0.0489 -0.61913,-0.54104 -0.27208,-1.32261 -0.2728,-1.32261 0.17749,-1.18134 0.17753,-1.18134 0.68241,-0.68233 0.68239,-0.68233 h 0.72677 0.72677 l 0.61914,0.54104 0.61912,0.54106 0.28009,1.35648 0.28008,1.35649 -0.30047,1.34412 -0.30042,1.34413 -0.61695,0.4856 -0.61692,0.48563 h -0.67588 -0.67584 z m 2.14172,-0.47434 0.37468,-0.53443 v -2.24647 -2.24681 l -0.24951,-0.46509 -0.24954,-0.46512 h -0.70496 -0.70498 l -0.24958,0.46512 -0.24805,0.46509 v 2.31613 2.3161 l 0.24805,0.46509 0.24958,0.4651 h 0.5798 0.57838 z m -180.2211,0.55044 v -0.22445 l 0.66129,-0.076 0.6613,-0.076 0.0656,-2.85718 0.0656,-2.85723 -0.74869,0.14971 -0.74869,0.14971 0.0982,-0.29843 0.0982,-0.29843 0.58201,-0.0801 0.58203,-0.0801 0.22841,-0.22017 0.22847,-0.22014 h 0.18544 0.18568 l 0.0656,3.30651 0.0656,3.3065 0.66127,0.076 0.66134,0.076 v 0.22444 0.22446 h -1.80308 -1.8036 z m 172.1789,-0.0159 v -0.24051 h 0.72168 0.72168 v -2.89478 -2.89478 l -0.54125,0.0698 -0.54128,0.0698 -0.0735,-0.2405 -0.0735,-0.24051 0.67369,-0.15063 0.67366,-0.1506 0.42125,-0.17575 0.42121,-0.17577 v 3.39237 3.39234 h 0.60166 0.60092 v 0.24051 0.24054 h -1.80348 -1.80362 z m -180.59548,-2.52458 v -0.36071 h 3.2464 3.24639 v 0.36071 0.36069 h -3.24639 -3.2464 z m 46.77108,0.11852 -0.14981,-0.2422 0.32957,-0.12629 0.3296,-0.12634 2.97281,0.0676 2.97298,0.0676 0.0995,0.30055 0.0996,0.30051 h -3.25238 -3.25219 z m 36.78227,-54.45458 -0.59003,-0.59023 v -0.58645 -0.58645 l 0.38271,-0.14673 0.38266,-0.14674 0.21907,0.13519 0.2191,0.13517 v 0.4467 0.4467 l -0.30048,0.1012 -0.30119,0.1012 0.33031,0.39976 0.33028,0.39977 h 0.66278 0.66202 l 0.29174,-0.35124 0.29173,-0.35125 0.11954,-0.9112 0.11953,-0.9112 -0.25537,-0.66132 -0.25463,-0.6613 h -0.69839 -0.69844 l -0.299,0.3607 -0.29899,0.3607 h -0.21108 -0.2109 v -1.863732 -1.86367 h 1.8035 1.80361 l -0.0735,0.24051 -0.0735,0.24051 -0.82735,0.43062 -0.82738,0.43062 -0.66132,-0.0884 -0.66133,-0.0884 v 0.9287 0.928702 l 0.46487,-0.24888 0.4649,-0.248882 h 0.58421 0.58422 l 0.63438,0.633962 0.63438,0.63395 0.0439,0.50824 0.0439,0.50832 -0.051,0.60122 -0.051,0.60121 -0.7166,0.66131 -0.71658,0.66131 h -0.8488 -0.8488 z m 0.20469,-43.996537 -0.67438,-0.580201 -0.0831,-2.153227 -0.0821,-2.153226 0.37176,-0.719569 0.37176,-0.719588 0.7553,-0.312815 0.75532,-0.312839 0.61401,0.218832 0.61403,0.218813 0.4947,0.663912 0.49472,0.663901 0.0996,1.570943 0.0995,1.570931 -0.41031,1.074434 -0.41035,1.074423 -0.44378,0.237708 -0.44378,0.237703 h -0.72383 -0.7232 z m 2.07103,-0.121471 0.46122,-0.461183 0.16726,-1.340909 0.16747,-1.340914 -0.17164,-1.143717 -0.17168,-1.143711 -0.22551,-0.420812 -0.22553,-0.420801 h -0.58711 -0.5871 l -0.38926,0.593693 -0.3892,0.593693 0.0831,2.431914 0.0839,2.431902 0.46706,0.341032 0.46635,0.341033 h 0.19425 0.19486 z m -7.91588,0.220688 v -0.240477 h 0.7217 0.7217 v -2.879691 -2.879666 l -0.7217,0.144291 -0.7217,0.144285 v -0.270564 -0.270569 l 0.42124,-0.0018 0.42122,-0.0018 0.64385,-0.336127 0.64386,-0.336122 0.13758,0.137238 0.13757,0.137245 v 3.206312 3.206314 h 0.60093 0.60092 v 0.240489 0.240483 h -1.80358 -1.80357 z"
       id="path1"
       sodipodi:nodetypes="ccccccccccccccccccccccccccccccccccccccccccccccccccccccccccccccccccccccccccccccccccccccccccccccccccccccccccccccccccccccccccccccccccccccccccccccccccccccccccccccccccccccccccccccccccccccccccccccccccccccccccccccccccccccccccccccccccccccccccccccccccccccccccccccccccccccccccccccccccccccccccccccccccccccccccccccccccccccccccccccccccccccccccccccccccccccccccccccccccccccccccccccccccccccccccccccccccccccccccccccccccccccccccccccccccccccccccccccccccccccccccccccccccccccccccccccccccccccccccccccccccccccccccccccccccccccccccccccccccccccccccccccccccccccccccccccccccccccccccccccccccccccccccccccccccccccccccccccccccccccccccccccccccccccccccccccccccccccccccccccccccccccccccccccccccccccccccccccccccccccccccccccccccccccccccccccccccccccccccccccccccccccccccccccccccccccccccccccccccccccccccccccccccccccccccccccccccccccccccccccccccccccccccccccccccccccccccccccccccccccccccccccccccccccccccccccccccccccccccccccccccccccccccccccccccccccccccccccccccccccccccccccccccccccccccccccccccccccccccccccccccccccccccccccc" /><path
       d="m 331.96101,101.10672 1.13398,-2.323122 -2.61289,0.99291 -2.61285,0.992872 0.0992,-0.21877 0.0991,-0.21878 4.11918,-4.003752 4.11925,-4.003901 0.2755,-0.265792 0.27589,-0.26645 0.019,0.411508 0.0194,0.410796 -0.66891,5.776989 -0.66883,5.776842 -0.0863,0.14912 -0.0862,0.14892 -0.80969,-2.676 -0.80971,-2.675942 -1.14601,2.317142"
       style="fill:#000000;stroke-width:1.77225"
       id="path1-2" /><path
       d="m 589.89416,130.66251 1.13433,-1.90444 -2.25574,0.63313 -2.2557,0.63309 0.10046,-0.17998 0.10047,-0.18001 3.75632,-3.09823 3.75642,-3.09836 0.25106,-0.20551 0.25144,-0.20603 -0.0179,0.35603 -0.0176,0.35546 -1.03088,4.91861 -1.03081,4.91852 -0.084,0.12108 -0.0839,0.12095 -0.45405,-2.37353 -0.45408,-2.37347 -1.14385,1.89827"
       style="fill:#000000;stroke-width:1.50761"
       id="path1-2-5" /><path
       d="m 674.12563,36.394269 1.88287,-1.117704 -2.25638,-0.514656 -2.25632,-0.51467 0.1721,-0.108815 0.17211,-0.108827 4.72158,-0.916839 4.72173,-0.916914 0.31484,-0.05991 0.31541,-0.06019 -0.18348,0.300546 -0.183,0.300165 -3.21501,3.782415 -3.2149,3.782362 -0.13003,0.06546 -0.1299,0.06537 0.72565,-2.274123 0.72558,-2.274078 -1.88821,1.107859"
       style="fill:#000000;stroke-width:1.48921"
       id="path1-2-5-2" /><path
       d="m 690.11929,16.880046 1.09065,-1.898667 -2.21806,0.660506 -2.21803,0.660467 0.0964,-0.179337 0.0964,-0.179352 3.66172,-3.118617 3.6618,-3.1187565 0.24477,-0.206884 0.24513,-0.207411 -0.0121,0.351917 -0.0119,0.351348 -0.94148,4.8740705 -0.94142,4.873972 -0.0811,0.120904 -0.081,0.120767 -0.48548,-2.337201 -0.48549,-2.337136 -1.10014,1.892717"
       style="fill:#000000;stroke-width:1.48921"
       id="path1-2-5-2-1" /><path
       d="m 662.65189,96.372528 1.8819,-1.17134 -2.29468,-0.472877 -2.29464,-0.472891 0.17186,-0.113798 0.17188,-0.113803 4.75934,-1.028453 4.75949,-1.028526 0.31737,-0.06734 0.31796,-0.06763 -0.17931,0.308098 -0.17883,0.307697 -3.1735,3.896713 -3.1734,3.896672 -0.13021,0.069 -0.13008,0.0689 0.68604,-2.317152 0.68599,-2.3171 -1.88753,1.16148"
       style="fill:#000000;stroke-width:1.50761"
       id="path1-2-5-5" /><path
       d="m 346.2918,123.37692 2.19931,-1.3586 -2.73937,-0.55581 -2.73931,-0.55581 0.20066,-0.13203 0.20066,-0.13203 5.62072,-1.18542 5.62084,-1.18551 0.37486,-0.0776 0.37555,-0.0779 -0.20362,0.35811 -0.20296,0.3577 -3.65049,4.52712 -3.65035,4.52706 -0.15255,0.08 -0.15238,0.0799 0.74442,-2.69489 0.74439,-2.69484 -2.2063,1.34711"
       style="fill:#000000;stroke-width:1.77225"
       id="path1-2-9" /><path
       style="fill:#000000;fill-opacity:1;stroke:#000000;stroke-width:0.65448;stroke-dasharray:0.447933, 2.68759;stroke-dashoffset:0;stroke-opacity:1"
       d="M 354.58407,145.01761 V 118.28789"
       id="path11" /><path
       style="fill:#000000;fill-opacity:1;stroke:#000000;stroke-width:0.841777;stroke-dasharray:none;stroke-dashoffset:0;stroke-opacity:1"
       d="m 310.99424,145.06586 43.43155,-26.2399"
       id="path13" /><path
       style="fill:#000000;fill-opacity:1;stroke:#000000;stroke-width:0.771107;stroke-dasharray:0.527756, 3.16653;stroke-dashoffset:0;stroke-opacity:1"
       d="m 310.50847,118.57225 h 44.50214"
       id="path12" /><path
       style="fill:#000000;stroke-width:1.77241"
       d="m 581.26755,145.88018 h -4.19304 -4.19295 l -0.0972,0.78155 -0.0976,0.78153 -0.0439,-0.78153 -0.0439,-0.78155 h -4.3134 -4.3133 l -0.0976,0.78155 -0.0972,0.78153 -0.0439,-0.78153 -0.0435,-0.78155 h -4.20869 -4.20839 v 0.72148 0.72149 h -0.24007 -0.24008 v -0.72188 -0.72147 h -4.20831 -4.20822 v 0.72147 0.72149 h -0.24007 -0.2401 v -0.72149 -0.72147 h -4.08811 -4.08791 v 1.68332 1.68333 h -0.36086 -0.36008 v -1.68333 -1.68332 h -4.08813 -4.08799 v 0.72147 0.72149 h -0.24008 -0.24009 v -0.72149 -0.72147 h -4.19657 -4.20822 v 0.72147 0.72149 h -0.24082 -0.2408 v -0.72149 -0.72147 h -4.19297 -4.19309 l -0.0966,0.78155 -0.0967,0.78152 -0.0363,-0.78152 -0.0363,-0.78155 h -4.19905 -4.2083 v 0.72147 0.72149 h -0.2408 -0.24081 v -0.72149 -0.72147 h -4.08805 -4.08804 v 1.68332 1.68333 h -0.36084 -0.36086 v -1.68333 -1.68332 h -4.19272 -4.19305 l -0.0967,0.78155 -0.0966,0.78152 -0.0363,-0.78152 -0.0363,-0.78155 h -4.2083 -4.20823 v 0.72147 0.72149 h -0.2408 -0.2408 v -0.72149 -0.72147 h -4.2083 -4.20823 v 0.72147 0.72149 h -0.24082 -0.24081 v -0.72149 -0.72147 h -2.88568 -2.88568 v -0.36068 -0.36071 h 2.88568 2.88568 v -0.72157 -0.72148 h 0.24081 0.24082 v 0.72148 0.72146 h 4.20823 4.2083 v -0.72146 -0.72148 h 0.2408 0.2408 v 0.72148 0.72146 h 4.19302 4.19308 l 0.0966,-0.78152 0.0966,-0.78154 0.0363,0.78154 0.0363,0.78152 h 4.20829 4.20832 v -1.6833 -1.68331 h 0.36083 0.36085 v 1.68331 1.6833 h 4.08805 4.08806 v -0.72146 -0.72148 h 0.24079 0.24079 v 0.72148 0.72146 h 4.19304 4.193 l 0.0966,-0.78152 0.0968,-0.78154 0.0363,0.78154 0.0363,0.78152 h 4.20831 4.20831 v -0.72146 -0.72148 h 0.2408 0.24008 v 0.72148 0.72146 h 4.20827 4.20828 v -0.72146 -0.72148 h 0.24006 0.2401 v 0.72148 0.72146 h 4.08804 4.08807 v -1.6833 -1.68331 h 0.36082 0.36013 v 1.68331 1.6833 h 4.08798 4.0881 v -0.72146 -0.72148 h 0.2401 0.24007 v 0.72148 0.72146 h 4.20823 4.20825 v -0.72146 -0.72148 h 0.24007 0.24006 v 0.72148 0.72146 h 4.19302 4.19319 l 0.0976,-0.78152 0.0976,-0.78154 0.044,0.78154 0.0439,0.78152 h 4.31328 4.31338 l 0.0976,-0.78152 0.0974,-0.78154 0.0439,0.78154 0.044,0.78152 h 4.20847 4.20823 v -4.08804 -4.08804 h -0.70716 -0.70715 l -0.14847,-0.2405 -0.14863,-0.24053 h 0.8559 0.85586 v -4.20828 -4.20829 h -0.84166 -0.84163 v -0.2405 -0.24052 h 0.84163 0.84166 v -4.20837 -4.20828 l -0.90175,-0.0319 -0.90184,-0.032 0.8417,-0.14872 0.84166,-0.1487 0.0655,-4.14818 0.0656,-4.14815 h -0.71297 -0.71295 l -0.14923,-0.24052 -0.14847,-0.24051 h 0.86141 0.86162 l -0.0656,-4.14817 -0.0655,-4.14817 v -0.72119 l 0.0655,-4.148172 0.0656,-4.148156 h -0.86089 -0.8615 l 0.14847,-0.240519 0.14924,-0.240514 h 0.71298 0.71294 l -0.0656,-4.14817 -0.0655,-4.148159 -0.84159,-0.148715 -0.84176,-0.14866 0.90183,-0.03183 0.90175,-0.03183 v -4.208026 -4.208282 h -0.84157 -0.84172 v -0.24094 -0.240477 h 0.84172 0.84157 v -4.208465 -4.2083 h -0.85584 -0.85585 l 0.14923,-0.240478 0.14849,-0.240489 h 0.70712 0.70715 v -4.08804 -4.088047 h -1.80357 -1.80351 v -0.360785 -0.360732 h 1.80285 1.80353 v -4.088046 -4.08805 h -0.84162 -0.84164 v -0.240524 -0.24048 h 0.84164 0.84162 V 44.037609 39.82933 h -0.84162 -0.84164 v -0.240488 -0.240489 h 0.84164 0.84162 v -4.193772 -4.193764 l -0.90171,-0.09433 -0.90182,-0.0943 0.90182,-0.04009 0.90171,-0.04009 -0.006,-2.705339 -0.006,-2.705314 -2.05149,2.164261 -2.0516,2.164253 0.0735,-0.264517 0.0735,-0.264517 2.0299,-5.687214 2.03002,-5.687223 h 0.15719 0.15723 l 1.95178,5.486782 1.95174,5.486773 0.15074,0.46495 0.15058,0.46495 -1.93619,-2.044026 -1.93622,-2.044026 -0.006,2.569858 -0.006,2.56985 0.78147,0.09705 0.78147,0.09702 -0.78147,0.03841 -0.78147,0.03841 v 4.208287 4.208278 h 0.72168 0.72167 v 0.240497 0.24048 h -0.72167 -0.72168 v 4.208279 4.208296 h 0.72168 0.72167 v 0.240488 0.240489 h -0.72167 -0.72168 v 4.088045 4.08804 h 1.68331 1.68332 v 0.360731 0.360731 h -1.68332 -1.68331 v 4.088047 4.088041 h 0.72168 0.72167 v 0.240489 0.24049 h -0.72167 -0.72168 v 4.208349 4.208282 h 0.72168 0.72167 v 0.240477 0.240495 h -0.72167 -0.72168 v 4.193051 4.193044 l 0.78147,0.09703 0.78147,0.09702 -0.78147,0.0384 -0.78147,0.0384 v 4.208282 4.208282 h 0.58708 0.58709 l 0.14848,0.240526 0.14923,0.240514 h -0.73568 -0.73575 v 4.20828 4.208302 0.48096 4.20828 4.20828 h 0.73575 0.73568 l -0.14923,0.24052 -0.14848,0.24052 h -0.58709 -0.58708 v 4.19305 4.19305 l 0.78147,0.097 0.78147,0.097 -0.78147,0.0386 -0.78147,0.0386 v 4.20827 4.20827 h 0.72168 0.72167 v 0.24053 0.24051 h -0.72167 -0.72168 v 4.20822 4.2083 h 0.73571 0.73568 l -0.14923,0.2405 -0.14847,0.24052 h -0.5871 -0.5871 v 4.08806 4.08804 h 4.08808 4.08798 v -0.72147 -0.72142 h 0.24011 0.24006 v 0.72142 0.72147 h 4.193 4.19315 l 0.0976,-0.78153 0.0972,-0.78155 0.0439,0.78155 0.0439,0.78153 h 4.2084 4.20822 v -1.20294 h 0.48015 v 1.20237 h 4.20828 4.20827 v -0.7215 -0.72139 h 0.24006 0.24007 v 0.72139 0.72148 h 4.088 4.08811 v -1.68331 -1.68331 h 0.36009 0.36015 v 1.68331 1.68331 h 4.08796 4.08812 v -0.72148 -0.72139 h 0.24012 0.24005 v 0.72139 0.72148 h 4.20831 4.2083 v -0.72148 -0.72139 h 0.24011 0.24006 v 0.72139 0.72148 h 4.19301 4.193 l 0.0977,-0.78153 0.0972,-0.78153 0.0438,0.78153 0.0437,0.78153 h 4.20825 4.20835 v -0.72148 -0.72139 h 0.24006 0.24011 v 0.72139 0.72148 h 4.08802 4.08802 v -1.68331 -1.68331 h 0.36009 0.36014 v 1.68331 1.68331 h 4.19306 4.19311 l 0.0976,-0.78153 0.0977,-0.78153 0.0438,0.78153 0.0437,0.78153 h 4.31329 4.31324 l 0.0976,-0.78153 0.0974,-0.78153 0.0438,0.78153 0.0438,0.78153 h 4.20825 4.2083 v -0.72148 -0.72139 h 0.24006 0.24006 v 0.72139 0.72148 l 2.58513,-0.008 2.58512,-0.008 -2.04403,-1.90687 -2.04399,-1.9069 0.24007,-0.008 0.24005,-0.008 5.41057,1.92996 5.41076,1.92996 0.3601,0.12994 0.36084,0.13001 -0.36084,0.19876 -0.3601,0.1987 -5.47928,1.94939 -5.47908,1.94937 -0.17189,-0.0116 -0.17165,-0.0116 2.04409,-1.9078 2.04398,-1.90779 -2.58507,-0.006 -2.58508,-0.006 v 0.72148 0.72146 h -0.24007 -0.2401 v -0.72138 -0.72148 h -4.19301 -4.19306 l -0.0972,0.78154 -0.0976,0.78154 -0.0438,-0.78154 -0.0438,-0.78154 h -4.31329 -4.31329 l -0.0974,0.78154 -0.0976,0.78154 -0.0437,-0.78154 -0.0438,-0.78154 h -4.20826 -4.2083 v 1.68332 1.6833 h -0.35938 -0.36085 v -1.6833 -1.68332 h -4.08827 -4.08812 v 0.72148 0.72148 h -0.24006 -0.24006 v -0.72148 -0.72148 h -4.19316 -4.19301 l -0.0972,0.78154 -0.0976,0.78154 -0.0437,-0.78154 -0.0437,-0.78154 h -4.20825 -4.2082 v 0.72148 0.72148 h -0.24011 -0.24006 v -0.72148 -0.72148 h -4.2083 -4.20825 v 0.72148 0.72148 h -0.24012 -0.24005 v -0.72148 -0.72148 h -4.08812 -4.08804 v 1.68332 1.6833 h -0.36016 -0.36012 v -1.6833 -1.68332 h -4.08803 -4.08804 v 0.72148 0.72148 h -0.24008 -0.24007 v -0.72148 -0.72148 h -4.20825 -4.20823 v 0.72148 0.72148 h -0.24011 -0.24006 v -0.72148 -0.72148 h -4.19302 -4.19317 l -0.0976,0.78154 -0.0972,0.78154 -0.0437,-0.78154 -0.0435,-0.78154 h -4.20832 -4.20822 v 0.72148 0.72148 h -0.24006 -0.2401 v -0.72148 -0.72148 h -4.13309 -4.133 z m -82.30478,15.39009 -0.60894,-0.47913 -0.291,-1.21434 -0.291,-1.2143 0.16955,-1.35332 0.16874,-1.35331 0.68022,-0.68052 0.68021,-0.68051 h 0.75848 0.75831 l 0.6824,0.68234 0.68246,0.68233 0.1775,1.18134 0.17752,1.18133 -0.27281,1.32261 -0.27285,1.32261 -0.61909,0.54104 -0.61912,0.54106 h -0.67586 -0.67588 z m 2.189,-0.61424 0.27938,-0.61249 v -2.16873 -2.16878 l -0.24882,-0.46508 -0.24879,-0.4651 h -0.70424 -0.70426 l -0.2488,0.4651 -0.2488,0.46508 v 2.31614 2.31609 l 0.2488,0.46511 0.2488,0.46509 h 0.6744 0.67444 z m 38.84868,0.48765 -0.60602,-0.60579 0.0735,-0.6547 0.0735,-0.6547 0.42195,-0.0802 0.42197,-0.0801 0.15867,0.41331 0.15868,0.41329 -0.41324,0.30249 -0.41395,0.30252 0.54854,0.38413 0.54858,0.38412 h 0.38992 0.38995 l 0.39796,-0.43979 0.39793,-0.43978 v -1.22624 -1.2264 l -0.37753,-0.37786 -0.37759,-0.37789 h -0.34337 -0.34338 l -0.4809,0.48097 -0.48088,0.48094 h -0.12013 -0.12013 v -1.86363 -1.86369 h 1.68325 1.68331 v 0.17485 0.17483 l -0.59581,0.3903 -0.59583,0.39032 h -0.84719 -0.84718 v 0.75922 0.7592 l 1.04305,-0.083 1.04301,-0.083 0.64021,0.76092 0.64019,0.76094 v 0.69165 0.69167 l -0.28809,0.63052 -0.28735,0.63053 -0.66277,0.34267 -0.66274,0.34265 h -0.6235 -0.62422 z m 84.18114,0.0153 -0.59,-0.59023 v -0.74904 -0.74909 l 0.52232,0.0767 0.52237,0.0767 0.0902,0.27267 0.0903,0.27266 -0.3732,0.37357 -0.37319,0.37358 0.53615,0.37578 0.53619,0.37576 h 0.38996 0.38993 l 0.39793,-0.43979 0.39796,-0.43978 v -1.22638 -1.22636 l -0.37759,-0.37787 -0.37759,-0.37787 h -0.31136 -0.31137 l -0.63366,0.4984 -0.63364,0.49836 v -1.88108 -1.88113 h 1.68337 1.68323 v 0.16676 0.16675 l -0.53475,0.37438 -0.5347,0.37439 h -0.90834 -0.90831 v 0.78325 0.78324 l 1.04295,-0.0829 1.04303,-0.083 0.64025,0.76094 0.64019,0.76093 v 0.69166 0.69166 l -0.2881,0.63054 -0.28664,0.63052 -0.66278,0.34266 -0.66276,0.34266 h -0.6242 -0.62346 z m 46.91213,0.0489 -0.61912,-0.54104 -0.2721,-1.32261 -0.27281,-1.32261 0.17753,-1.18134 0.17753,-1.18134 0.6824,-0.68233 0.6824,-0.68233 h 0.72677 0.72677 l 0.61912,0.54104 0.61911,0.54106 0.2801,1.35649 0.28006,1.35648 -0.30043,1.34412 -0.30042,1.34413 -0.61696,0.48561 -0.61695,0.48563 h -0.67586 -0.67582 z m 2.14173,-0.47433 0.37468,-0.53444 v -2.24647 -2.24681 l -0.24952,-0.46509 -0.24952,-0.46511 h -0.70499 -0.70499 l -0.24956,0.46511 -0.24806,0.46509 v 2.31613 2.3161 l 0.24806,0.46509 0.24956,0.46511 h 0.57983 0.57837 z m -180.2211,0.55043 v -0.22444 l 0.66129,-0.076 0.66129,-0.076 0.0656,-2.85719 0.0656,-2.85722 -0.7487,0.14971 -0.74868,0.14971 0.0982,-0.29843 0.0982,-0.29843 0.58201,-0.0801 0.58203,-0.0801 0.2284,-0.22016 0.22847,-0.22015 h 0.18545 0.18569 l 0.0655,3.30652 0.0656,3.3065 0.66127,0.076 0.66134,0.076 v 0.22444 0.22446 h -1.80308 -1.80361 z m 172.17887,-0.0159 v -0.2405 h 0.72169 0.72169 v -2.89479 -2.89478 l -0.54124,0.0698 -0.54129,0.0699 -0.0736,-0.24052 -0.0736,-0.2405 0.6737,-0.15062 0.6737,-0.15061 0.42121,-0.17574 0.42122,-0.17578 v 3.39236 3.39234 h 0.60165 0.60091 v 0.24053 0.24053 h -1.80348 -1.80361 z m -180.59546,-2.52455 v -0.3607 h 3.2464 3.24639 v 0.3607 0.3607 h -3.24639 -3.2464 z m 46.77108,0.11853 -0.1498,-0.2422 0.32956,-0.1263 0.3296,-0.12634 2.97281,0.0676 2.97299,0.0676 0.0995,0.30054 0.0996,0.30051 h -3.25238 -3.25219 z m 36.78227,-54.45458 -0.59003,-0.59023 v -0.58645 -0.58645 l 0.38271,-0.14674 0.38266,-0.14673 0.21907,0.13518 0.2191,0.13518 v 0.4467 0.44669 l -0.30048,0.1012 -0.30119,0.1012 0.33032,0.39977 0.33026,0.39977 h 0.66279 0.66203 l 0.29174,-0.35125 0.29173,-0.35124 0.11953,-0.9112 0.11953,-0.91121 -0.25536,-0.66131 -0.25463,-0.6613 h -0.6984 -0.69844 l -0.299,0.3607 -0.29899,0.36069 h -0.21108 -0.2109 v -1.863732 -1.86367 h 1.8035 1.80361 l -0.0735,0.24051 -0.0735,0.24052 -0.82736,0.43061 -0.82737,0.43062 -0.66133,-0.0884 -0.66133,-0.0884 v 0.92871 0.928712 l 0.46488,-0.24888 0.4649,-0.24887 h 0.5842 0.58422 l 0.63438,0.63395 0.63439,0.63394 0.0439,0.50824 0.0439,0.50833 -0.051,0.60121 -0.051,0.60121 -0.7166,0.66132 -0.71659,0.66131 h -0.84879 -0.84879 z m 0.2047,-43.996543 -0.67438,-0.580201 -0.0831,-2.153226 -0.0821,-2.153226 0.37176,-0.719576 0.37176,-0.719582 0.7553,-0.31282 0.75532,-0.312833 0.61401,0.218831 0.61404,0.218814 0.4947,0.663906 0.49471,0.663906 0.0996,1.570937 0.0995,1.570938 -0.4103,1.074428 -0.41036,1.074422 -0.44377,0.237709 -0.44379,0.237708 h -0.72383 -0.72319 z m 2.07103,-0.121471 0.46121,-0.461183 0.16727,-1.340908 0.16747,-1.340915 -0.17164,-1.143723 -0.17168,-1.14371 -0.22552,-0.420807 -0.22553,-0.4208 h -0.58711 -0.5871 l -0.38925,0.593687 -0.38921,0.593693 0.0831,2.431913 0.0839,2.431908 0.46706,0.341032 0.46635,0.341033 h 0.19425 0.19487 z m -7.91589,0.220706 v -0.240483 h 0.72171 0.72169 v -2.879691 -2.879666 l -0.72169,0.144286 -0.72171,0.144291 v -0.270582 -0.270564 l 0.42124,-0.0018 0.42122,-0.0018 0.64384,-0.336128 0.64387,-0.336121 0.13757,0.137238 0.13758,0.137244 v 3.206313 3.206313 h 0.60094 0.60091 v 0.240483 0.24049 h -1.80358 -1.80357 z"
       id="path1-3"
       sodipodi:nodetypes="ccccccccccccccccccccccccccccccccccccccccccccccccccccccccccccccccccccccccccccccccccccccccccccccccccccccccccccccccccccccccccccccccccccccccccccccccccccccccccccccccccccccccccccccccccccccccccccccccccccccccccccccccccccccccccccccccccccccccccccccccccccccccccccccccccccccccccccccccccccccccccccccccccccccccccccccccccccccccccccccccccccccccccccccccccccccccccccccccccccccccccccccccccccccccccccccccccccccccccccccccccccccccccccccccccccccccccccccccccccccccccccccccccccccccccccccccccccccccccccccccccccccccccccccccccccccccccccccccccccccccccccccccccccccccccccccccccccccccccccccccccccccccccccccccccccccccccccccccccccccccccccccccccccccccccccccccccccccccccccccccccccccccccccccccccccccccccccccccccccccccccccccccccccccccccccccccccccccccccccccccccccccccccccccccccccccccccccccccccccccccccccccccccccccccccccccccccccccccccccccccccccccccccccccccccccccccccccccccccccccccccccccccccccccccccccccccccccccccccccccccccccccccccccccccccccccccccccccccccccccccccccccccccccccccccccccccccccccccccccccccccccccccccccccccc" /><path
       style="fill:#000000;fill-opacity:1;stroke:#000000;stroke-width:0.609497;stroke-dasharray:none;stroke-dashoffset:0;stroke-opacity:1"
       d="m 581.57333,145.31585 13.17713,-22.23641"
       id="path18" /><path
       style="fill:#000000;fill-opacity:1;stroke:#000000;stroke-width:0.609497;stroke-dasharray:none;stroke-dashoffset:0;stroke-opacity:1"
       d="M 681.26581,32.41329 694.44294,10.176874"
       id="path18-2" /><path
       style="fill:#000000;fill-opacity:1;stroke:#000000;stroke-width:0.609497;stroke-dasharray:none;stroke-dashoffset:0;stroke-opacity:1"
       d="M 581.5437,145.44659 669.77012,92.452494"
       id="path19" /><path
       style="fill:#000000;fill-opacity:1;stroke:#000000;stroke-width:0.609497;stroke-dasharray:none;stroke-dashoffset:0;stroke-opacity:1"
       d="M 592.72168,85.636297 680.9481,32.642205"
       id="path19-0" /><path
       style="fill:none;stroke:#000000;stroke-width:0.558729;stroke-dasharray:0.558729, 3.35236;stroke-dashoffset:0"
       d="M 337.03307,145.11612 V 91.854615"
       id="path2" /><path
       style="fill:none;stroke:#000000;stroke-width:0.646648;stroke-dasharray:0.646648, 3.87989;stroke-dashoffset:0"
       d="m 310.65065,91.984703 h 27.01678"
       id="path3" /><circle
       style="fill:#000000;fill-opacity:1;stroke:#ff4714;stroke-width:0.841777;stroke-opacity:1"
       id="path4"
       cx="337.03308"
       cy="-92.033112"
       r="0.40214399"
       transform="scale(1,-1)" /><circle
       style="fill:#000000;fill-opacity:1;stroke:#ff4714;stroke-width:0.841777;stroke-opacity:1"
       id="path4-1"
       cx="354.58395"
       cy="118.57771"
       r="0.40214399" /><text
       xml:space="preserve"
       style="font-size:10.0855px;fill:#000000;fill-opacity:1;stroke:#000000;stroke-width:0.841777;stroke-opacity:1"
       x="339.72086"
       y="85.992683"
       id="text6"><tspan
         sodipodi:role="line"
         x="339.72086"
         y="85.992683"
         id="tspan7"
         style="stroke-width:0.841777">$q(3,5)$</tspan></text><text
       xml:space="preserve"
       style="font-size:10.0855px;fill:#000000;fill-opacity:1;stroke:#000000;stroke-width:0.841777;stroke-opacity:1"
       x="589.41693"
       y="117.89113"
       id="text6-04"><tspan
         sodipodi:role="line"
         x="589.41693"
         y="117.89113"
         id="tspan7-3"
         style="stroke-width:0.841777">$q(1.5,2.5)$</tspan></text><text
       xml:space="preserve"
       style="font-size:10.0855px;fill:#000000;fill-opacity:1;stroke:#000000;stroke-width:0.841777;stroke-opacity:1"
       x="357.944"
       y="113.31815"
       id="text6-0"><tspan
         sodipodi:role="line"
         x="357.944"
         y="113.31815"
         id="tspan7-5"
         style="stroke-width:0.841777">$p(5,3)$</tspan></text><text
       xml:space="preserve"
       style="font-size:10.0855px;fill:#000000;fill-opacity:1;stroke:#000000;stroke-width:0.841777;stroke-opacity:1"
       x="667.71704"
       y="86.343048"
       id="text6-0-2"><tspan
         sodipodi:role="line"
         x="667.71704"
         y="86.343048"
         id="tspan7-5-4"
         style="stroke-width:0.841777">$p(10,6)$</tspan></text><text
       xml:space="preserve"
       style="font-size:10.0855px;fill:#000000;fill-opacity:1;stroke:#000000;stroke-width:0.841777;stroke-opacity:1"
       x="696.47382"
       y="14.068083"
       id="text6-0-2-0"><tspan
         sodipodi:role="line"
         x="696.47382"
         y="14.068083"
         id="tspan7-5-4-2"
         style="stroke-width:0.841777">$s=\frac{1}{2}p+2q$</tspan></text><text
       xml:space="preserve"
       id="text13"
       style="white-space:pre;shape-inside:url(#rect13);fill:#000000;fill-opacity:1;stroke:#000000;stroke-width:1.00157;stroke-dasharray:none;stroke-dashoffset:0;stroke-opacity:1" /><path
       style="fill:#000000;fill-opacity:1;stroke:#000000;stroke-width:0.377134;stroke-dasharray:0.377134, 2.2628;stroke-dashoffset:0;stroke-opacity:1"
       d="M 594.80193,145.47027 V 122.92501"
       id="path14" /><path
       style="fill:#000000;fill-opacity:1;stroke:#000000;stroke-width:0.311948;stroke-dasharray:0.311948, 1.87169;stroke-dashoffset:0;stroke-opacity:1"
       d="m 581.41891,123.02797 h 13.53744"
       id="path15" /><path
       style="fill:#000000;fill-opacity:1;stroke:#000000;stroke-width:0.425959;stroke-dasharray:0.425959, 2.55575;stroke-dashoffset:0;stroke-opacity:1"
       d="M 669.74689,145.26438 V 92.167685"
       id="path16" /><path
       style="fill:#000000;fill-opacity:1;stroke:#000000;stroke-width:0.539911;stroke-dasharray:0.539911, 3.23947;stroke-dashoffset:0;stroke-opacity:1"
       d="m 581.6248,92.349943 h 88.2134"
       id="path17" /><circle
       style="fill:#000000;fill-opacity:1;stroke:#ff4714;stroke-width:0.841777;stroke-opacity:1"
       id="path4-7"
       cx="594.81073"
       cy="-123.00433"
       r="0.40214399"
       transform="scale(1,-1)" /><circle
       style="fill:#000000;fill-opacity:1;stroke:#ff4714;stroke-width:0.841777;stroke-opacity:1"
       id="path4-7-2"
       cx="669.76312"
       cy="-92.323479"
       r="0.40214399"
       transform="scale(1,-1)" /><path
       style="fill:#000000;fill-opacity:1;stroke:#0122ff;stroke-width:0.609497;stroke-dasharray:none;stroke-dashoffset:0;stroke-opacity:1"
       d="M 593.04516,85.464268 694.66568,9.4672555"
       id="path20" /><path
       d="m 689.19394,13.2125 -2.29629,-0.288271 -2.29625,-0.288297 0.16045,-0.125351 0.16046,-0.125365 4.60734,-1.380719 4.60747,-1.3808085 0.30734,-0.09085 0.30788,-0.09118 -0.15275,0.31727 -0.15235,0.3168195 -2.82391,4.082701 -2.82382,4.082638 -0.1229,0.07803 -0.12277,0.07794 0.49646,-2.334894 0.49641,-2.334842"
       style="fill:#201eff;fill-opacity:1;stroke:#1923fb;stroke-width:1.48921;stroke-opacity:1"
       id="path1-2-5-2-1-1"
       sodipodi:nodetypes="ccccccccccccccccc" /></g></svg>
