<?xml version="1.0" encoding="UTF-8" standalone="no"?>
<!-- Created with Inkscape (http://www.inkscape.org/) -->

<svg
   width="907"
   height="170"
   viewBox="0 0 907 170"
   version="1.1"
   id="svg1"
   xml:space="preserve"
   inkscape:export-filename="..\..\..\..\..\Desktop\insiemi sistemi vett.pdf"
   inkscape:export-xdpi="96"
   inkscape:export-ydpi="96"
   inkscape:version="1.3 (0e150ed6c4, 2023-07-21)"
   sodipodi:docname="insiemi sistemi vett.svg"
   xmlns:inkscape="http://www.inkscape.org/namespaces/inkscape"
   xmlns:sodipodi="http://sodipodi.sourceforge.net/DTD/sodipodi-0.dtd"
   xmlns="http://www.w3.org/2000/svg"
   xmlns:svg="http://www.w3.org/2000/svg"><sodipodi:namedview
     id="namedview1"
     pagecolor="#ffffff"
     bordercolor="#cccccc"
     borderopacity="1"
     inkscape:showpageshadow="false"
     inkscape:pageopacity="1"
     inkscape:pagecheckerboard="false"
     inkscape:deskcolor="#d1d1d1"
     inkscape:document-units="mm"
     inkscape:export-bgcolor="#ffffffff"
     inkscape:zoom="1.0449705"
     inkscape:cx="442.11773"
     inkscape:cy="157.42071"
     inkscape:window-width="1920"
     inkscape:window-height="1051"
     inkscape:window-x="-9"
     inkscape:window-y="-9"
     inkscape:window-maximized="1"
     inkscape:current-layer="layer1" /><defs
     id="defs1"><rect
       x="261.19705"
       y="167.81572"
       width="29.09708"
       height="45.337311"
       id="rect13" /><marker
       markerUnits="strokeWidth"
       refX="0"
       refY="5"
       markerWidth="4"
       markerHeight="3"
       orient="auto"
       viewBox="0 0 10 10"
       id="ArrowEnd"><path
         d="M 0,0 10,5 0,10 Z"
         id="path7" /></marker><marker
       markerUnits="strokeWidth"
       refX="10"
       refY="5"
       markerWidth="4"
       markerHeight="3"
       orient="auto"
       viewBox="0 0 10 10"
       id="ArrowStart"><path
         d="M 10,0 0,5 10,10 Z"
         id="path10" /></marker></defs><g
     inkscape:label="Livello 1"
     inkscape:groupmode="layer"
     id="layer1"><text
       xml:space="preserve"
       id="text13"
       style="white-space:pre;shape-inside:url(#rect13);fill:#000000;fill-opacity:1;stroke:#000000;stroke-width:1.00157;stroke-dasharray:none;stroke-dashoffset:0;stroke-opacity:1" /><g
       id="g2"
       transform="translate(82.004711,0.41546631)"><circle
         style="fill:none;stroke:#000000;stroke-opacity:1"
         id="path1"
         cx="318.03787"
         cy="84.584534"
         r="76.464424" /><circle
         style="fill:none;stroke:#000000;stroke-opacity:1"
         id="path2"
         cx="433.41116"
         cy="81.53949"
         r="68.005966" /></g><path
       style="fill:#e00000;fill-opacity:1;stroke:#e00000;stroke-width:2.94425;stroke-dasharray:none;stroke-opacity:1"
       d="m 461.09466,121.30753 c -4.18637,-5.61015 -8.77324,-15.38451 -10.75915,-22.927136 -1.45857,-5.539719 -1.74719,-8.151915 -1.77744,-16.087097 -0.0395,-10.351458 1.21141,-17.242559 4.63277,-25.522135 1.91781,-4.641039 7.73697,-14.740104 8.49336,-14.740104 0.7729,0 4.45726,6.109995 6.99034,11.59252 9.2884,20.103528 9.18748,43.123886 -0.27759,63.321832 -4.21659,8.99797 -3.95815,8.84359 -7.30229,4.36212 z"
       id="path4" /><path
       style="fill:#00a6e7;fill-opacity:1;stroke:#000000;stroke-width:1.40877;stroke-dasharray:none;stroke-opacity:1"
       d="m 510.24645,148.90941 c -15.43661,-0.96501 -31.49224,-8.39991 -42.52308,-19.69119 l -2.56979,-2.63047 1.72111,-2.79736 c 5.74775,-9.34197 9.71742,-23.2644 10.21118,-35.812646 0.62383,-15.854036 -3.292,-30.589831 -11.7444,-44.195754 l -2.48692,-4.003233 4.66315,-4.746303 c 9.93855,-10.115776 22.70419,-16.883472 36.53051,-19.366633 6.07712,-1.091432 16.95829,-1.091432 22.70588,-10e-7 28.85575,5.479521 50.29551,27.195091 55.04467,55.752763 1.2711,7.64344 0.79249,19.006388 -1.11161,26.39117 -5.12446,19.874417 -17.87161,35.754627 -35.64147,44.401587 -11.10858,5.40552 -21.98563,7.49911 -34.79923,6.69807 z"
       id="path5" /><path
       style="fill:#7000e7;fill-opacity:1;stroke:#000000;stroke-width:1.40877;stroke-dasharray:none;stroke-opacity:1"
       d="m 394.21447,160.44603 c -41.42028,-3.31016 -72.72337,-39.69553 -69.59604,-80.895471 2.62716,-34.61067 28.03531,-62.758016 62.4188,-69.148047 6.35929,-1.1818469 19.63577,-1.2025149 25.83805,-0.04022 12.36385,2.316954 23.19223,7.064927 33.00935,14.473761 3.91145,2.951917 10.06721,8.936296 12.93366,12.573572 l 2.0044,2.543424 -2.63576,3.916088 c -6.95889,10.339152 -10.55391,21.237175 -11.39367,34.538962 -0.99912,15.826188 4.56702,33.687984 14.21285,45.609094 l 2.25289,2.78431 -2.59766,3.43321 c -5.48372,7.24762 -12.12247,13.41484 -19.79484,18.3889 -7.41469,4.807 -15.51985,8.2056 -24.30122,10.18982 -4.41542,0.9977 -6.57831,1.26154 -15.17357,1.85093 -1.31583,0.0902 -4.54559,-0.008 -7.17724,-0.21833 z"
       id="path6" /><rect
       style="fill:#e00000;fill-opacity:1;stroke:#e00000;stroke-width:2.94425;stroke-dasharray:none;stroke-opacity:1"
       id="rect7"
       width="14.354472"
       height="14.354472"
       x="604.47278"
       y="54.092701" /><rect
       style="fill:#00a5e5;fill-opacity:1;stroke:#00a4e5;stroke-width:2.94425;stroke-dasharray:none;stroke-opacity:1"
       id="rect7-5"
       width="14.354472"
       height="14.354472"
       x="604.44952"
       y="78.122871" /><rect
       style="fill:#6f00e5;fill-opacity:1;stroke:#6f00e5;stroke-width:2.94425;stroke-dasharray:none;stroke-opacity:1"
       id="rect7-4"
       width="14.354472"
       height="14.354472"
       x="604.46692"
       y="102.39017" /><text
       xml:space="preserve"
       style="fill:#6f00e5;fill-opacity:1;stroke:#6f00e5;stroke-width:2.94425;stroke-dasharray:none;stroke-opacity:1"
       x="622.0271"
       y="65.552086"
       id="text8"><tspan
         sodipodi:role="line"
         id="tspan8"
         x="622.0271"
         y="65.552086"
         style="fill:#000000;fill-opacity:1;stroke:none">Basi di uno spazio vettoriale (lin.ind. e gen.)</tspan></text><text
       xml:space="preserve"
       style="fill:#6f00e5;fill-opacity:1;stroke:#6f00e5;stroke-width:2.94425;stroke-dasharray:none;stroke-opacity:1"
       x="622.20007"
       y="88.848785"
       id="text8-2"><tspan
         sodipodi:role="line"
         id="tspan8-9"
         x="622.20007"
         y="88.848785"
         style="fill:#000000;fill-opacity:1;stroke:none">Insieme dei sistemi di vettori generatori di V</tspan></text><text
       xml:space="preserve"
       style="fill:#6f00e5;fill-opacity:1;stroke:#6f00e5;stroke-width:2.94425;stroke-dasharray:none;stroke-opacity:1"
       x="622.48602"
       y="113.7058"
       id="text8-6"><tspan
         sodipodi:role="line"
         id="tspan8-8"
         x="622.48602"
         y="113.7058"
         style="fill:#000000;fill-opacity:1;stroke:none">Insieme dei sistemi di vettori lin. indipendenti</tspan></text></g></svg>
